<?xml version="1.0" encoding="UTF-8"?><svg id="Layer_1" xmlns="http://www.w3.org/2000/svg" viewBox="0 0 127 127"><defs><style>.cls-1{fill:none;}.cls-2{opacity:.5;}</style></defs><g id="Aptos" class="cls-2"><path d="M.67,58c.34-2.26,.56-4.49,1.02-6.68,.54-2.59,1.3-5.13,1.93-7.7,.18-.75,.54-1,1.33-1,11.22,.03,22.45,.02,33.67,.02,8.55,0,17.09-.02,25.64,.01,2.53,.01,4.57-.86,6.19-2.82,1.04-1.26,2.13-2.48,3.23-3.69,.71-.78,1.58-1.26,2.68-1.25,.93,0,1.74,.26,2.37,.97,1.29,1.43,2.63,2.82,3.86,4.31,1.43,1.73,3.11,2.53,5.43,2.51,11.36-.09,22.72-.03,34.07-.05,.7,0,1.02,.21,1.26,.9,1.62,4.6,2.45,9.35,2.99,14.17,.01,.1-.02,.2-.04,.38-.41,0-.8,0-1.19,0-14.79,0-29.57-.04-44.36,.03-2.3,.01-4.04-.65-5.44-2.44-.99-1.26-2.11-2.42-3.16-3.64-.83-.95-1.72-1.74-3.1-1.75-1.05,0-1.97,.23-2.71,.98-1.67,1.7-3.35,3.39-4.96,5.15-1.05,1.15-2.24,1.68-3.81,1.68-18.81-.03-37.61-.02-56.42-.03-.13,0-.25-.03-.47-.06Z"/><path d="M1.62,75.37c.52-.02,1.04-.07,1.57-.07,7.53,0,15.06,0,22.59,0,5.36,0,10.72-.04,16.08,.03,2.5,.03,4.45-.86,6.04-2.75,1.14-1.35,2.32-2.67,3.54-3.95,1.48-1.56,3.56-1.57,5.03-.01,1.45,1.54,2.86,3.12,4.22,4.74,1.2,1.42,2.66,1.98,4.51,1.98,17.63-.04,35.26-.03,52.89-.04,2.43,0,4.86,0,7.45,0-.4,1.66-.67,3.27-1.19,4.8-1.19,3.46-2.49,6.88-3.79,10.3-.08,.22-.52,.43-.8,.44-1.36,.06-2.73,.06-4.1,.06-19.35,0-38.69-.03-58.04,.01-2.01,0-3.5-.67-4.75-2.17-1.23-1.48-2.54-2.9-3.82-4.35-1.4-1.58-3.93-1.75-5.48-.31-1.08,1-2.08,2.08-3.11,3.14-.69,.71-1.36,1.44-2.03,2.18-.96,1.06-2.12,1.5-3.56,1.5-8.17-.03-16.34,0-24.52,0-1.07,0-2.14,0-3.21-.06-.24-.01-.58-.19-.68-.39-.48-1.01-.85-2.08-1.32-3.09-1.75-3.71-2.59-7.69-3.55-11.64-.02-.07,0-.15,.02-.35Z"/><path d="M113.76,25.64c-.82,0-1.64,0-2.45,0-2.92,0-5.84,0-8.76,.01-1.81,.01-3.24-.7-4.41-2.08-1.28-1.52-2.61-2.99-3.96-4.44-1.81-1.95-3.91-2.02-5.82-.15-1.66,1.63-3.25,3.34-4.84,5.05-.99,1.07-2.16,1.61-3.62,1.61-4.07,0-8.14,.02-12.22,.02-17.07,0-34.13-.01-51.2-.02-1.07,0-2.14,0-3.25-.11C23.92,11.88,37.68,3.24,54.92,1.08c24.09-3.01,43.61,5.69,58.92,24.21l-.08,.35Z"/><path d="M17.49,106.56c3.17,.1,4.99-1.82,6.72-3.89,.65-.78,1.33-1.54,2-2.3,1.8-2.07,4-2.11,5.85-.08,1.28,1.41,2.53,2.84,3.75,4.29,1.21,1.44,2.71,1.98,4.6,1.97,16.69-.05,33.38-.04,50.06-.04,5.41,0,10.82,0,16.23,0,.87,0,1.75,0,2.76,0-21.89,24.54-64.82,28.66-91.98,.05Z"/></g><circle class="cls-1" cx="63.5" cy="63.5" r="63.5"/></svg>