<?xml version="1.0" encoding="utf-8"?>
<!-- Generator: Adobe Illustrator 27.0.0, SVG Export Plug-In . SVG Version: 6.00 Build 0)  -->
<svg version="1.1" id="Layer_1" xmlns="http://www.w3.org/2000/svg" xmlns:xlink="http://www.w3.org/1999/xlink" x="0px" y="0px"
	 viewBox="0 0 127 127" style="enable-background:new 0 0 127 127;" xml:space="preserve">
<style type="text/css">
	.st0{fill:#7ABA4C;}
	.st1{fill:#FFFFFF;}
</style>
<circle class="st0" cx="63.5" cy="63.5" r="63.5"/>
<path class="st1" d="M63.5,14.5c4.2,0,8.1,2.3,9.9,6.1l31.2,62.4c2.7,5.5,0.5,12.1-5,14.9c-1.6,0.8-3.2,1.2-5,1.2H32.3
	c-6.1,0-11.1-5-11.1-11.1c0-1.7,0.4-3.4,1.2-5l31.2-62.4C55.4,16.9,59.3,14.5,63.5,14.5 M63.5,6.9c-7.1,0-13.6,4-16.8,10.3
	L15.5,79.6c-4.6,9.3-0.9,20.5,8.4,25.1c2.6,1.3,5.5,2,8.4,2h62.4c10.3,0,18.7-8.4,18.7-18.7c0-2.9-0.7-5.8-2-8.4L80.3,17.3
	C77.1,10.9,70.6,6.9,63.5,6.9z"/>
</svg>
