<?xml version="1.0" encoding="utf-8"?>
<!-- Generator: Adobe Illustrator 27.0.0, SVG Export Plug-In . SVG Version: 6.00 Build 0)  -->
<svg version="1.1" id="Layer_1" xmlns="http://www.w3.org/2000/svg" xmlns:xlink="http://www.w3.org/1999/xlink" x="0px" y="0px"
	 viewBox="0 0 1000 1000" style="enable-background:new 0 0 1000 1000;" xml:space="preserve">
<style type="text/css">
	.st0{fill:#FFFFFF;}
</style>
<path class="st0" d="M500,982.5c266.5,0,482.5-216,482.5-482.5c0-266.5-216-482.5-482.5-482.5c-266.5,0-482.5,216-482.5,482.5
	C17.5,766.5,233.5,982.5,500,982.5z"/>
<path d="M543.6,440.8l228.9-228.9L685.7,125L500.2,310.5L314.7,125l-86.9,86.8l228.9,228.9c12,12,27.7,18,43.4,18
	C515.9,458.8,531.6,452.8,543.6,440.8z M875,685.4L689.5,499.8L875,314.3l-86.9-86.8L559.2,456.4c-24,24-24,62.9,0,86.8l228.9,228.9
	L875,685.4L875,685.4z M499.8,689.5L685.4,875l86.8-86.8L543.3,559.2c-24-24-62.9-24-86.9,0L227.5,788.2l86.9,86.8L499.8,689.5z
	 M440.8,543.6c11.5-11.5,18-27.1,18-43.4c0-16.3-6.5-31.9-18-43.4L211.9,227.8L125,314.7l185.5,185.5L125,685.7l86.9,86.8
	L440.8,543.6L440.8,543.6z"/>
</svg>
