<?xml version="1.0" encoding="utf-8"?>
<!-- Generator: Adobe Illustrator 27.0.0, SVG Export Plug-In . SVG Version: 6.00 Build 0)  -->
<svg version="1.1" id="Layer_1" xmlns="http://www.w3.org/2000/svg" xmlns:xlink="http://www.w3.org/1999/xlink" x="0px" y="0px"
	 viewBox="0 0 1999.8 1999.8" style="enable-background:new 0 0 1999.8 1999.8;" xml:space="preserve">
<style type="text/css">
	.st0{fill:#FFFFFF;}
	.st1{fill:#EFB80B;}
	.st2{fill:#FEFEFE;}
</style>
<circle class="st0" cx="999.9" cy="999.9" r="999.9"/>
<path class="st1" d="M958.9,0h82c5.9,2,12,1.4,18,1.7c57.5,3.2,114.3,11.4,170.3,24.7c154.3,36.6,292.5,105.7,413.7,208
	c146.7,123.8,249.8,277.2,309.2,459.8c19.1,58.9,32.2,119.1,39.9,180.6c3.4,27.6,5.5,55.3,7.1,83.1c0.2,9,0.5,18,0.8,27v56
	c-1.6,0.8-0.9,2.3-1,3.6c-2.6,58.4-10.1,116.1-22.9,173.1c-38.6,172-117.3,323.5-235.6,454.1c-107.6,118.7-236.6,206.5-386.3,263.6
	c-72.9,27.8-148.2,46.4-225.6,56.4c-28.8,3.7-57.7,5.9-86.6,7.4c-9.3,0.2-18.7,0.5-28,0.8h-55c-0.7-1.4-2-0.9-3.1-1
	c-21.3-0.9-42.6-2.6-63.8-4.8c-55.8-5.9-110.6-16.4-164.5-31.8c-144.7-41.1-273.8-111.2-386.6-210.5
	c-138.6-121.9-236.4-270.9-293.5-446.6c-18.7-57.6-31.5-116.6-39.3-176.6c-3.7-28.8-5.9-57.7-7.4-86.6c-0.2-8.7-0.5-17.3-0.7-26
	c0-11,0-22,0-33c0.2-8.3,0.5-16.7,0.7-25c2.3-47.5,7.4-94.6,16.1-141.3C37.5,705.1,75.8,600,132.7,502
	c96.6-166.5,229.8-295.5,399.8-386c127.6-68,264-105.6,408.3-114.2C946.9,1.4,953,2,958.9,0z M869.5,1209.7c0,42.7,0,85.3-0.1,128
	c0,3.4,1,5.4,4,7.1c41.1,24,82.2,48,123.2,72.2c2.9,1.7,4.8,1.5,7.6-0.1c40.3-23.7,80.6-47.4,121.1-70.9c4.2-2.4,5.9-4.9,5.9-10
	c-0.2-84.5-0.1-169-0.2-253.4c0-3.9,1.2-5.9,4.5-7.8c72.3-42.3,144.5-84.7,216.7-127c3.1-1.8,4.4-3.7,4.4-7.4
	c-0.4-48.7-0.6-97.3-0.7-146c0-3.3-1-5-3.8-6.7c-41.2-24.1-82.4-48.4-123.5-72.7c-2.8-1.7-4.8-1.6-7.6,0.1
	c-72.4,42.8-144.8,85.4-217.1,128.2c-3.1,1.8-5.2,2-8.5,0.1c-71.9-42.8-144-85.5-215.9-128.3c-2.8-1.6-4.7-1.8-7.6-0.1
	c-41.2,24.4-82.5,48.8-123.9,73c-3,1.7-4,3.7-4,7.1c0.1,48.3,0.1,96.6,0,145c0,3.6,1,5.6,4.2,7.5c72.3,42.3,144.5,84.7,216.7,127
	c3.5,2,4.7,4.2,4.7,8.2C869.5,1125,869.5,1167.4,869.5,1209.7L869.5,1209.7z M774.9,1551.2v-5.9c0-47.8,0-95.6,0.1-143.4
	c0-4-1.2-6.2-4.7-8.2c-71.9-42.2-143.8-84.5-215.7-126.7c-3.5-2.1-4.6-4.4-4.6-8.3c-0.1-84.5-0.3-168.9-0.4-253.4
	c0-4-1.2-6.2-4.7-8.2c-32.6-19.1-65.1-38.4-97.6-57.6c-9.3-5.5-18.5-10.9-28.5-16.8v5.7c0,136.3,0,272.6-0.1,408.9
	c0,3.7,0.9,5.8,4.3,7.8c101.6,59.4,203,119,304.5,178.5C743.1,1532.6,758.6,1541.7,774.9,1551.2L774.9,1551.2z M1581,922.8
	c-2.2,1.2-3.7,2-5.1,2.8c-40.4,23.9-80.8,47.8-121.2,71.6c-3.5,2.1-4.6,4.3-4.6,8.3c-0.1,84.5-0.3,168.9-0.4,253.4
	c0,4-1.2,6.2-4.7,8.2c-71.9,42.2-143.8,84.5-215.7,126.7c-2.7,1.6-4.6,2.8-4.6,6.7c0.2,48.8,0.1,97.6,0.2,146.4
	c0,1.2-0.7,2.7,0.9,3.7c2-1.1,4-2.3,6-3.5c114.7-67.3,229.4-134.6,344.2-201.7c3.9-2.3,5.1-4.6,5.1-9
	c-0.1-135.8-0.1-271.6-0.1-407.3L1581,922.8L1581,922.8z M644.3,525.9c1.5,1,2.2,1.5,2.8,1.9c41.4,24.5,82.8,48.9,124.2,73.6
	c3.3,2,5.4,1.1,8.1-0.5c71.6-42.4,143.3-84.7,214.8-127.2c3.9-2.3,6.7-2.5,10.7-0.1c71.6,42.4,143.3,84.6,215,126.9
	c2.9,1.7,5.2,3,8.9,0.8c40.2-24,80.4-47.7,120.7-71.6c1.8-1.1,3.9-1.7,5.2-3.6c-0.9-1.7-2.6-2.2-4-3
	c-115.3-67.9-230.7-135.8-346-203.7c-3.8-2.2-6.4-2.5-10.3-0.1c-102.4,60.6-205,121-307.5,181.5C673,509,659,517.2,644.3,525.9
	L644.3,525.9z M680.2,658.6c-0.7-1.8-1.9-2.1-2.8-2.7c-41.6-24.5-83.2-49-124.7-73.5c-2.4-1.4-4-1.1-6.3,0.2
	c-41.2,24.5-82.5,48.9-123.8,73.2c-2.8,1.7-3.8,3.4-3.8,6.7c0.1,48.5,0.1,97,0,145.5c0,3.3,1.1,5,3.9,6.6
	c40.7,24,81.4,48.1,122.1,72.1c1.3,0.8,2.8,2.6,4.3,1.7c1.4-0.9,0.6-3.1,0.6-4.7c0-47.8,0.1-95.6,0-143.5c0-3.4,1-5.4,4-7.1
	c18.4-10.7,36.8-21.5,55.1-32.3C632.5,686.7,656.3,672.7,680.2,658.6L680.2,658.6z M1449.6,889.4c2.3-1.3,3.7-2,5.1-2.8
	c40.6-23.9,81.2-47.8,121.8-71.6c3.3-1.9,4.5-4,4.5-7.8c-0.2-48-0.2-96,0-144c0-3.8-1.2-5.9-4.5-7.8c-40.9-23.9-81.8-48-122.6-72.2
	c-3.1-1.8-5.3-2.1-8.5-0.2c-40.6,24.2-81.3,48.2-122,72.3c-1.4,0.8-3.2,1.2-3.8,3.2c2,1.2,3.9,2.4,5.9,3.6
	c39.8,23.6,79.6,47.2,119.5,70.6c3.5,2,4.7,4.3,4.7,8.2c-0.1,47.2-0.1,94.3-0.1,141.5L1449.6,889.4L1449.6,889.4z M868.8,1529.5
	c0,24.2,0,48.3,0,72.5c0,2.7,0.5,4.5,3.2,6c41.5,24.4,82.9,48.9,124.2,73.4c2.7,1.6,4.6,1.4,7.2-0.1c41.1-24.3,82.3-48.5,123.5-72.7
	c3.1-1.8,4.2-3.8,4.2-7.4c-0.1-47.8-0.1-95.6-0.1-143.4c0-5.7,0-5.7-5.1-2.7c-40.6,23.9-81.2,47.8-121.7,71.8
	c-3.2,1.9-5.6,2.1-9,0.1c-40.6-24.2-81.3-48.2-122-72.3c-3.6-2.1-4.5-2-4.5,2.5C868.9,1481.2,868.8,1505.3,868.8,1529.5
	L868.8,1529.5z M1130.8,658.3c-1.4-1-2.2-1.6-3-2.1c-41.7-24.6-83.5-49.1-125.2-73.8c-2.8-1.7-4.5-0.8-6.7,0.5
	c-40.8,24.2-81.7,48.3-122.5,72.5c-1.3,0.8-3.2,1.2-3.7,3.1c0.4,0.3,0.8,0.7,1.2,0.9c41.8,24.8,83.7,49.5,125.4,74.3
	c2.6,1.5,4.4,1.2,6.8-0.2c21.3-12.7,42.7-25.2,64.1-37.8C1088.2,683.4,1109.2,671,1130.8,658.3L1130.8,658.3z M1224.9,1286
	c2.3-1.3,3.9-2.1,5.4-3c40.3-23.6,80.7-47.3,121.1-70.8c3.3-1.9,4.5-3.9,4.5-7.8c-0.2-48-0.1-95.9-0.1-143.9c0-1.6,0.4-3.3-0.4-4.8
	c-1.2-0.3-2,0.4-2.8,0.9c-41.5,24.6-83.1,49.2-124.7,73.6c-2.6,1.5-3.1,3.3-3.1,6c0.1,37.6,0,75.3,0,112.9L1224.9,1286L1224.9,1286z
	 M644.2,1054.8c-0.1,1.8-0.2,2.7-0.2,3.6c0,49.1,0,98.3-0.1,147.4c0,3.1,1.3,4.4,3.6,5.8c41.2,24.1,82.4,48.2,123.7,72.4
	c1.1,0.6,2,1.8,3.7,1.1v-4.9c0-47.6,0-95.3,0.1-142.9c0-3.8-1.1-5.9-4.4-7.8c-35.5-20.8-70.8-41.8-106.2-62.7
	C657.9,1062.9,651.3,1059,644.2,1054.8L644.2,1054.8z"/>
<path class="st2" d="M1041.9,1999.1c0,0.2,0,0.5,0,0.8h-28C1023.2,1999.6,1032.6,1999.3,1041.9,1999.1z"/>
<path class="st2" d="M1999.1,957.9c0.2,0,0.5,0,0.8,0v27C1999.6,975.9,1999.3,966.9,1999.1,957.9z"/>
<path class="st2" d="M0.7,1041.9c-0.2,0-0.5,0-0.7,0c0-8.7,0-17.3,0-26C0.2,1024.6,0.5,1033.2,0.7,1041.9L0.7,1041.9z"/>
<path class="st2" d="M0,957.9c0.2,0,0.5,0,0.7,0c-0.2,8.3-0.5,16.7-0.7,25V957.9z"/>
<path class="st2" d="M774.9,1551.2c-16.3-9.6-31.8-18.6-47.3-27.7c-101.5-59.5-203-119.1-304.5-178.5c-3.4-2-4.3-4.1-4.3-7.8
	c0.1-136.3,0.1-272.6,0.1-408.9v-5.7c10,5.9,19.3,11.3,28.5,16.8c32.5,19.2,65,38.5,97.6,57.6c3.5,2,4.7,4.2,4.7,8.2
	c0.1,84.5,0.3,168.9,0.4,253.4c0,3.9,1.1,6.2,4.6,8.3c71.9,42.2,143.8,84.5,215.7,126.7c3.4,2,4.7,4.2,4.7,8.2
	c-0.2,47.8-0.1,95.6-0.1,143.4L774.9,1551.2L774.9,1551.2z"/>
<path class="st2" d="M1581,922.8v6.4c0,135.8,0,271.6,0.1,407.3c0,4.3-1.2,6.7-5.1,9c-114.8,67.1-229.5,134.4-344.2,201.7
	c-2,1.2-4,2.3-6,3.5c-1.7-1-0.9-2.5-0.9-3.7c0-48.8,0-97.6-0.2-146.4c0-3.8,1.9-5.2,4.6-6.7c71.9-42.2,143.7-84.6,215.7-126.7
	c3.5-2,4.7-4.2,4.7-8.2c0.1-84.5,0.3-168.9,0.4-253.4c0-3.9,1.1-6.2,4.6-8.3c40.5-23.7,80.8-47.7,121.2-71.6
	C1577.3,924.8,1578.8,924,1581,922.8L1581,922.8z"/>
<path class="st2" d="M680.2,658.6c-23.9,14.1-47.7,28.1-71.5,42.1c-18.4,10.8-36.7,21.7-55.1,32.3c-3,1.7-4,3.7-4,7.1
	c0.1,47.8,0.1,95.6,0,143.5c0,1.6,0.8,3.8-0.6,4.7c-1.5,1-3-0.9-4.3-1.7c-40.7-24-81.4-48.2-122.1-72.1c-2.8-1.6-3.9-3.3-3.9-6.6
	c0.1-48.5,0.1-97,0-145.5c0-3.3,1-5,3.8-6.7c41.3-24.3,82.6-48.7,123.8-73.2c2.2-1.3,3.8-1.7,6.3-0.2c41.5,24.6,83.2,49,124.7,73.5
	C678.3,656.5,679.5,656.8,680.2,658.6L680.2,658.6z"/>
<path class="st2" d="M1449.6,889.4v-6.9c0-47.2-0.1-94.3,0.1-141.5c0-4-1.2-6.2-4.7-8.2c-39.9-23.4-79.7-47-119.5-70.6
	c-2-1.2-4-2.4-5.9-3.6c0.7-2,2.5-2.4,3.8-3.2c40.7-24.1,81.4-48.1,122-72.3c3.2-1.9,5.4-1.7,8.5,0.2c40.8,24.2,81.7,48.2,122.6,72.2
	c3.3,1.9,4.5,4,4.5,7.8c-0.2,48-0.2,96,0,144c0,3.8-1.2,5.9-4.5,7.8c-40.7,23.8-81.2,47.7-121.8,71.6
	C1453.4,887.3,1451.9,888.1,1449.6,889.4L1449.6,889.4z"/>
<path class="st2" d="M868.8,1529.5c0-24.2,0.1-48.3-0.1-72.5c0-4.5,0.9-4.6,4.5-2.5c40.6,24.2,81.4,48.1,122,72.3
	c3.4,2,5.7,1.8,9-0.1c40.5-24,81.1-47.9,121.7-71.8c5.1-3,5.1-3,5.1,2.7c0,47.8,0,95.6,0.1,143.4c0,3.6-1.1,5.6-4.2,7.4
	c-41.2,24.1-82.4,48.4-123.5,72.7c-2.6,1.5-4.5,1.8-7.2,0.1c-41.3-24.6-82.7-49.1-124.2-73.4c-2.6-1.5-3.2-3.3-3.2-6
	C868.8,1577.8,868.8,1553.7,868.8,1529.5L868.8,1529.5z"/>
<path class="st2" d="M1224.9,1286v-36.8c0-37.6,0-75.3,0-112.9c0-2.7,0.5-4.5,3.1-6c41.6-24.5,83.1-49.1,124.7-73.6
	c0.8-0.5,1.6-1.3,2.8-0.9c0.8,1.5,0.4,3.2,0.4,4.8c0,48,0,95.9,0.1,143.9c0,3.8-1.2,5.8-4.5,7.8c-40.4,23.5-80.7,47.2-121.1,70.8
	C1228.8,1283.9,1227.2,1284.7,1224.9,1286L1224.9,1286z"/>
<path class="st2" d="M644.2,1054.8c7.1,4.2,13.6,8.1,20.2,11.9c35.4,20.9,70.7,41.9,106.2,62.7c3.3,1.9,4.4,4,4.4,7.8
	c-0.1,47.6-0.1,95.3-0.1,142.9v4.9c-1.7,0.7-2.7-0.5-3.7-1.1c-41.2-24.1-82.4-48.3-123.7-72.4c-2.3-1.3-3.6-2.7-3.6-5.8
	c0.1-49.1,0.1-98.3,0.1-147.4C644,1057.5,644.2,1056.6,644.2,1054.8L644.2,1054.8z"/>
</svg>
