<?xml version="1.0" encoding="UTF-8"?><svg id="squid_ava_evm" xmlns="http://www.w3.org/2000/svg" viewBox="0 0 545.85 542.65"><defs><style>.cls-1{fill:none;stroke:#010101;stroke-miterlimit:10;stroke-width:12px;}.cls-2{fill:#010101;}.cls-3{opacity:.75;}</style></defs><g class="cls-3"><path class="cls-2" d="M198.55,465.47l.21-4.95c3.47,.57,6.47-.18,8.88-2.58,2.87-2.87,3.04-5.73,.35-8.42-2.16-2.16-4.17-2.26-7.28-.35l-2.44,1.59c-5.41,3.43-9.55,3.39-13.47-.53-4.56-4.56-4.03-9.9,.88-14.81,3.5-3.5,7.04-4.7,11.35-3.93l-.32,4.84c-3.08-.53-5.44,.07-7.81,2.44-2.69,2.69-2.97,5.09-.46,7.6,2.05,2.05,4.03,1.98,6.97,.18l2.47-1.55c5.76-3.64,9.51-3.57,13.61,.53,4.92,4.91,4.56,10.57-.6,15.73-3.64,3.64-7.81,4.92-12.34,4.21Z"/><path class="cls-2" d="M236.63,434.67l-8.73-4.91-8.31,8.31,4.92,8.73-3.68,3.68-17.29-32.07,4.77-4.77,32.1,17.25-3.78,3.78Zm-22.77-12.59l-4.38-2.83-.46,.46,2.83,4.38,5.59,9.97,6.51-6.51-10.08-5.48Z"/><path class="cls-2" d="M228.74,399.78l21.39,21.39-3.75,3.75-21.39-21.39-6.54,6.54-3.29-3.29,16.83-16.83,3.29,3.29-6.54,6.54Z"/><path class="cls-2" d="M260.18,411.13l-24.68-24.68,14.32-14.32,3.29,3.29-10.57,10.57,7.21,7.21,9.55-9.55,3.25,3.25-9.55,9.55,7.64,7.64,10.57-10.57,3.29,3.29-14.32,14.32Z"/><path class="cls-2" d="M279.13,392.18l-24.68-24.68,3.75-3.75,21.39,21.39,8.98-8.98,3.29,3.29-12.73,12.73Z"/><path class="cls-2" d="M295.57,375.74l-24.68-24.68,3.75-3.75,21.39,21.39,8.98-8.98,3.29,3.29-12.73,12.73Z"/><path class="cls-2" d="M311.05,360.25l-3.01-3.01,3.01-3.01-18.67-18.67-3.01,3.01-3-3,9.76-9.76,3.01,3.01-3.01,3,18.67,18.67,3-3,3,3-9.76,9.76Z"/><path class="cls-2" d="M312.29,316.23l21.39,21.39-3.75,3.75-21.39-21.39-6.54,6.54-3.29-3.29,16.83-16.83,3.29,3.29-6.54,6.54Z"/><path class="cls-2" d="M343.72,327.58l-24.68-24.68,14.32-14.32,3.29,3.29-10.57,10.57,7.21,7.21,9.55-9.55,3.25,3.25-9.55,9.55,7.64,7.64,10.57-10.57,3.29,3.29-14.32,14.32Z"/><path class="cls-2" d="M345.49,276.46l10.01-10.01c3.82-3.82,8.1-3.57,12.2,.53,3.15,3.15,3.61,6.43,1.27,9.19l.42,.42c2.79-2.79,7.07-2.48,10.32,.78,4.24,4.24,4.88,9.33,1.45,12.76l-11,11-24.68-24.68Zm14.21,6.72l5.55-5.55c1.63-1.63,1.73-3.43-.21-5.38l-1.59-1.59c-1.94-1.94-3.75-1.84-5.37-.21l-5.55,5.55,7.18,7.18Zm10.93,10.93l6.15-6.15c1.77-1.77,1.84-3.68-.28-5.8l-1.63-1.63c-2.12-2.12-4.03-2.05-5.8-.28l-6.15,6.15,7.71,7.71Z"/><path class="cls-2" d="M394.95,276.36l-3.75,3.75-24.68-24.68,9.76-9.76c4.21-4.21,9.02-3.78,13.72,.92,3.82,3.82,4.77,7.67,2.76,11.24l15.06,5.66-4.17,4.17-14.36-5.8-4.42,4.42,10.08,10.08Zm-7.53-18.92c1.77-1.77,1.84-3.61-.21-5.66l-2.3-2.3c-2.05-2.05-3.89-1.98-5.66-.21l-5.69,5.69,8.17,8.17,5.69-5.69Z"/><path class="cls-2" d="M411.18,260.13l-3.01-3,3.01-3.01-18.67-18.67-3.01,3.01-3-3,9.76-9.76,3,3-3.01,3,18.67,18.67,3.01-3.01,3,3.01-9.76,9.76Z"/><path class="cls-2" d="M400.78,221.16l8.13-8.13c5.83-5.83,12.87-5.59,21.57,3.11s8.95,15.73,3.11,21.57l-8.13,8.13-24.68-24.68Zm29.52,13.26c3.22-3.22,3.04-7.35-.99-11.38l-5.73-5.73c-4.03-4.03-8.17-4.21-11.39-.99l-4.38,4.38,18.1,18.1,4.38-4.38Z"/><path class="cls-2" d="M457.85,206.17l-.42,.42c1.87,2.79,1.66,6.47-1.84,9.97-5.06,5.06-12.55,5.2-21.6-3.85-9.02-9.02-9.16-16.44-3.22-22.38,4.35-4.35,8.98-5.02,13.96-3.08l-1.27,4.88c-3.25-1.55-6.44-1.41-9.33,1.49-3.5,3.5-3.18,7.99,.85,12.02l6.01,6.01c4.03,4.03,8.52,4.35,12.02,.85,2.94-2.94,3.54-7,.5-10.04l-2.16-2.16-4.56,4.56-3.22-3.22,8.2-8.2,13.05,13.05-3.32,3.32-3.64-3.64Z"/><path class="cls-2" d="M469.72,201.58l-24.68-24.68,14.32-14.32,3.29,3.29-10.57,10.57,7.21,7.21,9.55-9.55,3.25,3.25-9.55,9.55,7.64,7.64,10.57-10.57,3.29,3.29-14.32,14.32Z"/></g><g class="cls-3"><line x1="23.1" y1="527.44" x2="536.32" y2="13.38"/><g><line class="cls-1" x1="50.48" y1="500.02" x2="508.94" y2="40.8"/><polygon class="cls-2" points="75.1 513.47 23.1 527.44 36.99 475.42 75.1 513.47"/><polygon class="cls-2" points="522.43 65.4 536.32 13.38 484.32 27.36 522.43 65.4"/></g></g><path class="cls-3" d="M235.45,330.44c4.92,4.92,9.72,9.72,14.62,14.62-5.02,5.02-9.88,9.88-14.89,14.89-4.83-4.83-9.64-9.64-14.74-14.74-1.21,1.21-2.29,2.29-3.36,3.36-3.38,3.38-6.72,6.8-10.18,10.09-.51,.49-1.99,.83-2.32,.51-4.67-4.48-9.22-9.09-13.94-13.82,5-5,9.81-9.81,14.86-14.86-17.42-17.42-34.7-34.7-52.05-52.05,5.1-5.1,9.96-9.96,15.02-15.02,3.06,3.06,6.07,5.95,8.93,8.99,1.14,1.21,2.28,1.51,3.9,1.34,27.9-2.89,51.56-14.64,70.88-34.82,18.06-18.87,28.51-41.44,30.94-67.54,.09-.96-.38-2.25-1.05-2.97-2.96-3.17-6.09-6.18-9.26-9.35,5.03-5.03,9.85-9.85,14.84-14.84,17.24,17.24,34.48,34.48,51.97,51.97,5.07-5.07,9.98-9.98,14.97-14.97,5.04,5.04,9.84,9.84,14.85,14.85-4.93,4.93-9.79,9.79-14.85,14.85,5.05,5.05,9.89,9.89,14.81,14.81-5.02,5.02-9.83,9.83-14.88,14.88-4.84-4.84-9.68-9.68-14.64-14.64-34.87,34.87-69.49,69.49-104.43,104.43Zm-15.02-15.17c4.97-4.97,9.77-9.77,14.64-14.64-.3-.42-.49-.78-.77-1.05-6.97-6.98-13.91-13.99-20.97-20.88-.6-.58-2.06-.68-2.99-.46-6.63,1.57-13.22,3.27-19.83,4.94-.51,.13-1.01,.33-1.64,.53,10.56,10.56,20.96,20.96,31.55,31.55Zm72.55-135.82c-.15,.63-.24,1.01-.34,1.39-1.73,6.84-3.51,13.66-5.14,20.53-.19,.82,.13,2.12,.72,2.72,6.73,6.86,13.54,13.64,20.35,20.43,.44,.44,.98,.77,1.44,1.13,4.94-4.94,9.74-9.74,14.58-14.58-10.54-10.54-20.96-20.96-31.61-31.61Zm-35.61,98.88c-.15-.33-.2-.6-.35-.75-4.81-4.84-9.59-9.7-14.5-14.44-.42-.41-1.8-.3-2.45,.07-4.49,2.57-8.9,5.29-13.34,7.93-1.15,.69-2.36,1.28-3.61,1.95,6.69,6.69,13.18,13.18,19.75,19.75,4.91-4.91,9.71-9.71,14.51-14.51Zm30.11-30.15c5.07-5.07,9.87-9.87,14.69-14.69-6.62-6.62-13.13-13.13-19.49-19.49-3.55,5.81-7.04,11.46-10.44,17.17-.27,.45-.18,1.51,.18,1.87,4.93,5.05,9.94,10.02,15.06,15.14Zm-22.55-7.33c-5,5-9.8,9.8-14.63,14.63,5.01,5.01,9.97,9.97,14.94,14.94,4.94-4.94,9.74-9.74,14.63-14.63-5.03-5.03-9.95-9.95-14.94-14.94Z"/></svg>