<?xml version="1.0" encoding="UTF-8"?><svg id="squid_ava_evm" xmlns="http://www.w3.org/2000/svg" viewBox="0 0 406.13 393.1"><defs><style>.cls-1{fill:none;stroke:#010101;stroke-miterlimit:10;stroke-width:12px;}.cls-2{fill:#010101;}.cls-3{opacity:.75;}</style></defs><g class="cls-3"><path class="cls-2" d="M25.01,101.8l4.95,.21c-.57,3.46,.18,6.47,2.58,8.88,2.86,2.86,5.73,3.04,8.42,.35,2.16-2.16,2.26-4.17,.35-7.28l-1.59-2.44c-3.43-5.41-3.39-9.55,.53-13.47,4.56-4.56,9.9-4.03,14.81,.88,3.5,3.5,4.7,7.04,3.92,11.35l-4.84-.32c.53-3.08-.07-5.45-2.44-7.81-2.69-2.69-5.09-2.97-7.6-.46-2.05,2.05-1.98,4.03-.18,6.97l1.56,2.47c3.64,5.76,3.57,9.51-.53,13.61-4.92,4.91-10.57,4.56-15.73-.6-3.64-3.64-4.92-7.81-4.21-12.34Z"/><path class="cls-2" d="M55.8,139.88l4.92-8.73-8.31-8.31-8.73,4.91-3.68-3.68,32.07-17.29,4.77,4.77-17.25,32.1-3.78-3.78Zm12.59-22.77l2.83-4.38-.46-.46-4.38,2.83-9.97,5.59,6.51,6.51,5.48-10.08Z"/><path class="cls-2" d="M90.7,131.99l-21.39,21.39-3.75-3.75,21.39-21.39-6.54-6.54,3.29-3.29,16.83,16.83-3.29,3.29-6.54-6.54Z"/><path class="cls-2" d="M79.35,163.42l24.68-24.68,14.32,14.32-3.29,3.29-10.57-10.57-7.21,7.21,9.55,9.55-3.25,3.25-9.55-9.55-7.64,7.64,10.57,10.57-3.29,3.29-14.32-14.32Z"/><path class="cls-2" d="M98.3,182.37l24.68-24.68,3.75,3.75-21.39,21.39,8.98,8.98-3.29,3.29-12.73-12.73Z"/><path class="cls-2" d="M114.74,198.81l24.68-24.68,3.75,3.75-21.39,21.39,8.98,8.98-3.29,3.29-12.73-12.73Z"/><path class="cls-2" d="M130.22,214.3l3.01-3,3.01,3.01,18.67-18.67-3.01-3.01,3-3.01,9.76,9.76-3.01,3-3-3-18.67,18.67,3,3-3,3.01-9.76-9.76Z"/><path class="cls-2" d="M174.24,215.54l-21.39,21.39-3.75-3.75,21.39-21.39-6.54-6.54,3.29-3.29,16.83,16.83-3.29,3.29-6.54-6.54Z"/><path class="cls-2" d="M162.89,246.97l24.68-24.68,14.32,14.32-3.29,3.29-10.57-10.57-7.21,7.21,9.55,9.55-3.25,3.25-9.55-9.55-7.64,7.64,10.57,10.57-3.29,3.29-14.32-14.32Z"/><path class="cls-2" d="M214.02,248.73l10.01,10.01c3.82,3.82,3.57,8.1-.53,12.2-3.15,3.15-6.43,3.61-9.19,1.27l-.42,.42c2.79,2.79,2.48,7.07-.78,10.33-4.24,4.24-9.33,4.88-12.76,1.45l-11-11,24.68-24.68Zm-17.64,25.14l6.15,6.15c1.77,1.77,3.68,1.84,5.8-.28l1.63-1.63c2.12-2.12,2.05-4.03,.28-5.8l-6.15-6.15-7.71,7.71Zm10.93-10.93l5.55,5.55c1.63,1.63,3.43,1.73,5.37-.21l1.59-1.59c1.94-1.94,1.84-3.75,.21-5.37l-5.55-5.55-7.18,7.18Z"/><path class="cls-2" d="M214.12,298.2l-3.75-3.75,24.68-24.68,9.76,9.76c4.21,4.21,3.78,9.02-.92,13.72-3.82,3.82-7.67,4.77-11.24,2.76l-5.66,15.06-4.17-4.17,5.8-14.35-4.42-4.42-10.08,10.08Zm18.92-7.53c1.77,1.77,3.61,1.84,5.66-.21l2.3-2.3c2.05-2.05,1.98-3.89,.21-5.66l-5.69-5.69-8.17,8.17,5.69,5.69Z"/><path class="cls-2" d="M230.35,314.43l3-3.01,3.01,3.01,18.67-18.67-3.01-3,3.01-3,9.76,9.76-3,3.01-3-3.01-18.67,18.67,3.01,3.01-3.01,3-9.76-9.76Z"/><path class="cls-2" d="M269.31,304.03l8.13,8.13c5.83,5.83,5.59,12.87-3.11,21.57s-15.73,8.95-21.57,3.11l-8.13-8.13,24.68-24.68Zm-13.26,29.52c3.22,3.22,7.35,3.04,11.38-.99l5.73-5.73c4.03-4.03,4.21-8.17,.99-11.38l-4.38-4.38-18.1,18.1,4.38,4.38Z"/><path class="cls-2" d="M284.3,361.1l-.42-.42c-2.79,1.87-6.47,1.66-9.97-1.84-5.06-5.06-5.2-12.55,3.85-21.6,9.02-9.02,16.44-9.16,22.38-3.22,4.35,4.35,5.02,8.98,3.08,13.97l-4.88-1.27c1.55-3.25,1.41-6.43-1.49-9.33-3.5-3.5-7.99-3.18-12.02,.85l-6.01,6.01c-4.03,4.03-4.35,8.52-.85,12.02,2.94,2.94,7,3.54,10.04,.5l2.16-2.16-4.56-4.56,3.22-3.22,8.2,8.2-13.05,13.05-3.32-3.32,3.64-3.64Z"/><path class="cls-2" d="M288.9,372.97l24.68-24.68,14.32,14.32-3.29,3.29-10.57-10.57-7.21,7.21,9.55,9.55-3.25,3.25-9.55-9.55-7.64,7.64,10.57,10.57-3.29,3.29-14.32-14.32Z"/></g><g class="cls-3"><line x1="60.68" y1="16.71" x2="388.55" y2="345.31"/><g><line class="cls-1" x1="88.05" y1="44.15" x2="361.18" y2="317.88"/><polygon class="cls-2" points="74.56 68.74 60.68 16.71 112.68 30.71 74.56 68.74"/><polygon class="cls-2" points="336.55 331.32 388.55 345.31 374.67 293.29 336.55 331.32"/></g></g><path class="cls-3" d="M167.58,141.35c-4.92,4.92-9.72,9.72-14.62,14.62-5.02-5.02-9.88-9.88-14.89-14.89,4.83-4.83,9.64-9.64,14.74-14.74-1.21-1.21-2.29-2.29-3.36-3.36-3.38-3.38-6.8-6.72-10.09-10.18-.49-.51-.83-1.99-.51-2.32,4.48-4.67,9.09-9.22,13.82-13.94,5,5,9.81,9.81,14.86,14.86,17.42-17.42,34.7-34.7,52.05-52.05,5.1,5.1,9.96,9.96,15.02,15.02-3.06,3.06-5.95,6.07-8.99,8.93-1.21,1.14-1.51,2.28-1.34,3.9,2.89,27.9,14.64,51.56,34.82,70.88,18.87,18.06,41.44,28.51,67.54,30.94,.96,.09,2.25-.38,2.97-1.05,3.17-2.96,6.18-6.09,9.35-9.26,5.03,5.03,9.85,9.85,14.84,14.84-17.24,17.24-34.48,34.48-51.97,51.97,5.07,5.07,9.98,9.98,14.97,14.97-5.04,5.04-9.84,9.84-14.85,14.85-4.93-4.93-9.79-9.79-14.85-14.85-5.05,5.05-9.89,9.89-14.81,14.81-5.02-5.02-9.83-9.83-14.88-14.88,4.84-4.84,9.68-9.68,14.64-14.64-34.87-34.87-69.49-69.49-104.43-104.43Zm15.17-15.02c4.97,4.97,9.77,9.77,14.64,14.64,.42-.3,.78-.49,1.05-.77,6.98-6.97,13.99-13.91,20.88-20.97,.58-.6,.68-2.06,.46-2.99-1.57-6.63-3.27-13.22-4.94-19.83-.13-.51-.33-1.01-.53-1.64-10.56,10.56-20.96,20.96-31.55,31.55Zm135.82,72.55c-.63-.15-1.01-.24-1.39-.34-6.84-1.73-13.66-3.51-20.53-5.14-.82-.19-2.12,.13-2.72,.72-6.86,6.73-13.64,13.54-20.43,20.35-.44,.44-.77,.98-1.13,1.44,4.94,4.94,9.74,9.74,14.58,14.58,10.54-10.54,20.96-20.96,31.61-31.61Zm-98.88-35.61c.33-.15,.6-.2,.75-.35,4.84-4.81,9.7-9.59,14.44-14.5,.41-.42,.3-1.8-.07-2.45-2.57-4.49-5.29-8.9-7.93-13.34-.69-1.15-1.28-2.36-1.95-3.61-6.69,6.69-13.18,13.18-19.75,19.75,4.91,4.91,9.71,9.71,14.51,14.51Zm30.15,30.11c5.07,5.07,9.87,9.87,14.69,14.69,6.62-6.62,13.13-13.13,19.49-19.49-5.81-3.55-11.46-7.04-17.17-10.44-.45-.27-1.51-.18-1.87,.18-5.05,4.93-10.02,9.94-15.14,15.06Zm7.33-22.55c-5-5-9.8-9.8-14.63-14.63-5.01,5.01-9.97,9.97-14.94,14.94,4.94,4.94,9.74,9.74,14.63,14.63,5.03-5.03,9.95-9.95,14.94-14.94Z"/></svg>