<?xml version="1.0" encoding="UTF-8"?><svg id="squid_ava_evm" xmlns="http://www.w3.org/2000/svg" viewBox="0 0 786.56 806.83"><defs><style>.cls-1{fill:none;stroke:#010101;stroke-miterlimit:10;stroke-width:12px;}.cls-2{fill:#010101;}.cls-3{opacity:.75;}</style></defs><g class="cls-3"><path class="cls-2" d="M293.98,594.27l.1-4.95c3.48,.49,6.47-.32,8.82-2.78,2.8-2.93,2.91-5.79,.17-8.42-2.2-2.11-4.22-2.17-7.29-.19l-2.4,1.64c-5.33,3.55-9.47,3.61-13.48-.23-4.66-4.46-4.25-9.81,.55-14.83,3.42-3.58,6.93-4.86,11.26-4.17l-.21,4.85c-3.09-.46-5.44,.19-7.76,2.61-2.63,2.75-2.86,5.16-.29,7.61,2.1,2,4.07,1.89,6.97,.02l2.44-1.61c5.68-3.77,9.43-3.78,13.62,.23,5.02,4.8,4.79,10.47-.25,15.74-3.56,3.72-7.7,5.09-12.24,4.48Z"/><path class="cls-2" d="M331.36,562.64l-8.84-4.72-8.12,8.49,5.11,8.62-3.59,3.76-18-31.68,4.67-4.88,32.48,16.54-3.7,3.87Zm-23.04-12.08l-4.45-2.73-.45,.47,2.92,4.32,5.81,9.85,6.36-6.65-10.2-5.26Z"/><path class="cls-2" d="M322.71,527.93l21.86,20.91-3.66,3.83-21.86-20.91-6.39,6.69-3.36-3.21,16.45-17.2,3.36,3.21-6.39,6.68Z"/><path class="cls-2" d="M354.38,538.58l-25.22-24.12,14-14.63,3.36,3.21-10.33,10.8,7.37,7.05,9.33-9.76,3.32,3.18-9.33,9.76,7.8,7.47,10.34-10.8,3.36,3.21-14,14.63Z"/><path class="cls-2" d="M372.91,519.21l-25.22-24.13,3.66-3.83,21.86,20.91,8.78-9.18,3.36,3.21-12.44,13.01Z"/><path class="cls-2" d="M388.98,502.41l-25.22-24.13,3.66-3.83,21.86,20.91,8.78-9.18,3.36,3.21-12.44,13.01Z"/><path class="cls-2" d="M404.12,486.59l-3.07-2.94,2.94-3.07-19.08-18.25-2.94,3.07-3.07-2.94,9.54-9.97,3.07,2.94-2.94,3.07,19.08,18.25,2.94-3.07,3.07,2.94-9.54,9.97Z"/><path class="cls-2" d="M404.38,442.55l21.86,20.91-3.66,3.83-21.86-20.91-6.39,6.69-3.36-3.21,16.45-17.2,3.36,3.21-6.39,6.68Z"/><path class="cls-2" d="M436.05,453.2l-25.22-24.12,14-14.63,3.36,3.21-10.33,10.8,7.37,7.05,9.33-9.76,3.32,3.18-9.33,9.76,7.8,7.47,10.34-10.8,3.36,3.21-14,14.63Z"/><path class="cls-2" d="M436.68,402.05l9.78-10.23c3.73-3.9,8.02-3.75,12.21,.26,3.22,3.08,3.75,6.35,1.48,9.16l.43,.42c2.73-2.85,7.02-2.63,10.34,.55,4.34,4.15,5.09,9.22,1.73,12.73l-10.75,11.24-25.22-24.13Zm14.36,6.4l5.43-5.67c1.59-1.66,1.66-3.47-.33-5.37l-1.63-1.56c-1.99-1.9-3.79-1.75-5.38-.09l-5.43,5.67,7.33,7.02Zm11.17,10.68l6.01-6.29c1.73-1.81,1.76-3.72-.41-5.79l-1.66-1.59c-2.17-2.07-4.07-1.96-5.8-.15l-6.01,6.29,7.88,7.53Z"/><path class="cls-2" d="M486.13,400.85l-3.66,3.83-25.22-24.13,9.54-9.97c4.11-4.3,8.93-3.98,13.74,.61,3.9,3.73,4.94,7.57,3.01,11.18l15.18,5.32-4.08,4.26-14.48-5.48-4.32,4.52,10.3,9.85Zm-7.95-18.75c1.73-1.81,1.76-3.65-.34-5.65l-2.35-2.25c-2.1-2.01-3.93-1.89-5.66-.09l-5.57,5.82,8.35,7.98,5.56-5.82Z"/><path class="cls-2" d="M501.99,384.26l-3.07-2.94,2.94-3.07-19.08-18.25-2.94,3.07-3.07-2.94,9.54-9.97,3.07,2.94-2.94,3.07,19.08,18.25,2.94-3.07,3.07,2.94-9.54,9.97Z"/><path class="cls-2" d="M490.74,345.54l7.95-8.31c5.7-5.96,12.74-5.87,21.63,2.63s9.29,15.53,3.59,21.49l-7.95,8.31-25.22-24.13Zm29.81,12.6c3.15-3.29,2.88-7.42-1.24-11.36l-5.85-5.6c-4.12-3.94-8.26-4.03-11.4-.74l-4.29,4.48,18.5,17.7,4.29-4.48Z"/><path class="cls-2" d="M547.46,329.29l-.41,.43c1.93,2.75,1.8,6.43-1.62,10.01-4.94,5.17-12.43,5.47-21.68-3.37-9.21-8.81-9.52-16.23-3.71-22.3,4.25-4.45,8.87-5.22,13.89-3.39l-1.16,4.91c-3.29-1.48-6.46-1.27-9.3,1.69-3.42,3.58-3,8.06,1.11,12l6.14,5.88c4.12,3.94,8.62,4.16,12.04,.58,2.87-3,3.38-7.08,.27-10.05l-2.21-2.11-4.46,4.66-3.29-3.15,8.02-8.38,13.33,12.75-3.25,3.4-3.72-3.56Z"/><path class="cls-2" d="M559.23,324.43l-25.22-24.13,14-14.63,3.36,3.21-10.34,10.8,7.37,7.05,9.33-9.76,3.32,3.18-9.33,9.76,7.81,7.47,10.33-10.8,3.36,3.21-14,14.63Z"/></g><g class="cls-3"><line x1="18.41" y1="788.51" x2="759.85" y2="16.29"/><g><line class="cls-1" x1="45.25" y1="760.55" x2="733.01" y2="44.24"/><polygon class="cls-2" points="70.13 773.52 18.41 788.51 31.28 736.22 70.13 773.52"/><polygon class="cls-2" points="746.98 68.57 759.85 16.29 708.13 31.28 746.98 68.57"/></g></g><path class="cls-3" d="M327.23,447.15c5.03,4.81,9.94,9.5,14.94,14.29-4.91,5.13-9.66,10.1-14.56,15.22-4.94-4.73-9.85-9.42-15.06-14.41-1.19,1.24-2.24,2.34-3.29,3.44-3.3,3.45-6.57,6.94-9.95,10.31-.5,.5-1.97,.87-2.31,.56-4.77-4.38-9.42-8.89-14.25-13.5,4.89-5.11,9.59-10.03,14.53-15.19-17.81-17.03-35.46-33.92-53.19-50.88,4.99-5.21,9.74-10.18,14.69-15.35,3.13,2.99,6.2,5.82,9.13,8.79,1.17,1.18,2.31,1.46,3.93,1.26,27.83-3.51,51.22-15.78,70.09-36.39,17.64-19.26,27.59-42.06,29.43-68.21,.07-.97-.43-2.25-1.12-2.94-3.03-3.1-6.22-6.04-9.46-9.14l14.5-15.16c17.62,16.86,35.24,33.71,53.11,50.8,4.96-5.18,9.75-10.19,14.63-15.29,5.15,4.93,10.06,9.62,15.18,14.52-4.82,5.04-9.57,10.01-14.52,15.18,5.16,4.94,10.11,9.67,15.14,14.48-4.9,5.13-9.61,10.05-14.55,15.21-4.95-4.73-9.9-9.47-14.96-14.31-34.08,35.63-67.94,71.02-102.08,106.72Zm-15.35-14.83c4.86-5.08,9.56-9.99,14.31-14.96-.31-.41-.51-.77-.79-1.04-7.12-6.83-14.22-13.68-21.43-20.41-.61-.57-2.07-.63-3-.39-6.59,1.71-13.15,3.56-19.71,5.38-.51,.14-1,.35-1.63,.57,10.79,10.33,21.42,20.49,32.25,30.85Zm69.51-137.39c-.14,.64-.22,1.02-.31,1.4-1.58,6.87-3.21,13.74-4.68,20.63-.18,.83,.18,2.12,.78,2.7,6.88,6.71,13.84,13.34,20.8,19.97,.45,.43,.99,.75,1.46,1.1,4.83-5.05,9.52-9.95,14.26-14.9-10.77-10.31-21.42-20.49-32.3-30.9Zm-33.4,99.65c-.16-.33-.21-.59-.37-.75-4.91-4.73-9.81-9.49-14.81-14.12-.43-.4-1.81-.26-2.45,.13-4.43,2.67-8.78,5.48-13.16,8.22-1.14,.71-2.33,1.33-3.57,2.03,6.84,6.54,13.47,12.88,20.18,19.31,4.8-5.02,9.49-9.92,14.18-14.83Zm29.43-30.81c4.96-5.18,9.65-10.09,14.36-15.01-6.77-6.47-13.42-12.83-19.92-19.05-3.42,5.89-6.78,11.62-10.06,17.4-.26,.45-.14,1.51,.22,1.86,5.04,4.93,10.16,9.79,15.4,14.8Zm-22.71-6.82c-4.89,5.11-9.58,10.02-14.3,14.95,5.12,4.9,10.18,9.74,15.27,14.6,4.83-5.05,9.52-9.95,14.3-14.95-5.14-4.92-10.16-9.72-15.27-14.6Z"/></svg>