<?xml version="1.0" encoding="utf-8"?>
<!-- Generator: Adobe Illustrator 27.0.0, SVG Export Plug-In . SVG Version: 6.00 Build 0)  -->
<svg version="1.1" id="Layer_1" xmlns="http://www.w3.org/2000/svg" xmlns:xlink="http://www.w3.org/1999/xlink" x="0px" y="0px"
	 viewBox="0 0 250 250" style="enable-background:new 0 0 250 250;" xml:space="preserve">
<style type="text/css">
	.st0{fill-rule:evenodd;clip-rule:evenodd;fill:#FFFFFF;}
	.st1{fill-rule:evenodd;clip-rule:evenodd;fill:#FFC780;}
	.st2{fill-rule:evenodd;clip-rule:evenodd;fill:url(#SVGID_1_);}
</style>
<circle class="st0" cx="124.9" cy="125.1" r="124.9"/>
<path class="st1" d="M128,5.4c20.7,0,41,5.3,59.1,15.3c18,10.1,33.2,24.6,43.9,42.2l0,0c-16.6,0-32.6,6.6-44.4,18.3
	c-11.8,11.7-18.4,27.6-18.4,44.2s6.6,32.5,18.4,44.2c11.8,11.7,27.7,18.3,44.4,18.3c-10.9,17.9-26.4,32.6-44.8,42.7
	c-18.4,10.1-39.2,15.2-60.2,14.8c-21-0.4-41.6-6.2-59.7-17s-33-26-43.3-44.2c-10.3-18.3-15.6-38.9-15.4-59.8
	c0.2-20.9,5.9-41.5,16.5-59.5C34.6,46.7,49.8,31.7,68,21.3C86.3,10.9,107,5.4,128,5.4L128,5.4z"/>
<linearGradient id="SVGID_1_" gradientUnits="userSpaceOnUse" x1="159.4537" y1="40.5661" x2="159.4537" y2="210.457" gradientTransform="matrix(1 0 0 -1 0 251)">
	<stop  offset="0" style="stop-color:#FFC780"/>
	<stop  offset="1" style="stop-color:#964B48"/>
</linearGradient>
<path class="st2" d="M231,62.9c-16.6,0-32.6,6.6-44.4,18.3c-11.8,11.7-18.4,27.6-18.4,44.2c0,16.6,6.6,32.5,18.4,44.2
	c11.8,11.7,27.7,18.3,44.4,18.3l-0.4,0.6c-12.3,11.1-27.5,18.3-43.8,20.9c-16.3,2.6-33.1,0.4-48.2-6.3
	c-15.1-6.7-27.9-17.6-36.9-31.4c-9-13.8-13.7-30-13.7-46.4c0.1-16.5,4.9-32.6,14-46.3c9.1-13.8,22-24.6,37.1-31.2
	c15.2-6.6,31.9-8.7,48.2-6C203.6,44.4,218.8,51.8,231,62.9z"/>
</svg>
