<?xml version="1.0" encoding="UTF-8"?><svg id="Layer_1" xmlns="http://www.w3.org/2000/svg" viewBox="0 0 400 400"><defs><style>.cls-1{fill:#ec4e33;}.cls-2{fill:#fefcfc;}.cls-3{fill:#fefdfd;}</style></defs><path class="cls-1" d="M181.01,.1h34.98c6.12,2.11,12.61,2,18.9,3.14,107.02,19.33,179.11,123.34,159.83,230.71-18.94,105.5-117.95,176.85-224.49,161.78C87.37,384,20.09,319.89,3.8,237.32c-1.33-6.76-1.38-13.75-3.71-20.33v-36.98c1.89-2.17,1.4-4.98,1.73-7.47C12.99,88.37,76.89,20.35,160.19,3.85c6.93-1.37,14.08-1.4,20.82-3.75Zm-45.39,192.17c-.37-4.78,.13-8.9,.87-12.94,8.89-48.31,55.31-75.54,102.23-59.98,3.05,1.01,6.07,1.84,7.56-1.99,1.34-3.46-1.13-5.02-3.82-6.44-42.84-22.65-96.78-9.02-123.79,31.11-9.48,14.08-15.61,29.69-21.55,45.38-6.05,15.97-15.38,29.27-28.72,39.99-8.03,6.45-16.65,12.26-23.56,20.02-2.57,2.89-5.01,6.14-3.33,10.34,1.65,4.1,5.45,4.98,9.39,5.45,9.34,1.11,18.63-.17,27.91-.76,16.6-1.06,32.49,.95,47.47,8.69,8.26,4.27,16.72,8.19,25.15,12.13,28.99,13.52,58.33,16.73,88.09,2.53,23.28-11.1,39.46-28.93,49.19-52.72,.13-.31,.13-.66,.27-.96,1.45-3.12,1.48-6.07-2.1-7.52-3.16-1.28-4.77,1.03-6.14,3.56-8.81,16.22-21.6,28.12-38.7,35.23-40.34,16.77-87.33-3.88-101.94-44.62-1.34-3.73-.91-5.6,2.99-7.07,5.89-2.23,11.53-5.14,17.33-7.61,39.65-16.89,80.05-31.61,121.81-42.48,4.33-1.13,6.64-.34,7.71,4.05,1.14,4.68,2.48,9.31,3.71,13.97,1.24,4.71,2.87,5.56,7.03,3.19,7.95-4.52,15.94-9,23.67-13.87,8.87-5.59,17.62-11.45,24.76-19.26,3.07-3.36,7.17-7.03,5.13-12.14-2.11-5.29-7.66-5.26-12.44-5.57-16.3-1.07-32.17,2.07-47.92,5.6-48.17,10.8-94.41,27.48-139.79,46.66-6.06,2.56-12.07,5.26-18.47,8.05Z"/><path class="cls-3" d="M.1,216.99c2.33,6.57,2.37,13.56,3.71,20.33,16.28,82.57,83.57,146.68,166.43,158.4,106.54,15.07,205.55-56.28,224.49-161.78C414,126.58,341.91,22.56,234.89,3.24c-6.29-1.14-12.78-1.02-18.9-3.14C275.97,.1,335.94,.14,395.91,0c3.42,0,4.1,.67,4.09,4.09-.11,130.6-.11,261.21,0,391.81,0,3.42-.67,4.1-4.09,4.09-130.6-.11-261.21-.11-391.81,0-3.42,0-4.1-.67-4.1-4.09,.13-59.64,.1-119.28,.1-178.91Z"/><path class="cls-3" d="M181.01,.1c-6.74,2.35-13.89,2.38-20.82,3.75C76.89,20.35,12.99,88.37,1.83,172.54c-.33,2.49,.16,5.29-1.73,7.47C.1,121.45,.14,62.9,0,4.34,0,.74,.74,0,4.34,0,63.23,.14,122.12,.1,181.01,.1Z"/><path class="cls-2" d="M135.62,192.27c6.4-2.79,12.41-5.49,18.47-8.05,45.39-19.18,91.62-35.85,139.79-46.66,15.75-3.53,31.62-6.67,47.92-5.6,4.78,.31,10.33,.28,12.44,5.57,2.04,5.11-2.06,8.78-5.13,12.14-7.13,7.81-15.88,13.67-24.76,19.26-7.74,4.87-15.72,9.35-23.67,13.87-4.17,2.37-5.79,1.53-7.03-3.19-1.22-4.66-2.57-9.29-3.71-13.97-1.07-4.39-3.38-5.17-7.71-4.05-41.76,10.87-82.16,25.6-121.81,42.48-5.81,2.47-11.44,5.38-17.33,7.61-3.9,1.48-4.33,3.34-2.99,7.07,14.62,40.74,61.61,61.39,101.94,44.62,17.1-7.11,29.89-19.01,38.7-35.23,1.37-2.53,2.98-4.83,6.14-3.56,3.58,1.45,3.55,4.4,2.1,7.52-.14,.3-.14,.66-.27,.96-9.74,23.79-25.92,41.62-49.19,52.72-29.76,14.2-59.1,10.99-88.09-2.53-8.43-3.93-16.89-7.85-25.15-12.13-14.98-7.74-30.88-9.75-47.47-8.69-9.28,.59-18.57,1.87-27.91,.76-3.94-.47-7.75-1.34-9.39-5.45-1.68-4.19,.76-7.45,3.33-10.34,6.9-7.76,15.53-13.57,23.56-20.02,13.34-10.72,22.67-24.02,28.72-39.99,5.94-15.68,12.07-31.3,21.55-45.38,27.01-40.13,80.95-53.76,123.79-31.11,2.69,1.42,5.16,2.99,3.82,6.44-1.49,3.83-4.51,3-7.56,1.99-46.92-15.55-93.34,11.67-102.23,59.98-.74,4.05-1.24,8.17-.87,12.94Z"/></svg>