<?xml version="1.0" encoding="UTF-8"?><svg id="Layer_1" xmlns="http://www.w3.org/2000/svg" viewBox="0 0 2000 2000"><defs><style>.cls-1{fill:#fdfefe;}.cls-2{fill:#13b4eb;}</style></defs><path class="cls-2" d="M959,.09h81.99c.67,1.42,2,.92,3.07,.97,40.97,1.83,81.67,6.13,122.11,12.95,77.11,13.01,151.84,34.31,223.63,65.31,218.39,94.31,384.04,246.34,495.56,456.48,67.36,126.92,104.27,262.7,112.85,406.17,.34,5.66-.47,11.52,1.69,17.03v70.99c-.26,2.46-.68,4.92-.77,7.4-1.12,31.49-3.89,62.82-8.01,94.06-7.39,56.07-19.29,111.15-36.31,165.08-60.81,192.7-169.36,353.21-326.06,480.79-102.48,83.43-217.54,143.46-344.17,181.21-73.85,22.01-149.28,35.18-226.24,39.67-9.11,.53-18.31,0-27.35,1.71h-46c-9-.25-18-.51-27-.76-47.97-2.28-95.61-7.51-142.79-16.46-94.09-17.85-183.98-48.17-269.21-91.91-162.58-83.44-293.32-202.12-391.02-356.53C63.08,1388.98,12.35,1230.14,1.8,1058.5c-.34-5.49,.4-11.17-1.71-16.5v-83.99c1.64-.8,.93-2.33,.99-3.53,3.1-66.05,12.42-131.21,28.49-195.36,35.38-141.25,98.2-269.02,189.05-382.86,86.91-108.91,192.1-195.92,315.38-260.81C661.9,48.12,798.13,10.31,942.46,1.74c5.5-.33,11.19,.47,16.54-1.65Zm415.96,996.75c0-134.65-.02-269.3,.1-403.96,0-4.02-1.25-6.12-4.72-8.08-122.14-69.1-244.23-138.3-366.28-207.57-2.98-1.69-5.14-1.66-8.09,.02-122.05,69.27-244.14,138.47-366.28,207.57-3.45,1.95-4.74,4.03-4.74,8.06,.11,269.3,.11,538.61,0,807.91,0,4.01,1.22,6.15,4.71,8.12,122,69,243.95,138.1,365.85,207.29,3.32,1.89,5.67,1.94,9.03,.03,121.75-69.12,243.54-138.15,365.41-207.05,3.88-2.19,5.14-4.5,5.13-8.9-.13-134.49-.1-268.97-.1-403.46Z"/><path class="cls-1" d="M958,1999.91c0-.25,0-.51,0-.76,9,.25,18,.51,27,.76h-27Z"/><path class="cls-1" d="M1374.97,996.85c0,134.49-.02,268.97,.1,403.46,0,4.39-1.26,6.7-5.13,8.9-121.87,68.9-243.67,137.93-365.41,207.05-3.36,1.91-5.7,1.85-9.03-.03-121.9-69.19-243.85-138.29-365.85-207.29-3.49-1.97-4.71-4.11-4.71-8.12,.1-269.3,.1-538.61,0-807.91,0-4.04,1.29-6.11,4.74-8.06,122.14-69.1,244.23-138.3,366.28-207.57,2.96-1.68,5.12-1.71,8.09-.02,122.05,69.27,244.14,138.47,366.28,207.57,3.47,1.96,4.73,4.06,4.72,8.08-.11,134.65-.1,269.3-.1,403.96Zm-674.94,65.64c0,2.63,0,4.27,0,5.91,0,98.31,.03,196.62-.09,294.93,0,4,1.23,6.13,4.69,8.14,96.82,56.36,193.59,112.81,290.28,169.38,3.84,2.25,6.54,2.18,10.33-.04,96.56-56.48,193.18-112.84,289.86-169.11,3.58-2.08,5-4.21,4.99-8.49-.15-98.14-.11-196.29-.11-294.43v-5.41c-2.4,0-3.75,1.38-5.27,2.27-96.64,56.34-193.27,112.68-289.83,169.14-3.65,2.14-6.22,2.04-9.86-.09-81.31-47.6-162.7-95.06-244.08-142.54-16.65-9.72-33.32-19.41-50.89-29.65Zm37.76-450.06c1.64,1.04,2.86,1.87,4.13,2.59,84.69,48.4,169.4,96.77,254.05,145.24,2.98,1.71,5.12,1.75,8.13,.03,84.5-48.4,169.05-96.7,253.6-145.02,1.41-.8,2.77-1.68,4.49-2.72-1.92-1.23-3.43-2.25-4.99-3.18-84.39-50.24-168.8-100.45-253.14-150.78-3.28-1.96-5.51-1.47-8.52,.33-72.19,43.07-144.44,86.04-216.68,129.03-13.58,8.08-27.14,16.18-41.07,24.48Zm187.25,193.83c-75.31-43.93-149.81-87.39-224.78-131.12v262.24c74.93-43.7,149.33-87.1,224.78-131.12Zm374.81-131.15c-75.24,43.89-149.72,87.34-224.81,131.15,75.34,43.95,149.85,87.4,224.81,131.13v-262.28Zm-37.51,324.96c-2.37-1.45-4.01-2.5-5.7-3.48-71.28-41.58-142.57-83.16-213.86-124.74-5.25-3.06-5.28-3.06-5.28,3.32,0,83.28,0,166.56,0,249.83,0,6.2,.03,6.21,5.44,3.05,43.12-25.14,86.25-50.27,129.36-75.42,29.74-17.35,59.47-34.72,90.03-52.56Zm-524.61-.16c1.91,1.2,3,1.92,4.12,2.58,71.72,41.84,143.45,83.68,215.18,125.52,5.4,3.15,5.44,3.12,5.44-3.06,0-83.29,0-166.58,0-249.87,0-6.2-.04-6.23-5.42-3.1-54.77,31.94-109.53,63.89-164.3,95.83-18.09,10.55-36.18,21.1-55.03,32.1Z"/><path class="cls-2" d="M700.03,1062.49c17.58,10.24,34.24,19.93,50.89,29.65,81.38,47.48,162.78,94.93,244.08,142.54,3.65,2.13,6.21,2.23,9.86,.09,96.56-56.46,193.2-112.8,289.83-169.14,1.52-.89,2.87-2.26,5.27-2.27v5.41c0,98.14-.03,196.29,.11,294.43,0,4.28-1.41,6.41-4.99,8.49-96.68,56.27-193.3,112.63-289.86,169.11-3.79,2.22-6.48,2.29-10.33,.04-96.69-56.57-193.46-113.02-290.28-169.38-3.45-2.01-4.69-4.13-4.69-8.14,.12-98.31,.09-196.62,.09-294.93,0-1.64,0-3.28,0-5.91Z"/><path class="cls-2" d="M737.79,612.43c13.93-8.3,27.5-16.4,41.07-24.48,72.24-42.99,144.49-85.96,216.68-129.03,3.02-1.8,5.24-2.29,8.52-.33,84.34,50.33,168.74,100.54,253.14,150.78,1.56,.93,3.06,1.95,4.99,3.18-1.72,1.05-3.09,1.92-4.49,2.72-84.54,48.32-169.1,96.62-253.6,145.02-3.01,1.72-5.15,1.68-8.13-.03-84.65-48.47-169.36-96.84-254.05-145.24-1.27-.73-2.48-1.56-4.13-2.59Z"/><path class="cls-2" d="M925.04,806.26c-75.45,44.01-149.86,87.41-224.78,131.12v-262.24c74.97,43.73,149.47,87.19,224.78,131.12Z"/><path class="cls-2" d="M1299.86,675.12v262.28c-74.97-43.73-149.47-87.18-224.81-131.13,75.09-43.8,149.57-87.26,224.81-131.15Z"/><path class="cls-2" d="M1262.35,1000.08c-30.56,17.84-60.29,35.21-90.03,52.56-43.12,25.15-86.24,50.29-129.36,75.42-5.4,3.15-5.44,3.14-5.44-3.05,0-83.28,0-166.56,0-249.83,0-6.38,.03-6.39,5.28-3.32,71.29,41.58,142.57,83.16,213.86,124.74,1.69,.98,3.33,2.03,5.7,3.48Z"/><path class="cls-2" d="M737.74,999.91c18.85-11,36.94-21.55,55.03-32.1,54.77-31.95,109.53-63.89,164.3-95.83,5.37-3.13,5.42-3.1,5.42,3.1,0,83.29,0,166.58,0,249.87,0,6.18-.05,6.2-5.44,3.06-71.73-41.83-143.46-83.67-215.18-125.52-1.13-.66-2.21-1.38-4.12-2.58Z"/></svg>