<?xml version="1.0" encoding="utf-8"?>
<!-- Generator: Adobe Illustrator 27.0.0, SVG Export Plug-In . SVG Version: 6.00 Build 0)  -->
<svg version="1.1" id="Layer_1" xmlns="http://www.w3.org/2000/svg" xmlns:xlink="http://www.w3.org/1999/xlink" x="0px" y="0px"
	 viewBox="0 0 1000 1000" style="enable-background:new 0 0 1000 1000;" xml:space="preserve">
<style type="text/css">
	.st0{fill-rule:evenodd;clip-rule:evenodd;fill:#0090FF;}
	.st1{fill-rule:evenodd;clip-rule:evenodd;fill:#FFFFFF;}
</style>
<g id="_x35_6827" transform="matrix(21.6291 0 0 21.6291 490.2031 501.9257)">
	<g>
		<g id="_x34_53455" transform="matrix(0.2209 0 0 0.2273 0.002 0.003)">
			<path class="st0" d="M0,99.7C-55,99.9-99.9,54.9-99.7-0.5c0.3-54.7,45-99.5,100.4-99.2c54.6,0.3,99.5,45,99,100.5
				C99.3,55.3,54.9,99.8,0,99.7"/>
		</g>
		<g id="_x38_94950" transform="matrix(0.2209 0 0 0.2273 0.7493 0.8475)">
			<path class="st1" d="M9-11.8c8.7,1.2,17.2,2.4,26,3.7c0.7-2.6,1.4-4.9,2.1-7.5c-9-1.3-17.6-2.6-26.8-4c3.1-11,5.8-21.5,9.1-31.8
				c1.1-3.4,3.6-6.6,6.1-9.2c3.3-3.4,7.9-2.7,10.7,1.1c1.2,1.6,2.3,3.3,3.7,4.6c1.8,1.7,4.4,2.6,6.2,0.9c1.2-1.1,1.1-3.7,1.3-5.7
				c0-0.8-0.9-1.7-1.5-2.4c-3.1-3.5-7.3-4.8-11.8-5c-9.9-0.4-17.1,4.7-22.7,12.3c-5.6,7.6-8,16.5-10.6,25.4c-0.8,2.6-1.4,5.2-2.2,8
				c-9.7-1.4-19-2.7-28.5-4.1c-0.3,2.6-0.7,5-1,7.6c9.5,1.5,18.5,2.8,27.9,4.3C-4.5-8.3-5.7-3.3-6.9,1.7C-16.1,0.4-24.8-0.8-33.5-2
				c-0.4,2.8-0.7,5-1,7.5c8.8,1.3,17.3,2.6,25.8,3.9c0,1,0.1,1.5,0,2C-11.4,23.1-14,34.7-17,46.3c-1.5,5.5-3.8,10.8-8.4,14.7
				c-3.8,3.2-7.9,2.6-10.7-1.3c-1.3-1.8-2.3-3.9-4-5.1c-1.2-0.9-4-1.5-4.9-0.7c-1.3,1.1-2.3,3.5-2.2,5.3c0.1,1.6,1.6,3.4,3,4.5
				c4.7,3.6,10.1,4.1,15.7,3c9.3-1.8,15.8-7.6,19.9-15.8c3.2-6.4,5.6-13.3,7.8-20.2c2-6.2,3.4-12.6,5.2-19.2
				c9.1,1.3,18.1,2.6,27.2,3.9c0.8-2.6,1.4-5,2.2-7.5C24.2,6.4,15,5,5.8,3.7C6.9-1.7,7.9-6.5,9-11.8"/>
		</g>
	</g>
</g>
</svg>
