<?xml version="1.0" encoding="utf-8"?>
<!-- Generator: Adobe Illustrator 27.0.0, SVG Export Plug-In . SVG Version: 6.00 Build 0)  -->
<svg version="1.1" id="Layer_1" focusable="false" xmlns="http://www.w3.org/2000/svg" xmlns:xlink="http://www.w3.org/1999/xlink"
	 x="0px" y="0px" viewBox="0 0 38 38" style="enable-background:new 0 0 38 38;" xml:space="preserve">
<style type="text/css">
	.st0{fill:url(#SVGID_1_);}
	.st1{fill:url(#SVGID_00000170984198501923081390000013667438185988017062_);}
	.st2{fill:none;}
</style>
<g>
	
		<linearGradient id="SVGID_1_" gradientUnits="userSpaceOnUse" x1="2.3198" y1="19.531" x2="35.6815" y2="19.531" gradientTransform="matrix(1 0 0 -1 0 40)">
		<stop  offset="0" style="stop-color:#0082FA"/>
		<stop  offset="1" style="stop-color:#00F2FE"/>
	</linearGradient>
	<path class="st0" d="M6.4,8.1C6.6,7.8,6.8,7.6,7,7.3c0,0,0,0,0,0c0,0,0.1,0,0.1-0.1l0,0c0.2-0.1,0.3-0.3,0.5-0.4
		C8.3,6.3,9,5.9,9.7,5.6c2.3-0.8,4.9-0.3,7,1.6c2.8,2.7,2.6,7,0.3,9.8c-2.9,4.3-7.8,10.2-1,15.5c1.2,1,2.1,1.7,6,2.9
		c-2.5,0.5-4.9,0.3-7.5-0.3c-1.8-1-4.7-3.3-5.7-6.3c-1.5-4.6,2.6-11.4,4.6-14c2.7-3.6-1.7-7.6-4.9-3.2c-1.7,2.3-4.7,8.8-3.6,13.6
		c0.6,2.7,1.4,4.7,4.6,7.4c-0.6-0.3-1.2-0.7-1.7-1.2C0.3,24.5,1.2,13.8,6.4,8.1z"/>
	
		<linearGradient id="SVGID_00000109734634360253234860000011657349137581942719_" gradientUnits="userSpaceOnUse" x1="2.3197" y1="22.469" x2="35.6814" y2="22.469" gradientTransform="matrix(1 0 0 -1 0 40)">
		<stop  offset="0" style="stop-color:#0082FA"/>
		<stop  offset="1" style="stop-color:#00F2FE"/>
	</linearGradient>
	<path style="fill:url(#SVGID_00000109734634360253234860000011657349137581942719_);" d="M31.6,29.9c-0.2,0.3-0.4,0.5-0.6,0.8
		c0,0,0,0,0,0c0,0-0.1,0-0.1,0.1l0,0c-0.2,0.1-0.3,0.3-0.5,0.4c-0.7,0.5-1.4,0.9-2.1,1.1c-2.3,0.8-4.9,0.3-7-1.6
		c-2.8-2.7-2.6-7-0.3-9.8c2.9-4.3,7.8-10.2,1-15.5c-1.2-1-2.1-1.7-6-2.9c2.5-0.5,4.9-0.3,7.5,0.3c1.8,1,4.7,3.3,5.7,6.3
		c1.5,4.6-2.6,11.4-4.6,14c-2.7,3.6,1.7,7.6,4.9,3.2c1.7-2.3,4.7-8.8,3.6-13.6c-0.6-2.7-1.4-4.7-4.6-7.4c0.6,0.3,1.2,0.7,1.7,1.2
		C37.7,13.5,36.8,24.2,31.6,29.9z"/>
</g>
<circle class="st2" cx="19" cy="19" r="17.5"/>
</svg>
