<?xml version="1.0" encoding="utf-8"?>
<!-- Generator: Adobe Illustrator 27.0.0, SVG Export Plug-In . SVG Version: 6.00 Build 0)  -->
<svg version="1.1" id="Layer_1" xmlns="http://www.w3.org/2000/svg" xmlns:xlink="http://www.w3.org/1999/xlink" x="0px" y="0px"
	 viewBox="0 0 200.1 200.1" style="enable-background:new 0 0 200.1 200.1;" xml:space="preserve">
<style type="text/css">
	.st0{fill:#FFFFFF;}
	.st1{stroke:#FFFFFF;stroke-width:0.8875;}
	.st2{fill-rule:evenodd;clip-rule:evenodd;fill:#FFFFFF;}
	.st3{fill:#F0827D;}
</style>
<path class="st0" d="M100.3,198.8c55.1,0,99.8-43.6,99.8-97.4c0-53.8-44.7-97.4-99.8-97.4c-55.1,0-99.8,43.6-99.8,97.4
	C0.5,155.2,45.2,198.8,100.3,198.8z"/>
<path class="st1" d="M100.3,196.6c55.1,0,99.8-43.6,99.8-97.4c0-53.8-44.7-97.4-99.8-97.4C45.2,1.9,0.5,45.5,0.5,99.3
	C0.5,153,45.2,196.6,100.3,196.6z"/>
<path class="st2" d="M104.1,65.2c0-1.9-1.4-3.4-3.2-3.4c0,0,0,0,0,0c-1.8,0-3.2,1.5-3.2,3.4c0,13.7,0,64.6,0,78.2
	c0,1.9,1.4,3.4,3.2,3.4c0,0,0,0,0,0c1.8,0,3.2-1.5,3.2-3.4C104.1,129.7,104.1,78.8,104.1,65.2z"/>
<path class="st2" d="M91.2,128.6c-1.8,0-3.2,1.5-3.2,3.4c0,0,0,0,0,0c0,1.9,1.4,3.4,3.2,3.4c4.9,0,14.3,0,19.2,0
	c1.8,0,3.2-1.5,3.2-3.4c0,0,0,0,0,0c0-1.9-1.4-3.4-3.2-3.4C105.4,128.6,96.1,128.6,91.2,128.6z"/>
<path class="st2" d="M75.3,85.3c-1.8,0-3.2,1.5-3.2,3.4c0,0,0,0,0,0c0,1.9,1.4,3.4,3.2,3.4c10.1,0,40.9,0,51,0
	c1.8,0,3.2-1.5,3.2-3.4c0,0,0,0,0,0c0-1.9-1.4-3.4-3.2-3.4C116.3,85.3,85.4,85.3,75.3,85.3z"/>
<path class="st2" d="M85.9,68.2c-1.3-1.3-3.3-1.3-4.5,0c0,0,0,0,0,0c-1.2,1.3-1.2,3.5,0,4.8c6.9,7.3,27.6,29.1,34.5,36.4
	c1.3,1.3,3.3,1.3,4.5,0c0,0,0,0,0,0c1.2-1.3,1.2-3.5,0-4.8C113.5,97.3,92.8,75.5,85.9,68.2z"/>
<path class="st2" d="M81.4,104.6c-1.2,1.3-1.2,3.5,0,4.8c0,0,0,0,0,0c1.3,1.3,3.3,1.3,4.5,0c6.9-7.3,27.5-29.2,34.4-36.5
	c1.2-1.3,1.2-3.5,0-4.8c0,0,0,0,0,0c-1.3-1.3-3.3-1.3-4.5,0C108.9,75.4,88.3,97.3,81.4,104.6z"/>
<path class="st3" d="M100.4,187.2c-49.3,0-89.4-39.2-89.4-87.3s40.1-87.3,89.4-87.3s89.4,39.2,89.4,87.3S149.7,187.2,100.4,187.2z
	 M100.4,15.6c-47.7,0-86.4,37.8-86.4,84.3s38.8,84.3,86.4,84.3s86.4-37.8,86.4-84.3S148,15.6,100.4,15.6z"/>
</svg>
