<?xml version="1.0" encoding="UTF-8"?><svg id="Layer_1" xmlns="http://www.w3.org/2000/svg" viewBox="0 0 139.64 22.76"><defs><style>.cls-1{fill:#010101;}.cls-2{fill:#231f20;}</style></defs><path class="cls-1" d="M28.4,9.58l6.82-6.82L32.63,.17l-5.52,5.52L21.58,.17l-2.59,2.59,6.82,6.82c.36,.36,.82,.54,1.29,.54,.47,0,.94-.18,1.3-.53Zm9.87,7.28l-5.52-5.53,5.52-5.52-2.59-2.59-6.82,6.82c-.71,.71-.71,1.87,0,2.59l6.82,6.82,2.59-2.58h0Zm-11.17,.12l5.53,5.52,2.59-2.59-6.82-6.82c-.71-.71-1.87-.71-2.59,0l-6.82,6.82,2.59,2.59,5.52-5.52Zm-1.76-4.35c.34-.34,.54-.81,.54-1.29s-.19-.95-.54-1.29l-6.82-6.82-2.59,2.59,5.52,5.52-5.52,5.52,2.59,2.59,6.82-6.82h0Z"/><path class="cls-2" d="M12.16,21.41l-1.31-5.55H5.13l-1.31,5.55H1.29L6.37,1.34h3.28l5.11,20.07h-2.6Zm-3.5-14.37l-.54-2.93h-.32l-.54,2.93-1.51,6.33h4.48l-1.58-6.33Z"/><path class="cls-2" d="M16.05,22.41h-4.68l-1.31-5.55H5.92l-1.31,5.55H0L5.59,.34h4.84l5.62,22.07Zm-3.1-2h.52L8.88,2.34h-1.73L2.57,20.41h.45l1.31-5.55h7.3l1.31,5.55Zm-1.43-6.05H4.49l1.8-7.56,.67-3.7h1.98l.68,3.72,1.88,7.54Zm-4.49-2h1.93l-.99-3.95-.94,3.95Z"/><g><g><path class="cls-2" d="M40.43,21.41V1.35h9.85v2.67h-7.27v5.87h6.57v2.64h-6.57v6.21h7.27v2.67h-9.85Z"/><path class="cls-2" d="M51.28,22.41h-11.85V.35h11.85V5.02h-7.27v3.87h6.57v4.64h-6.57v4.21h7.27v4.67Zm-9.85-2h7.85v-.67h-7.27V11.53h6.57v-.64h-6.57V3.02h7.27v-.67h-7.85V20.41Z"/></g><g><path class="cls-2" d="M54.68,21.41V1.35h2.58V18.74h6.18v2.67h-8.76Z"/><path class="cls-2" d="M64.44,22.41h-10.76V.35h4.58V17.74h6.18v4.67Zm-8.76-2h6.76v-.67h-6.18V2.35h-.58V20.41Z"/></g><g><path class="cls-2" d="M66.11,18.45l1.78-1.93c1,1.64,2.29,2.56,3.94,2.56,1.97,0,3.02-1.09,3.02-3.28,0-1.75-.66-2.62-2.38-3.11l-1.39-.34c-3.04-.8-4.45-2.5-4.45-5.69,0-3.71,2.02-5.66,5.4-5.66,2.41,0,4.04,.95,5.25,3.02l-1.78,1.84c-.88-1.47-1.9-2.18-3.53-2.18-1.85,0-2.77,.86-2.77,2.9,0,1.67,.71,2.44,2.33,2.9l1.39,.37c3.23,.86,4.5,2.42,4.5,5.75,0,4-2.07,6.15-5.62,6.15-2.5,0-4.38-1.18-5.69-3.31Z"/><path class="cls-2" d="M71.8,22.76c-2.79,0-4.99-1.27-6.54-3.78l-.4-.65,3.19-3.46,.69,1.13c.85,1.4,1.86,2.08,3.09,2.08,1.05,0,2.02-.28,2.02-2.28,0-1.31-.36-1.78-1.66-2.14l-1.36-.34c-3.56-.94-5.21-3.06-5.21-6.66,0-4.17,2.39-6.66,6.4-6.66,2.76,0,4.71,1.12,6.12,3.51l.38,.66-3.21,3.33-.67-1.12c-.74-1.24-1.46-1.7-2.67-1.7s-1.77,.29-1.77,1.9c0,1.17,.35,1.58,1.61,1.94l1.38,.37c3.72,.99,5.24,2.94,5.24,6.72,0,4.48-2.47,7.15-6.62,7.15Zm-4.42-4.21c1.12,1.49,2.58,2.21,4.42,2.21,3.82,0,4.62-2.8,4.62-5.15,0-2.86-.91-4.03-3.76-4.78l-1.39-.37c-2.13-.6-3.07-1.79-3.07-3.87,0-2.55,1.3-3.9,3.77-3.9,1.52,0,2.68,.51,3.64,1.63l.39-.4c-.97-1.32-2.2-1.9-3.98-1.9-2.92,0-4.4,1.57-4.4,4.66,0,2.69,1.04,4.02,3.71,4.72l1.37,.34c2.18,.62,3.14,1.87,3.14,4.08,0,2.72-1.46,4.28-4.02,4.28-1.58,0-2.93-.66-4.04-1.98l-.41,.44Z"/></g><g><path class="cls-2" d="M80.83,11.38c0-7.3,2.48-10.38,6.42-10.38,2.89,0,4.5,1.47,5.54,4.43l-2.19,1.44c-.58-2.24-1.58-3.19-3.36-3.19-2.29,0-3.65,2.01-3.65,5.29v4.83c0,3.28,1.36,5.29,3.65,5.29,1.8,0,2.89-1.04,3.5-3.39l2.14,1.5c-1.07,2.93-2.75,4.57-5.64,4.57-3.94,0-6.42-3.08-6.42-10.38Z"/><path class="cls-2" d="M87.25,22.76c-3.39,0-7.42-1.97-7.42-11.38S83.86,0,87.25,0c3.2,0,5.26,1.62,6.49,5.09l.26,.74-4.01,2.63-.35-1.35c-.53-2.04-1.28-2.44-2.39-2.44-2.39,0-2.65,3-2.65,4.29v4.83c0,1.29,.26,4.29,2.65,4.29,1.11,0,1.97-.45,2.53-2.64l.36-1.4,3.95,2.76-.26,.72c-1.28,3.52-3.44,5.23-6.58,5.23Zm0-20.76c-3.6,0-5.42,3.16-5.42,9.38s1.82,9.38,5.42,9.38c2.09,0,3.44-.97,4.42-3.2l-.4-.28c-.81,1.89-2.13,2.81-4.02,2.81-2.87,0-4.65-2.41-4.65-6.29v-4.83c0-3.88,1.78-6.29,4.65-6.29,2.24,0,3.31,1.29,3.89,2.64l.43-.28c-.93-2.17-2.19-3.04-4.32-3.04Z"/></g><g><path class="cls-2" d="M95.71,11.38c0-7.3,2.51-10.38,6.59-10.38s6.59,3.08,6.59,10.38-2.51,10.38-6.59,10.38-6.59-3.08-6.59-10.38Zm10.41,2.42v-4.83c0-3.28-1.39-5.26-3.82-5.26s-3.82,1.98-3.82,5.26v4.83c0,3.28,1.39,5.26,3.82,5.26s3.82-1.98,3.82-5.26Z"/><path class="cls-2" d="M102.3,22.76c-3.46,0-7.59-1.97-7.59-11.38S98.84,0,102.3,0s7.59,1.97,7.59,11.38-4.13,11.38-7.59,11.38Zm0-20.76c-1.38,0-5.59,0-5.59,9.38s4.21,9.38,5.59,9.38,5.59,0,5.59-9.38-4.21-9.38-5.59-9.38Zm0,18.05c-2.97,0-4.82-2.4-4.82-6.26v-4.83c0-3.86,1.85-6.26,4.82-6.26s4.82,2.4,4.82,6.26v4.83c0,3.86-1.85,6.26-4.82,6.26Zm0-15.35c-2.45,0-2.82,2.67-2.82,4.26v4.83c0,1.59,.37,4.26,2.82,4.26s2.82-2.67,2.82-4.26v-4.83c0-1.59-.37-4.26-2.82-4.26Z"/></g><g><path class="cls-2" d="M115.75,21.41h-2.58V1.35h6.71c2.89,0,4.4,2.13,4.4,5.95,0,3.1-1,5.06-2.92,5.69l3.24,8.42h-2.87l-2.94-8.19h-3.04v8.19Zm3.92-10.75c1.22,0,1.87-.72,1.87-2.39v-1.87c0-1.67-.66-2.39-1.87-2.39h-3.92v6.64h3.92Z"/><path class="cls-2" d="M126.06,22.41h-5.03l-2.94-8.19h-1.34v8.19h-4.58V.35h7.71c3.43,0,5.4,2.53,5.4,6.95,0,3.65-1.29,5.39-2.65,6.21l3.42,8.91Zm-3.62-2h.71l-3.09-8.04,1-.33c1.48-.49,2.23-2.08,2.23-4.74,0-3.29-1.14-4.95-3.4-4.95h-5.71V20.41h.58V12.22h4.74l2.94,8.19Zm-2.77-8.75h-4.92V3.02h4.92c.86,0,2.87,.33,2.87,3.39v1.87c0,3.06-2.01,3.39-2.87,3.39Zm-2.92-2h2.92c.41,0,.87,0,.87-1.39v-1.87c0-1.39-.46-1.39-.87-1.39h-2.92v4.64Z"/></g><g><path class="cls-2" d="M128.79,21.41V1.35h9.85v2.67h-7.27v5.87h6.57v2.64h-6.57v6.21h7.27v2.67h-9.85Z"/><path class="cls-2" d="M139.64,22.41h-11.85V.35h11.85V5.02h-7.27v3.87h6.57v4.64h-6.57v4.21h7.27v4.67Zm-9.85-2h7.85v-.67h-7.27V11.53h6.57v-.64h-6.57V3.02h7.27v-.67h-7.85V20.41Z"/></g></g></svg>