<?xml version="1.0" encoding="utf-8"?>
<!-- Generator: Adobe Illustrator 27.0.0, SVG Export Plug-In . SVG Version: 6.00 Build 0)  -->
<svg version="1.1" id="Layer_1" xmlns="http://www.w3.org/2000/svg" xmlns:xlink="http://www.w3.org/1999/xlink" x="0px" y="0px"
	 viewBox="0 0 34 34" style="enable-background:new 0 0 34 34;" xml:space="preserve">
<style type="text/css">
	.st0{fill:#FFFFFF;}
	.st1{fill-rule:evenodd;clip-rule:evenodd;fill:#E4147C;}
	.st2{fill-rule:evenodd;clip-rule:evenodd;fill:#54CCCB;}
	.st3{fill-rule:evenodd;clip-rule:evenodd;fill:#54D0A4;}
</style>
<circle class="st0" cx="17" cy="17" r="17"/>
<path class="st1" d="M6.6,15.8c-0.1,0.1-0.2,0.2-0.2,0.2c0,0.1,0,0.1,0,0.1c0,0,0,0.3,0,0.4c0,0,0,0,0,0.1c0,0,0,0.1,0.1,0.1
	c0,0,0.1,0.1,0.1,0.1c0,0,0,0.1,0.1,0.1c0,0,0.1,0.1,0.1,0.1c0.1,0.1,0.4,0.1,0.5,0c0,0,0,0,0.1,0c0.1,0,0.3-0.3,0.3-0.4
	c0.1-0.6-0.1-0.9-0.6-0.9H6.7L6.6,15.8z M8.8,15.7C8.8,15.7,8.8,15.7,8.8,15.7c-0.1,0-0.4,0.3-0.4,0.3c0,0,0,0,0,0c0,0,0,0.1,0,0.2
	c0,0.1,0,0.2,0,0.3c0,0,0,0,0,0.1c0,0.1,0.3,0.3,0.3,0.3c0,0,0.1,0,0.1,0c0,0,22,0,22,0c0,0,0,0,0.1,0c0.2,0,0.4-0.3,0.4-0.6
	c0-0.3-0.2-0.6-0.3-0.6c0,0,0,0,0,0c0,0-3.7,0-11.1,0S8.8,15.6,8.8,15.7z M2.4,18.2C2.4,18.2,2.4,18.3,2.4,18.2
	c-0.1,0-0.2,0.1-0.3,0.1L2,18.5v0.4c0,0.4,0,0.5,0.2,0.5c0,0,0.1,0,0.1,0c0,0,0.6,0,0.6,0c0,0,0,0,0.1-0.1c0.2-0.1,0.3-0.4,0.3-0.7
	C3.2,18.4,2.5,18,2.4,18.2z M4.4,18.2C4.4,18.2,4.4,18.3,4.4,18.2c-0.1,0-0.1,0-0.1,0.1s0,0,0,0c-0.1,0-0.3,0.3-0.3,0.5
	c0,0.3,0.2,0.6,0.3,0.6c0,0,0.1,0,0.1,0c0,0,2.8,0,8.2,0c5.4,0,8.2,0,8.2,0c0,0,0,0,0.1,0c0.1,0,0.1,0,0.1-0.1c0,0,0-0.1,0.1-0.1
	c0,0,0,0,0-0.1c0,0,0-0.1,0-0.1c0.1,0,0-0.5,0-0.6c-0.1-0.1-0.2-0.3-0.3-0.3c0,0-0.1,0-0.1,0c0,0-2.7,0-8.1,0S4.5,18.2,4.4,18.2z
	 M6.9,20.8c0,0-0.1,0-0.1,0s-0.1,0-0.1,0s0,0-0.1,0c-0.1,0-0.2,0.1-0.2,0.2c0,0,0,0,0,0s0,0,0,0.1c0,0,0,0.1,0,0.1c0,0,0,0.1,0,0.2
	c0,0.1,0,0.2,0,0.2c0,0,0,0,0,0.1c0,0.1,0.3,0.4,0.4,0.4c0,0,0.1,0,0.1,0s0.1,0,0.2,0s0.1,0,0.1,0c0,0,0,0,0.1,0
	c0.1,0,0.4-0.2,0.4-0.4c0.1-0.3,0-0.7-0.2-0.8c0,0-0.1,0-0.1-0.1c0,0-0.1,0-0.2,0C7.1,20.8,7,20.8,6.9,20.8C7,20.8,7,20.8,6.9,20.8
	C7,20.8,6.9,20.8,6.9,20.8z M8.7,20.9C8.7,20.9,8.7,20.9,8.7,20.9c-0.1,0-0.2,0.1-0.2,0.2c0,0,0,0-0.1,0.1c-0.1,0.1-0.1,0.7,0,0.7
	c0,0,0,0,0,0c0,0.1,0.1,0.2,0.2,0.2c0,0,0,0,0,0s0,0,0.1,0c0,0,0.1,0,0.1,0c0,0,3.2,0,9.7,0s9.7,0,9.7,0c0,0,0,0,0.1,0
	c0,0,0.1,0,0.1,0s0,0,0.1-0.1c0.2-0.1,0.3-0.6,0.2-0.8c-0.1-0.1-0.2-0.3-0.2-0.3c0,0-0.1,0-0.1,0c0,0-3.3,0-9.9,0
	C12,20.8,8.7,20.9,8.7,20.9z M3.5,23.4C3.5,23.4,3.5,23.4,3.5,23.4c-0.1,0-0.1,0-0.1,0.1s0,0,0,0c-0.1,0-0.2,0.1-0.2,0.2
	c0,0,0,0.1,0,0.1c0,0,0,0,0,0.1c0,0,0,0.1,0,0.1c-0.1,0,0,0.5,0.1,0.5c0,0,0,0,0,0c0,0.2,0.7,0.4,0.8,0.3c0,0,0,0,0.1,0
	c0.2,0,0.5-0.7,0.3-0.9c0,0,0,0,0-0.1c0-0.1-0.3-0.3-0.3-0.3c0,0-0.1,0-0.1,0s-0.1,0-0.2,0C3.6,23.4,3.5,23.4,3.5,23.4z M5.5,23.4
	C5.5,23.4,5.5,23.4,5.5,23.4c-0.1,0-0.4,0.3-0.4,0.4c0,0,0,0.1,0,0.1c0,0,0,0.1,0,0.2c0,0.1,0,0.2,0,0.2c0,0,0,0,0,0.1
	c0,0.1,0.3,0.3,0.3,0.3c0,0,0.1,0,0.1,0c0,0,1.4,0,4,0h3.9l0.1-0.1c0.1,0,0.2-0.1,0.2-0.2l0.1-0.1V24v-0.3l-0.1-0.1
	c-0.1-0.1-0.2-0.1-0.2-0.1s-0.1,0-0.1,0c0,0-1.4,0-4,0C6.9,23.4,5.5,23.4,5.5,23.4z M15.3,23.4c-0.1,0.1-0.3,0.3-0.3,0.3
	c0,0,0,0,0,0c0,0,0,0.1,0,0.3c0,0.1,0,0.3,0,0.3c0,0,0,0,0,0c0,0.1,0.2,0.2,0.3,0.3l0.1,0.1h8.1h8.1l0.1-0.1C32,24.5,32,24.4,32,24
	c0-0.4,0-0.5-0.3-0.6l-0.1-0.1l-8.1,0C15.6,23.4,15.4,23.4,15.3,23.4z M16.6,26C16.6,26,16.5,26,16.6,26c-0.2,0-0.4,0.2-0.4,0.3
	c0,0,0,0,0,0c0,0,0,0,0,0.1c0,0,0,0.1,0,0.1c0,0,0,0.1,0,0.2c0,0.1,0,0.2,0,0.2c0,0,0,0,0,0.1c0,0.2,0.2,0.4,0.5,0.4
	c0.2,0,0.6-0.1,0.6-0.3c0,0,0,0,0,0c0,0,0,0,0.1-0.1c0-0.1,0-0.6,0-0.6c0,0,0,0,0,0c0,0-0.2-0.3-0.2-0.3c0,0,0,0,0,0s0,0-0.1,0
	c0,0-0.1,0-0.1,0s-0.1,0-0.1,0C16.6,25.9,16.6,26,16.6,26z M18.6,26C18.6,26,18.5,26,18.6,26c-0.1,0-0.1,0-0.1,0.1s0,0,0,0
	c0,0-0.1,0-0.1,0.1c-0.1,0.1-0.1,0.1-0.1,0.1c0,0,0,0,0,0c0,0,0,0.5,0,0.5c0.1,0.1,0.2,0.3,0.3,0.3l0.1,0.1h5c2.8,0,5.1,0,5.1,0
	c0.1,0,0.3-0.2,0.3-0.3c0,0,0,0,0,0c0,0,0,0,0-0.1s0-0.1,0-0.1c0,0,0-0.1,0-0.1c0-0.1,0-0.1,0-0.1c0,0,0,0,0-0.1c0,0,0-0.1,0-0.1
	c0,0,0,0,0-0.1c0,0,0-0.1-0.1-0.1c0,0-0.1-0.1-0.1-0.1c0-0.1-0.1-0.1-0.2-0.1c-0.1,0-0.1,0-0.1,0c0,0-1.7,0-5,0
	C20.3,25.9,18.6,26,18.6,26z M10.5,28.6C10.5,28.6,10.4,28.6,10.5,28.6c-0.1,0-0.3,0.2-0.4,0.3c0,0.1-0.1,0.5,0,0.5c0,0,0,0,0,0.1
	c0,0.1,0.2,0.2,0.2,0.2c0,0,0,0,0.1,0.1c0.1,0.1,0.5,0.1,0.6,0c0,0,0.1-0.1,0.1-0.1c0.2-0.1,0.3-0.5,0.2-0.8c0-0.1-0.2-0.3-0.3-0.3
	c0,0,0,0,0,0c0,0-0.1,0-0.3,0C10.6,28.6,10.5,28.6,10.5,28.6z M12.5,28.6C12.5,28.6,12.5,28.6,12.5,28.6c-0.1,0-0.2,0.2-0.2,0.2
	c0,0,0,0,0,0c0,0,0,0,0,0.1s0,0.1,0,0.1c0,0,0,0.1,0,0.1s0,0.1,0,0.2c0,0,0,0,0,0.1c0,0.1,0.2,0.3,0.2,0.3c0,0,0.1,0,0.1,0.1
	c0.1,0.1,10.2,0.1,10.2,0c0,0,0,0,0.1,0c0,0,0.1,0,0.1,0c0,0,0,0,0.1-0.1c0.2-0.1,0.3-0.3,0.3-0.5c0-0.2-0.1-0.4-0.1-0.4
	c0,0-0.1,0-0.1-0.1c0,0-0.1-0.1-0.1-0.1c0,0,0,0,0,0c0,0-1.7,0-5.1,0S12.5,28.6,12.5,28.6z"/>
<path class="st2" d="M18.9,4.2c0,0-0.1,0-0.2,0c-0.1,0-0.2,0-0.2,0c0,0-0.1,0-0.1,0c-0.1,0-0.2,0-0.2,0c0,0,0,0,0,0c0,0,0,0,0,0
	c0,0-0.1,0-0.2,0c-0.2,0-0.4,0-0.4,0.1c0,0,0,0-0.1,0c0,0,0,0,0,0c0,0,0,0-0.1,0c0,0-0.1,0-0.1,0c0,0,0,0-0.1,0c0,0-0.1,0-0.1,0
	c0,0-0.1,0-0.1,0c0,0,0,0,0,0c0,0,0,0-0.1,0s-0.1,0-0.2,0.1c-0.1,0-0.1,0.1-0.2,0.1c0,0,0,0,0,0s0,0,0,0c0,0-0.2,0.1-0.2,0.1
	c0,0-0.1,0-0.1,0c0,0-0.1,0-0.1,0c0,0,0,0-0.1,0c0,0-0.1,0-0.1,0c0,0-0.2,0.1-0.3,0.1c0,0-0.1,0-0.1,0c0,0,0,0,0,0
	c0,0-0.1,0-0.2,0.1c0,0-0.1,0-0.1,0c0,0,0,0,0,0c0,0,0,0-0.1,0c0,0,0,0,0,0c0,0,0,0,0,0c0,0-0.1,0-0.1,0s-0.1,0.1-0.2,0.1
	c-0.1,0-0.2,0.1-0.2,0.1c0,0-0.1,0.1-0.1,0.1c0,0-0.1,0-0.1,0.1c0,0-0.1,0.1-0.1,0.1c0,0-0.1,0-0.1,0c0,0,0,0-0.1,0.1
	c0,0-0.1,0.1-0.1,0.1c0,0,0,0-0.1,0.1c0,0-0.1,0.1-0.1,0.1c0,0,0,0,0,0c0,0-0.1,0-0.1,0.1c0,0.1-0.2,0.3-0.3,0.3
	c0,0-0.1,0.1-0.1,0.1c0,0,0,0,0,0c0,0-0.1,0.1-0.1,0.1c0,0-0.1,0.1-0.1,0.1C13.1,7,13,7,13,7c0,0,0,0,0,0c0,0,0,0,0,0
	c0,0,0,0-0.2,0.2c-0.1,0.1-0.1,0.1-0.1,0.1c0,0,0,0-0.1,0c0,0-0.1,0.1-0.1,0.1c0,0-0.1,0.1-0.1,0.2c-0.1,0.1-0.1,0.1-0.1,0.1
	c0,0,0,0,0,0.1c0,0,0,0,0,0c0,0,0,0,0,0S12.1,8.2,12,8.2c-0.1,0.1-0.1,0.2-0.2,0.2c0,0,0,0.1-0.1,0.1s0,0,0,0.1c0,0,0,0.1-0.1,0.1
	c0,0-0.1,0.1-0.1,0.1c0,0,0,0.1,0,0.1c0,0,0,0,0,0c0,0,0,0,0,0c0,0,0,0.1-0.1,0.2c0,0,0,0,0,0c0,0-0.1,0.1,0,0.2c0,0,0,0,0,0
	c0,0-0.1,0.1-0.1,0.2c0,0,0,0,0,0c0,0,0,0,0,0.1c0,0,0,0.1-0.1,0.1c0,0-0.1,0.1-0.1,0.1c0,0,0,0.1,0,0.1c0,0,0,0,0,0.1
	c0,0,0,0.1,0,0.1c0,0,0,0,0,0.1c0,0.1,0,0.1,0,0.1c0,0,0,0,0,0c0,0,0,0.1-0.1,0.3c0,0.1-0.1,0.2-0.1,0.2c0,0,0,0.1,0,0.1
	c0,0,0,0.1,0,0.1c0,0,0,0,0,0.1c0,0.1,0,0.1,0,0.2c0,0,0,0,0,0s0,0.1,0,0.1c0,0.1,0,0.1,0,0.1c0,0,0,0.1,0,0.2s0,0.1,0,0.1
	c0,0,0,0.1,0,0.2c0,0.1,0,0.2,0,0.2c0,0,0,0.1,0,0.2c0,0.1,0,0.2,0,0.2c-0.1,0,0,1.2,0,1.2c0,0,0,0,0,0.1c0,0,0,0.1,0.1,0.1
	c0,0,0.1,0.1,0.1,0.1c0,0,4.1,0,9.2,0c6.1,0,9.1,0,9.1,0c0,0,0,0,0.1,0c0,0,0.1,0,0.1-0.1c0,0,0.1-0.1,0.1-0.1c0,0,0,0,0,0
	c0,0,0-0.1,0-0.1c0-0.1,0.1-0.6,0-0.7c0,0,0-0.2,0-0.3c0-0.2,0-0.3,0-0.3c0,0,0-0.1,0-0.2c0-0.1,0-0.2,0-0.2c0,0,0-0.1,0-0.1
	c0-0.1,0-0.2,0-0.2s0-0.1,0-0.1s0-0.1,0-0.2c0,0,0-0.1,0-0.1c0,0,0-0.1,0-0.1c0,0,0,0,0-0.1c0,0,0-0.1,0-0.1c0,0,0-0.1,0-0.2
	c0-0.1,0-0.2,0-0.2c0,0,0-0.1-0.1-0.2c-0.1-0.2-0.1-0.4-0.1-0.4c0,0,0-0.1,0-0.1c0,0,0-0.1,0-0.1c0,0,0-0.1,0-0.1c0,0,0,0,0,0
	c0,0,0,0,0-0.1c0,0,0-0.1,0-0.1c0,0,0-0.1,0-0.1s0,0,0,0c0,0,0-0.1-0.1-0.1c0-0.1-0.1-0.1-0.1-0.2c0,0-0.1-0.1-0.1-0.1
	c0,0,0-0.1-0.1-0.1c0,0-0.1-0.1-0.1-0.1c0-0.1-0.1-0.3-0.1-0.3c0,0,0,0,0-0.1s0-0.1,0-0.1s0,0-0.1-0.1c0,0-0.1-0.1-0.1-0.1
	c0,0,0,0,0,0c0,0,0-0.1-0.1-0.1c0,0-0.1,0-0.1-0.1c0,0,0-0.1-0.1-0.1c0-0.1-0.1-0.1-0.1-0.1c0,0,0,0-0.1-0.1c0,0-0.1-0.1-0.1-0.1
	c0,0-0.2-0.3-0.3-0.3c0,0,0,0,0,0c0,0-0.1-0.1-0.2-0.3c-0.1-0.1-0.3-0.3-0.3-0.3c0,0-0.1-0.2-0.2-0.2c0,0-0.1,0-0.1-0.1
	c0,0-0.1-0.1-0.1-0.1c0,0,0,0-0.1-0.1c0,0-0.1-0.1-0.1-0.1c0,0-0.3-0.2-0.3-0.3c0,0,0,0-0.1,0c0,0-0.1,0-0.1-0.1
	c-0.1-0.1-0.1-0.1-0.1-0.1c0,0,0,0,0,0c0,0,0-0.1-0.1-0.1c0,0-0.1-0.1-0.2-0.1c0,0-0.1-0.1-0.2-0.1c0,0-0.1-0.1-0.1-0.1
	c0,0-0.1-0.1-0.1-0.1c0,0,0,0,0,0c0,0-0.2-0.1-0.2-0.1c0,0,0,0,0,0c0,0,0,0-0.1-0.1c-0.1,0-0.1-0.1-0.2-0.1c0,0-0.1-0.1-0.2-0.1
	c0,0-0.1,0-0.2-0.1c0,0-0.1-0.1-0.1-0.1c0,0-0.1,0-0.1,0c0,0-0.1,0-0.1-0.1c-0.1,0-0.2-0.1-0.2-0.1c0,0-0.1-0.1-0.2-0.1
	c0,0-0.1,0,0,0c0,0-0.1-0.1-0.3-0.1c-0.2-0.1-0.3-0.1-0.4-0.1c0,0-0.1,0-0.1,0c0,0-0.1,0-0.1,0c0,0,0,0,0,0c0,0-0.1,0-0.1,0
	c0,0-0.2,0-0.3,0c-0.1,0-0.2,0-0.3,0c0,0-0.1,0-0.2,0c-0.4,0-0.6-0.1-0.6-0.1c0,0-0.1,0,0,0c0,0,0,0,0,0C20.6,4.1,19,4.1,18.9,4.2z"
	/>
<path class="st3" d="M13.1,6.8C13.1,6.9,13.1,6.9,13.1,6.8C13.2,6.8,13.2,6.8,13.1,6.8C13.2,6.8,13.2,6.8,13.1,6.8z"/>
</svg>
