<?xml version="1.0" encoding="UTF-8"?><svg id="Layer_1" xmlns="http://www.w3.org/2000/svg" viewBox="0 0 300 300"><defs><style>.cls-1{fill:#050505;}.cls-2{fill:#ececec;}.cls-3{fill:#fefefe;}</style></defs><circle class="cls-2" cx="150" cy="150" r="149.5"/><path class="cls-3" d="M299.92,131.01c-1.76-.22-1.82-1.5-2.02-2.9-3.76-27.15-14.47-51.27-31.82-72.45C242.03,26.32,211.38,8.3,173.88,2.11c-1.39-.23-2.69-.26-2.9-2.03C212.8,.08,254.61,.12,296.42,0c2.98,0,3.59,.6,3.58,3.58-.12,42.48-.08,84.95-.08,127.43Z"/><path class="cls-3" d="M171.99,299.92c.2-1.77,1.5-1.79,2.89-2.03,29.67-5.24,55.51-17.92,77.52-38.74,21.46-20.3,35.64-44.66,42.95-73.12,1.19-4.63,1.8-9.41,2.55-14.14,.22-1.4,.27-2.68,2.03-2.89,0,42.48-.04,84.95,.08,127.43,0,2.98-.6,3.59-3.58,3.58-41.48-.12-82.95-.08-124.43-.08Z"/><path class="cls-3" d="M129.01,.08c-.18,1.41-1.09,1.8-2.4,2-29.17,4.43-54.57,16.68-76.54,36.38C23.74,62.08,8.04,91.4,2.11,126.12c-.24,1.39-.26,2.68-2.03,2.89C.08,87.28,.12,45.55,0,3.82,0,.71,.71,0,3.82,0c41.73,.12,83.46,.08,125.19,.08Z"/><path class="cls-3" d="M.08,170.99c1.42,.17,1.81,1.08,2,2.39,3.91,26.6,14.62,50.36,31.44,71.09,22.41,27.62,51.38,44.95,86.19,52.61,2.74,.6,6.54-.94,8.3,2.83-41.48,0-82.95-.04-124.43,.08-2.98,0-3.59-.6-3.58-3.58,.12-41.81,.08-83.62,.08-125.43Z"/><path class="cls-1" d="M68.5,150.61c0-20.31,0-40.63,0-60.94,0-9.71,3.72-15.93,11.16-18.74,8.75-3.31,17.82-.98,23.88,6.28,32.1,38.48,64.18,76.99,96.26,115.48,.43,.51,.81,1.06,1.28,1.54,.9,.91,1.51,2.71,2.96,2.3,1.6-.45,1.01-2.25,1.01-3.51,.03-28.47,.03-56.95-.01-85.42,0-1.2,.74-2.91-.98-3.46-1.24-.4-2.03,.91-2.88,1.65-9.81,8.51-19.59,17.06-29.4,25.57-1.98,1.71-4,4.18-6.8,1.45-2.44-2.38-.59-4.55,.81-6.63,10.68-15.88,21.34-31.78,32.06-47.64,5.13-7.6,12.88-10.52,20.71-7.98,7.69,2.49,12.03,8.94,12.03,18.13,.02,41.3,.02,82.59,0,123.89,0,9.13-3.97,15.5-11.23,18.23-8.59,3.23-17.86,.99-23.59-5.87-32.22-38.6-64.41-77.23-96.66-115.8-1.28-1.53-2.23-4.58-4.54-3.72-1.89,.71-.82,3.59-.82,5.48-.06,27.31-.05,54.62-.02,81.92,0,1.43-.72,3.37,.7,4.19,1.89,1.09,2.86-1.09,4-2.07,9.63-8.21,19.19-16.49,28.76-24.77,1.94-1.68,3.94-3.63,6.5-1.45,2.6,2.22,.92,4.46-.51,6.6-10.78,16.02-21.51,32.07-32.32,48.06-4.95,7.31-12.22,10.13-19.81,7.9-7.88-2.31-12.49-8.72-12.52-17.73-.05-20.98-.02-41.96-.02-62.94Z"/></svg>