<?xml version="1.0" encoding="UTF-8"?><svg id="Layer_1" xmlns="http://www.w3.org/2000/svg" xmlns:xlink="http://www.w3.org/1999/xlink" viewBox="0 0 36 36"><defs><style>.cls-1{fill:none;}.cls-2{fill:url(#linear-gradient-5);}.cls-2,.cls-3,.cls-4,.cls-5,.cls-6,.cls-7,.cls-8,.cls-9,.cls-10,.cls-11,.cls-12,.cls-13,.cls-14{isolation:isolate;}.cls-2,.cls-15{opacity:.7;}.cls-3{fill:url(#linear-gradient-4);}.cls-3,.cls-4,.cls-5,.cls-6,.cls-7,.cls-8,.cls-11,.cls-12,.cls-13,.cls-14,.cls-16{opacity:.6;}.cls-4{fill:url(#linear-gradient-9);}.cls-5{fill:url(#linear-gradient-7);}.cls-6{fill:url(#linear-gradient-8);}.cls-7{fill:url(#linear-gradient-2);}.cls-8{fill:url(#linear-gradient);}.cls-17,.cls-9,.cls-10{fill:#fff;}.cls-18{fill:#5e12a0;}.cls-9{opacity:.2;}.cls-10{opacity:.3;}.cls-11{fill:#a98698;}.cls-19{fill:url(#radial-gradient-2);}.cls-12{fill:url(#linear-gradient-10);}.cls-13{fill:url(#linear-gradient-11);}.cls-14{fill:url(#linear-gradient-12);}.cls-20{fill:url(#linear-gradient-3);}.cls-21{fill:url(#linear-gradient-6);}.cls-22{opacity:.4;}.cls-23{fill:url(#radial-gradient);}</style><radialGradient id="radial-gradient" cx="-634.95" cy="472.82" fx="-634.95" fy="472.82" r="1.12" gradientTransform="translate(6160.09 4570.79) scale(9.65 -9.65)" gradientUnits="userSpaceOnUse"><stop offset="0" stop-color="#ffeaff" stop-opacity=".6"/><stop offset=".68" stop-color="#a087c9"/><stop offset="1" stop-color="#10002f"/></radialGradient><radialGradient id="radial-gradient-2" cx="-678.61" cy="508.51" fx="-678.61" fy="508.51" r="1.12" gradientTransform="translate(16052.42 12021.07) scale(23.62 -23.62)" gradientUnits="userSpaceOnUse"><stop offset="0" stop-color="#ffeaff" stop-opacity=".6"/><stop offset=".68" stop-color="#a087c9"/><stop offset="1" stop-color="#10002f"/></radialGradient><linearGradient id="linear-gradient" x1="13.84" y1="-81.3" x2="18.16" y2="-54.64" gradientTransform="translate(0 -47.57) scale(1 -1)" gradientUnits="userSpaceOnUse"><stop offset="0" stop-color="#81ffff"/><stop offset=".62" stop-color="#fff" stop-opacity="0"/></linearGradient><linearGradient id="linear-gradient-2" x1="25.54" y1="-58.79" x2="14.39" y2="-69.02" gradientTransform="translate(0 -47.57) scale(1 -1)" gradientUnits="userSpaceOnUse"><stop offset=".29" stop-color="#fff"/><stop offset=".78" stop-color="#fff" stop-opacity="0"/></linearGradient><linearGradient id="linear-gradient-3" x1="3.2" y1="-74.27" x2="28.85" y2="-74.27" gradientTransform="translate(0 -47.57) scale(1 -1)" gradientUnits="userSpaceOnUse"><stop offset="0" stop-color="#0002e9"/><stop offset="1" stop-color="#ff00c7"/></linearGradient><linearGradient id="linear-gradient-4" x1="30.07" y1="-68.97" x2="16.12" y2="-82.16" gradientTransform="translate(0 -47.57) scale(1 -1)" gradientUnits="userSpaceOnUse"><stop offset=".29" stop-color="#fff"/><stop offset=".78" stop-color="#fff" stop-opacity="0"/></linearGradient><linearGradient id="linear-gradient-5" x1="3.2" y1="-74.27" x2="16.9" y2="-74.27" gradientTransform="translate(0 -47.57) scale(1 -1)" gradientUnits="userSpaceOnUse"><stop offset="0" stop-color="#000292"/><stop offset="1" stop-color="#7d00c7"/></linearGradient><linearGradient id="linear-gradient-6" x1="3.21" y1="-69.03" x2="28.81" y2="-69.03" gradientTransform="translate(0 -47.57) scale(1 -1)" gradientUnits="userSpaceOnUse"><stop offset="0" stop-color="#000292"/><stop offset="1" stop-color="#be00c7"/></linearGradient><linearGradient id="linear-gradient-7" x1="28.4" y1="-55.29" x2="26.56" y2="-58.28" gradientTransform="translate(0 -47.57) scale(1 -1)" gradientUnits="userSpaceOnUse"><stop offset=".29" stop-color="#fff"/><stop offset=".78" stop-color="#fff" stop-opacity="0"/></linearGradient><linearGradient id="linear-gradient-8" x1="14.47" y1="-77.32" x2="15.49" y2="-77.32" gradientTransform="translate(0 -47.57) scale(1 -1)" gradientUnits="userSpaceOnUse"><stop offset=".29" stop-color="#fff"/><stop offset=".78" stop-color="#fff" stop-opacity="0"/></linearGradient><linearGradient id="linear-gradient-9" x1="17.99" y1="-77.02" x2="19.01" y2="-77.02" gradientTransform="translate(0 -47.57) scale(1 -1)" gradientUnits="userSpaceOnUse"><stop offset=".29" stop-color="#fff"/><stop offset=".78" stop-color="#fff" stop-opacity="0"/></linearGradient><linearGradient id="linear-gradient-10" x1="16.43" y1="-78.75" x2="17.19" y2="-78.75" gradientTransform="translate(0 -47.57) scale(1 -1)" gradientUnits="userSpaceOnUse"><stop offset=".29" stop-color="#fff"/><stop offset=".78" stop-color="#fff" stop-opacity="0"/></linearGradient><linearGradient id="linear-gradient-11" x1="11.17" y1="-76.64" x2="12.84" y2="-76.64" gradientTransform="translate(0 -47.57) scale(1 -1)" gradientUnits="userSpaceOnUse"><stop offset=".29" stop-color="#fff"/><stop offset=".78" stop-color="#fff" stop-opacity="0"/></linearGradient><linearGradient id="linear-gradient-12" x1="21.07" y1="-73.94" x2="22.74" y2="-73.94" gradientTransform="translate(0 -47.57) scale(1 -1)" gradientUnits="userSpaceOnUse"><stop offset=".29" stop-color="#fff"/><stop offset=".78" stop-color="#fff" stop-opacity="0"/></linearGradient></defs><circle class="cls-1" cx="18" cy="18" r="18"/><g><path class="cls-18" d="M32.1,7.8c-.3-1.3-1.4-2.6-3.4-4-1.6-1.1-3.2-1.8-4.6-1.8-.3,0-.5,0-.8,.1-.6,.1-1.1,.5-1.5,1.2-.4,.8-.5,1.8-.2,2.4,.1,.2,.2,.4,.4,.7-1.3,.8-2,1-2.1,1,3.3,1.1,6.1,3.4,7.8,6.4v-.3c.1-.8,.3-1.7,.6-2.7,.3,.1,.7,.1,1,.1,.9,0,1.7-.4,2.1-1,.7-.5,.9-1.4,.7-2.1h0Z"/><path class="cls-23" d="M28.6,10.2c2.2,.6,3.1-1.1,2.8-2.2-.3-1.1-1.3-2.3-3.1-3.6-1.8-1.3-3.6-1.8-4.8-1.6-1.2,.2-1.5,2-1.2,2.7,.1,.3,.4,.7,.8,1.1-.5,.3-.9,.6-1.2,.8,2.2,1,4.1,2.5,5.6,4.5,.2-.6,.4-1.2,.6-1.7,.1-.1,.3-.1,.5,0h0Z"/><path class="cls-19" d="M16,33.9c7.5,0,13.5-6,13.5-13.5s-6-13.5-13.5-13.5S2.5,12.9,2.5,20.4s6.1,13.5,13.5,13.5Z"/><path class="cls-11" d="M30.3,6.9c-1.8-1.9-3.4-2.4-5.2-2.8-1.5-.3-1.1-1.2,.7-1-.8-.3-1.6-.4-2.2-.2-1.2,.2-1.5,2-1.2,2.7,.1,.3,.4,.7,.8,1.1-.6,.4-1.2,.8-1.7,1,.2,.1,.5,.2,.8,.4,.8,.4,1.7,1.2,1.7,1.2-1.4-1.2-1.1-1.7,.8-3,.6-.4,1.6-.4,2.6,.1s2.1,1.8,2.1,1.8l-1.1,2.1c.1,0,.1,.1,.2,.1,.7,.2,1.2,.1,1.7,0,.5-.5,1.8-1.5,0-3.5h0Z"/><path class="cls-18" d="M25,5.2c.5,.2,1.1,.5,1.9,1,.9,.6,1.7,1.3,2.2,1.8-.8,1.1-1.4,2.6-1.7,3.7,.2,.2,.4,.5,.5,.7,.2-.6,.5-1.5,.8-2.4h.3c.3,0,.6-.1,.9-.3,.2-.1,.4-.4,.4-.9s-.4-1-1.1-1.7c-.5-.5-1.2-1.1-2-1.6-2.1-1.4-3.5-1.8-4.2-1.1-.4,.4-.4,1-.2,1.3-.7,.7-1.3,1-1.8,1.3,.3,.1,.5,.2,.8,.3,.8-.4,1.9-1.1,3.2-2.1h0Zm4.6,3.5c.1,.1,.1,.2,.1,.3,0,.2-.1,.3-.1,.3-.1,.1-.3,.1-.5,.1,.2-.3,.3-.5,.5-.7Zm-6-3.6c.1-.1,.3-.2,.6-.1-.2,.2-.5,.4-.7,.5,0-.2,0-.3,.1-.4Z"/><path class="cls-18" d="M16,6.1C8.1,6.1,1.7,12.5,1.7,20.4s6.4,14.3,14.3,14.3,14.3-6.4,14.3-14.3-6.4-14.3-14.3-14.3h0Zm0,27.8c-7.5,0-13.5-6-13.5-13.5S8.6,6.9,16,6.9s13.5,6,13.5,13.5-6,13.5-13.5,13.5h0Z"/><path class="cls-8" d="M16,33.9c7.5,0,13.5-6,13.5-13.5s-6-13.5-13.5-13.5S2.5,12.9,2.5,20.4s6.1,13.5,13.5,13.5Z"/><path class="cls-11" d="M15.9,32.2c-7.3-1.1-12.3-8.1-11.1-15.4,.5-3.3,2.2-6,4.5-8-3.4,1.9-5.9,5.4-6.6,9.5-1.2,7.4,3.8,14.3,11.1,15.5,4.1,.7,8.1-.6,11-3.1-2.5,1.4-5.7,2.1-8.9,1.5h0Z"/><path class="cls-7" d="M18.2,7.1c-3.4-.6-6.7,.2-9.4,1.9l-.1,.1c1-.6,2.6-1.2,2.6-1.2-3.9,2.3-5.1,4.8-5.1,4.8,1.5-2.9,6-5,9.5-5.2s5.8,.9,8.6,3.1c2.8,2.3,4.5,6.9,4.3,10.6-.2,3.8-2.2,6.8-2.2,6.8,1.3-1.7,2.1-3,2.6-4.2,.1-.4,.2-.8,.2-1.2,1.3-7.4-3.7-14.3-11-15.5h0Z"/><path class="cls-20" d="M28.9,20.3c0,7.1-5.7,12.8-12.8,12.8S3.2,27.3,3.2,20.3H28.9Z"/><g class="cls-16"><path class="cls-3" d="M27.8,20.3c0,6.9-5.5,12.5-12.3,12.8h.5c7.1,0,12.8-5.7,12.8-12.8h-1Z"/></g><g class="cls-15"><path class="cls-2" d="M5,20.3h-1.8c0,7.1,5.7,12.8,12.8,12.8h.9c-6.6-.5-11.9-6.1-11.9-12.8h0Z"/></g><path class="cls-21" d="M28.8,20.4c0-1.5-2.6-2.3-6-2.6-2.5-.2-5,0-7.8,.9-2.5,.7-4.7,.6-6.3,.4-3.6-.4-5.6-.5-5.6,1.3,0,2.5,5.1,5.6,12.8,4.6,3.9-.6,5.9-1.7,8.2-2.5,2.6-.8,4.7-.8,4.7-2.1h0Z"/><path class="cls-17" d="M20.2,14.3c1.2,0,2.2-1,2.2-2.2s-1-2.2-2.2-2.2-2.2,1-2.2,2.2,1,2.2,2.2,2.2Z"/><path class="cls-17" d="M23.8,15.9c.5,0,.9-.4,.9-.9s-.4-.9-.9-.9-.9,.4-.9,.9,.4,.9,.9,.9Z"/><g class="cls-16"><path class="cls-5" d="M27.1,10.4h0c-.2,0-.3-.2-.3-.3,.2-1.2,1.1-2.2,1.2-2.3s.3-.1,.4,0,.1,.3,0,.4c0,0-.9,1-1.1,2,0,.1-.1,.2-.2,.2h0Z"/></g><path class="cls-9" d="M15.1,30.5c.4,0,.7-.3,.7-.7s-.3-.7-.7-.7-.7,.3-.7,.7,.4,.7,.7,.7Z"/><g class="cls-22"><path class="cls-6" d="M14.8,30.2c-.3-.3-.3-.7,0-1,.1,0,.1-.1,.1-.1-.1,0-.2,.1-.2,.1-.3,.3-.3,.8,.1,1,.1,.2,.5,.3,.7,.1-.3,.1-.5,.1-.7-.1Z"/></g><path class="cls-10" d="M15.4,29.6c.1,0,.1-.1,.1-.1l-.1-.1-.1,.1s0,.1,.1,.1Z"/><path class="cls-9" d="M18.7,30.1c.4,0,.7-.3,.7-.7s-.3-.7-.7-.7-.7,.3-.7,.7,.3,.7,.7,.7Z"/><g class="cls-22"><path class="cls-4" d="M18.3,29.9c-.3-.3-.3-.7,0-1l.1-.1c-.1,0-.2,.1-.2,.1-.3,.3-.3,.7,0,1,.2,.2,.5,.3,.8,.1-.2,.1-.5,.1-.7-.1Z"/></g><path class="cls-10" d="M18.9,29.2c.1,0,.1-.1,.1-.1,0,0,0-.1-.1-.1s-.1,.1-.1,.1c0,0,0,.1,.1,.1Z"/><path class="cls-9" d="M16.9,31.7c.3,0,.5-.2,.5-.5s-.2-.5-.5-.5-.5,.2-.5,.5,.3,.5,.5,.5Z"/><g class="cls-22"><path class="cls-12" d="M16.6,31.5c-.2-.2-.2-.5,0-.7,0,0,.1,0,.1-.1-.1,0-.1,.1-.2,.1-.1,.2-.1,.6,.1,.7,.1,.2,.3,.2,.6,.1-.2,.1-.4,0-.6-.1Z"/></g><path class="cls-10" d="M17.1,31s.1,0,.1-.1,0-.1-.1-.1-.1,0-.1,.1,0,.1,.1,.1Z"/><path class="cls-9" d="M12.3,30.2c.6,0,1.1-.5,1.1-1.1s-.5-1.1-1.1-1.1-1.1,.5-1.1,1.1,.5,1.1,1.1,1.1Z"/><g class="cls-22"><path class="cls-13" d="M11.6,29.8c-.4-.4-.4-1.1,0-1.6q.1-.1,.2-.2c-.1,0-.3,.1-.4,.2-.4,.4-.4,1.1,0,1.6,.4,.4,.9,.4,1.4,.2-.4,.2-.8,.1-1.2-.2h0Z"/></g><path class="cls-10" d="M12.7,28.8c.1,0,.2-.1,.2-.2s-.1-.2-.2-.2-.2,.1-.2,.2,0,.2,.2,.2Z"/><path class="cls-9" d="M22.2,27.5c.6,0,1.1-.5,1.1-1.1s-.5-1.1-1.1-1.1-1.1,.5-1.1,1.1,.5,1.1,1.1,1.1Z"/><g class="cls-22"><path class="cls-14" d="M21.5,27.1c-.4-.4-.4-1.1,0-1.6l.2-.2c-.1,0-.3,.1-.4,.2-.4,.4-.4,1.1,0,1.6,.4,.4,.9,.4,1.4,.2-.4,.2-.8,.1-1.2-.2h0Z"/></g><path class="cls-10" d="M22.6,26c.1,0,.2-.1,.2-.2s-.1-.2-.2-.2-.2,.1-.2,.2,.1,.2,.2,.2Z"/></g></svg>