<?xml version="1.0" encoding="utf-8"?>
<!-- Generator: Adobe Illustrator 27.0.0, SVG Export Plug-In . SVG Version: 6.00 Build 0)  -->
<svg version="1.1" id="Layer_1" xmlns="http://www.w3.org/2000/svg" xmlns:xlink="http://www.w3.org/1999/xlink" x="0px" y="0px"
	 viewBox="0 0 512 512" style="enable-background:new 0 0 512 512;" xml:space="preserve">
<style type="text/css">
	.st0{fill:none;}
	.st1{fill:#FFFFFF;}
	.st2{fill:#E50913;}
</style>
<rect class="st0" width="512" height="512"/>
<circle class="st1" cx="255.5" cy="255.5" r="256.5"/>
<path class="st2" d="M373.2,62H150.8v48.8h222.4V62z"/>
<path d="M375.2,234.8c0,17.2-3.9,33-11.8,47.4c-7.9,14.1-20,25.5-36.4,34.3c-16.4,8.7-36.7,13.1-60.9,13.1h-44.8v106.6h-72.3v-297
	H266c23.7,0,43.7,4.1,60.1,12.3c16.4,8.2,28.6,19.5,36.8,33.8C371.1,199.7,375.2,216.2,375.2,234.8z M260.5,272.1
	c13.8,0,24.1-3.2,30.9-9.7c6.8-6.5,10.2-15.7,10.2-27.5c0-11.8-3.4-21-10.2-27.5s-17.1-9.7-30.9-9.7h-39.3v74.5H260.5z"/>
</svg>
