<?xml version="1.0" encoding="UTF-8"?><svg id="Layer_1" xmlns="http://www.w3.org/2000/svg" viewBox="0 0 192 192"><defs><style>.cls-1{fill:#ecc2c8;}.cls-2{fill:#fefefe;}.cls-3{fill:#9a3259;}.cls-4{fill:#a23356;}.cls-5{fill:#94315b;}.cls-6{fill:#a03257;}.cls-7{fill:#95315a;}.cls-8{fill:#b9364e;}.cls-9{fill:#ba364d;}.cls-10{fill:#b7364f;}.cls-11{fill:#9f3257;}.cls-12{fill:#c4384a;}.cls-13{fill:#91305c;}.cls-14{fill:#b5364f;}.cls-15{fill:#bc374d;}.cls-16{fill:#8f305d;}.cls-17{fill:#90305c;}.cls-18{fill:#d03a46;}.cls-19{fill:#cf6a79;}.cls-20{fill:#aa3453;}.cls-21{fill:#c1374b;}.cls-22{fill:#be374c;}.cls-23{fill:#ab3453;}.cls-24{fill:#b23550;}.cls-25{fill:#da3b42;}.cls-26{fill:#a63355;}.cls-27{fill:#b33550;}.cls-28{fill:#b03551;}.cls-29{fill:#bd374c;}.cls-30{fill:#a53355;}.cls-31{fill:#a83454;}.cls-32{fill:#c2384b;}.cls-33{fill:#c0374b;}.cls-34{fill:#ac3452;}.cls-35{fill:#c73849;}.cls-36{fill:#cc3947;}.cls-37{fill:#cb3947;}.cls-38{fill:#d16a79;}.cls-39{fill:#d23a45;}.cls-40{fill:#c95162;}.cls-41{fill:#e03c40;}.cls-42{fill:#c5384a;}.cls-43{fill:#c83848;}.cls-44{fill:#de3c41;}.cls-45{fill:#d53a44;}.cls-46{fill:#d63b43;}.cls-47{fill:#db3b42;}.cls-48{fill:#ae3552;}.cls-49{fill:#dd3c41;}.cls-50{fill:#e2a7b0;}.cls-51{fill:#dd8f99;}.cls-52{fill:#e33c3f;}.cls-53{fill:#ca3948;}.cls-54{fill:#d83b43;}.cls-55{fill:#a93453;}.cls-56{fill:#96315a;}.cls-57{fill:#9c3258;}</style></defs><circle class="cls-2" cx="96" cy="96" r="96"/><g><path class="cls-41" d="M82.25,191.48c-1.87-.78-3.9-.78-5.84-1.23-2.06-.48-4.15-.86-6.15-1.56-.22-.73,.37-.92,.81-.95,2.56-.14,4.88-1.27,7.38-1.71,2.69-.48,5.38-1.01,8.07-1.46,6.02-1.01,11.89-2.75,17.96-3.52,1.48-.19,3.01-.52,4.48-.95,1.2-.35,2.4-.65,3.67-.65,2.54,0,4.85-1.09,7.3-1.55,1.23-.23,2.47-.34,3.69-.56,2.07-.37,4.17-.71,6.18-1.35,2.64-.85,5.39-.98,8.07-1.56,1.62-.35,3.3-.38,4.84-1.09,.34-.16,.72-.18,1.1-.2,1.25-.07,2.47-.26,3.67-.65,1.91-.61,3.93-.66,5.89-1.05,.47-.09,1.1-.2,1.35,.5-4.37,3.48-8.93,6.65-13.97,9.1-.3-.15-.62-.29-.96-.22-2.91,.67-5.9,.8-8.84,1.38-3.27,.65-6.46,1.84-9.85,1.88-.6,0-1.15,.17-1.69,.4-.81,.35-1.66,.53-2.51,.71-2.3,.48-4.63,.81-6.86,1.59-.4,.14-.81,.26-1.22,.14-.7-.21-1.31-.06-1.9,.32-.77,.5-1.63,.23-2.44,.2-1.81-.06-3.37,.82-5.05,1.25-.92,.24-1.82,.49-2.82,.33-.74-.12-1.48,.22-2.16,.51-.74,.31-1.46,.59-2.29,.41-.16-.03,.01-.07-.12,0-1.74,.9-3.75,.5-5.54,1.12-.28,.1-.54,.22-.74,.44h-3.5Z"/><path class="cls-22" d="M191.2,87.5c.39,1.13,0,2.38,.53,3.5v.25c-.21,.58-.21,1.17,0,1.75v.5c-.32,.41,.06,.96-.28,1.37-.79,.5-1.67,.64-2.59,.76-2.63,.35-5.25,.83-7.84,1.42-2.87,.66-5.73,1.3-8.68,1.66-1.54,.19-3.18,.47-4.67,1.08-.94,.38-1.95,.41-2.92,.62-1.32,.29-2.69,.41-4.04,.6-2.49-1.99-4.87-4.1-7.21-6.26,.18-.47,.61-.5,1.02-.57,1.68-.28,3.33-.68,4.98-1.05,1.85-.42,3.77-.57,5.64-.97,2.88-.62,5.76-1.2,8.63-1.85,1.06-.24,2.12,0,3.21-.27,4.03-.97,8.08-1.91,12.16-2.66,.68-.12,1.39-.33,2.05,.14Z"/><path class="cls-52" d="M85.75,191.48c.08-.75,.67-.97,1.24-.97,.92,0,1.8-.72,2.78-.13,.17,.1,.62-.18,.88-.37,.65-.45,1.29-.71,2.08-.33,.27,.13,.54-.02,.83-.14,1.27-.51,2.45-1.18,4-.78,.81,.21,1.91-.19,2.72-.62,1.79-.94,3.67-.85,5.59-1.03,1.3-.13,2.67-.44,4.01-.68,1.19-.21,2.47-.42,3.55-.8,1.81-.63,3.75-.5,5.47-1.33,1.76-.85,3.75-.48,5.58-1.02,.58-.17,1.2-.28,1.8-.42,1.26-.28,2.39-.87,3.82-.72,1.17,.12,2.41-.71,3.65-.92,2.1-.36,4.27-.2,6.34-.88,.48-.16,.61,.3,.66,.69-4.68,2.71-9.68,4.68-14.79,6.39-5.24,1.76-10.61,3-16.08,3.8-.23,.03-.51-.05-.64,.26h-23.49Z"/><path class="cls-14" d="M1.32,110.5c-.1-.09-.19-.17-.29-.26,0-.5,0-1,0-1.5,2.27-1.95,4.23-4.23,6.77-5.88,6.53-4.23,15.92-3.77,21.98,1.11,.28,.22,.5,.52,.74,.79-.05,.66-.61,.74-1.06,.84-1.82,.39-3.5,1.33-5.39,1.45-2.53,.16-4.95,.94-7.44,1.32-3.55,.55-7.09,1.21-10.54,2.22-1.38,.4-2.8,.18-4.2,.33-.27,.03-.44-.19-.55-.43Z"/><path class="cls-40" d="M191.73,95.25v2.5c-.15,.08-.27,.05-.37-.08-.32-.78-.32-1.55,0-2.33,.1-.13,.23-.16,.38-.08Z"/><path class="cls-50" d="M191.73,93c-.35-.58-.44-1.17,0-1.75v1.75Z"/><path class="cls-19" d="M191.73,95.25c-.08,0-.16,0-.24,0-.14-.16-.16-.32-.03-.49,.1-.42-.16-.91,.27-1.25v1.75Z"/><path class="cls-51" d="M191.73,99.25v1.75c-.14,.04-.26,0-.36-.12-.27-.53-.27-1.05,0-1.58,.1-.12,.22-.14,.36-.06Z"/><path class="cls-38" d="M191.73,99.25c-.07,.01-.14,.02-.22,.02-.46-.5-.44-1-.02-1.51,.08,0,.16,0,.24,0v1.5Z"/><path class="cls-1" d="M191.52,101.02c.07,0,.14,0,.21-.02v1.25l-.1,.03h-.1c-.4-.33-.35-.72-.17-1.12,.05-.04,.11-.09,.16-.13Z"/><path class="cls-48" d="M181.07,52.98c.81,1.17,1.3,2.5,1.92,3.77,.37,.78-.12,1.09-.74,1.24-2.98,.74-5.91,1.68-9,1.91-1.57,.12-3.01,.88-4.59,1.09-3.54,.47-7,1.38-10.5,2.05-2.15,.41-4.27,1.07-6.49,1.13-.34,0-.66,.11-.97,.23-2.79,1.05-5.74,1.24-8.65,1.6-.84,.11-1.62,.35-2.42,.55-3.72,.93-7.48,1.65-11.29,2.07-.25,.03-.5,.04-.74,.12-3.9,1.36-8.06,1.55-12.02,2.64-1.58,.43-3.33,.15-4.82,1.08-4.83,.25-9.48,1.34-14,3.06-.6-.39-1.21-.32-1.9-.18-1.87,.39-3.72,.84-5.54,1.45-1.22,.41-2.5,.63-3.81,.57-.75-.04-1.5,.13-2.22,.33-4,1.13-8.19,1.33-12.18,2.36-4.98,1.29-10.11,1.82-15.08,3.17-3.55,.96-7.19,1.74-10.87,2.14-.97,.1-1.87,.73-2.9,.4-2.08-1.25-4.17-2.5-6.25-3.75,.58-.79,1.49-.94,2.33-1,1.17-.08,2.29-.33,3.41-.66,2.75-.82,5.6-1.35,8.39-1.78,3.69-.58,7.31-1.53,11.03-2,2.56-.32,5.13-.9,7.66-1.55,2.17-.55,4.33-1.37,6.67-1.28,1.44,.05,2.73-.91,4.22-.94,2.1-.05,4.07-1.02,6.19-.97,.21,0,.42-.06,.6-.16,2.12-1.14,4.5-1.07,6.79-1.36,2.1-.27,4.09-1.12,6.14-1.38,2.92-.38,5.7-1.45,8.67-1.55,1.28-.05,2.53-.45,3.74-.95,1.9-.78,3.98-.73,5.97-1.08,1.31-.23,2.63-.32,3.8-1.02,.25-.15,.52-.33,.81-.29,1.48,.21,2.88-.36,4.31-.45,1.56-.11,3.03-.51,4.5-.91,2.49-.68,5.08-.83,7.57-1.46,2.09-.53,4.24-.76,6.35-1.27,1.43-.35,2.93-.55,4.39-.73,1.74-.22,3.42-.7,5.12-1.02,2.06-.39,4.1-1.01,6.16-1.46,1.33-.29,2.65-.68,4.03-.71,.91-.02,1.77-.41,2.65-.61,2.84-.66,5.76-.78,8.61-1.4,1.34-.3,2.56-1.02,3.96-1.07,.33-.01,.65-.15,.96,.06Z"/><path class="cls-55" d="M115.74,55.05c1.72,.77,3.44,1.52,5.26,2.02,.29,.76,.16,1.02-.8,1.26-1.74,.43-3.49,.8-5.28,.92-1.47,.1-2.87,.49-4.25,.95-2.06,.69-4.25,.67-6.37,1.12-1.62,.35-3.2,.86-4.84,1.13-3.06,.5-6.1,1.29-9.15,1.66-2.79,.34-5.4,1.25-8.14,1.63-3.73,.5-7.32,1.76-11.11,1.94-1.33,.06-2.56,.69-3.86,.99-2.75,.63-5.6,.8-8.31,1.5-5.11,1.33-10.32,2.1-15.46,3.22-2.67,.58-5.35,1.09-7.99,1.8-.79,.22-1.64,.14-2.46,.21-2.16,.21-4.14,1.13-6.33,1.27-1.73,.11-3.5,.66-5.15,1.36-5.27-.23-10.48,.08-15.54,1.7-1.46,.47-2.89,1-4.5,1.55,.41-2.53,.77-4.97,1.52-7.33,1.7-.04,3.42-.15,5.04-.64,1.88-.57,3.85-.54,5.74-1.08,.83-.24,1.68-.45,2.53-.64,1.62-.36,3.24-.72,4.92-.68,.38,.01,.75-.02,1.1-.17,1.25-.54,2.59-.78,3.89-1.14,2.31-.63,4.7-.48,6.97-1.11,1.6-.44,3.24-.67,4.78-1.35,1.1-.49,2.39-.45,3.54-.51,1.76-.1,3.4-.69,5.07-1.03,1.69-.34,3.5-.14,5.09-.99,.66-.35,1.38-.1,2.08-.03,.61,.61,1.27,1.19,1.82,1.86,.43,.51,.77,.48,1.19,.07,2.57-.27,5.03-1.13,7.57-1.49,2.77-.4,5.43-1.29,8.17-1.68,2.92-.41,5.83-.75,8.61-1.8,.76-.29,1.55-.24,2.34-.3,2.33-.18,4.57-.8,6.86-1.21,3.97-.7,7.89-1.71,11.87-2.37,1.85-.3,3.65-.81,5.48-1.2,1.98-.42,4.01-.67,6.01-1.02,.7-.12,1.39-.27,2.08-.41Z"/><path class="cls-34" d="M181.07,52.98c-2.48,.68-4.94,1.47-7.49,1.86-2.33,.36-4.74,.37-6.98,1.02-2.74,.79-5.57,.98-8.3,1.78-2.74,.8-5.55,1.46-8.42,1.77-.45,.05-.87,.26-1.32,.34-2.36,.43-4.72,.82-7.07,1.27-1.96,.38-3.93,.78-5.87,1.28-.5,.13-.97,.05-1.45,.1-2.02,.2-3.89,1.28-5.85,1.35-1.88,.07-3.63,1.14-5.55,.57-.21-.06-.54-.04-.71,.08-1.35,.98-2.95,.91-4.47,1.25-2.07,.47-4.25,.35-6.27,1.3-1.7,.79-3.65,.91-5.56,1-1.04,.05-2.09,.45-3.09,.82-1.2,.44-2.48,.03-3.66,.48-.3,.12-.72,.07-.94,.26-1.37,1.18-3.15,.61-4.7,1.15-1.24,.44-2.7,.22-4.05,.4-.94,.13-1.8,.76-2.69,.89-1.6,.22-3.14,.76-4.71,.94-1.66,.19-3.31,.25-4.85,.94-.28,.12-.55,.22-.83,.19-2.27-.28-4.37,.64-6.49,1.11-1.78,.39-3.59,.82-5.37,1.26-1.75,.44-3.56,.66-5.35,.85-1.74,.18-3.34,.92-5.09,1.04-1.16,.08-2.28,.41-3.46,.48-1.11,.07-2.27,.56-3.42,.85-2.22,.56-4.5,.81-6.7,1.54-1.34,.44-2.94,.29-4.33,.88-2.18-.83-4.35-1.66-6.53-2.49,.72-.78,1.57-1.21,2.66-1,.2,.04,.44,.08,.62,0,1.68-.84,3.57-.72,5.33-1.14,1.5-.36,2.96-.78,4.53-.77,1.39,.02,2.62-.76,3.96-1.06,1.67-.37,3.38-.34,5.03-.83,.79-.23,1.62-.31,2.37-.7,.26-.14,.54-.24,.83-.24,3.44,.05,6.65-1.31,10.02-1.68,2.08-.23,4.07-.87,6.05-1.39,2.16-.56,4.42-.51,6.54-1.31,1.28-.48,2.77-.45,4.17-.66,3.17-.48,6.26-1.27,9.4-1.87,2.49-.47,4.97-.94,7.44-1.5,2.63-.6,5.27-1.15,7.93-1.55,2.51-.39,4.95-1.14,7.46-1.46,3.84-.49,7.55-1.58,11.36-2.21,1.84-.31,3.68-.7,5.47-1.25,1.7-.06,3.4,.1,5.09-.09,4.94-.42,9.71-1.53,14.23-3.61,1.12,.04,2.24-.17,3.29-.46,2.81-.78,5.72-1.04,8.54-1.72,4.92-1.2,9.94-1.89,14.85-3.09,.94-.23,1.87-.39,2.83-.13,.71,.97,1.17,2.07,1.6,3.19Z"/><path class="cls-33" d="M6.99,131.75c-.57-1.02-.9-2.14-1.19-3.26,2.6-.26,5.13-.91,7.64-1.58,2.12-.57,4.3-.74,6.43-1.27,1.75-.44,3.56-.74,5.36-1.06,1.53-.27,3.1-.41,4.6-.83,1.44-.4,2.94-.39,4.4-.76,.99-.25,2.04-.33,3.01-.71,1.41-.56,2.92-.61,4.39-.82,2.47-.35,4.86-1.01,7.28-1.59,.94-.23,1.89-.28,2.83-.43,1.81-.29,3.57-.73,5.28-1.41,2.47,.23,4.95,.21,7.43,.18,.41-.22,.89,0,1.31-.18,5.62-.52,10.8-2.43,15.77-5,.74,.06,1.35-.35,2.02-.56,.92-.28,1.82-.54,2.8-.43,.58,.06,1.18,0,1.71-.25,1.96-.89,4.02-1.1,6.15-1.25,1.75-.13,3.5-.6,5.2-1.14,.95-.3,1.85-.64,2.89-.58,1.72,.09,3.38-.49,4.96-1.03,1.92-.65,3.9-.74,5.85-1.11,2.87-.55,5.74-1.13,8.61-1.71,2.14-.43,4.23-1.19,6.45-1.22,.59,0,1.09-.43,1.69-.3,1.28,1.19,2.53,2.4,3.95,3.43,.12,.61-.37,.79-.74,.74-2.12-.23-3.95,.99-5.94,1.18-1.76,.16-3.26,1.47-5.13,1-.36-.09-.71,.22-1.07,.3-1.24,.28-2.41,.85-3.78,.61-.85-.14-1.77,.08-2.54,.5-.65,.35-1.29,.48-2,.57-.98,.13-1.98,.32-2.91,.69-1.06,.42-2.16,.59-3.3,.6-1.92,.03-3.94,.12-5.67,.68-2.2,.71-4.46,.93-6.64,1.57-2.35,.7-4.74,1.05-7.16,1.37-1.38,.18-2.72,.71-4.1,1.04-2.95,.7-5.99,.85-8.95,1.52-2.42,.55-4.92,.75-7.28,1.62-.31,.12-.64,.19-.97,.21-2.65,.1-5.08,1.27-7.66,1.59-1.77,.22-3.57,.44-5.24,.91-1.95,.55-4.11-.04-5.88,1.23-.35,.25-.8,.15-1.22,.14-.84-.01-1.66,.09-2.39,.58-.43,.29-.9,.39-1.42,.38-1.47-.02-2.89,.4-4.28,.74-2.52,.61-5.06,.88-7.62,1.14-1.08,.11-2.12,.22-3.08,.84-.83,.54-1.86,.34-2.8,.41-.71,.05-1.42,.03-1.98,.58-.18,.18-.42,.27-.68,.27-2.82-.03-5.47,1.01-8.23,1.36-.92,.11-1.76,.53-2.66,.69-1.18,.21-2.36,.21-3.51-.21Z"/><path class="cls-5" d="M30.25,26.98c2.19-2.34,4.7-4.31,7.25-6.23,1.57-.03,3.15,.16,4.6-.74,.67-.41,1.55-.2,2.31-.27,2.86-.26,5.55-1.33,8.4-1.61,1.32-.13,2.55-.7,3.86-.97,2.79-.57,5.72-.4,8.38-1.67,.63-.3,1.37-.33,2.09-.27,.37,.03,.77,.09,1.11-.07,2.35-1.07,5.01-.85,7.38-1.62,2.99-.97,6.1-1.11,9.13-1.73,3.77-.77,7.52-1.71,11.36-2.16,.83-.1,1.67-.26,2.43-.55,3.03-1.19,6.29-1.11,9.41-1.79,3.2-.69,6.4-1.42,9.63-2.03,1.38-.26,2.83-.22,4.16-.76,3.12,.64,6.05,1.84,9.03,2.93,.15,.05,.31,.09,.46,.14,.22,.91-.57,.78-1,.88-1.38,.3-2.8,.26-4.18,.64-2.2,.61-4.42,1.11-6.7,1.4-1.46,.18-2.83,.89-4.34,1.08-2.59,.32-5.19,.71-7.71,1.37-1.92,.5-3.9,.63-5.82,1.17-1.39,.4-2.88,.72-4.36,.78-1.09,.05-2.15,.22-3.15,.68-.69,.32-1.41,.5-2.18,.39-.46-.06-.92,.02-1.36,.14-3.86,1.02-7.78,1.84-11.71,2.5-2.4,.41-4.73,1.35-7.23,1.18-.73-.05-1.49,.22-2.18,.47-2.25,.79-4.58,1.14-6.93,1.41-.71,.08-1.36,.4-2.06,.5-4.06,.59-8.03,1.63-12.07,2.35-3.14,.56-6.28,1.19-9.4,1.85-2.26,.47-4.53,.92-6.77,1.46-.44,.11-.92,.1-1.36-.03-.39-.11-.72-.29-.45-.79Z"/><path class="cls-10" d="M145.47,87.76c-2.92-2.49-5.84-4.97-8.76-7.46,.11-.86,.86-.97,1.46-1.07,1.85-.28,3.62-.95,5.52-.95,.91,0,1.82-.19,2.63-.67,.25-.15,.54-.28,.82-.27,3.02,.06,5.78-1.48,8.81-1.41,.88,.02,1.68-.33,2.51-.66,1.11-.44,2.35-.45,3.52-.55,2.1-.16,4.03-.91,6.03-1.39,.77-.18,1.5-.41,2.32-.37,1.13,.06,2.22-.4,3.25-.74,1.92-.62,3.91-.73,5.85-1.1,2.77-.53,5.54-1.09,8.31-1.64,.92,2.85,1.8,5.7,2.01,8.71,.01,.19,.14,.37,.22,.55-.6,.56-1.34,.84-2.12,.97-2.74,.46-5.44,1.14-8.19,1.48-2.14,.26-4.26,.66-6.34,1.17-2.34,.58-4.72,.9-7.05,1.4-2.46,.53-4.9,1.25-7.41,1.57-3.41,.43-6.69,1.44-10.05,2.1-1.09,.21-2.21,.3-3.33,.31Z"/><path class="cls-7" d="M30.25,26.98c.66,1.07,1.58,.5,2.4,.33,1.8-.36,3.51-1.06,5.4-1.09,1.07-.02,2.13-.47,3.2-.68,1.16-.22,2.34-.5,3.51-.7,2.56-.44,5.08-1.04,7.65-1.42,1.13-.17,2.37-.41,3.53-.9,1.25-.54,2.75-.19,4.1-.69,2.14-.79,4.45-.76,6.66-1.28,1.49-.35,2.9-1.14,4.4-1.13,1.59,0,3.08-.3,4.6-.62,4.29-.88,8.63-1.55,12.87-2.6,2.34-.58,4.73-.8,7.07-1.39,1.66-.42,3.41-.91,5.24-.85,.92,.03,1.85-.63,2.89-.78,2.61-.38,5.17-1.14,7.78-1.49,1.54-.21,3.07-.49,4.61-.65,.25-.03,.52,0,.73-.11,1.29-.62,2.68-.72,4.05-.99,1.87-.36,3.81-.65,5.61-1.34,1.32-.51,2.73-.12,4.05-.55,.29-.1,.57-.11,.61-.48,3.39,1.2,6.59,2.78,9.74,4.5-.14,1.02-1.04,.89-1.65,.94-2.35,.19-4.54,1.14-6.88,1.31-1.16,.08-2.28,.4-3.34,.9-1.5,.71-3.16,.6-4.74,.8-1.66,.2-3.23,.74-4.86,1.04-1.39,.26-2.74,.67-4.17,.59-.83-.05-1.47,.53-2.23,.73-1.79,.48-3.66,.53-5.45,1.18-1.1,.4-2.43,.4-3.67,.48-.73,.05-1.39,.17-2,.56-3.09-.68-6.17-1.29-9.35-1.4-4.28-.14-8.46,.33-12.58,1.47-.24,.07-.49,.09-.73,.14-1.17,.03-2.3,.21-3.38,.68-1.66,.72-3.48,.6-5.22,.99-3.02,.68-6.11,1.06-9.11,1.88-.53,.15-1.05,.28-1.59,.19-.69-.11-1.29,.15-1.93,.33-2.1,.57-4.16,1.43-6.4,1.26-.39-.03-.74,.05-1.1,.18-.39,.14-.77,.41-1.17,.41-2.39,.03-4.61,.93-6.93,1.32-2.77,.47-5.58,.83-8.31,1.57-2.04,.55-4.21,.48-6.19,1.37-.39,.18-1.1,.34-1.24-.5,1.06-1.28,2.25-2.43,3.5-3.51Z"/><path class="cls-12" d="M62.77,132.44c-5.05,.45-9.86,1.79-14.48,3.86-.32-.12-.65-.19-.98-.07-2.25,.81-4.61,1.08-6.95,1.41-2.56,.36-4.9,1.56-7.47,1.81-.46,.04-.91,.1-1.36,.01-.6-.12-1.18-.05-1.69,.26-.78,.47-1.62,.61-2.5,.73-4.49,.59-8.88,1.66-13.31,2.53-.56,.11-1.13,.34-1.7,0-.62-1.16-1.25-2.32-1.87-3.48,.73-.54,1.63-.66,2.46-.78,4.19-.63,8.3-1.67,12.51-2.21,1.81-.23,3.65-.76,5.44-1.3,.52-.16,1.04-.29,1.58-.32,2.5-.17,4.92-.81,7.33-1.43,.08-.02,.16-.07,.24-.07,2.57,.05,4.92-1.16,7.47-1.27,1.23-.05,2.32-.65,3.48-.97,1.65-.46,3.35-.59,5.02-.87,3.11-.53,6.14-1.46,9.31-1.72,1.53-.13,3.07-.59,4.61-.88,2.81-.53,5.58-1.18,8.41-1.63,2.07-.33,4.14-.82,6.17-1.41,1.2-.35,2.45-.42,3.68-.63,2.21-.39,4.38-1.03,6.6-1.34,4.11-.57,8.09-1.81,12.21-2.36,1.87-.25,3.8-.47,5.6-1.15,.77-.29,1.59,0,2.34-.26,2.59-.88,5.34-1.01,7.99-1.74,1.85-.51,3.77-.99,5.73-1.15,1.41-.12,2.72-.84,4.12-.97,2.74-.25,5.4-.89,8.1-1.37,.25-.05,.5-.03,.74,.04l2.38,2.09c.01,.68-.5,.77-.99,.88-2.18,.45-4.3,1.09-6.45,1.65-.28,.07-.59,.27-.84,.18-1.2-.44-2.15,.15-3.12,.69-.18,.06-.37,.09-.55,.11-.62,.01-1.21,.21-1.79,.41-.24,.07-.49,.1-.74,.09-2.02-.68-3.59,.59-5.31,1.22-.31,.14-.64,.21-.97,.21-3.21,.03-6.3,.71-9.35,1.66-1.19,.37-2.46,.37-3.69,.52-1.33,.16-2.66,.31-3.9,.81-2.11,.86-4.39,.87-6.57,1.35-1.54,.33-3.11,.56-4.66,.88-2.72,.55-5.44,1.13-8.16,1.66-1.62,.32-3.27,.54-4.85,1.08-.16,.05-.32,.11-.49,.11-3.02-.1-5.82,1.05-8.73,1.56-2.44,.43-4.85,1.08-7.31,1.47-.91,.14-1.83-.08-2.73,.14Z"/><path class="cls-27" d="M187.74,69.49c-1.16,1.01-2.68,.99-4.05,1.22-2.72,.45-5.41,1.02-8.14,1.42-1.37,.2-2.96,.3-4.22,1.17-.32,.22-.6,.18-.94,.07-.48-.17-.97-.1-1.46,.05-2.39,.69-4.73,1.51-7.28,1.69-2.05,.14-4.05,.98-6.11,1.23-2.23,.27-4.38,1.09-6.52,1.25-2.46,.19-4.67,1.25-7.16,1.32-1.66,.04-3.62,.22-5.13,1.41-3.07-2.09-6.33-3.84-9.75-5.28,.25-.82,.98-.79,1.62-.91,4.51-.89,9.04-1.66,13.51-2.7,2.39-.56,4.81-.86,7.22-1.26,1.11-.19,2.19-.46,3.26-.82,1.6-.54,3.18-1.22,4.94-.95,.42,.06,.81-.14,1.21-.27,.63-.21,1.28-.39,1.96-.3,1.38,.17,2.64-.1,3.76-.96,.2-.15,.44-.34,.67-.32,1.67,.11,3.25-.38,4.87-.63,.73-.11,1.51-.02,2.18-.38,1.42-.77,3.15-.33,4.54-1.18,3.01,.51,5.57-1.32,8.43-1.59,.12-.01,.25-.02,.37,0,.94,2.19,1.7,4.43,2.25,6.75Z"/><path class="cls-28" d="M185.49,62.74c-.52,.55-1.22,.67-1.92,.76-1.47,.2-2.89,.58-4.26,1.17-.67,.29-1.4,.62-2.1,0-.11-.09-.39-.16-.45-.1-1.3,1.21-3.16,.35-4.56,1.29-.68,.46-1.55,.37-2.41,.35-.99-.03-1.88,.73-2.91,.71-.83-.02-1.71-.5-2.41,.27-.81,.89-1.92,.93-2.97,1.04-.67,.07-1.36-.25-2.06,.02-1.78,.7-3.76,.24-5.53,.86-1.25,.43-2.42,1.09-3.77,1.22-1.88,.18-3.71,.79-5.62,.72-.82-.03-1.46,.53-2.21,.76-2.73,.82-5.63,.68-8.33,1.49-2.03,.61-4.05,1.06-6.15,1.25-.3,.03-.57,.31-.86,.47-3.55-1.14-7.14-2.13-10.87-2.38-1.78-.12-3.56-.12-5.34-.17,.55-.86,1.46-1.2,2.36-1.17,2.3,.07,4.39-.88,6.61-1.16,4.5-.56,8.78-2.36,13.38-2.39,.59,0,1.14-.23,1.65-.51,.76-.4,1.48-.56,2.38-.35,.94,.22,1.82-.48,2.68-.78,1.67-.59,3.41-.41,5.08-.83,1.68-.42,3.47-.37,5.11-1.03,1.7-.69,3.54-.57,5.3-.97,3.34-.76,6.74-1.25,10.05-2.1,1.62-.41,3.32-.28,4.85-.84,1.77-.65,3.59-.91,5.42-1.1,2.27-.23,4.34-1.26,6.6-1.54,.5-.06,.82-.39,.75-.96,1.02,1.92,1.85,3.92,2.51,5.99Z"/><path class="cls-43" d="M190.52,111.01c-.04,1.54-.47,3-.79,4.49-1.18,.36-2.42,.3-3.63,.55-2.56,.52-5.13,.97-7.71,1.41-3.95,.68-7.78,2.11-11.74,2.53-2.73,.29-5.27,1.41-8.06,1.35-1.42-.03-2.77,.8-4.22,1.03-3.32,.52-6.64,1.05-9.92,1.79-.57,.13-1.12,.32-1.65,.56-.42,.19-.86,.35-1.32,.31-1.87-.15-3.61,.35-5.33,1-1.89,.72-3.96,.48-5.87,1.08-1.98,.63-4.11,.4-6.05,1.26-1.09,.48-2.36,.41-3.54,.59-2.67,.39-5.33,.92-7.94,1.55-3.81,.92-7.7,1.4-11.52,2.3-2.9,.68-5.85,1.2-8.81,1.6-1.63,.22-3.26,.58-4.81,1.24-1.57,.67-3.21,.78-4.87,.35l-6.04-2.23c.23-.41,.64-.5,1.06-.57,6.77-1.06,13.49-2.42,20.18-3.87,3.19-.69,6.4-1.29,9.6-1.88,2.27-.41,4.51-1.02,6.8-1.37,1.54-.24,3.08-.68,4.62-.89,2.83-.38,5.46-1.76,8.38-1.56,.25,.02,.52,0,.74-.11,2.1-1,4.4-1.21,6.64-1.49,2.4-.31,4.68-1.36,7.05-1.4,2.23-.04,4.24-1.24,6.48-.92,.61,.46,1.31,.78,1.79,1.44,.5,.68,.9,.19,1.28-.23,.96-1.08,1.93-2.14,2.9-3.21,.33,.08,.67,.15,.99,.05,2.65-.87,5.5-.81,8.12-1.58,3.88-1.14,7.94-1.24,11.76-2.53,1.03-.35,2.14-.42,3.19-.5,2.29-.18,4.36-1.28,6.68-1.33,1.44-.03,2.77-.87,4.24-.92,.44-.02,.91-.23,1.32,.12Z"/><path class="cls-32" d="M9.29,136.99c-.62-.91-.95-1.96-1.37-2.96,.34-.52,.89-.62,1.43-.6,1.52,.06,2.95-.55,4.42-.66,2.44-.18,4.74-1,7.19-1.24,1.91-.19,3.93-.48,5.79-1.26,.91-.38,1.94-.43,2.91-.63,.9-.19,1.75-.49,2.62-.78,1.54-.52,3.18-.45,4.78-.65,1.23-.15,2.5-.07,3.6-.79,.18-.11,.39-.22,.59-.19,2.57,.5,4.86-.85,7.3-1.2,2.51-.36,5.04-.92,7.53-1.6,2.22-.6,4.48-1.1,6.78-1.42,1.41-.2,2.81-.68,4.26-.75,3.19-.14,6.18-1.19,9.25-1.9,.71-.17,1.41,0,2.11-.06,1.73-.14,3.24-1.01,4.9-1.38,2.39-.54,4.76-1.01,7.21-1.03,.52,0,.98-.15,1.39-.48,.4-.32,.83-.56,1.35-.59,1.64-.1,3.28-.13,4.9-.59,.86-.24,1.77-.26,2.63-.64,.86-.38,1.81-.49,2.78-.57,1.34-.12,2.72-.32,4.01-.67,2.87-.78,5.8-1.03,8.72-1.44,.63-.09,1.24-.18,1.77-.54,.78-.53,1.67-.76,2.58-.84,3.03-.26,5.92-1.25,8.89-1.78,2.15-.38,4.32-.65,6.5-.79,.88,.78,1.75,1.56,2.63,2.33,.27,.7-.32,.61-.68,.71-1.08,.32-2.22,.33-3.31,.6-1.93,.46-3.89,.89-5.82,1.3-3.12,.66-6.31,1.05-9.43,1.73-2.38,.52-4.82,.72-7.18,1.44-2.5,.76-5.15,.91-7.7,1.51-2.58,.61-5.23,.88-7.79,1.56-3.34,.88-6.83,1.06-10.17,1.88-3.18,.79-6.47,1.11-9.6,2.14-.83,.27-1.72,.3-2.59,.38-4.78,.45-9.31,2.09-14.03,2.79-3.01,.45-5.94,1.18-8.92,1.72-3.72,.68-7.42,1.47-11.14,2.14-2.84,.52-5.67,1.14-8.46,1.91-.71,.2-1.46,.03-2.21,.17-2.73,.49-5.41,1.16-8.13,1.68-2.31,.44-4.63,.91-6.92,1.51-1.71,.45-3.52,1.01-5.37,.52Z"/><path class="cls-12" d="M9.29,136.99c1.72-.15,3.53-.23,5.1-.75,2.25-.75,4.56-1.14,6.84-1.53,1.78-.3,3.5-.87,5.31-1.11,1.19-.16,2.55-.3,3.73-.87,.32-.15,.61-.27,.91,.02,.15,.14,.37,.28,.57,.16,1.62-.97,3.51-.89,5.26-1.36,2.74-.74,5.59-1.1,8.4-1.54,.94-.15,1.82-.5,2.76-.66,1.99-.34,3.96-.84,5.97-1.14,1.18-.17,2.33-.57,3.51-.8,2.53-.5,5.08-.86,7.58-1.46,1.83-.44,3.74-.57,5.5-1.4,.94-.44,2.03-.12,3.05-.26,2.26-.3,4.42-1.14,6.63-1.39,3.02-.34,5.87-1.36,8.87-1.75,2.92-.38,5.91-.67,8.71-1.76,.6-.23,1.24-.35,1.93-.24,1.27,.2,2.34-.65,3.6-.78,2.6-.27,5.21-.79,7.71-1.47,2.39-.65,4.84-.86,7.23-1.51,2.16-.58,4.48-.73,6.69-1.21,1.75-.38,3.55-.42,5.29-1.06,1.83-.67,3.87-.79,5.82-1.13,.86-.15,1.72-.25,2.49-.71,1.09,.64,1.95,1.55,2.86,2.41-1.2,.72-2.62,.63-3.92,.98-2.74,.74-5.63,.68-8.4,1.64-1.3,.45-2.87,.68-4.3,.81-1.77,.16-3.35,1.06-5.06,1.12-1.9,.06-3.58,.99-5.39,1.15-3.24,.27-6.33,1.25-9.52,1.68-2.43,.32-4.79,.94-7.18,1.39-3.16,.6-6.31,1.23-9.46,1.86-1.51,.3-3.07,.58-4.57,.88-2.08,.41-4.09,1.3-6.26,1.29-1.3,0-2.5,.47-3.72,.8-.2,.05-.4,.2-.58,.18-1.19-.13-2.26,.43-3.38,.56-2.52,.3-4.98,.95-7.49,1.3-2.21,.31-4.47,.7-6.63,1.36-1.4,.43-2.86,.15-4.24,.76-2.46,1.08-5.29,.79-7.76,1.92-.59,.27-1.24,.05-1.85,.13-2.07,.29-4.09,.8-6.11,1.34-.59,.16-1.23,.13-1.84,.22-2.76,.45-5.46,1.23-8.19,1.78-1.84,.37-3.74,.86-5.72,.8-1.09-.04-2.22,.55-3.36,.79-2.06,.43-4.12,.81-6.2,1.08-.49-.8-.98-1.59-1.17-2.52Z"/><path class="cls-23" d="M130.49,59.01c-.58,.74-1.47,.59-2.24,.82-3.28,.99-6.7,1.34-10.02,2.18-2.71,.68-5.59,.84-8.32,1.53-2.56,.64-5.21,.69-7.76,1.51-.94,.3-2.09,.48-3.16,.56-1.53,.11-2.92,.75-4.45,.95-2.65,.34-5.29,.9-7.88,1.54-2.6,.65-5.23,1.08-7.88,1.41-.74,.09-1.43,.24-2.14,.47-.97,.32-1.94,.8-3.02,.35-.11-.05-.29-.08-.36-.02-1.57,1.23-3.58,.8-5.34,1.42-1.85,.65-3.85,.88-5.79,1.28-1.5,.31-3.05,.42-4.5,.95-.16,.06-.31,.21-.45,.2-1.74-.15-3.35,.36-5,.84-2.66,.76-5.54,.53-8.12,1.73-.07,.03-.16,.06-.24,.06-2.53,.08-4.94,.93-7.43,1.21-.95,.11-1.87,.17-2.74,.66-.53,.29-1.12,.5-1.79,.2-.48-.22-.99-.12-1.36,.31-.27,.31-.64,.37-1.02,.37-2.65-.5-5.31-.99-7.96-1.49,.02-.36,.17-.72,.54-.73,1.67-.07,3.16-.98,4.82-1.05,2.35-.1,4.52-1.31,6.81-1.33,1.49,0,2.76-.74,4.2-.67,.93,.05,1.7-.51,2.63-.63,2.95-.4,5.83-1.4,8.79-1.76,2.21-.27,4.27-1.28,6.55-1.14,.74,.04,1.32-.62,2.09-.73,2.47-.35,4.93-.73,7.38-1.21,2.85-.56,5.64-1.33,8.54-1.76,1.98-.3,4.18-.24,6.11-1.37,.88-.51,2.17-.32,3.27-.51,1.31-.22,2.6-.56,3.83-.95,1.87-.59,3.83-.49,5.72-.94,1.83-.43,3.8-.96,5.81-.97,.97,0,2.13-.32,3.17-.7,2.51-.9,5.2-1,7.81-1.46,.75-.13,1.41-.43,2.12-.62,2.76-.77,5.66-.67,8.41-1.47,.52-.15,1.14-.12,.89-.96,3.12,.79,6.23,1.68,9.49,1.74,.09,.04,.12,.09,.09,.13-.03,.05-.06,.07-.09,.07Z"/><path class="cls-15" d="M145.47,87.76c1.17-.86,2.59-.35,3.87-.71,.58-.16,1.19-.24,1.78-.46,1.11-.41,2.43-.37,3.4-.73,1.65-.62,3.32-.65,4.95-.91,1.68-.26,3.42-.49,4.95-1.04,2.59-.92,5.36-.62,7.91-1.66,1.14-.46,2.45-.68,3.74-.78,1.35-.11,2.71-.43,4.02-.8,1.17-.33,2.37-.1,3.56-.46,2.05-.63,4.19-.98,6.3-1.45,.68,2.88,1.06,5.8,1.23,8.75-2.27,.26-4.52,.66-6.75,1.21-2.38,.58-4.79,1.08-7.2,1.54-2.22,.42-4.47,.69-6.69,1.11-2.96,.57-5.89,1.41-8.87,1.81-2.77,.37-5.42,1.32-8.2,1.58-2.68-2.33-5.35-4.66-8.03-6.98Z"/><path class="cls-30" d="M53.75,64.59c-1.27,.18-2.48,.61-3.72,.88-1.02,.22-2.18-.18-3.08,.66-1.69-.7-3.05,.71-4.7,.77-1.62,.06-3.37,.27-5.04,.9-1.87,.7-3.89,1.15-5.95,1.34-1.8,.16-3.6,.58-5.39,.86-2.03,.31-3.78,1.46-5.95,1.41-2.64-.06-5.16,1.27-7.75,1.53-2.44,.25-4.73,1.34-7.22,1.13-.3-.03-.62,.2-.93,.31-.47,.17-.91,.27-1.03-.42,.48-2.66,1.25-5.24,2.24-7.76,1.24-.08,2.39-.61,3.64-.72,2.24-.19,4.37-.94,6.57-1.3,1.32-.22,2.67-.45,4.02-.55,1.58-.11,3.06-.74,4.62-.97,3.53-.51,7-1.33,10.46-2.14,1.83-.42,3.68-.61,5.54-.85,.29-.04,.6,0,.86-.13,2.08-1.04,4.4-1.03,6.59-1.61,2.13,2.16,4.24,4.34,6.2,6.66Z"/><path class="cls-13" d="M121.75,4.5c-.28,.55-.78,.72-1.34,.77-3.71,.34-7.3,1.35-10.93,2.09-2.54,.52-5.1,1.11-7.71,1.13-.77,0-1.33,.41-1.99,.59-3.18,.89-6.44,1.4-9.69,1.94-1.07,.18-2.02,.8-3.12,.79-1.88-.02-3.6,.78-5.39,1.06-.98,.15-2.05,.58-3.11,.19-.14-.05-.36-.05-.49,.02-2.18,1.17-4.71,.86-6.95,1.55-2.07,.64-4.2,.68-6.22,1.29-1.95,.59-3.85,1.05-5.92,1.21-1.53,.12-3.2,.32-4.68,1.02-.48,.22-1,.38-1.56,.38-1.03,0-1.99,.31-2.98,.57-1.49,.39-3.08,.58-4.59,.87-1.17,.23-2.42,.05-3.63,.71-1.09,.6-2.62,.93-3.95,.07,2.4-1.89,4.85-3.7,7.51-5.21,1.34,.33,2.54-.3,3.77-.61,1.69-.42,3.29-1.02,5.11-.98,1.05,.02,2.16-.5,3.23-.8,1.54-.42,3.1-.64,4.67-.74,1.39-.09,2.68-.56,4.02-.83,3.53-.69,7.04-1.55,10.59-2.1,1.65-.26,3.11-1.14,4.82-1.14,2.33,0,4.53-.72,6.74-1.36,.12-.03,.24-.08,.37-.08,3.01,0,5.82-1.12,8.75-1.6,2.23-.36,4.46-1.01,6.68-1.39,2.35-.39,4.66-1.07,7.06-1.18,.73-.04,1.51,.1,2.17-.4,2.77,.39,5.46,1.1,8.16,1.8,.22,.06,.5,.07,.6,.36Z"/><path class="cls-3" d="M101.98,20.59c.1-.92,.81-.89,1.47-.96,1.8-.19,3.61-.11,5.35-.85,1.24-.52,2.74-.16,3.96-.78,1.75-.89,3.68-.59,5.5-1,1.97-.44,3.9-.97,5.91-1.29,2.16-.34,4.34-.49,6.46-1.46,1.26-.58,2.98-.78,4.55-.74,.25,0,.59,.1,.73-.02,1.36-1.18,3.1-.59,4.61-1.05,.17-.05,.3-.26,.45-.4,3.4,1.59,6.41,3.84,9.55,5.85-.03,.99-.87,1.04-1.5,1.13-3.81,.51-7.58,1.1-11.3,2.14-1.66,.46-3.44,.78-5.25,.86-1.23,.05-2.57,.26-3.75,.69-1.77,.64-3.63,.85-5.44,1.21-1.69,.33-3.41,.59-5.12,.9-1.18,.21-2.22,.94-3.49,.84-.57-.05-1.16,.02-1.73-.13-3.46-2.09-7.12-3.74-10.98-4.95Z"/><path class="cls-21" d="M136.11,108.96c-1.73,.63-3.55,.67-5.34,.95-2.61,.41-5.17,1.13-7.76,1.7-.4,.09-.82,.09-1.23,.14-1.22,.16-2.43,.21-3.54,.96-1.39,.95-3.14,.77-4.69,.91-1.44,.14-2.94,.28-4.23,.72-1.61,.54-3.32,.23-4.88,.99-.87,.42-2.05-.23-2.96,.41-1.55,1.1-3.53,.45-5.16,1.36-.85,.47-2.01-.41-3.02,.09-.09,.04-.32-.11-.35-.07-1.02,1.47-2.67,.86-4.01,1.23-.24,.07-.49,.12-.73,.12-2.81,0-5.42,.83-7.98,1.86-.67,.27-1.43,.32-2.07,.31-2.65-.06-5.05,.95-7.53,1.57-1.4,.35-2.85,.17-4.27,.45-1,.2-1.98,.2-2.97,.66-.83,.39-1.86,.05-2.86,.34-2.75,.79-5.56,1.48-8.39,1.93-1.7,.27-3.28,1.13-5.09,.94-.61-.07-1.28,.25-1.91,.7-.57,.41-1.52,.38-2.32,.31-.94-.08-1.8-.17-2.67,.58-.63,.54-1.78,.47-2.55,.39-1.55-.16-3.07,.24-4.5,.42-1.44,.19-2.94,.95-4.48,1.24-1.92,.35-3.94,.71-5.69,1.32-1.99,.69-4.2-.23-6.03,1.28-.5,.41-1.82-.11-2.74,.22-2.02,.74-4.18,.62-6.25,1.03-.42-.71-.73-1.46-.93-2.27,2.38-.01,4.66-.59,6.99-.99,2.43-.42,4.81-1.49,7.37-1.12,.12,.02,.3,.02,.35-.04,1.18-1.56,2.89-.71,4.35-.92,.79-.11,1-.92,1.8-.96,1.44-.07,2.88-.27,4.31-.48,1.85-.26,3.69-.53,5.52-.95,1.4-.33,2.87-.93,4.39-.64,.38,.07,.68-.08,.91-.29,.45-.42,.92-.64,1.56-.62,2.15,.05,4.1-.96,6.26-1.16,1.48-.14,3.16-.42,4.73-.91,1.54-.49,3.38-.22,4.93-.92,2.28-1.04,4.87-.5,7.18-1.56,.75-.35,1.77-.23,2.58-.82,.29-.22,.99-.21,1.31,0,.57,.37,.89-.02,1.34-.13,1.53-.37,3.07-.79,4.64-.94,2.44-.23,4.83-.72,7.2-1.31,1.26-.31,2.5-.52,3.77-.74,3.24-.54,6.51-1.18,9.65-2.08,2.2-.63,4.41-.79,6.59-1.28,1.07-.25,2.16,.07,3.22-.22,1.35-.37,2.68-.94,4.04-1.05,1.58-.13,2.86-1.12,4.43-1.2,1.15-.06,2.31,.2,3.47-.35,1.2-.57,2.56-.69,3.91-.54,.37,.04,.62-.15,.82-.45,.19-.28,.45-.59,.8-.52,2.11,.45,3.82-1.01,5.8-1.16,.48-.04,.92-.34,1.43-.05,.51,.28,.86,0,1.14-.42,.82,.64,1.64,1.28,2.32,2.07Z"/><path class="cls-35" d="M148.25,119.71c-1.06,.26-2.13,.49-3.18,.79-2.32,.67-4.75,.57-7.11,1.26-1.95,.57-4.05,1.02-6.16,.98-.46,0-.86,.11-1.3,.3-1.29,.57-2.6,1.08-4.07,.96-.91-.08-1.8,.4-2.6,.45-1.39,.08-2.53,.95-3.97,.86-1.04-.06-2.22,.27-3.22,.58-2.25,.7-4.6,.97-6.86,1.57-1.42,.38-3.02,.54-4.55,.77-1.5,.22-3.11,.28-4.48,.65-1.59,.44-3.2,.81-4.8,1.21-1.37,.34-2.76,.55-4.14,.85-2.08,.45-4.18,.84-6.28,1.2-2.58,.44-5.09,1.3-7.74,1.36-.36,0-.72,.17-1.08,.26-3.28-.7-6.57-1.38-9.95-1.36-1.33,0-2.65,.03-3.98,.04,1.75,.04,3.34-.86,5.14-.8,1.06,.04,2.15-.51,3.23-.78,1.96-.5,3.97-.75,5.92-1.2,1.54-.35,3.11-.46,4.59-.8,3.35-.78,6.73-1.36,10.08-2.09,2.83-.62,5.69-1.15,8.55-1.63,2.26-.37,4.61-.58,6.8-1.51,1.73-.73,3.66-.65,5.52-.88,1.69-.21,3.27-.84,4.9-1.27,.4-.11,.79-.27,1.21-.23,.73,.08,1.36,.16,2.07-.39,.64-.49,1.56,.2,2.4,.03,.33-.07,.71-.16,1.07-.15,.65-.15,1.31-.36,1.64,.52,1.05-1,2.38-1.29,3.61-1.77h.75c.74,.39,1.29,.09,1.75-.5h.5c1.14,.89,2.37,.9,3.53,.02,.31-.23,.57-.5,.99-.31,.25,.11,.39,.13,.56-.2,.55-1.04,1.07-1.14,2-.39,.6,.48,1.18,.9,2.02,.65-.89-1.25-.86-1.22,.69-1.54,1.02-.21,2.01-.45,3.05-.27,.81,1.1,2.18,1.59,2.92,2.76Z"/><path class="cls-8" d="M1.32,110.5c1.51,.1,3.08,.25,4.49-.21,2.07-.68,4.22-1.2,6.3-1.56,2.8-.49,5.63-.9,8.41-1.51,1.66-.36,3.4-.24,5-.76,1.67-.54,3.41-.91,4.99-1.69,1.12,.52,1.77,1.57,2.64,2.37,1.93,1.76,4.04,3.27,6.15,4.8,.04,.83-.56,.81-1.09,.75-.91-.09-1.73,.11-2.48,.63-.17,.12-.37,.3-.55,.27-1.64-.29-3.12,.7-4.73,.54-.76-.07-1.5,.07-2.21,.31-2.36,.81-4.82,1.06-7.27,1.37-1.32,.17-2.64,.21-3.81,.99-.58,.38-1.31,.09-1.96,.24-3.03,.73-6.08,1.32-9.15,1.88-.58,.11-1.05,.49-1.58,.72-.45,.2-.9,.48-1.4,.1-.67-3.06-1.43-6.11-1.75-9.24Z"/><path class="cls-26" d="M61.4,62.21c2.52-2.58,5.18-5,7.87-7.4,2.39-.5,4.83-.95,7.16-1.56,1.85-.49,3.8-.59,5.62-1.34,1.59-.65,3.43-.52,5.16-.73,1.21-.15,2.37-.4,3.52-.78,1.27-.42,2.62-.46,3.89-.75,1.77-.4,3.66-.15,5.32-1.01,.37-.19,.79-.35,1.2-.31,.81,.08,1.54-.01,2.26-.43,.62-.35,1.3-.02,1.95,.08,1.68,1.24,3.12,2.77,4.88,3.91,.34,.22,.67,.44,1.01,.66,.27,.69-.31,.78-.7,.89-.8,.23-1.62,.41-2.46,.39-1.52-.03-2.95,.26-4.27,1.02-.14,.08-.32,.17-.47,.13-1.64-.37-3.13,.53-4.77,.5-1.27-.02-2.59,.47-3.87,.77-1.52,.35-3.11,.54-4.58,1.14-.19,.08-.4,.22-.59,.17-2.64-.6-4.85,1.04-7.29,1.43-.16,.03-.32,.13-.48,.12-3.14-.23-5.9,1.49-8.95,1.75-.46,.04-.9,.15-1.35,0-.46-.14-.94-.1-1.33,.14-1.22,.73-2.57,.87-3.94,.99-1.03,.09-2.06,.18-3.06,.5-.57,.18-1.24,.26-1.74-.29Z"/><path class="cls-29" d="M3.07,119.74c.17-.01,.36,.02,.49-.05,3.76-2,8.04-1.95,12.03-3.05,2.19-.61,4.39-1.26,6.67-1.5,.44-.05,.9-.06,1.33,.03,.57,.12,1.03-.23,1.49-.28,1.93-.24,3.69-1.23,5.72-1.14,1.46,.06,2.99-.31,4.41-.6,1.13-.23,2.14-1.11,3.46-.69,.3,.09,.5-.24,.62-.51,2.88,1.67,5.89,3.05,8.99,4.26,.03,.92-.74,.87-1.29,1.02-4.09,1.12-8.32,1.53-12.46,2.39-3.04,.64-6.11,1.13-9.14,1.89-1.66,.41-3.4,.66-5.1,1-4.64,.93-9.26,1.94-13.91,2.84-.53,.1-.98,.48-1.55,.39-.78-1.94-1.25-3.97-1.77-5.99Z"/><path class="cls-22" d="M129.84,103.46c-1.17,1.08-2.73,.65-4.09,.96-1.23,.28-2.47,.68-3.78,.83-.95,.11-2.1,.53-3.15,.71-2.51,.41-4.95,1.22-7.5,1.38-2.5,.16-4.79,1.08-7.16,1.77-.66,.19-1.49,.21-2.15,.08-.88-.16-1.56,.14-2.24,.46-1.69,.79-3.56,.96-5.31,1.21-1.35,.2-2.79,.41-4.21,.44-.58,0-1.28,.24-1.69,.63-.61,.58-1.43,.58-1.94,.49-1.63-.3-2.95,.52-4.39,.87-.35,.08-.55,.09-.72-.22,4.45-2.63,8.26-6.14,12.44-9.14,.8,.01,1.58-.06,2.34-.33,1.94-.68,4.01-.67,5.99-1.15,1.93-.46,3.92-.65,5.83-1.29,1.56-.52,3.3-.29,4.92-.72,3.46-.91,7.01-1.39,10.45-2.39,2.05,1.4,3.81,3.16,5.65,4.81,.22,.2,.54,.33,.7,.61Z"/><path class="cls-57" d="M10.77,53c1.24-2.73,2.74-5.3,4.43-7.76,.18-.1,.35-.24,.56-.26,4.74-.6,9.34-1.97,14.07-2.68,2.41-.36,4.79-1.05,7.2-1.46,2.32-.4,4.6-1,6.96-1.3,2.43-.31,4.89-.88,7.27-1.62,1.25-.39,2.51-1.01,3.81-.13-2.99,3.02-6.13,5.89-9.28,8.74-.33,.22-.7,.2-1.08,.16-1.27-.13-2.48,.09-3.63,.65-.34,.16-.7,.34-1.06,.33-2.1-.04-4.02,.89-6.1,1.01-1.22,.07-2.42,.55-3.63,.81-2.75,.59-5.48,1.32-8.31,1.42-.55,.02-1.06,.23-1.56,.41-2.82,1.03-5.87,1.11-8.71,2.03-.34,.11-.85,.38-.93-.35Z"/><path class="cls-11" d="M156.24,22.24c.53,.25,.95,.64,1.42,1.15-.8,.42-1.56,.8-2.3,1.2-3.33,1.83-6.31,4.16-9.08,6.74-5.63,5.24-12.1,6.84-19.44,4.41-3.14-1.04-5.74-2.94-7.87-5.48,.65-.87,1.68-.81,2.59-1.03,2.78-.67,5.63-.94,8.42-1.57,2.01-.45,4.05-.85,6.1-1.17,.33-.05,.66-.11,.97-.23,1.53-.61,3.16-.62,4.73-.93,2.39-.47,4.82-.78,7.19-1.4,1.68-.44,3.38-.87,5.09-1.19,.74-.14,1.47-.28,2.18-.52Z"/><path class="cls-56" d="M26.75,30.49c.41,.46,.98,.4,1.38,.18,1.53-.87,3.28-.72,4.88-1.16,3.02-.83,6.18-.95,9.18-1.88,.77-.24,1.74,.12,2.52-.31,2.01-1.12,4.41-.46,6.5-1.5,.74-.36,2.06,.04,3.07-.3,1.32-.44,2.76-.43,4.02-1.11,.48-.26,1.03-.47,1.66-.2,.98,.41,1.9-.24,2.75-.5,2.31-.7,4.73-.82,7.06-1.45,1-.27,2.11-.77,3.32-.53,1.11,.22,2.18-.39,3.21-.76,1.02-.37,1.98-.58,3.01-.17-5.23,1.66-9.89,4.38-14.28,7.6-.26,.19-.5,.42-.75,.64-1.71-.33-3.28,.58-4.9,.61-1.43,.02-2.68,.27-3.88,.97-.21,.13-.48,.21-.72,.18-1.81-.16-3.39,.7-5.07,1.09-.28,.07-.56,.18-.85,.18-1.37,0-2.68,.28-4.02,.52-1.56,.27-3.1,.68-4.68,.91-2.7,.4-5.35,1.18-8.02,1.72-2.38,.48-4.75,1.12-7.2,1.24-.38,.02-.69,.27-1.04,.4-.86,.3-1.7,.38-2.41-.36,1.56-2.18,3.35-4.15,5.27-6.01Z"/><path class="cls-4" d="M105.36,47.97c-1.41-.35-2.52,1.14-3.99,.61-.35-.13-.96,.07-1.28,.33-.83,.67-1.77,.62-2.72,.61-.62,0-1.26-.1-1.73,.47-.13,.16-.34,.23-.56,.17-2.17-.57-4,.72-6.01,1.06-1.38,.24-2.78,.33-4.16,.58-1.11,.2-2.33-.06-3.33,.67-.59,.43-1.29,.22-1.93,.36-2.78,.63-5.56,1.28-8.35,1.86-.65,.13-1.32,.51-2.02,.12,3.66-3.57,7.15-7.37,11.31-10.34,7.35-5.25,17.12-4.24,23.5,2.14,.44,.44,.85,.91,1.28,1.36Z"/><path class="cls-6" d="M10.77,53c.82,.56,1.45-.25,2.14-.39,2.89-.58,5.83-.94,8.61-2.03,.81-.32,1.77-.05,2.68-.22,2.62-.48,5.22-1.05,7.83-1.59,2.59-.54,5.15-1.24,7.8-1.37,.95-.05,1.59-.79,2.53-.94,1.17-.19,2.29-.22,3.43,.06-1.34,1.29-2.65,2.6-4.02,3.85-.52,.47-.56,.79-.04,1.27,.51,.47,.94,1.04,1.4,1.57-1.05,1.03-2.5,1.07-3.78,1.3-3.23,.58-6.4,1.44-9.62,1.97-1.83,.3-3.63,.84-5.5,.9-.67,.02-1.34,.12-1.96,.35-2.25,.82-4.62,.99-6.95,1.41-2.04,.37-3.97,1.25-6.06,1.34-.71,.03-1.58,.21-1.49-1,.72-2.29,1.83-4.4,3.01-6.48Z"/><path class="cls-4" d="M7.76,59.48c.23,.79,.78,.77,1.47,.69,2.69-.31,5.2-1.43,7.9-1.69,3.04-.29,5.91-1.43,8.97-1.73,2.3-.23,4.62-.63,6.84-1.29,2.69-.8,5.53-.8,8.15-1.77,.67-.25,1.43-.04,2.04-.48,1.47,1.57,2.95,3.15,4.42,4.72-.5,.64-1.15,.93-1.96,.82-1.16-.16-2.16,.24-3.2,.71-1.79,.82-3.81,.59-5.7,1.01-2.1,.46-4.18,.98-6.3,1.34-2.59,.44-5.15,1.02-7.72,1.52-1.66,.33-3.35,.63-5.01,1-1.31,.29-2.72,.25-4.06,.64-2.08,.59-4.22,.87-6.37,1.07-.38,.03-.74,.34-1.1,.53-.45,.24-.8,.24-.89-.38,.61-2.32,1.45-4.56,2.52-6.71Z"/><path class="cls-57" d="M156.24,22.24c-.23,.8-.93,.69-1.51,.77-2.07,.28-4.09,.85-6.07,1.46-1.04,.32-2.14,.4-3.14,.49-1.52,.13-2.86,1.1-4.42,.82-1.41-.25-2.63,.6-3.95,.76-2.01,.25-3.86,1.27-5.96,1.08-.52-.05-1.12,.26-1.64,.45-1.62,.58-3.38,.37-4.94,.85-1.86,.58-3.85,.49-5.63,1.34-1.94-1.66-3.93-3.25-6.01-4.74,.4-.31,.86-.15,1.31-.18,1.93-.11,3.72-.88,5.59-1.3,.48-.11,.93-.31,1.44-.29,1.08,.06,2.14-.38,3.15-.43,2.05-.11,3.84-1.42,5.94-1.12,.33,.05,.71-.2,1.05-.33,.23-.09,.48-.37,.65-.32,1.74,.5,3.29-.49,4.96-.6,1.66-.11,3.2-1.14,4.88-1.19,2.3-.07,4.43-1.2,6.76-1.01,.74,.06,1.37-.26,1.84-.85,2,1.31,3.94,2.7,5.71,4.33Z"/><path class="cls-28" d="M42.25,85.76c2.53-.93,5.27-.87,7.83-1.56,2.64-.72,5.39-.89,7.96-1.86,1.34-.5,2.75-.5,4.12-.79,2.23-.47,4.42-1.12,6.75-1.11,1.01,0,1.94-.65,2.99-.89,2.3-.52,4.65-.92,6.94-1.23,2.59-.35,5.01-1.6,7.72-1.36,1.21,.11,2.46-.31,3.6-.8,1.84-.81,3.88-.79,5.75-1.45,.57-.2,.75,.34,.84,.82-3.45,1.58-6.7,3.48-9.74,5.74-2.8,.56-5.53,1.4-8.37,1.84-3.4,.53-6.77,1.23-10.13,1.98-3.44,.78-6.9,1.5-10.37,2.08-2.61,.44-5.15,1.15-7.76,1.55-1.39,.22-2.75,.65-4.17,.3-1.32-1.09-2.64-2.17-3.96-3.26Z"/><path class="cls-3" d="M21.48,36.5c1.02,.31,1.95,.38,2.95-.26,.73-.47,1.72-.16,2.6-.42,1.39-.42,2.87-.61,4.33-.76,1.82-.19,3.44-1.11,5.28-1.26,1.73-.14,3.48-.51,5.11-.94,1.3-.34,2.72-.14,3.9-.82,.58-.33,1.08-.38,1.73-.31,1.63,.17,3.18-.25,4.63-.98,.6-.3,1.21-.25,1.83-.24,1.07,.03,2.06-.16,2.83-.98,.26-.28,.59-.3,.92-.27,1.74,.18,3.41-.08,5.01-.79,.73-.32,1.06,.59,1.69,.54-1.94,1.83-3.88,3.65-5.82,5.48-.94,.14-1.88,.31-2.84,.31-1.28-.01-2.37,.69-3.58,.96-2.39,.54-4.78,.96-7.2,1.3-.71,.1-1.4,.24-2.04,.55-.54,.26-1.1,.29-1.69,.31-1.36,.04-2.65,.53-4.01,.66-2.35,.24-4.61,.99-6.9,1.55-.66,.16-1.35-.05-1.98,.19-2.71,1.02-5.61,1.01-8.4,1.64-.75,.17-1.58,.37-2.13-.49,1.13-1.76,2.36-3.45,3.78-4.98Z"/><path class="cls-31" d="M61.4,62.21c1.6,.36,3.03-.58,4.62-.54,1.58,.04,3.15-.34,4.52-1.27,.1-.07,.29-.14,.34-.1,1.17,.91,2.4,.14,3.43-.13,1.44-.37,3.08-.18,4.33-1.26,.14-.12,.4-.17,.58-.14,2.3,.43,4.34-.8,6.53-1.02,.71-.07,1.18-.73,1.93-.8,.5-.04,.95-.29,1.35,.21,.14,.17,.32,.27,.54,.13,1.47-.95,3.28-1.14,4.85-1.31,1.81-.2,3.44-1.14,5.42-.9,1.06,.13,2.39-.64,3.68-.37,1.87-1.65,4.27-.98,6.4-1.46,.49-.11,1.12-.03,1.31-.71,1.5,.84,3,1.67,4.49,2.51-.28,.47-.74,.66-1.25,.71-1.65,.14-3.24,.69-4.85,.86-3.36,.34-6.55,1.46-9.88,1.92-2.19,.3-4.34,.99-6.51,1.35-1.7,.28-3.34,.85-5.1,.93-1.51,.06-2.94,.86-4.49,.77-2.33-.13-4.29,1.4-6.53,1.46-1.51,.04-2.84,.79-4.44,.62-1.34-.14-2.76,.67-4.16,.96-2.48,.51-4.97,.95-7.47,1.39-1.1,.19-2.08,.88-3.25,.75-.36-.04-.76,.1-1.05-.25,1.54-1.44,2.94-3.03,4.63-4.3Z"/><path class="cls-22" d="M4.83,125.73c.51-.53,1.14-.66,1.87-.8,3.99-.78,7.96-1.68,11.95-2.51,1.64-.34,3.27-.87,4.9-1.1,2.86-.41,5.69-1,8.51-1.58,3.11-.64,6.22-1.11,9.36-1.55,2.19-.3,4.32-1.01,6.47-1.56,.16-.04,.27-.29,.4-.45,2.22,.53,4.4,1.24,6.66,1.67,.7,.13,1.41-.12,2.07,.18-.95,1.05-2.3,1.23-3.56,1.42-3.05,.47-6.08,1.07-9.06,1.84-2.88,.74-5.87,.8-8.74,1.81-1.57,.55-3.43,.66-5.18,.89-2.08,.27-4.18,.58-6.2,1.08-2.03,.5-4.1,.91-6.14,1.33-2.95,.61-5.91,1.12-8.82,1.97-1.07,.31-2.33,.39-3.52,.12-.32-.92-.64-1.84-.96-2.76Z"/><path class="cls-32" d="M191.49,97.76c0,.5,.01,1.01,.02,1.51,0,.58,0,1.17,0,1.75,0,0-.06-.03-.06-.03-1.42,.71-3,1.02-4.51,1.27-3.03,.5-6.01,1.16-8.99,1.91-1.28,.32-2.58,.7-3.93,.54-.47-.06-.9,.09-1.35,.21-2.27,.63-4.53,1.27-6.91,1.41-.5,.03-1.01,.14-1.36-.36,.72-.71,.59-1.24-.21-1.87-1.22-.96-2.33-2.06-3.49-3.1,.51-.47,1.22-.73,1.82-.69,1.45,.11,2.92-.21,4.11-.69,1.54-.62,3.22-.29,4.7-1.2,.98-.6,2.34-.16,3.54-.39,3.15-.59,6.24-1.42,9.36-2.11,1.14-.25,2.32-.3,3.49-.56,1.21-.27,2.5-.28,3.73-.62,0,.16,.02,.33,.03,.49,0,.84,0,1.68,0,2.52Z"/><path class="cls-17" d="M113,2.34c-.33,1.23-1.42,.66-2.11,.76-1.83,.28-3.68,.37-5.41,1.11-.11,.05-.25,.22-.31,.19-1.97-.87-3.68,.53-5.51,.75-2.49,.3-5,.85-7.47,1.41-1.1,.25-2.07,.74-3.28,.59-.54-.07-1.35-.01-1.81,.63-.08,.12-.29,.22-.43,.21-2.27-.07-4.52,.48-6.67,.93-2.29,.48-4.65,.88-6.92,1.56-.9,.27-1.83,.51-2.8,.44-.16-.01-.33-.05-.48,0-3.5,1.17-7.13,1.65-10.77,2.17-1.49,.21-3.11,.34-4.46,1.22-.13,.09-.32,.2-.45,.17-2.7-.62-4.97,.94-7.44,1.45-.61,.12-1.24,.33-1.66-.39,2.22-1.53,4.54-2.88,6.99-4,1.4-.16,2.78-.46,4.11-.84,2.62-.75,5.34-.86,7.96-1.53,2.5-.64,5.16-.72,7.55-1.53,2.79-.94,5.69-.91,8.47-1.75,1.63-.49,3.4-.77,5.14-.9,.72-.06,1.38-.31,2.05-.51,3.01-.88,6.13-1.14,9.2-1.65,2.33-.38,4.51-1.27,6.82-1.66,.42,0,.84-.09,1.25,.08,.4,.02,.79,.04,1.19,.07,.42,.2,.89-.03,1.31,.18,1.98,.28,3.95,.55,5.93,.83Z"/><path class="cls-24" d="M46.22,89.02c1.99-.34,4.02-.54,5.96-1.07,1.32-.36,2.72-.33,4.02-.96,.97-.47,2.2-.18,3.34-.43,5.03-1.13,10.11-2.03,15.13-3.2,2.24-.52,4.56-.66,6.81-1.13,1.84-.38,3.59-1.2,5.54-.97-2.82,2.35-5.72,4.6-8.67,6.78-3.88,.29-7.59,1.46-11.37,2.27-1.22,.26-2.46,.33-3.69,.46-1.21,.13-2.35,.66-3.55,.93-.28,.06-.53,.33-.81,.29-2.49-.35-4.69,.89-7.05,1.25-.2,.03-.41,.02-.62,.04-2.03-1-3.51-2.65-5.03-4.26Z"/><path class="cls-16" d="M103.25,1.28c-.29,.61-.79,.8-1.44,.75-.75-.06-1.47,.02-2.17,.4-1.99,1.09-4.27,1-6.41,1.27-2.23,.28-4.36,.93-6.55,1.31-1.89,.33-3.79,.64-5.68,1.02-1.56,.32-3.08,.84-4.71,.88-1.91,.05-3.66,.95-5.56,1.21-2.44,.34-4.83,1.04-7.25,1.52-1.78,.35-3.64,.41-5.36,.95-1.85,.58-3.82,.57-5.62,1.3-.34,.14-.44-.08-.48-.36,4.57-2.57,9.43-4.47,14.4-6.1,7.65-2.5,15.49-4,23.53-4.45,.33-.02,.66,0,.99,.01,1.18-.27,2.38,.05,3.56-.18,1.01,0,2.02,0,3.02,0,1.18,.23,2.38-.09,3.56,.18,.65,.02,1.29,.05,1.94,.07,.11,.03,.19,.1,.24,.21Z"/><path class="cls-9" d="M123.49,98.04c-.67,1.11-1.9,1.07-2.89,1.13-1.6,.11-3.07,.64-4.6,.96-2.35,.5-4.7,.9-7.08,1.21-1.7,.22-3.41,.8-5.13,1.2-1.16,.27-2.34,.63-3.51,.65-1.61,.03-3.08,.55-4.59,.94-.58,.15-1.22,.36-1.73-.23,4.05-3.12,7.65-6.96,12.72-8.51,6-1.84,11.65-1.04,16.81,2.64Z"/><path class="cls-35" d="M190.52,111.01c-2.44,.12-4.71,1.09-7.15,1.36-1.79,.19-3.56,.92-5.39,1.17-1.67,.23-3.34,.49-4.97,.96-2.46,.71-5.17,.51-7.46,1.4-2,.78-4.2,.29-6.01,1.45-.51,.33-.96-.21-1.44-.07-.83,.24-1.7,.31-2.48,.75-.47,.27-1.11,.57-1.38-.33,1.18-1.6,2.49-3.1,3.9-4.5,1.49-.09,2.92-.61,4.43-.57,.12,0,.26,0,.37-.04,2.89-1.14,6.06-.95,8.98-1.82,3.19-.95,6.53-1.1,9.7-2.09,2.62-.82,5.39-.76,8.01-1.55,.51-.15,.99-.05,1.36,.37,.03,1.19-.16,2.36-.46,3.51Z"/><path class="cls-20" d="M154.69,52.65c2.88-1.91,5.46-4.21,8.05-6.49,3.05-2.7,6.67-4.17,10.71-4.6,.44-.05,.86-.11,1.2,.39,1.35,2.04,2.78,4.04,3.88,6.23,0,.85-.74,.89-1.27,1.1-1.38,.53-2.87,.31-4.31,.52-2.14,.31-4.24,.83-6.36,1.15-2.91,.44-5.63,1.75-8.63,1.69-.65-.01-1.12,.52-1.68,.78-.88,.41-1.29,.2-1.57-.77Z"/><path class="cls-3" d="M17.7,41.49c.88,.37,1.68,.27,2.62-.02,1.23-.37,2.58-.36,3.89-.43,.59-.03,1.2-.07,1.68-.38,1.13-.71,2.38-.58,3.61-.75,1.32-.18,2.71-.41,3.95-.84,1.78-.62,3.55-.9,5.39-.89,.65,0,.88-.65,1.54-.69,2.85-.16,5.58-1.12,8.38-1.47,1.38-.18,2.67-.75,4.06-.75,.49,0,.87-.25,1.29-.42,1.42-.58,2.88-.63,4.37-.34-.95,1.28-2.2,2.25-3.41,3.27-1.57-.21-3.02,.11-4.46,.77-.69,.32-1.55,.24-2.29,.47-3.05,.93-6.25,1-9.34,1.81-2,.52-4.13,.73-6.15,1.22-3.86,.95-7.84,1.2-11.66,2.26-1.97,.55-3.93,.97-5.97,.93,.66-1.36,1.57-2.57,2.5-3.75Z"/><path class="cls-14" d="M51.25,93.28c2.32-.77,4.56-1.88,7.12-1.56,.2,.03,.5,.08,.61-.02,.97-.96,2.45-.41,3.5-1.25,.59-.47,1.47,0,2.27-.13,1.59-.27,3.13-.64,4.68-1.08,1.27-.36,2.65-.46,3.98-.7,.66-.12,1.25-.29,1.86-.59,.99-.49,2.07-.4,3.08,.08-3.51,2.75-6.7,5.98-11.14,7.3-5.62,1.67-10.95,1.1-15.95-2.05Z"/><path class="cls-42" d="M190.97,107.5c-1.75-.22-3.36,.57-5.06,.73-.25,.02-.5,.29-.81,.26-2.09-.18-3.94,.87-5.92,1.15-1.34,.19-2.62,.85-4.02,.61-.42-.07-.84,.03-1.21,.22-2.15,1.07-4.58,1.24-6.85,1.55-2.56,.34-4.98,1.26-7.54,1.43-.52,.03-.99-.02-1.44-.26,.91-1.25,1.96-2.37,3.03-3.49,2.83-.38,5.6-1.11,8.39-1.6,2.93-.51,5.84-1.23,8.82-1.56,2.48-.27,4.94-.97,7.37-1.62,.97-.26,1.96-.31,2.93-.55,1.05-.26,2.02-.54,2.76-1.37-.05,1.51-.13,3.01-.46,4.49Z"/><path class="cls-12" d="M191.43,103.01c-.17,1.13-.91,1.32-1.94,1.54-2.2,.49-4.41,.95-6.6,1.4-1.72,.35-3.36,1.13-5.18,1.07-1.71-.06-3.32,.67-5,.87-2.85,.35-5.58,1.33-8.45,1.64-1.04,.11-2.02,.84-3.11,.18,.98-1.34,2.02-2.62,3.26-3.73,1.46-.13,2.91-.2,4.38-.45,1.95-.33,3.75-1.4,5.87-1.1,1.04,.15,2.19-.29,3.27-.54,2.08-.48,4.1-1.12,6.23-1.49,1.44-.25,3-.15,4.4-.97,.78-.46,1.92-.31,2.9-.43,.02,.43,.05,.85,.07,1.28-.03,.25-.06,.49-.1,.74Z"/><path class="cls-23" d="M154.69,52.65c.37,.74,.9,.98,1.59,.42,.72-.58,1.42-.8,2.42-.76,1.24,.05,2.64-.22,3.72-.68,1.55-.66,3.18-.78,4.74-1.23,1.71-.5,3.55-.53,5.31-.9,1.52-.32,3.08-.06,4.57-.49,.56-.16,1.11-.32,1.48-.83,.43,.47,.71,1.03,.94,1.62-2.86,.57-5.72,1.14-8.58,1.72-2.42,.49-4.85,.78-7.24,1.57-2.16,.72-4.54,.77-6.81,1.19-2.01,.38-4.01,.84-6,1.33-.49,.12-.7-.02-.87-.4,1.58-.85,3.15-1.7,4.73-2.55Z"/><path class="cls-35" d="M145.34,116.95c-1.03,.55-2.22,.19-3.29,.57-.28,.1-.66-.11-.86,.28,.1,.3,.42,.21,.61,.35,.2,.15,.46,.25,.4,.56-.06,.34-.3,.53-.61,.52-.69-.03-1.41-.04-1.92-.63-.36-.41-.73-.84-1.35-.72-.72,.14-.33,.69-.37,1.09-.04,.32-.37,.64-.59,.39-.64-.76-.88-.32-1.38,.19-.7,.72-1.79,.33-2.69,.6-.41,.12-.52-.74-.8-1.14,.24-.35,.8-.24,.98-.7,.23-.6,.68-.51,1.12-.3,.78,.36,1.49,.25,2.25-.16,1.18-.64,2.59-.33,3.83-.89,.7-.32,1.36-.96,2.31-.55,.32,.14,.78-.2,1-.6,.55,.27,.93,.75,1.36,1.16Z"/><path class="cls-48" d="M130.49,59.01c0-.07,0-.14,0-.2,1.75,0,3.49,0,5.24,0-1.73,.44-3.49,.09-5.24,.2Z"/><path class="cls-13" d="M101.07,1.01c-1.19-.06-2.39,.23-3.56-.18,1.19-.03,2.38-.11,3.56,.18Z"/><path class="cls-13" d="M94.49,.83c-1.17,.4-2.37,.12-3.56,.18,1.18-.28,2.37-.21,3.56-.18Z"/><path class="cls-13" d="M103.25,1.28c-.08-.07-.16-.14-.24-.21,.53-.03,1.06-.06,1.56,.18-.44,0-.88,.02-1.32,.02Z"/><path class="cls-21" d="M65.75,118.05c-.4,.34-.87,.15-1.31,.18,.41-.22,.86-.21,1.31-.18Z"/><path class="cls-13" d="M107.07,1.51c-.44-.03-.91,.17-1.31-.18,.45-.03,.89-.04,1.31,.18Z"/><path class="cls-36" d="M145.25,132.95c-5.86,.8-11.4,2.53-16.5,5.59-.24,.15-.47,.32-.7,.48-2.32,1.07-4.88,1.19-7.31,1.83-3.45,.91-7.01,1.3-10.48,2.1-1.51,.35-3.13,.46-4.64,.77-2.11,.44-4.22,.91-6.34,1.28-1.15,.2-2.29,.6-3.5,.49-1.32-.99-2.37-2.27-3.56-3.4-.04-.94,.69-1.04,1.33-1.14,2.51-.37,4.97-1.07,7.47-1.37,3.11-.38,6.04-1.47,9.15-1.85,3.44-.42,6.88-1.11,10.22-2.14,.88-.27,1.81-.31,2.71-.41,3.81-.43,7.44-1.69,11.25-2.21,3.72-.5,7.46-1.16,11.09-2.25,1.8-.54,3.68-.55,5.52-.96,2.43-.55,4.86-1.09,7.32-1.52,4.41-.77,8.73-2.03,13.22-2.43,1.49-.13,2.89-.92,4.44-1.12,2.01-.26,3.98-.85,6.01-1.07,1.41-.15,2.76-.6,4.16-.81,.65-.1,1.46-.35,1.67,.7-.18,1.13-.56,2.19-1,3.23-.77,.82-1.85,.95-2.85,1.13-3.31,.59-6.57,1.38-9.92,1.8-1.52,.19-2.93,1.08-4.53,1.23-2.19,.21-4.37,.53-6.46,1.29-.47,.17-.99,.17-1.48,.1-.69-.1-1.29,.01-1.87,.45-.64,.48-1.43,.36-2.17,.31-.58-.04-1.15-.22-1.72-.03-2.97-.29-5.95-.36-8.94-.27-.49,.25-1.04-.03-1.54,.19Z"/><path class="cls-47" d="M59.27,184.91c-1.97-.79-3.93-1.6-5.77-2.67,.24-.58,.79-.54,1.27-.59,2.14-.25,4.21-.91,6.37-1.1,.79-.07,1.39-.9,2.19-.85,1.82,.11,3.5-.34,5.14-1.04,1.06-.45,2.21-.11,3.33-.23,3.05-.35,5.86-1.91,9.02-1.7,.95,.06,1.84-.5,2.76-.74,2.78-.73,5.63-1.05,8.44-1.59,1.86-.36,3.74-.86,5.59-1.19,1.44-.25,2.68-1.37,4.25-.99,.3,.07,.61-.22,.88-.42,.35-.03,.7-.03,1.01,.17,.22,.32,.48,.22,.74,.05,4.27,.14,8.53,.05,12.7-1.02,3.57-.91,7.07-2.03,10.24-3.99,.24-.15,.53-.21,.79-.31,.97,.3,1.73-.47,2.64-.53,3.17-.2,6.2-1.19,9.29-1.81,2.6-.52,5.24-.85,7.82-1.44,2.91-.66,5.88-1.02,8.77-1.8,2.04-.55,4.19-.64,6.25-1.16,.45,.17,.69,.58,1,.91,1.54,1.66,1.39,2.33-.75,3.42-1.34-.06-2.69,.15-3.94,.53-2.81,.86-5.67,1.34-8.56,1.67-2.04,.23-3.95,1.03-5.99,1.21-2.73,.25-5.32,1.16-8.03,1.57-2.59,.39-5.23,.73-7.79,1.53-2.61,.82-5.43,.87-8.07,1.58-1.87,.5-3.88,.45-5.61,1.43-.37,.21-.79,.26-1.21,.26-3.19,.02-6.22,1.05-9.32,1.6-1.14,.2-2.29,.4-3.44,.56-1.62,.23-3.19,.61-4.75,1.02-3.02,.8-6.13,1.09-9.18,1.73-3.9,.82-7.83,1.53-11.74,2.32-1.47,.3-2.93,.64-4.41,.87-.99,.15-1.98,.25-2.82,.88-.27,.2-.62,.23-.96,.25-2.78,.21-5.52,.68-8.16,1.6Z"/><path class="cls-49" d="M59.27,184.91c.87-.76,1.85-1.11,3.03-1.22,1.88-.17,3.93-.26,5.6-.86,4.24-1.51,8.67-1.86,12.97-2.87,3.06-.72,6.17-1.23,9.27-1.79,3.19-.59,6.38-1.22,9.54-1.97,1.42-.34,2.92-.53,4.36-.8,1.46-.28,2.97-.55,4.43-.88,1.56-.36,3.14-.91,4.81-.78,.37,.03,.85,.15,1.11-.02,1.56-1.07,3.53-.65,5.13-1.49,.64-.33,1.32-.11,1.95-.28,3.11-.82,6.34-1.09,9.46-1.92,2.59-.69,5.23-1.21,7.93-1.29,.16,0,.35,0,.49-.08,2.16-1.2,4.67-.91,6.95-1.61,1.92-.59,3.91-.92,5.93-1.1,3.42-.31,6.66-1.51,10.03-2.1,.51-.09,.8,0,1.01,.44-1.15,1.19-2.19,2.49-3.55,3.46-1.46,.29-2.89,.72-4.4,.73-.17,0-.35-.04-.49,.04-2.56,1.3-5.47,.87-8.14,1.62-1.05,.3-2.04,1.02-3.24,.55-.22-.09-.5,.09-.67,.27-.58,.6-1.32,.43-2.03,.57-1.66,.33-3.39,.29-4.96,.76-1.26,.37-2.35,1.19-3.75,.65-.22-.08-.51,0-.73,.1-3.25,1.53-6.92,1.23-10.26,2.38-.32,.11-.65,.08-.99,.06-1.23-.06-2.4,.14-3.43,.88-.14,.1-.29,.26-.43,.24-1.26-.2-2.32,.49-3.49,.7-1.23,.23-2.48,.17-3.73,.62-.95,.34-2.18,.17-3.28,.27-.88,.08-1.73,.19-2.55,.55-.15,.07,.04,.04-.11,.04-2.84,.11-5.34,1.85-8.16,1.85-3.12,0-5.95,1.24-8.94,1.74-2.5,.41-4.99,.83-7.47,1.37-1.51,.33-2.83,1.19-4.41,1.25-2.26,.09-4.46,.37-6.65,1.17-1.12,.41-2.57,.58-3.9,.34-1.46-.37-2.83-.99-4.21-1.58Z"/><path class="cls-44" d="M63.48,186.49c1.16-.2,2.27-.7,3.51-.53,.67,.09,1.33-.2,1.88-.56,.77-.51,1.58-.74,2.47-.66,2.05,.19,3.91-.28,5.83-1.07,1.23-.5,2.71-.67,4.09-.92,2.4-.43,4.96-.41,7.17-1.3,1.54-.62,3.25-.28,4.67-1.29,.55-.39,1.45,.41,2.3,.09,1.47-.55,3.21-.24,4.49-1.44,.11-.1,.33-.18,.47-.14,2.02,.54,3.7-1.08,5.75-.83,.79,.1,1.74-.55,2.66-.04,.05,.03,.18-.03,.22-.09,1.01-1.29,2.44-.49,3.66-.73,.42-.08,.81-.09,1.13-.42,.14-.14,.38-.34,.52-.3,1.73,.45,2.95-1.22,4.55-1.1,2.18,.16,4.15-.76,6.25-1.01,2.11-.25,4.29-.51,6.25-1.51,.38-.2,.88-.35,1.2-.1,.98,.8,1.85,.13,2.47-.35,.68-.53,1.24-.58,2.01-.51,.92,.08,1.79-.14,2.72-.47,1.13-.4,2.46-.71,3.59-.84,1.77-.2,3.39-.75,5.1-1.08,1.26-.24,2.56-.24,3.84-.34,.37-.03,.79,.05,1.08-.2,1.03-.88,2.31-.69,3.49-.77,.96-.07,1.85-.91,2.87-.28-1.45,1.64-3.16,2.98-4.98,4.2-.44-.36-1-.29-1.44-.17-2.14,.61-4.44,.41-6.51,1.38-.61,.28-1.38,.21-2.07,.34-4.48,.81-8.97,1.59-13.44,2.48-1.69,.34-3.42,.66-5.06,1.12-3.14,.88-6.45,.82-9.5,1.93-1.78,.65-3.56,.85-5.42,.78-.46-.02-.93,.31-1.41,.43-3.98,.99-8.04,1.53-12.06,2.33-2.95,.59-5.88,1.49-8.83,2.01-2.43,.43-4.92,.85-7.36,1.28-2.43,.42-4.99,.49-7.3,1.66-.8,.41-1.85,.35-2.79,.47-.54,.07-1.11,.03-1.3,.71-2.31-.59-4.59-1.24-6.78-2.19Z"/><path class="cls-53" d="M82.74,135.99c1.94-.19,3.84-.26,5.75-1.07,1.34-.56,3-.78,4.57-1,1.94-.27,3.89-.61,5.83-1.03,1.71-.37,3.42-.82,5.15-1.15,1.55-.3,3.25,.17,4.62-.99,.11-.1,.33-.14,.48-.11,1.14,.24,2.17-.32,3.21-.44,1.69-.2,3.26-.85,4.96-.99,1.38-.11,2.73-.51,4.1-.79,.28-.06,.57-.19,.84-.17,1.02,.08,1.95-.14,2.87-.57,1.54-.72,3.28-.38,4.9-.9,2.26-.72,4.71-.51,7-1.43,1.32-.53,2.85-1.16,4.43-.63,.21,.07,.52,.02,.73-.09,2.3-1.14,4.84-1.43,7.29-1.83,1.89-.31,3.77-.86,5.72-.87,.47,0,.94-.29,1.41-.44,2.4-.79,4.95-.82,7.4-1.52,1.46-.42,3.13-.3,4.67-.72,1.12-.31,2.28-.58,3.39-.78,1.55-.27,3.02-.89,4.65-1.01,1.23-.09,2.58-.43,3.87-.66,1.18-.21,2.31-.73,3.56-.66,.8,.05,1.66-.25,2.35-.5,1.14-.42,2.16-.29,3.25-.16-.17,.75-.34,1.5-.52,2.25-1.38,.8-2.98,.67-4.46,1.02-1.2,.29-2.44,.48-3.66,.74-2.84,.61-5.67,1.27-8.57,1.55-.95,.09-1.86,.41-2.8,.62-3.81,.85-7.66,1.47-11.48,2.26-4.01,.83-8.04,1.54-12.08,2.25-2.41,.42-4.75,1.17-7.16,1.64-.98,.19-1.93,.42-2.95,.43-1.55,0-2.95,.79-4.49,.99-3.46,.44-6.81,1.52-10.29,1.88-.17,.02,.03-.04-.12,.02-2.82,1.14-5.94,.92-8.77,2-.71,.27-1.48,.26-2.21,.35-3.29,.38-6.4,1.7-9.72,1.86-.43,.02-.81,.19-1.21,.29-1.56,.39-3.06,1.1-4.75,.76-.47-.1-.99,.11-1.44,.33-1.8,.85-3.8,.85-5.68,1.35-.24,.06-.5,.03-.74-.04-1.3-.68-2.6-1.36-3.9-2.04Z"/><path class="cls-54" d="M49.75,180.25c-2.05-.98-3.98-2.14-5.81-3.49,.44-.98,1.39-1.18,2.26-1.3,2.14-.29,4.22-.9,6.31-1.25,2.68-.46,5.3-1.3,8.06-1.48,1.61-.11,3.24-.65,4.82-1.17,1.23-.41,2.5-.55,3.78-.71,1.72-.21,3.43-.54,5.12-1.02,1.41-.4,2.91-.86,4.28-.94,2.25-.14,4.35-.93,6.58-1.05,.98-.05,1.96-.38,2.85-.84,2.8,1.24,5.56,2.59,8.49,3.5,.04,.61-.43,.56-.83,.69-1.9,.61-3.94,.47-5.83,1.09-2.65,.87-5.43,1.09-8.13,1.76-4.01,1.01-8.09,1.71-12.19,2.29-1.6,.23-3.17,.65-4.71,1.17-.44,.15-.88,.25-1.34,.16-.29-.06-.62-.16-.86,.01-1.46,1.06-3.17,.85-4.81,1.01-2.74,.27-5.31,1.35-8.06,1.57Z"/><path class="cls-37" d="M189,118.75c-.04,.87-.32,1.68-.58,2.49-.43,.41-.99,.4-1.52,.45-1.82,.16-3.63,.29-5.36,.98-.93,.37-1.96,.27-2.92,.41-2.02,.29-3.93,1.01-5.95,1.31-2.61,.39-5.27,.51-7.79,1.51-.89,.36-1.94,.28-2.91,.43-1.64,.26-3.29,.56-4.89,.9-2.66,.56-5.41,.7-8,1.58-.44,.15-.88,.26-1.34,.31-3.15,.34-6.15,1.39-9.26,1.92-1.27,.22-2.52,.5-3.81,.58-1.66,.11-3.24,.7-4.88,.98-3.11,.53-6.17,1.33-9.26,1.95-2.79,.56-5.56,1.44-8.46,1.36-.12,0-.26,.01-.36,.08-1.58,1.05-3.44,.8-5.17,1.15-2.08,.42-4.11,1.02-6.17,1.5-.99,.23-1.97,.26-2.95,.39-2.27,.3-4.45,1.02-6.72,1.33-.25,.03-.5,.05-.72-.1-.9-.46-1.74-1.01-2.5-1.68-.12-.43,.21-.49,.49-.54,1.8-.31,3.6-.62,5.3-1.34,.15-.06,.33-.1,.49-.08,2.32,.31,4.37-.85,6.56-1.14,2.13-.28,4.18-1.14,6.37-.96,.34,.03,.67,0,.98-.13,2.43-1.07,5.07-1.17,7.62-1.68,5.4-1.09,10.82-2.14,16.17-3.46,1.45-.36,2.95-.53,4.42-.73,2.06-.28,4-1.1,6.07-1.26,3.46-.25,6.73-1.43,10.12-2.01,4.94-.84,9.85-1.87,14.76-2.85,3.62-.72,7.25-1.44,10.9-2.06,1.71-.29,3.44-.61,5.09-1.14,1.48-.47,3.02-.55,4.53-.77,.55-.08,1.17-.15,1.65,.32Z"/><path class="cls-45" d="M39.25,173.52c-.82-.31-.48-.7-.07-1.08,2.44-2.25,4.88-4.49,7.32-6.73,3.93-.17,7.72-1.08,11.48-2.16,.85-.24,1.72-.1,2.59-.24,2.41-.4,4.76-1.03,7.16-1.49,2.93-.56,5.87-1.14,8.79-1.79,.74-.17,1.49-.13,2.23-.24,1.59,1.39,3.18,2.78,4.76,4.18,.31,.61-.12,.83-.56,1.01-.42,.17-.89,.28-1.34,.25-2.47-.15-4.75,.72-7.05,1.38-1.27,.37-2.57,.26-3.79,.6-4.16,1.18-8.52,1.31-12.67,2.57-1.48,.45-3.08,.61-4.65,.71-.08,0-.18-.02-.25,.02-2.89,1.58-6.27,.7-9.29,1.9-1.44,.57-3.1,.79-4.67,1.11Z"/><path class="cls-39" d="M78.75,159.79c-.87,.85-2.11,.62-3.12,.83-2.28,.47-4.59,.83-6.86,1.37-1.29,.31-2.58,.8-3.98,.56-.35-.06-.76,.27-1.14,.42-1.49,.61-3.05,.75-4.64,.79-.25,0-.53-.08-.74,.01-2.74,1.26-5.8,1.21-8.64,2.07-.97,.3-2.11,.39-3.12-.15,2.9-2.66,5.56-5.6,8.73-7.93,6.41-4.71,15.55-4.5,21.82,.4,.61,.48,1.14,1.08,1.7,1.62Z"/><path class="cls-36" d="M89.97,140.25c2.32-.49,4.6-1.12,6.97-1.42,3.06-.39,6.07-1.14,9.06-1.92,1.12-.29,2.32-.58,3.53-.43,.16,.02,.39,.04,.49-.04,1.61-1.35,3.67-.6,5.44-1.2,2.35-.79,4.83-1,7.24-1.57,2.86-.68,5.81-1.17,8.69-1.78,2.41-.51,4.86-.74,7.27-1.25,3.12-.67,6.2-1.56,9.39-1.98,1.22-.16,2.64-.13,3.74-1.02,.34-.28,.81-.15,1.22-.14,1.25,.02,2.43-.46,3.58-.6,1.75-.21,3.46-.66,5.2-.9,2.35-.32,4.69-.84,6.99-1.46,1.07-.28,2.22-.41,3.2-.43,2.17-.04,4.09-.98,6.18-1.26,2.48-.33,4.99-.84,7.45-1.5,.88-.24,1.87-.09,2.81-.11-.16,.78-.31,1.55-.68,2.27-.83-.99-1.81-.34-2.66-.15-2.62,.61-5.32,.77-7.91,1.43-1.54,.39-3.25,.18-4.64,1.17-.39,.28-.86,.25-1.32,.29-2.3,.17-4.55,.56-6.8,1.11-2.68,.65-5.41,1.08-8.12,1.64-2.16,.45-4.3,.99-6.47,1.42-1.2,.24-2.47,.17-3.63,.51-2.43,.7-4.91,1.13-7.37,1.63-2.91,.6-5.87,.97-8.81,1.44-1.39,.22-2.65,.96-4.07,1.05-1.61,.1-3.19,.46-4.76,.76-1.89,.36-3.8,.75-5.66,1.28-1.78,.51-3.62,.75-5.41,1.05-2.17,.36-4.26,1.01-6.41,1.35-3.37,.54-6.66,1.53-10.07,1.76-.61,.04-1.14,.23-1.42,.84-.75-.61-1.49-1.22-2.24-1.83Z"/><path class="cls-46" d="M39.25,173.52c1.03-.56,2.04-1.02,3.28-1.14,1.65-.16,3.19-.96,4.88-1.1,.89-.08,1.73-.41,2.68-.11,.89,.27,1.59-.53,2.39-.83,.3-.11,.52-.37,.9-.29,1.48,.31,2.86-.39,4.32-.48,2.3-.14,4.38-1.3,6.76-1.47,1.78-.13,3.63-.41,5.42-.97,1.9-.6,4-.48,5.9-1.15,1.56-.54,3.1-1.03,4.77-1.04,.72,0,1.45-.14,2.17-.19,.5-.03,.76-.28,.8-.77,1.5,1.01,2.99,2.03,4.49,3.04-.04,.52-.37,.65-.83,.75-1.41,.31-2.79,.74-4.27,.75-.69,0-1.39,.22-2.03,.54-.19,.09-.45,.31-.55,.26-1.78-.98-3.2,1.16-4.97,.56-.65-.22-1.25,.53-1.97,.65-2.19,.37-4.37,.77-6.59,1-1.21,.13-2.37,.63-3.53,.97-2.66,.77-5.39,1.08-8.08,1.56-2.93,.52-5.71,1.8-8.76,1.73-.92-.02-1.72,.54-2.5,1.01-1.67-.92-3.23-2.02-4.7-3.25Z"/><path class="cls-35" d="M12.33,142.99c1.57-.33,3.18-.54,4.7-1.02,2.24-.7,4.66-.38,6.83-1.44,1.21-.59,2.63-.16,3.93-.5,.59-.16,1.15-.2,1.72-.55,.61-.38,1.39-.4,2.21-.38,1.56,.03,3.26-.15,4.66-.78,1.76-.79,3.6-.96,5.4-1.27,1.75-.3,3.51-.5,5.18-1.15,.58-.23,1.05-.24,1.35,.41-3.51,1.79-6.7,4.05-9.74,6.53-.72,.59-1.24,1.42-2.06,1.89-1.42,.04-2.82,.29-4.12,.85-.89,.39-1.79,.31-2.7,.35-2.31,.1-4.38,1.21-6.63,1.53-2.45,.36-4.85,1.14-7.36,1.05-1.28-1.75-2.36-3.62-3.36-5.54Z"/><path class="cls-18" d="M95.77,145.48c2.29-.93,4.82-.81,7.14-1.53,1.78-.56,3.62-.77,5.42-1.04,2.23-.33,4.36-1.08,6.64-1.23,1.7-.11,3.35-.81,5.06-1.05,2.11-.3,4.1-1.23,6.28-1.18,.58,.01,1.07-.65,1.75-.44-3.03,2.06-5.69,4.57-8.51,6.89-7.01,5.77-16.89,5.56-23.77-.42Z"/><path class="cls-47" d="M49.75,180.25c.91-.88,2.17-.66,3.25-.95,2.45-.66,4.96-1.06,7.53-1.15,1.27-.05,2.45-.84,3.86-.97,1.44-.13,2.91-.79,4.39-1.04,2.07-.35,4.14-.71,6.22-.98,1.58-.21,3.27-.4,4.73-1.24,.81-.47,1.71,.09,2.63-.34,1.14-.53,2.46-.68,3.78-.72,1.43-.05,2.74-.86,4.18-1.05,1.14-.15,2.28-.38,3.43-.52,.89-.11,1.91-.24,2.74-.78l6.25,1.28c-.24,.85-.75,1.15-1.59,.77-.15-.07-.43-.2-.45-.16-.88,1.31-2.5,.64-3.58,1.35-.59,.38-1.22,.13-1.82,.28-1.4,.34-2.79,.89-4.21,.98-1.57,.1-3.07,.49-4.6,.69-1.2,.15-2.39,.44-3.47,.85-1.64,.62-3.3,.56-4.96,.67-1.21,.08-2.13,.88-3.3,1.05-2.06,.29-4.1,.65-6.18,.73-.25,0-.52,0-.73,.11-1.1,.59-2.09,1.32-3.53,.8-.52-.19-1.45,.01-2.08,.56-.47,.4-1.11,.46-1.75,.55-2.34,.35-4.67,.81-7,1.23-1.33-.51-2.57-1.18-3.75-1.98Z"/><path class="cls-18" d="M155.72,133.03c.2-.51,.56-.39,1.01-.36,1.11,.07,2.31,.46,3.22-.64,.13-.16,.51-.31,.67-.24,1.78,.76,3.32-.38,4.94-.68,1.87-.35,3.77-.43,5.62-.85,.49-.11,.96-.21,1.38-.48,.31-.2,.65-.49,.99-.49,3.4-.08,6.62-1.2,9.96-1.64,1.09-.14,2.15-.59,3.22-.9-.72,2.49-1.61,4.91-2.75,7.25-.5,.45-1.17,.44-1.76,.5-1.72,.19-3.33,.99-5.1,.87-.63-.04-1.21,.22-1.79,.46-2.04,.84-4.27,.83-6.37,1.42-4.22-2.03-8.64-3.43-13.25-4.21Z"/><path class="cls-53" d="M15.68,148.53c2.03-.45,4.11-.72,6.13-1.14,1.7-.35,3.5-.53,5.13-1.44,.92-.52,2.25-.48,3.38-.4,.8,.06,1.46-.06,2.12-.4,.97-.5,2.11-.33,3.08-.85,.38-.21,.64,.29,.97,.43-1.35,1.74-3.11,3.07-4.68,4.58-3.03,2.89-6.1,5.74-9.21,8.66-2.5-3.04-4.91-6.1-6.91-9.45Z"/><path class="cls-25" d="M163,159.94c-.45,.78-1.28,.67-1.98,.78-2.71,.41-5.36,1.15-8.04,1.66-2.46,.47-4.95,.87-7.41,1.36-1.37,.28-2.73,.44-4.11,.61-1.42,.17-2.87,.65-4.29,1.04-2.03,.55-4.09,.98-6.21,1.1-.68,.04-1.28,.27-1.84,.67-.54,.38-.85,.17-.9-.47,2.34-1.54,4.65-3.12,6.75-4.97,1.59,.12,3.11-.23,4.67-.48,3.2-.51,6.32-1.37,9.5-1.94,2.15-.39,4.31-.68,6.47-.98,1.21-.17,2.3-.7,3.36-1.28,1.53,.72,2.89,1.66,4.02,2.92Z"/><path class="cls-54" d="M158.98,157.02c-.95,1.47-2.54,1.61-4,1.66-1.48,.06-3.01,.25-4.35,.55-2.34,.53-4.72,1.05-7.06,1.58-2.3,.52-4.64,1.04-7,1.36-.61,.08-1.13-.07-1.6-.47,4.47-4.61,9.73-7.39,16.34-6.95,2.71,.18,5.31,.85,7.67,2.26Z"/><path class="cls-53" d="M189,118.75c-2.29-.03-4.51,.32-6.73,.97-2.08,.61-4.26,.89-6.41,1.26-1.47,.25-2.88,.71-4.36,.92-2.44,.35-4.88,.79-7.27,1.38-3.04,.75-6.18,1-9.2,1.79-2.18,.57-4.41,.72-6.59,1.19-.85,.18-1.59,.65-2.49,.76-2.26,.27-4.57,.45-6.76,1.03-5.1,1.35-10.38,1.79-15.44,3.31-1.24,.37-2.56,.29-3.78,.99-.56,.32-1.65-.17-2.51,.13-3.24,1.11-6.85,.69-9.95,2.37-.36,.19-.71,.13-1.08,0-.53-.19-1.05-.11-1.58,.07-2.03,.71-4.24,.61-6.28,1.31-3.13,1.08-6.6,.67-9.64,2.16-.5,.25-1.06-.54-1.46,.18-.27-.18-.55-.35-.82-.53,1.33-.29,2.56-1.02,4.01-.86,.49,.05,1.04-.25,1.54-.46,1.2-.51,2.34-.77,3.72-.58,1.05,.14,2.2-.69,3.34-.83,2.2-.27,4.31-1,6.54-1.11,.2,0,.43-.05,.59-.16,1.53-1.01,3.36-.58,4.98-1.07,1.86-.55,3.82-.67,5.64-1.36,.23-.09,.53-.34,.68-.27,1.88,.93,3.41-.62,5.14-.81,3.38-.37,6.71-1.31,10.1-1.83,.94-.14,1.76-.84,2.73-.78,2.47,.15,4.83-.62,7.09-1.29,2.91-.86,5.9-1.09,8.83-1.73,1.65-.36,3.45-.66,5.17-.89,1.5-.2,3.11-.67,4.66-.96,1.86-.35,3.67-.98,5.58-1.07,1.29-.06,2.5-.56,3.73-.86,2.15-.52,4.35-.77,6.51-1.18,4-.76,7.92-1.93,12.01-2.2,.05,.36,.04,.71-.21,1.01Z"/><path class="cls-39" d="M168.97,137.24c1.01-.57,2.06-1.02,3.25-1.01,.37,0,.77-.02,1.09-.17,2.28-1.07,4.81-.98,7.19-1.63,1.08-.29,2.27-.65,3.47-.44-1.36,3.63-3.22,7.01-5.18,10.53-2.93-2.98-6.31-5.23-9.83-7.28Z"/><path class="cls-36" d="M145.25,132.95c.47-.38,1.02-.14,1.54-.19-.49,.23-1.01,.21-1.54,.19Z"/><path class="cls-47" d="M104.49,172c-.28,.4-.55,.75-.74-.05,.25,.02,.49,.04,.74,.05Z"/><path class="cls-35" d="M129.49,119.5c-.94,.19-1.31,1.47-2.55,1.22-.65-.13-.2,1.15-.97,1.18-.7,.03-.16-1.13-.91-1.02-.32,.05-.56-.01-.81-.13,1.06-1.01,2.63-.87,3.8-1.69,.49-.35,.85,.62,1.45,.44Z"/><path class="cls-35" d="M131.99,119c-.51,1.41-.67,1.45-1.75,.5,.51-.42,1.11-.52,1.75-.5Z"/></g></svg>