<?xml version="1.0" encoding="UTF-8"?><svg id="squid_ava_evm" xmlns="http://www.w3.org/2000/svg" viewBox="0 0 1558 1406"><defs><style>.cls-1{fill:#010101;}.cls-2{fill:none;stroke:#010101;stroke-dasharray:0 0 0 12;stroke-linecap:round;stroke-linejoin:round;stroke-width:9px;}.cls-3{opacity:.75;}</style></defs><g class="cls-3"><g><path class="cls-2" d="M26.81,17.99c172.68,120,325.66,302.87,568.19,417.01,149.72,70.46,279,73,376,118,115.91,53.77,181,149,243,252,23.61,39.22,107.16,202.99,156,291,88.69,159.82,95.44,186.51,168.5,284.26"/><polygon class="cls-1" points="19.63 40.35 0 0 44.76 3.17 19.63 40.35"/><polygon class="cls-1" points="1516.72 1388.41 1558 1406 1552.6 1361.45 1516.72 1388.41"/></g></g><g class="cls-3"><path class="cls-1" d="M479.4,455.01l4.49-2.11c1.1,3.33,3.15,5.65,6.4,6.67,3.86,1.21,6.49,.04,7.62-3.58,.91-2.91,.07-4.75-3.06-6.62l-2.54-1.43c-5.54-3.21-7.43-6.89-5.77-12.18,1.93-6.16,6.91-8.16,13.54-6.08,4.72,1.48,7.43,4.06,8.73,8.24l-4.44,1.96c-.95-2.97-2.58-4.79-5.78-5.79-3.63-1.14-5.89-.27-6.95,3.11-.87,2.77,.11,4.49,3.07,6.25l2.53,1.47c5.9,3.42,7.57,6.78,5.83,12.31-2.08,6.63-7.26,8.94-14.22,6.75-4.91-1.54-7.98-4.65-9.44-8.99Z"/><path class="cls-1" d="M521.96,482.71l-4.39-1.38c-3.53-1.11-4.44-3.38-3.48-6.44l.9-2.86c-6.46-2.97-8.88-9.44-5.43-20.46,3.8-12.12,10.32-15.68,18.33-13.17s11.33,9.16,7.53,21.28c-3.37,10.74-8.88,14.77-15.63,13.75l-1.14,3.63,4.63,1.45-1.32,4.2Zm6.76-20.73l2.51-8.02c1.71-5.44,.02-9.58-4.75-11.08-4.77-1.5-8.52,.94-10.23,6.38l-2.51,8.02c-1.71,5.44-.02,9.58,4.75,11.08,4.77,1.5,8.52-.94,10.23-6.38Z"/><path class="cls-1" d="M551.42,446.41l-6.76,21.57c-1.66,5.3-.83,8.33,3.84,9.8,4.68,1.47,7.09-.55,8.75-5.85l6.76-21.57,5.06,1.59-6.51,20.75c-2.84,9.07-7.07,12.19-15.47,9.56-8.4-2.63-10.08-7.62-7.24-16.68l6.51-20.75,5.06,1.59Z"/><path class="cls-1" d="M564.45,487.07l1.27-4.05,4.06,1.27,7.9-25.19-4.06-1.27,1.27-4.05,13.17,4.13-1.27,4.05-4.06-1.27-7.9,25.19,4.06,1.27-1.27,4.05-13.17-4.13Z"/><path class="cls-1" d="M594.17,459.81l10.97,3.44c7.87,2.47,10.91,8.82,7.23,20.56-3.68,11.74-9.8,15.21-17.67,12.75l-10.97-3.44,10.44-33.3Zm1.92,32.31c4.34,1.36,7.93-.71,9.63-6.15l2.42-7.73c1.71-5.44-.05-9.19-4.4-10.55l-5.92-1.86-7.66,24.43,5.92,1.85Z"/><path class="cls-1" d="M628.33,507.1l-5.06-1.59,10.44-33.3,13.17,4.13c5.68,1.78,7.53,6.24,5.54,12.58-1.62,5.15-4.59,7.78-8.69,7.65l1.96,15.97-5.63-1.77-1.51-15.41-5.96-1.87-4.26,13.6Zm13.28-15.43c2.39,.75,4.05-.04,4.92-2.81l.97-3.1c.87-2.77-.05-4.37-2.43-5.11l-7.68-2.41-3.46,11.02,7.68,2.41Z"/><path class="cls-1" d="M654.98,497.17c3.8-12.12,10.32-15.68,18.33-13.17,8.02,2.51,11.33,9.16,7.53,21.28s-10.31,15.68-18.33,13.17c-8.02-2.51-11.33-9.16-7.53-21.28Zm19.16,10.41l2.51-8.02c1.71-5.44,.02-9.58-4.75-11.08-4.77-1.5-8.52,.94-10.23,6.38l-2.51,8.02c-1.71,5.44-.02,9.58,4.75,11.08,4.77,1.5,8.52-.94,10.23-6.38Z"/><path class="cls-1" d="M696.84,492.01l-6.76,21.57c-1.66,5.3-.83,8.33,3.84,9.8,4.68,1.47,7.09-.55,8.75-5.85l6.76-21.57,5.06,1.59-6.51,20.75c-2.84,9.07-7.07,12.19-15.47,9.56-8.4-2.63-10.08-7.62-7.24-16.68l6.51-20.75,5.06,1.59Z"/><path class="cls-1" d="M731.52,507.76l-9.05,28.87-5.06-1.59,9.05-28.87-8.83-2.77,1.39-4.44,22.71,7.12-1.39,4.44-8.83-2.77Z"/><path class="cls-1" d="M736.01,540.87l10.44-33.3,19.32,6.06-1.39,4.44-14.27-4.47-3.05,9.73,12.88,4.04-1.38,4.39-12.88-4.04-3.23,10.31,14.27,4.47-1.39,4.44-19.32-6.06Z"/><path class="cls-1" d="M766.64,550.48l-5.06-1.59,10.44-33.3,13.17,4.13c5.68,1.78,7.53,6.24,5.54,12.58-1.62,5.15-4.59,7.78-8.69,7.65l1.96,15.97-5.63-1.77-1.51-15.41-5.96-1.87-4.26,13.6Zm13.28-15.44c2.39,.75,4.05-.04,4.92-2.81l.97-3.1c.87-2.77-.05-4.37-2.43-5.11l-7.68-2.41-3.46,11.02,7.68,2.41Z"/></g><g class="cls-3"><path d="M533.38,368.98c.58-.34,1-.69,1-1.39,.24-.07,.49-.14,.73-.2,1.15-.28,1.22-.23,1.48,.94,.08,.37,0,.79,.29,1.17,.32-.47-.53-1.37,.71-1.32-.14-.09-.2-.14-.26-.16-1.09-.43-1.28-.93-.72-1.96,.11-.2,.15-.37,.11-.59-.1-.51,.14-.89,.5-1.21,1.21-1.06,3.93-1.03,5.11,.06,.59,.54,.61,1.03,.06,1.6-.16,.17-.36,.3-.26,.58,.1,.28,.33,.27,.56,.3,.61,.08,1.25-.06,1.85,.18,.05,.02,.16,0,.17-.02,.13-.53,.8-.71,.82-1.32,.03-.77,.52-1.2,1.18-1.47,.71-.29,1.45-.31,2.18-.16,1.14,.23,2.25,.58,3.04,1.52,.59,.7,.49,1.36-.23,1.9-.18,.13-.43,.2-.46,.52,.39-.05,.75,.06,1.12,.15,.38,.09,.79,.09,1.12,.33,.08,.06,.18,.12,.24,.03,.29-.44,.87-.59,1.05-1.15,.32-1.02,1.03-1.52,2.13-1.53,1.81,0,3.26,.78,4.37,2.17,.81,1.02,.57,1.73-.66,2.21-.12,.05-.3,.03-.28,.23,.02,.13,.15,.16,.26,.2,.57,.2,1.14,.37,1.69,.61,.58,.25,1.19,0,1.38-.63,.2-.68,.64-1.11,1.31-1.3,1.73-.51,3.11,.24,4.4,1.25,.61,.48,1.09,1.09,1.1,1.92,.01,.73-.49,1.13-1.17,1.47,.83,.32,1.54,.61,2.25,.86,.51,.18,1.1-.15,1.23-.65,.29-1.13,1.02-1.72,2.18-1.75,1.37-.03,2.53,.49,3.47,1.46,1.1,1.15,.98,2.12-.31,3.03-.03,.02-.03,.08-.06,.2,.74,.22,1.48,.47,2.24,.65,.37,.09,.68-.03,.64-.55-.07-.9,.42-1.49,1.15-1.89,1.27-.68,2.46-.32,3.59,.39,1.37,.86,1.55,1.81,.61,3.1-.02,.02,.01,.08,.03,.14,.74,.15,1.5,.18,2.26,.23,.39,.03,.55-.08,.43-.51-.24-.89,.15-1.58,.8-2.14,1-.85,2.07-.73,3.17-.2,1.04,.5,1.39,1.34,1.17,2.44,.38,.04,.67-.13,.99-.18,.6-.1,.9-.26,.66-1.02-.38-1.23,.29-2.44,1.42-2.89,1.21-.48,2.49-.02,3.11,1.16,.21,.4,.38,.37,.68,.16,.38-.26,.71-.45,.33-1.02-.63-.96-.56-2.15,.04-2.77,.6-.62,1.56-.68,2.64-.16,.02,.01,.04,.02,.06,.03,.26,.17,.47,.18,.6-.15,.17-.44,.45-.35,.78-.18,.9,.47,1.81,.92,2.71,1.38,3.94,1.98,7.87,3.97,11.82,5.93,.55,.27,.61,.53,.31,1.06-1.37,2.37-3.02,4.54-5,6.42-5.37,5.09-11.82,7.75-19.12,8.47-7.58,.74-14.84-.71-21.9-3.39-5.34-2.02-10.42-4.61-15.51-7.16-3.61-1.81-7.27-3.52-11.13-4.74-7.73-2.45-15.3-1.86-22.61,1.46-6.19,2.82-11.02,7.26-14.51,13.13-2.09,3.5-3.44,7.29-4.52,11.2-.28,1-.5,2.02-.95,2.96-.29,.61-.56,.66-.92,.11-.21-.33-.41-.18-.64-.16l-.27-.93c.06-.19,0-.36-.05-.54-.11-.53-.31-1.14-.24-1.6,.09-.58,.22-1.1,.02-1.66-.02-.07,.05-.17,.08-.26,.21-.46,.23-.83-.21-1.22-.45-.41-.42-1.01,.06-1.23,.46-.21,.33-.37,.12-.65-.33-.43-.47-.94,.07-1.25,.5-.28,.43-.57,.24-.95-.16-.3-.16-.65,.08-.83,.63-.49,.47-.93,.09-1.48-.29-.42-.09-1.12,.38-1.21,.9-.16,.57-.6,.33-1.05-.31-.58-.22-1.17,.33-1.3,.63-.16,.54-.39,.24-.76-.25-.3-.21-.61,0-.89,.19-.27,.45-.53,.81-.32,.27,.16,.27-.03,.3-.17,.07-.31-.04-.57-.18-.85-.25-.5,.09-1.08,.61-1.14,.7-.07,.87-.39,.57-1.02-.37-.78,.02-1.42,.9-1.42,.44,0,.56-.22,.51-.61-.03-.21-.16-.38-.24-.56-.27-.61,.09-1.02,.53-1.35,.38-.29,.75-.26,.95,.22,.7-.54,.46-1.1,.17-1.69-.3-.62,.21-1.5,1-1.79,.67-.25,.81,.23,.91,.73,.93-.85,.94-.9,.51-1.9-.32-.75,.23-1.7,1.18-2.02,.25-.08,.5-.1,.74,0,.42,.19,.19,.65,.34,.97,1.1-.8,1.12-.84,.76-1.96-.12-.36-.12-.7,.07-1,.46-.7,1.13-1.08,1.96-1.15,.45-.03,.75,.19,.73,.71,0,.14-.16,.31,.05,.42,1.34-.83,1.23-.58,.96-2.16-.05-.32,.05-.6,.22-.85,.37-.57,.91-.91,1.56-1.06,1.18-.29,1.65,.11,1.52,1.27,1.27-.36,1.62-.91,1.31-2.22-.13-.56-.02-1.02,.39-1.38,.83-.71,1.8-1.03,2.89-.87,.74,.11,1,.59,.74,1.3-.08,.21-.15,.39,.03,.57,.19,.19,.39,.07,.58,.02,.42-.11,.77-.44,1.25-.35,1.1,.8,2.81,.78,4.04,.07Zm35.74,3.13s0,0,0,0h0Zm6.91,4.92c.05,0,.11-.02,.16-.02-.02-.05-.04-.1-.07-.15-.05,.02-.1,.03-.15,.05,.02,.04,.03,.08,.05,.13Zm13.47,4.16s.03,.09,.04,.14c.12,.12,.13,.03,.13-.07,0-.02-.01-.05-.02-.07-.05,0-.1,0-.16,.01h0Zm.55,.41c.06,.03,.11,.06,.17,.09h0c-.06-.02-.11-.06-.17-.09h0Zm-5.66-1.45s.02-.02,.02-.04c0-.02,0-.04,0-.05h0s-.01,.06-.02,.09Zm-34.88-12.46c-.12,.14-.2,.28-.02,.44h0c.44,.18,.18-.27,.32-.36-.03-.1-.05-.2-.08-.3-.32-.17-.23,.06-.22,.22Zm35.48,14.39c-.13-.05-.26-.08-.31,.09-.04,.13,.08,.18,.19,.2,.04-.1,.08-.19,.12-.29Zm7.9-4.05h0c-.11,.08-.29,.15-.19,.3,.09,.14,.19,.03,.26-.07,0-.02-.02-.05-.02-.07l-.06-.16Zm-25.47-3.7c.11-.12,.24-.22,.21-.46-.19,.09-.36,.17-.54,.25-.24-1.06-.95-1.61-1.97-1.82-.23-.05-.46-.06-.67,.09-.29,.2-.43,.36-.16,.77,.42,.66,1.1,.9,1.7,1.23,.35,.19,.75-.08,1.1-.26,.01,.14,.07,.24,.23,.23,.03-.01,.07-.02,.11-.03Zm38.79,.85c-.05,.02-.1,.03-.16,.05-.04,.01-.08,.02-.12,.03h0c-.13-.05-.28-.17-.4-.02-.04,.05,.02,.19,.04,.29,.03,.09,.06,.18,.09,.26,.07,.08,.14,.16,.2,.24,.08,.09,.17,.11,.27,.05,.32-.28,.35-.57,.07-.9Zm-45.76-6.17c.23-.14,.13-.4-.05-.58-.04,0-.08,.02-.12,.02-.05,.02-.11,.03-.16,.05,0,0,0,0,0,0-.35-.22-.46-.03-.49,.29-.13,.08-.2,.17-.06,.3,.32,.32,.63,.06,.87-.09Zm22.01,8.03c-.04,.48,.38,.37,.63,.46,.61,.22,1.16,.67,1.89,.29,.49-.26,.44-.54,.19-.88-.52-.69-1.23-.79-2.06-.64-.36,.12-.63,.35-.66,.77Zm-59.65-.07c4.42-2.12,9.04-3.51,13.98-3.78-4.95,.12-9.61,1.42-13.98,3.78Zm74.67,3.93c.27,.02,.33-.15,.39-.32-.11,.09-.22,.19-.39,.32Zm10.41-5.15c-.03,.06-.04,.12-.06,.18,.03,0,.09,.01,.1,0,.03-.05,.05-.12,.08-.19-.05,0-.11,0-.11,.01Zm-29.14,6.42h.05s-.02-.04-.02-.04l-.03,.04Zm-4.6-3.15l.03,.04,.02-.05h-.05Z"/><path d="M829.56,483.43c-2.17,1.02-4.42,1.78-6.82,2.03-7.1,.75-13.23-1.5-18.14-6.67-6.46-6.8-8.25-14.91-6.18-23.92,.32-1.39,.62-2.78,.95-4.16,.53-2.2-.51-3.71-1.98-5.06-1.79-1.64-4.01-2.04-6.32-1.96-3.4,.12-6.58,1.18-9.7,2.43-4.18,1.67-8.18,3.71-12.2,5.73-4.99,2.51-10.14,4.57-15.63,5.73-5.83,1.23-11.66,1.19-17.49-.27-.85-.21-.58-.68-.44-1.15,.94-3.25,1.89-6.5,2.84-9.75,.96-3.3,1.94-6.6,2.89-9.9,.12-.4,.22-.72,.75-.56,.34,.11,.39-.17,.44-.42,.12-.53,.34-1.02,.65-1.46,.82-1.16,2.05-1.11,2.8,.12,.37,.61,.62,1.27,.61,1.99-.01,.86,.64,.45,.99,.5,.58,.07,.36-.36,.29-.65-.2-.84-.08-1.61,.41-2.31,1.01-1.41,2.72-1.43,3.81-.04,.41,.52,.73,1.09,.8,1.75,.05,.51,.29,.57,.7,.45,.28-.08,.57-.15,.86-.21,.41-.09,.45-.27,.21-.62-.79-1.11-.51-2.15,.23-3.12,.74-.97,1.75-1.45,2.96-1.17,1.2,.27,2.06,1.08,2.24,2.3,.13,.86,.41,.76,.99,.51,.67-.3,1.41-.46,2.12-.89-1.1-.71-1.64-1.65-1.19-2.85,.57-1.51,1.78-2.3,3.35-2.53,1.3-.2,2.21,.47,2.92,1.49,.21,.3,.26,.64,.32,.99,.11,.59,.41,.84,1.03,.6,.74-.29,1.5-.55,2.23-.82-.03-.35-.3-.36-.46-.47-1.15-.76-1.39-2.1-.54-3.14,1.24-1.52,2.81-2.29,4.8-1.96,1.35,.22,2.13,1.13,2.26,2.49,.06,.65,.66,1.19,1.3,1.1,.84-.12,1.67-.3,2.58-.48-.19-.23-.34-.38-.47-.55-.63-.78-.68-1.39-.18-2.22,1.3-2.18,5.23-2.78,7.15-1.09,.61,.53,.88,1.22,.82,2.02-.08,1,.4,1.54,1.38,1.58,.56,.03,1.12,.11,1.68,.16,.17,.01,.39,.19,.5-.07,.09-.21-.11-.34-.22-.48-.15-.19-.33-.37-.43-.58-.33-.66-.22-1.25,.33-1.75,1.9-1.7,6.21-1.07,7.58,1.12,.43,.69,.52,1.39,.17,2.15-.38,.8,.02,1.87,.79,2.3,.6,.34,1.2,.68,1.81,1.02,.22-.34,.02-.62,0-.9-.08-.97,.4-1.6,1.36-1.75,2.06-.31,5.03,1.64,5.55,3.67,.24,.91,.09,1.71-.7,2.31-.13,.1-.28,.19-.29,.36-.04,1.01-.6,1.61-1.54,1.94,.1,.07,.13,.1,.14,.1q1.37-.61,2.29,.81c.18,.28,.25,.66,.75,.57,.45-.08,.41-.41,.49-.71,.23-.9,.98-1.27,1.87-.96,1.89,.68,3.38,3.4,2.93,5.36-.16,.7-.51,1.22-1.25,1.43-.71,.2-.96,1.07-1.72,1.22-.17,.03-.04,.29-.02,.44,.07,.48,.15,.96,.24,1.44,.03,.17-.04,.4,.23,.46,.22,.04,.39,.03,.58-.15,1.09-1.03,1.94-.83,2.51,.59,.49,1.21,.63,2.46,.2,3.71-.35,1.04-1.07,1.54-2.13,1.42-.64-.07-1.16,.39-1.8,.29-.18-.03-.77,1.47-.64,1.64,.17,.22,.39,.33,.71,.25,1.24-.33,1.8,.03,2,1.26,.26,1.62-.88,2.73-2.46,2.39-.53-.11-1.05,.03-1.59-.05-.45-.07-.5,.51-.52,.85-.03,.42,.33,.2,.54,.19,.78-.04,1.4,.48,1.47,1.28,.07,.75-.43,1.27-1.3,1.29-.4,.01-.8-.07-1.19,.08-.24,.09-.42,.22-.52,.45-.06,.15-.15,.31-.05,.46,.13,.2,.28,.02,.42-.02,.78-.24,1.43,.04,1.64,.69,.2,.63-.15,1.1-.99,1.38-.33,.11-.64,.25-.96,.39-.41,.17-.37,.55-.22,.82,.21,.37,.38-.02,.56-.12,.52-.3,1.23-.17,1.48,.32,.29,.57,.12,1.06-.41,1.38-.27,.17-.54,.33-.8,.52-.44,.32-.47,.67-.18,1.09,.13,.06,.19-.03,.26-.1,.49-.51,1.07-.58,1.45-.11,.43,.52,.29,.99-.2,1.4-.14,.12-.27,.26-.36,.42-.13,.24-.47,.46-.19,.78,.26,.31,.4-.1,.61-.15,.34-.07,.65-.05,.89,.22,.24,.27,.26,.59,.09,.9-.11,.21-.25,.41-.36,.63-.07,.15-.11,.31,.04,.44,.11,.1,.24,.04,.38,.01,.99-.24,1.25,.06,.95,1.07-.08,.28-.11,.54,.12,.75,.29,.27,.32-.15,.48-.22,.27-.12,.52-.12,.76,.06,.23,.16,.27,.39,.21,.65-.09,.37-.21,.75,.28,1,.07-.48,.34-.73,.81-.62,.86,.2,.31,.96,.58,1.5,.22-.36,.52-.58,.94-.48,.53,.13,.44,.6,.53,.98,.1,.4,.15,.85,.67,.23,.45-.53,1.04-.37,1.29,.3,.21,.54,.34,1.07,1.1,.55,.29-.2,.59,.03,.8,.34,.24,.36,.49,.57,.83,.03,.26-.42,.66-.42,1.01-.03,.17,.2,.32,.42,.49,.64,.64-1,.91-1.02,1.69-.17,.07,.08,.14,.17,.23,.21,.48,.24,.78-.25,1.2-.28,.37-.03,.81,.51,1.11-.14,.09-.19,.28-.27,.48-.23,.9,.16,1.71-.11,2.53-.39,.14-.05,1.79,.7,1.83,.84,.16,.56-.31,.87-.5,1.3l-2.82,2.12Zm-55.78-50.75s0,0,0,0c.04-.03,.09-.07,.13-.1,.07,.02,.13,.04,.2,.06-.01-.02-.03-.05-.04-.05-.05,0-.1,0-.16,0-.04,.03-.09,.06-.13,.1Zm15.46-1.86h0s0,0,0,0Zm-34.53,10.12c.09,.05,.19,.1,.28,.15,.05-.05,.11-.09,.16-.14-.08-.31-.28-.43-.58-.37-.17,.04-.07,.14,0,.21l.13,.16Zm-4.33-1.46c.02,.12,.05,.24,.07,.36-.05,.19-.11,.39,.15,.49,.05-.04,.1-.08,.15-.11,.59-.46-.03-.59-.24-.82-.12-.08-.17-.06-.13,.09Zm54.55-9.69h0s-.05,0-.08-.01c.03,0,.05,0,.08,.01Zm-32.52-2.39c.01-.08,.02-.16,.03-.23-.12,.02-.24,.04-.35,.06-.13,.2-.08,.4,.03,.59h0c0,.14,.09,.28,.23,.2,.26-.15,.06-.41,.06-.62,0,0,0,0,0,0Zm7.15,4.16h0c-.05-.07-.07-.18-.2-.15-.02,0-.04,.04-.03,.05,.04,.13,.14,.1,.23,.09Zm14.58-3.83h0c-.11,.01-.21,.02-.32,.03-.26,.48,.1,.68,.42,.9h.02c.09,.06,.18,.11,.27,.17,.14-.04,.29-.07,.43-.11,.05,0,.1,0,.15,0,.29,.13,.32,.71,.8,.49,.36-.17,.73-.14,1.1-.08,.58,.1,.93-.12,1.06-.69,.14-.62-.44-.59-.74-.77-.76-.45-1.61-.19-2.42-.29-.16-.11-.28,0-.41,.06-.12,.09-.23,.18-.35,.27Zm-9.9,.73l-.06,.04-.06,.04c-.08,.05-.23,.1-.08,.21,.1,.08,.27,.11,.35-.01,.1-.15-.03-.23-.15-.28Zm1.54,2.3s.09-.06,.13-.1c-.18-.44-.41-.21-.67-.11,.16,.27,.36,.21,.54,.21Zm-34.47,4.04c-.49-.56-1.1-.48-1.7-.29-.56,.18-.6,.75-.8,1.19-.07,.15,.07,.31,.25,.35,.63,.15,1.26,.31,1.89,.05,.58-.23,.74-.82,.36-1.31Zm-7.41,5.94c.41,.54,1.72,.87,2.08,.45,.39-.46,.01-1.02-.16-1.48-.17-.43-1.43-.45-1.9-.08-.45,.35-.31,.73-.01,1.11Zm69.26,10.09c.56-.41,.39-1.1,.53-1.66,.11-.45-.33-.76-.63-1.05-.21-.2-.38,0-.47,.22-.28,.68-.35,1.4-.27,2.11,.05,.46,.32,.76,.85,.38Zm-67.98-7.57c0-.07,.01-.15,0-.16-.07-.02-.15-.04-.21-.02-.08,.03-.11,.12-.02,.17,.05,.03,.14,0,.23,0Zm61.33-6.66s.07,.03,.11,.04c0-.02,.02-.06,.02-.06-.03-.02-.07-.03-.1-.04,0,.02-.01,.04-.02,.06Zm-.26,.4l-.03,.05h.05s-.02-.05-.02-.05Zm-11.97-11.66l.06,.02v-.06s-.06,.04-.06,.04Z"/><path d="M691.02,366.58c-1.23-.23-1.65-.68-1.61-1.79,.06-1.6,.63-2.99,1.84-4.08,.98-.87,2.07-.91,3.05-.06,.33,.29,.46,.18,.66-.09,.44-.59,.89-1.18,1.33-1.77,.22-.3,.35-.5-.21-.59-.93-.15-1.4-.76-1.27-1.68,.28-1.98,1.26-3.51,3.08-4.42,.94-.47,1.86-.24,2.47,.62,.32,.45,.6,.46,.95,.1,.6-.6,1.19-1.2,1.77-1.79-.09-.24-.25-.15-.38-.16-1.06-.06-1.59-.71-1.4-1.75,.29-1.7,2.25-3.74,3.94-4.12,1.1-.24,1.83,.05,2.36,.99,.14,.25,.29,.39,.58,.41,.41,.03,.76,.22,.91,.37-.03-1.19,1.39-1.05,1.84-1.86-.52-.2-1.1-.47-1.17-1.17-.07-.73,.27-1.32,.72-1.86,1.06-1.27,2.38-2.1,4.07-2.22,1.13-.08,1.69,.31,2.23,1.31,.26,.48,.59,.97,1.35,.49,.56-.35,1.25-.5,1.88-.73-.03-.1-.04-.18-.07-.19-1.49-.68-1.63-1.46-.43-2.58,1.24-1.16,2.71-1.76,4.42-1.62,1.1,.09,1.64,.57,1.93,1.6,.24,.85,.8,1.22,1.66,1.1,.28-.04,.56-.07,.85-.09,.25-.02,.5-.02,.75-.03,.09-.21-.09-.24-.19-.33-.78-.7-.77-1.42,.02-2.07,1.12-.92,3.87-1.18,5.12-.44,.65,.38,1.05,.9,1.04,1.72,0,.78,.38,1.34,1.23,1.45,.11,.01,.22,.05,.34,.06,.42,.03,.88,.34,1.24,.1,.55-.37-.11-.73-.14-1.12-.05-.57,.22-.91,.69-1.15,1.33-.69,3.78-.08,4.64,1.16,.27,.39,.35,.8,.23,1.29-.3,1.22,.07,1.88,1.11,2.17,.45,.13,.64,.06,.56-.47-.14-1.02,.28-1.47,1.31-1.46,.82,0,1.56,.24,2.21,.77,.51,.41,.76,.92,.58,1.57-.1,.37-.06,.73-.06,1.1,0,.52,.63,1.12,1.12,1.05,.25-.03,.29-.19,.28-.43-.02-1.17,.23-1.47,1.19-1.46,1.25,0,2,.62,1.99,1.62,0,.28-.03,.56,0,.85,.05,.89,.06,.89,1.05,1.1,0-.4-.28-.83,.06-1.19,.25-.26,.55-.4,.9-.45,.81-.12,1.36,.36,1.57,1.38,.13,.64,.41,1.06,1.22,.82-.39-.66-.33-1.23,.41-1.58,.62-.29,1.17-.03,1.64,.76,.28,.48,.6,.85,1.3,.49-.21-.38-.61-.74-.29-1.25,.37-.61,1.21-.71,1.76-.18,.2,.2,.39,.41,.62,.58,.21,.15,.44,.08,.63-.08,.19-.16,.03-.3-.07-.43-.29-.44-.17-.82,.2-1.12,.35-.29,.74-.4,1.17-.11,.19,.12,.39,.25,.6,.31,.34,.09,.61,.1,.49-.44-.22-1,.18-1.33,1.2-1.11,.48,.1,.99,.25,.61-.62-.24-.55,.12-.95,.72-.96,.57,0,.89-.07,.63-.77-.17-.47,.05-.85,.58-.93,.45-.07,.81-.09,.36-.69-.29-.38-.17-.86,.34-1.03,.37-.13,.52-.24,.31-.65-.26-.5-.03-.86,.47-1.09,.4-.18,.59-.38,.2-.82-.39-.45-.37-.95,.18-1.3,.45-.29,.56-.64,.2-1.05-.5-.58,.71-1.09,.08-1.59-.64-.52-.46-.93,0-1.41,.19-.21,.05-.33-.18-.43-.61-.26-.58-.74-.29-1.19,.19-.31,.23-.55,.08-.86-.55-1.21-1.05-2.45-1.66-3.62-.32-.61-.54-1.09-.38-1.84,.17-.78,.48-.65,.92-.43,1.11,.57,1.96,1.45,2.71,2.41,3.96,5.07,4.84,10.81,3.06,16.83-2.4,8.12-8.15,12.83-16.28,14.66-4.51,1.01-8.92,.1-13.26-1.19-3.05-.9-6.03-2.04-9.12-2.79-5.55-1.35-10.7-.17-15.58,2.56-3.73,2.09-6.88,4.87-9.71,8.06-4.78,5.39-7.92,11.73-10.77,18.25-1.42,3.25-2.75,6.54-4.02,9.86-.28,.74-.59,.94-1.37,.61-4.64-1.99-9.3-3.95-13.96-5.89-.58-.24-.75-.55-.43-1.1,.26-.44,.22-.77-.28-1.03-.37-.19-.53-.58-.64-.97-.39-1.47,.49-3.78,1.76-4.61,.51-.34,1.05-.53,1.69-.42,.6,.1,1.56-.91,1.45-1.49-.04-.23-.24-.21-.39-.25-.63-.18-.94-.66-1.01-1.25-.21-1.77,.28-3.32,1.63-4.53,.8-.72,1.72-.88,2.66-.28,.35,.22,.47,.15,.64-.17,.3-.58,.63-1.14,.98-1.77Zm-7.6,14.26c-.13,.01-.26,.02-.39,.03-.04,.24-.18,.59,.2,.58,.32-.01,.28-.35,.19-.61Zm13.82-24.6s-.1-.06-.14-.1c-.65-.19-1.01-.07-.74,.71,.05,.04,.1,.08,.15,.11,.15-.1,.29-.2,.44-.31h0c.2-.06,.31-.2,.3-.42Zm-5.84,14.45l.05,.05,.02-.06h-.07Zm-1.53,2.87h-.06s.03,.06,.03,.06l.03-.06Z"/><path d="M561.36,303.72c-.82,.26-.93,.82-.79,1.41,.16,.72-.05,1.23-.72,1.44-.62,.19-1.11-.01-1.29-.75-.15-.59-.45-.17-.58,0-.24,.34-.14,.77,.03,1.1,.41,.78,.34,1.44-.46,1.86-.8,.42-1.41,.16-1.72-.78-.87,.68-.48,1.23,0,1.79,.78,.94,.42,2.12-.72,2.36-.64,.13-1.02-.21-1.36-.76-.44,.53-.63,.95,.03,1.37,.35,.22,.65,.51,.98,.76,.8,.6,.95,1.39,.41,2.16-.53,.76-1.21,.87-2.06,.34-.27-.17-.6-.48-.76,0-.11,.32-.52,.86,.21,1.09,.48,.15,.9,.45,1.41,.55,1.13,.23,1.67,1.16,1.38,2.21-.31,1.14-1.02,1.51-2.26,1.15-.31-.09-.65-.17-.63,.25,.02,.39-.07,.98,.56,1.05,.57,.06,1.13,.17,1.71,.12,1.33-.12,2.26,.65,2.3,1.84,.04,1.19-.68,1.88-2.05,1.92-.37,.01-.74,.12-.63,.5,.15,.51,.31,1.17,1.01,1.22,.43,.03,.85-.1,1.26-.34,1.17-.69,2.41-.5,2.99,.39,.7,1.07,.46,2.24-.62,3.12-.21,.17-.73,.26-.41,.68,.26,.34,.61,.69,1.14,.36,.4-.25,.79-.49,1.07-.91,.56-.82,1.32-1.47,2.4-1.23,1.08,.24,1.74,1.05,2.09,2.06,.36,1.05-.22,1.76-1.27,2.42,.75,.2,1.3,.41,1.87,.48,.54,.07,.78-.38,.89-.83,.34-1.44,1.27-2.17,2.71-2.26,1.3-.08,3.16,.99,3.66,2.07,.4,.85,.07,1.54-.66,2.25,.89,.17,1.65,.41,2.42,.44,.57,.02,.93-.4,1.01-1.04,.19-1.5,1-2.26,2.51-2.35,1.6-.09,3.03,.42,4.26,1.42,1.53,1.25,1.39,2.45-.4,3.43,1.04,.34,2.02,.67,3.02,.98,.51,.16,.83,.07,.91-.59,.13-1.1,.79-1.68,1.89-1.81,2.2-.26,5.58,1.84,6.3,3.93,.33,.95-.11,1.69-1.43,2.21,1.16,.87,2.25,1.69,3.35,2.52,.51-1.52,1.41-1.99,2.96-1.54,2.12,.62,4.21,3.47,4.19,5.68,0,.65-.27,1.16-.87,1.34-.69,.2-.51,.47-.19,.85,.26,.32,.52,.65,.74,1,.39,.61,.67,1.19,1.49,.34,.45-.46,1.2-.28,1.82-.02,2.18,.93,3.83,4.54,3.12,6.82-.18,.57-.45,1.08-1.12,1.17-.54,.07-.5,.36-.35,.74,.13,.32,.28,.65,.36,.99,.14,.62,.42,.88,1.12,.84,1.03-.07,1.75,.57,2.21,1.42,1.03,1.91,1.33,3.91,.63,6-.21,.63-.57,1.22-1.24,1.34-.73,.13-.78,.56-.69,1.1,.17,1-.24,1.26-1.2,1.24-5.8-.11-11.6-.18-17.41-.24-.63,0-.8-.19-.82-.82-.24-6.96-2.96-12.7-8.51-17.01-2.89-2.24-6.29-3.32-9.76-4.24-3.94-1.05-7.91-2.02-11.76-3.38-7.51-2.64-13.52-7.12-17.27-14.27-3.36-6.4-4.18-13.2-2.6-20.24,1.48-6.62,4.9-12.01,10.59-15.81,5.52-3.69,11.56-4.89,17.98-3,7.43,2.18,12.77,8.47,12.32,16.62-.15,2.71-1.01,5.18-2.82,7.27-.25,.29-.54,.55-.85,.76-.52,.35-.82,.37-1.06-.42-.22-.75-.13-1.34,.06-2.05,.38-1.42,.57-2.89,.71-4.36,.04-.44-.2-.7-.5-.97-.42-.37-.71-.8-.19-1.29,.36-.35,.02-.42-.18-.53-.52-.29-.76-.67-.47-1.25,.11-.21,.18-.47-.06-.59-.53-.28-.78-.67-.81-1.29-.02-.39-.41-.45-.74-.44-.69,.02-1.06-.32-.94-.98,.11-.61-.19-.68-.63-.59-.63,.14-1.08,.04-1.18-.69-.06-.45-.3-.28-.55-.18-.7,.29-1.08-.03-1.07-.71,0-.65-.27-.46-.55-.25-.7,.54-1.14,.45-1.36-.46-.1-.4-.39-.39-.84-.01-.8,.65-1,.62-1.47-.24-.31-.57-.55-.19-.73,.08-.83,1.18-1,1.2-1.76,.08-.2-.29-.37-.22-.52-.02-.14,.2-.27,.45-.3,.69-.07,.68-.29,1.2-1.09,1.15-.74-.05-.91-.55-.76-1.23Zm36.79,46.59c.11,.01,.23,.02,.34,.04,.13-.23,0-.39-.15-.55-.43,.04-.49,.22-.18,.52h-.01Z"/><g><polyline id="polyline1310" class="cls-1" points="572.46 400.03 575.6 404.68 579.37 408.75 583.74 412.24 591.12 416.18 599.19 418.36 606.07 419.04 613.06 417.95 616.21 422.59 622.11 428.54 631.75 434.15 639.8 436.37 648.17 436.74 653.72 435.94 658.67 442.69 664.99 448.19 672.37 452.13 680.42 454.34 688.79 454.71 694.34 453.91 699.93 461.97 707.99 467.63 713.02 470.11 721.08 472.33 729.45 472.7 734.99 471.89 737.92 465.29 732.38 466.06 726.78 466.02 718.6 464.39 710.93 460.99 704.89 457.13 700.42 451.92 697.26 447.31 688.95 448.15 681.69 447.58 677.94 446.4 670.27 443.01 663.55 438.05 658.98 432.96 656.64 429.34 648.33 430.17 642.74 429.73 637.32 428.43 629.65 425.04 622.93 420.08 619.14 415.96 615.98 411.35 607.67 412.19 599.36 411.21 596.7 410.45 589.02 407.1 582.31 402.11 578.54 398.03 575.38 393.42 572.46 400.03"/><polyline id="polyline1312" class="cls-1" points="594.7 401.89 588.49 363.5 618.27 376.67 624.58 371.56 637.94 377.47 644.71 372.57 630.86 366.44 642.83 356.7 657.55 363.22 676.71 350.86 680.1 352.36 674.88 358.16 680.46 360.62 678.41 365.26 671.31 362.12 667.73 367.89 670.75 376.16 712.18 394.49 729.05 382.23 742.58 388.22 735.28 404.71 742.84 408.05 743.47 416.26 658.21 378.54 653.1 384.18 744.15 424.46 744.8 432.65 751.12 435.45 740.85 458.65 735.32 459.42 726.96 459.05 718.9 456.83 711.51 452.89 707.15 449.4 703.36 445.27 700.2 440.67 691.89 441.51 683.58 440.53 678.24 438.85 670.86 434.91 664.55 429.41 659.58 422.7 651.26 423.53 642.96 422.56 635.08 419.75 627.98 415.26 622.08 409.32 618.92 404.71 610.73 405.56 602.49 404.62 599.85 403.91 594.7 401.89"/></g></g></svg>