<?xml version="1.0" encoding="UTF-8"?><svg id="squid_ava_evm" xmlns="http://www.w3.org/2000/svg" viewBox="0 0 1157.5 251.07"><defs><style>.cls-1{fill:#010101;}.cls-2{fill:#fff;}.cls-3{fill:none;stroke:#010101;stroke-dasharray:0 0 0 12;stroke-linecap:round;stroke-linejoin:round;stroke-width:9px;}.cls-4{opacity:.75;}</style></defs><g class="cls-4"><line class="cls-2" x1="1157.5" y1="198.06" x2="0" y2="155.56"/><g><line class="cls-3" x1="1125.23" y1="196.87" x2="32.27" y2="156.74"/><polygon class="cls-1" points="1119.49 174.21 1157.5 198.06 1117.84 219.06 1119.49 174.21"/><polygon class="cls-1" points="39.66 134.56 0 155.56 38.01 179.41 39.66 134.56"/></g></g><g class="cls-4"><path class="cls-1" d="M481.67,225.21l3.73-3.26c1.98,2.9,4.59,4.56,7.99,4.65,4.05,.1,6.24-1.75,6.34-5.55,.07-3.05-1.24-4.58-4.77-5.52l-2.83-.67c-6.21-1.55-9.04-4.57-8.91-10.12,.16-6.45,4.39-9.75,11.34-9.58,4.95,.12,8.26,1.85,10.67,5.51l-3.73,3.11c-1.74-2.59-3.81-3.89-7.16-3.97-3.8-.09-5.73,1.36-5.82,4.91-.07,2.9,1.35,4.28,4.68,5.17l2.83,.72c6.61,1.66,9.15,4.42,9.01,10.22-.17,6.95-4.51,10.59-11.81,10.42-5.15-.12-8.95-2.27-11.56-6.03Z"/><path class="cls-1" d="M530.22,240.09l-4.6-.11c-3.7-.09-5.2-2.03-5.12-5.23l.07-3c-7.03-1.07-11.14-6.62-10.86-18.17,.31-12.7,5.59-17.92,13.98-17.72s13.42,5.68,13.11,18.37c-.27,11.25-4.45,16.65-11.23,17.53l-.09,3.8,4.85,.12-.11,4.4Zm.78-21.79l.2-8.4c.14-5.7-2.63-9.22-7.63-9.34s-7.93,3.26-8.07,8.96l-.2,8.4c-.14,5.7,2.63,9.22,7.63,9.34s7.93-3.26,8.07-8.96Z"/><path class="cls-1" d="M548.52,197.06l-.55,22.59c-.13,5.55,1.5,8.24,6.4,8.36,4.9,.12,6.66-2.49,6.8-8.04l.55-22.59,5.3,.13-.53,21.75c-.23,9.5-3.43,13.67-12.23,13.46s-11.79-4.54-11.56-14.03l.53-21.75,5.3,.13Z"/><path class="cls-1" d="M572.27,232.55l.1-4.25,4.25,.1,.64-26.39-4.25-.1,.1-4.25,13.8,.33-.1,4.25-4.25-.1-.64,26.39,4.25,.1-.1,4.25-13.8-.33Z"/><path class="cls-1" d="M593.3,198.15l11.5,.28c8.25,.2,12.92,5.46,12.62,17.76s-5.22,17.33-13.47,17.13l-11.5-.28,.84-34.89Zm10.77,30.52c4.55,.11,7.42-2.87,7.56-8.57l.2-8.1c.14-5.7-2.59-8.82-7.14-8.93l-6.2-.15-.62,25.59,6.2,.15Z"/><path class="cls-1" d="M639.19,234.17l-5.3-.13,.84-34.89,13.8,.33c5.95,.14,8.96,3.92,8.8,10.57-.13,5.4-2.26,8.75-6.24,9.75l6.29,14.81-5.9-.14-5.7-14.39-6.25-.15-.34,14.25Zm8.5-18.5c2.5,.06,3.88-1.16,3.95-4.06l.08-3.25c.07-2.9-1.25-4.18-3.75-4.24l-8.05-.2-.28,11.55,8.05,.2Z"/><path class="cls-1" d="M662.06,217.27c.31-12.7,5.59-17.92,13.98-17.72s13.42,5.68,13.11,18.37c-.31,12.7-5.59,17.92-13.98,17.72s-13.42-5.68-13.11-18.37Zm21.29,4.72l.2-8.4c.14-5.7-2.63-9.22-7.63-9.34s-7.93,3.26-8.07,8.96l-.2,8.4c-.14,5.7,2.63,9.22,7.63,9.34s7.93-3.26,8.07-8.96Z"/><path class="cls-1" d="M700.87,200.75l-.55,22.59c-.13,5.55,1.5,8.24,6.4,8.36,4.9,.12,6.66-2.49,6.8-8.04l.55-22.59,5.3,.13-.53,21.75c-.23,9.5-3.43,13.67-12.23,13.46-8.8-.21-11.79-4.54-11.56-14.03l.53-21.75,5.3,.13Z"/><path class="cls-1" d="M738.55,206.31l-.73,30.24-5.3-.13,.73-30.24-9.25-.22,.11-4.65,23.79,.58-.11,4.65-9.25-.22Z"/><path class="cls-1" d="M752.01,236.9l.84-34.89,20.25,.49-.11,4.65-14.95-.36-.25,10.2,13.5,.33-.11,4.6-13.5-.33-.26,10.8,14.95,.36-.11,4.65-20.25-.49Z"/><path class="cls-1" d="M784.1,237.68l-5.3-.13,.84-34.89,13.8,.33c5.95,.14,8.96,3.92,8.8,10.57-.13,5.4-2.26,8.75-6.24,9.75l6.29,14.81-5.9-.14-5.7-14.39-6.25-.15-.34,14.25Zm8.5-18.5c2.5,.06,3.88-1.16,3.95-4.06l.08-3.25c.07-2.9-1.25-4.18-3.75-4.24l-8.05-.2-.28,11.55,8.05,.2Z"/></g><g class="cls-4"><path d="M503.52,125.91c.43-.52,.7-.99,.47-1.65,.21-.15,.41-.3,.62-.44,.99-.65,1.07-.63,1.71,.38,.2,.32,.27,.75,.67,1,.14-.55-.97-1.11,.22-1.49-.17-.04-.23-.06-.3-.06-1.17-.04-1.52-.44-1.35-1.6,.03-.22,.01-.4-.1-.59-.27-.45-.18-.89,.06-1.31,.78-1.41,3.34-2.3,4.83-1.68,.74,.31,.93,.76,.6,1.48-.1,.21-.24,.4-.05,.63,.19,.23,.4,.15,.63,.1,.6-.13,1.15-.48,1.8-.46,.05,0,.15-.06,.15-.08-.05-.54,.51-.94,.33-1.52-.23-.73,.08-1.3,.61-1.78,.57-.51,1.26-.78,2-.89,1.15-.17,2.31-.22,3.37,.4,.79,.46,.92,1.12,.42,1.86-.12,.18-.34,.33-.25,.64,.35-.18,.73-.2,1.1-.24,.39-.04,.77-.18,1.16-.07,.09,.03,.21,.05,.24-.05,.12-.51,.62-.85,.59-1.44-.05-1.06,.45-1.78,1.48-2.16,1.7-.62,3.33-.37,4.84,.55,1.11,.68,1.12,1.43,.13,2.3-.1,.08-.28,.13-.18,.31,.06,.12,.2,.1,.31,.1,.6,0,1.2-.04,1.8,0,.63,.03,1.12-.4,1.08-1.06-.04-.71,.23-1.26,.79-1.67,1.45-1.06,3.01-.83,4.56-.32,.74,.24,1.39,.65,1.69,1.43,.26,.68-.08,1.23-.6,1.78,.89,.02,1.65,.05,2.41,.04,.54,0,.98-.52,.93-1.03-.11-1.16,.37-1.97,1.46-2.38,1.28-.49,2.55-.4,3.76,.2,1.43,.71,1.64,1.66,.73,2.95-.02,.03,0,.08,.01,.21,.77-.05,1.55-.06,2.32-.15,.38-.04,.63-.26,.41-.73-.37-.82-.12-1.55,.44-2.17,.97-1.07,2.2-1.14,3.51-.85,1.58,.34,2.07,1.17,1.63,2.71,0,.03,.04,.07,.07,.12,.75-.11,1.47-.35,2.2-.55,.38-.11,.49-.26,.23-.63-.53-.76-.4-1.54,.03-2.28,.65-1.14,1.7-1.39,2.91-1.27,1.15,.12,1.76,.78,1.93,1.9,.37-.09,.59-.35,.87-.5,.53-.3,.76-.55,.28-1.19-.78-1.02-.56-2.4,.35-3.2,.97-.86,2.34-.87,3.32,.04,.33,.3,.48,.22,.69-.08,.26-.38,.52-.66-.04-1.07-.92-.69-1.26-1.83-.9-2.62,.36-.79,1.24-1.17,2.42-1.04,.02,0,.05,0,.07,.01,.3,.07,.51,0,.51-.35,.01-.47,.3-.48,.67-.43,1.01,.13,2.01,.25,3.02,.37,4.38,.53,8.75,1.06,13.13,1.56,.61,.07,.76,.29,.65,.89-.48,2.7-1.29,5.29-2.52,7.74-3.32,6.61-8.49,11.31-15.11,14.46-6.88,3.27-14.2,4.37-21.75,4.26-5.71-.09-11.36-.8-17.02-1.46-4.01-.47-8.03-.84-12.08-.68-8.1,.32-15.02,3.45-20.76,9.06-4.86,4.75-7.89,10.58-9.18,17.28-.77,4-.76,8.03-.45,12.06,.08,1.03,.22,2.07,.12,3.11-.07,.68-.31,.81-.83,.42-.31-.23-.45-.03-.65,.06l-.57-.78c0-.2-.13-.34-.23-.5-.29-.46-.68-.96-.77-1.42-.11-.57-.16-1.11-.55-1.57-.05-.06-.02-.18,0-.27,.04-.5-.07-.86-.61-1.08-.56-.23-.73-.81-.36-1.17,.36-.36,.18-.46-.11-.65-.46-.29-.77-.72-.35-1.2,.38-.44,.21-.69-.1-.98-.25-.23-.37-.55-.21-.81,.43-.67,.12-1.04-.42-1.42-.41-.29-.47-1.03-.06-1.26,.79-.46,.34-.76-.05-1.1-.49-.44-.61-1.02-.14-1.34,.54-.36,.38-.55-.04-.79-.33-.2-.4-.5-.31-.84,.09-.32,.24-.65,.65-.57,.31,.06,.24-.12,.23-.26-.04-.31-.23-.53-.46-.74-.4-.38-.29-1.05,.18-1.28,.63-.3,.69-.66,.19-1.15-.62-.61-.46-1.34,.36-1.64,.41-.15,.45-.4,.27-.75-.1-.19-.28-.3-.42-.45-.46-.48-.26-.99,.04-1.45,.26-.4,.62-.5,.97-.12,.47-.74,.06-1.19-.41-1.65-.49-.48-.31-1.48,.33-2.02,.55-.46,.83-.06,1.1,.38,.59-1.12,.58-1.16-.17-1.96-.56-.59-.36-1.68,.42-2.3,.2-.16,.43-.27,.7-.24,.47,.04,.4,.55,.65,.8,.76-1.13,.77-1.17,.05-2.1-.23-.3-.35-.61-.27-.96,.19-.81,.7-1.4,1.45-1.74,.41-.18,.77-.08,.92,.42,.04,.13-.05,.34,.19,.38,.98-1.24,.96-.97,.17-2.36-.16-.28-.16-.58-.09-.88,.15-.66,.55-1.16,1.11-1.53,1.01-.67,1.59-.46,1.87,.68,1.08-.77,1.21-1.41,.47-2.54-.32-.48-.37-.96-.1-1.43,.53-.95,1.35-1.58,2.42-1.8,.74-.15,1.14,.21,1.13,.97,0,.22,0,.41,.22,.53,.24,.12,.39-.07,.55-.18,.36-.24,.58-.67,1.05-.75,1.31,.38,2.91-.23,3.82-1.31Zm34.68-9.2s0,0,0,0h0Zm8.17,2.27s.1-.05,.15-.08c-.04-.04-.08-.08-.11-.12-.04,.03-.08,.06-.12,.09,.03,.03,.06,.07,.09,.1Zm14.08-.66s.06,.08,.08,.11c.15,.07,.13-.02,.1-.11-.01-.02-.03-.04-.04-.06-.05,.02-.1,.04-.14,.06h0Zm.66,.2c.06,0,.13,.02,.19,.03h0c-.06,0-.13-.01-.19-.02h0Zm-5.81,.56s0-.03,0-.04c0-.02-.01-.03-.02-.05h0s0,.06,.01,.09Zm-37.03,.14c-.06,.17-.09,.34,.13,.42h0c.48,.02,.08-.31,.18-.44-.06-.09-.12-.17-.18-.26-.36-.05-.19,.14-.13,.28Zm38.26,1.47c-.13,0-.28,.01-.26,.19,.01,.14,.13,.14,.25,.13,0-.1,.01-.21,.02-.31Zm6.06-6.5h0c-.08,.11-.22,.23-.07,.35,.13,.1,.19-.04,.22-.16-.02-.02-.03-.04-.04-.06l-.11-.13Zm-25.21,5.17c.06-.15,.14-.29,.04-.5-.15,.15-.28,.28-.42,.42-.58-.92-1.44-1.19-2.47-1.04-.23,.03-.46,.1-.6,.31-.2,.29-.28,.48,.11,.78,.62,.48,1.34,.47,2.02,.58,.4,.06,.68-.33,.94-.62,.06,.13,.15,.2,.3,.14,.03-.02,.06-.04,.09-.06Zm36.77-12.38s-.09,.07-.13,.1c-.03,.02-.07,.05-.1,.07h0c-.14,0-.32-.07-.39,.11-.02,.06,.09,.17,.14,.26,.06,.07,.12,.14,.17,.22,.09,.05,.18,.1,.27,.16,.1,.06,.19,.04,.27-.05,.21-.37,.13-.66-.24-.87Zm-45.14,9.75c.17-.21-.01-.42-.25-.53-.03,.02-.07,.04-.1,.06-.04,.03-.09,.07-.13,.1,0,0,0,0,0,0-.4-.09-.44,.13-.37,.44-.09,.12-.13,.23,.05,.31,.41,.19,.61-.16,.79-.38Zm23.43,.07c.13,.46,.49,.22,.75,.22,.65,0,1.32,.23,1.88-.37,.38-.41,.23-.66-.11-.89-.72-.48-1.43-.33-2.15,.09-.3,.23-.48,.54-.36,.95Zm-56.12,20.21c3.44-3.5,7.31-6.38,11.86-8.3-4.62,1.79-8.55,4.6-11.86,8.3Zm71.57-21.68c.26-.08,.26-.25,.25-.43-.07,.13-.15,.25-.25,.43Zm8.04-8.38c0,.06,0,.13,0,.19,.03-.01,.09-.02,.09-.04,.01-.06,0-.13,0-.21-.05,.02-.1,.03-.1,.05Zm-25.22,15.94h.05s-.03-.05-.03-.05v.05Zm-5.41-1.4l.04,.02v-.05s-.04,.03-.04,.03Z"/><path d="M820.97,132.89c-1.69,1.7-3.55,3.17-5.72,4.23-6.42,3.12-12.95,3.09-19.33-.11-8.39-4.2-12.83-11.22-13.94-20.4-.17-1.41-.36-2.83-.52-4.24-.25-2.25-1.74-3.31-3.58-4.08-2.24-.94-4.47-.56-6.61,.3-3.16,1.27-5.78,3.35-8.29,5.58-3.37,2.99-6.44,6.27-9.52,9.53-3.84,4.06-7.98,7.74-12.75,10.7-5.07,3.14-10.56,5.08-16.54,5.69-.87,.09-.77-.44-.8-.93-.22-3.38-.43-6.75-.64-10.13-.21-3.43-.42-6.86-.64-10.29-.03-.42-.04-.75,.51-.78,.36-.02,.31-.29,.27-.54-.07-.54-.03-1.07,.12-1.6,.38-1.37,1.55-1.74,2.67-.83,.55,.45,1.01,.98,1.25,1.67,.28,.82,.76,.21,1.1,.13,.57-.13,.22-.46,.05-.71-.48-.72-.63-1.48-.4-2.31,.47-1.67,2.08-2.27,3.57-1.33,.56,.35,1.05,.78,1.34,1.38,.22,.46,.47,.44,.81,.18,.24-.18,.48-.33,.73-.49,.36-.23,.33-.41-.01-.65-1.12-.77-1.21-1.85-.84-3.02,.37-1.16,1.15-1.95,2.39-2.11,1.22-.15,2.3,.32,2.89,1.4,.42,.76,.65,.58,1.1,.14,.53-.51,1.17-.91,1.69-1.56-1.28-.3-2.1-1-2.09-2.28,.02-1.62,.9-2.77,2.29-3.52,1.16-.63,2.24-.31,3.26,.41,.3,.21,.47,.52,.64,.82,.3,.52,.67,.65,1.17,.21,.6-.53,1.22-1.02,1.82-1.53-.15-.32-.4-.24-.59-.29-1.34-.32-2.02-1.5-1.58-2.77,.65-1.85,1.86-3.11,3.85-3.48,1.34-.25,2.39,.34,2.97,1.57,.28,.59,1.03,.9,1.6,.6,.75-.4,1.47-.86,2.27-1.32-.26-.15-.45-.25-.63-.36-.86-.52-1.11-1.07-.92-2.03,.49-2.49,3.98-4.39,6.36-3.46,.75,.3,1.25,.85,1.46,1.63,.26,.97,.9,1.31,1.84,1.02,.54-.17,1.09-.27,1.64-.42,.16-.04,.43,.04,.44-.24,.01-.23-.22-.28-.37-.38-.2-.13-.43-.23-.6-.4-.53-.51-.63-1.1-.28-1.76,1.21-2.25,5.48-3.12,7.51-1.52,.64,.5,.96,1.13,.89,1.97-.08,.88,.65,1.75,1.53,1.89,.68,.11,1.36,.23,2.05,.35,.09-.39-.2-.59-.31-.84-.41-.89-.17-1.64,.69-2.11,1.83-1,5.29-.16,6.47,1.57,.53,.78,.66,1.58,.13,2.41-.09,.14-.2,.27-.15,.44,.31,.96-.01,1.72-.79,2.35,.11,.03,.15,.05,.16,.04q1.09-1.04,2.43-.01c.26,.2,.46,.54,.9,.28,.4-.23,.25-.52,.22-.83-.09-.92,.49-1.53,1.43-1.54,2.01,0,4.34,2.05,4.57,4.05,.08,.71-.07,1.33-.68,1.77-.6,.43-.54,1.33-1.2,1.74-.15,.09,.06,.29,.13,.42,.23,.43,.47,.85,.71,1.27,.09,.15,.1,.39,.37,.35,.22-.03,.38-.1,.5-.33,.67-1.34,1.54-1.44,2.56-.3,.87,.98,1.42,2.1,1.45,3.43,.02,1.1-.48,1.81-1.52,2.06-.62,.15-.95,.76-1.59,.89-.18,.04-.22,1.64-.04,1.76,.23,.15,.48,.18,.75,0,1.05-.73,1.71-.58,2.31,.51,.79,1.43,.1,2.86-1.51,3.08-.53,.07-.98,.39-1.51,.49-.45,.09-.3,.65-.2,.98,.12,.41,.38,.08,.57,0,.72-.31,1.48-.02,1.82,.7,.32,.69,.02,1.34-.79,1.65-.37,.15-.77,.2-1.1,.48-.2,.17-.32,.35-.34,.6,0,.16-.03,.34,.11,.45,.19,.14,.27-.07,.38-.16,.65-.49,1.36-.45,1.78,.09,.4,.52,.23,1.09-.46,1.64-.27,.21-.52,.46-.77,.69-.33,.3-.16,.64,.07,.84,.32,.28,.35-.15,.48-.3,.39-.46,1.1-.58,1.5-.2,.47,.44,.48,.96,.09,1.44-.2,.25-.39,.5-.58,.76-.31,.45-.22,.79,.21,1.09,.14,.02,.17-.09,.21-.19,.29-.65,.81-.91,1.32-.6,.58,.35,.61,.84,.28,1.39-.09,.16-.16,.34-.19,.52-.04,.27-.28,.59,.08,.8,.35,.2,.34-.23,.52-.35,.29-.18,.59-.27,.91-.09,.32,.18,.44,.47,.39,.82-.03,.24-.1,.47-.13,.71-.02,.16,0,.33,.19,.4,.14,.05,.24-.04,.36-.12,.85-.56,1.2-.37,1.26,.68,.02,.29,.08,.55,.36,.66,.36,.15,.25-.25,.38-.37,.21-.2,.45-.29,.74-.21,.27,.08,.39,.28,.41,.54,.04,.38,.05,.77,.61,.85-.1-.47,.07-.8,.55-.86,.88-.1,.62,.8,1.05,1.21,.09-.41,.29-.72,.72-.77,.55-.06,.62,.42,.83,.74,.23,.34,.43,.75,.71,0,.24-.66,.85-.7,1.32-.16,.38,.44,.69,.89,1.22,.14,.21-.29,.57-.17,.87,.05,.35,.26,.66,.37,.79-.25,.1-.48,.48-.62,.94-.37,.23,.13,.44,.28,.68,.44,.27-1.16,.51-1.27,1.53-.73,.09,.05,.19,.11,.29,.12,.53,.06,.65-.5,1.03-.67,.34-.15,.94,.2,.99-.51,.02-.21,.17-.35,.37-.38,.9-.15,1.57-.69,2.25-1.23,.12-.09,1.93,.05,2.01,.17,.34,.47,0,.93-.03,1.39l-1.93,2.95Zm-69.71-28.77s0,0,0,0c.03-.05,.06-.09,.09-.14,.07,0,.14,0,.21-.01-.02-.01-.04-.04-.06-.03-.05,.01-.1,.03-.15,.05-.03,.04-.06,.09-.09,.13Zm13.91-7h0s0,0,0,0Zm-29.03,21.26c.11,.01,.21,.03,.32,.04,.03-.06,.07-.12,.1-.19-.18-.26-.41-.31-.67-.16-.15,.09-.02,.15,.07,.2l.18,.1Zm-4.57,.09c.06,.1,.12,.21,.19,.31,.02,.2,.03,.4,.31,.41,.03-.05,.07-.11,.1-.16,.4-.64-.23-.54-.51-.69-.14-.03-.18,0-.09,.13Zm48.01-27.65h0s-.05,.01-.08,.01c.03,0,.05,0,.08-.01Zm-31.39,8.81c-.02-.08-.03-.15-.05-.23-.1,.06-.21,.12-.31,.18-.06,.24,.06,.4,.23,.54h0c.05,.13,.18,.23,.28,.11,.2-.24-.08-.41-.15-.61,0,0,0,0,0,0Zm8.14,1.49h0c-.07-.05-.13-.15-.24-.07-.01,0-.02,.05-.01,.06,.08,.11,.16,.04,.25,0Zm12.41-8.56h0c-.1,.05-.19,.09-.29,.14-.08,.54,.33,.61,.7,.71h.02c.1,.02,.21,.04,.31,.06,.12-.08,.24-.17,.37-.25,.05-.02,.09-.04,.14-.05,.32,.03,.55,.56,.92,.19,.29-.28,.64-.38,1.01-.45,.58-.1,.84-.43,.76-1.01-.08-.63-.61-.4-.96-.47-.87-.16-1.58,.37-2.38,.55-.18-.05-.26,.09-.36,.2-.08,.13-.16,.25-.24,.38Zm-9.07,4.05l-.04,.06-.04,.06c-.05,.08-.18,.17,0,.23,.12,.04,.29,.02,.33-.13,.05-.18-.1-.21-.24-.21Zm2.23,1.64s.06-.09,.09-.13c-.32-.35-.45-.06-.67,.12,.24,.2,.41,.07,.58,.02Zm-31.05,15.51c-.66-.36-1.19-.08-1.7,.31-.47,.36-.31,.91-.35,1.39-.01,.16,.17,.27,.35,.25,.64-.08,1.29-.14,1.8-.59,.46-.41,.41-1.02-.11-1.35Zm-4.95,8.1c.57,.37,1.92,.23,2.11-.29,.21-.57-.33-.97-.66-1.33-.31-.35-1.5,.07-1.82,.57-.3,.48-.05,.79,.36,1.05Zm68.57-14.05c.39-.57,0-1.16-.07-1.74-.05-.46-.57-.6-.95-.78-.26-.12-.36,.13-.37,.37-.03,.73,.15,1.43,.46,2.08,.2,.42,.56,.61,.93,.07Zm-66.51,15.98c-.02-.06-.04-.15-.05-.15-.07,0-.15,.01-.2,.05-.07,.06-.06,.15,.04,.17,.06,.01,.13-.04,.22-.07Zm55.42-27.11s.08,0,.11,0c0-.02,0-.06,0-.06-.04,0-.08,0-.11,0,0,.02,0,.04,0,.06Zm-.1,.47l-.02,.05h.05s-.03-.05-.03-.05Zm-15.22-6.9h.06s-.03-.06-.03-.06l-.03,.06Z"/><path d="M650.96,70.08c-1.24,.2-1.78-.08-2.12-1.14-.49-1.52-.43-3.03,.34-4.46,.62-1.15,1.64-1.56,2.85-1.1,.41,.16,.5,.01,.59-.31,.21-.71,.44-1.41,.65-2.12,.11-.36,.16-.59-.4-.49-.92,.17-1.57-.24-1.76-1.15-.41-1.95-.01-3.73,1.39-5.2,.72-.76,1.66-.86,2.54-.26,.46,.32,.72,.23,.93-.23,.36-.77,.71-1.54,1.06-2.29-.17-.19-.29-.06-.41-.02-1.02,.31-1.73-.13-1.92-1.17-.3-1.7,.84-4.29,2.31-5.21,.95-.6,1.74-.58,2.55,.13,.22,.19,.41,.27,.68,.19,.4-.12,.79-.05,.98,.03-.43-1.11,.95-1.46,1.1-2.37-.56-.02-1.19-.07-1.5-.7-.32-.66-.2-1.34,.04-1.99,.57-1.55,1.52-2.78,3.07-3.47,1.04-.46,1.7-.28,2.54,.47,.41,.36,.89,.71,1.44,0,.4-.52,1.01-.89,1.52-1.33-.07-.08-.1-.15-.13-.16-1.63-.13-2.03-.82-1.28-2.28,.77-1.51,1.95-2.58,3.61-3.03,1.07-.29,1.74-.02,2.36,.85,.51,.72,1.16,.88,1.94,.47,.25-.13,.51-.25,.77-.37,.23-.1,.47-.19,.7-.28,.01-.23-.17-.2-.29-.24-.97-.39-1.21-1.07-.68-1.96,.74-1.25,3.24-2.42,4.67-2.16,.74,.14,1.29,.49,1.56,1.27,.26,.74,.81,1.13,1.65,.95,.11-.02,.23-.03,.33-.06,.4-.11,.94,.03,1.2-.33,.39-.53-.35-.65-.51-1-.24-.52-.1-.93,.26-1.32,1.01-1.1,3.53-1.36,4.76-.49,.39,.28,.6,.63,.65,1.13,.14,1.25,.7,1.74,1.78,1.67,.46-.03,.62-.16,.37-.64-.48-.91-.24-1.47,.73-1.82,.77-.28,1.55-.3,2.34-.03,.62,.22,1.03,.6,1.08,1.28,.03,.38,.19,.71,.32,1.05,.18,.49,.98,.84,1.41,.61,.22-.12,.21-.28,.12-.5-.42-1.1-.28-1.45,.62-1.77,1.18-.42,2.09-.1,2.42,.84,.09,.27,.17,.54,.28,.8,.35,.82,.36,.82,1.36,.68-.14-.38-.54-.68-.35-1.14,.14-.33,.39-.56,.69-.72,.72-.39,1.4-.13,1.95,.76,.34,.55,.74,.86,1.43,.35-.59-.49-.73-1.05-.15-1.63,.48-.49,1.09-.43,1.8,.15,.43,.35,.85,.59,1.39,.02-.32-.29-.82-.49-.7-1.07,.15-.7,.9-1.08,1.59-.77,.26,.12,.51,.25,.78,.33,.25,.07,.44-.07,.56-.28,.12-.22-.08-.29-.21-.38-.42-.31-.44-.71-.2-1.12,.23-.4,.56-.63,1.06-.5,.22,.05,.45,.1,.67,.08,.35-.03,.61-.11,.32-.58-.55-.86-.29-1.31,.75-1.45,.48-.06,1.01-.1,.36-.79-.41-.44-.21-.94,.35-1.15,.54-.2,.81-.37,.33-.94-.32-.38-.24-.81,.23-1.07,.4-.22,.73-.36,.11-.77-.4-.26-.45-.75-.03-1.09,.31-.25,.41-.4,.07-.71-.41-.39-.32-.8,.07-1.18,.32-.31,.42-.56-.09-.84-.52-.29-.67-.77-.27-1.29,.33-.43,.31-.79-.17-1.06-.67-.37,.3-1.26-.46-1.53-.78-.27-.74-.72-.49-1.33,.11-.26-.07-.33-.31-.34-.66-.04-.79-.5-.68-1.02,.08-.35,.03-.59-.22-.84-.93-.95-1.82-1.95-2.8-2.84-.5-.46-.88-.84-.99-1.6-.11-.79,.23-.78,.72-.71,1.23,.16,2.34,.7,3.37,1.35,5.45,3.42,8.23,8.52,8.6,14.79,.5,8.45-3.3,14.84-10.33,19.32-3.9,2.48-8.35,3.12-12.87,3.39-3.17,.19-6.36,.13-9.53,.47-5.68,.61-10.12,3.48-13.78,7.71-2.8,3.23-4.82,6.92-6.4,10.88-2.67,6.69-3.47,13.72-3.93,20.82-.23,3.54-.36,7.09-.43,10.64-.02,.79-.24,1.09-1.08,1.04-5.04-.29-10.09-.55-15.14-.8-.63-.03-.89-.27-.78-.89,.09-.5-.06-.8-.62-.87-.41-.06-.7-.36-.93-.7-.87-1.25-.82-3.72,.09-4.93,.37-.49,.81-.85,1.45-.97,.59-.11,1.15-1.39,.86-1.89-.12-.2-.3-.12-.45-.11-.66,.05-1.11-.3-1.37-.83-.8-1.59-.87-3.22-.01-4.82,.51-.95,1.32-1.41,2.41-1.17,.4,.09,.49-.02,.54-.38,.09-.64,.2-1.28,.32-2Zm-2.31,15.99c-.12,.05-.24,.11-.36,.16,.04,.23,.03,.62,.38,.48,.3-.12,.14-.43-.03-.64Zm4.64-27.84c-.06-.01-.11-.03-.17-.04-.68,.05-.97,.28-.46,.92,.06,.02,.12,.04,.18,.06,.1-.15,.2-.29,.31-.44h0c.17-.13,.22-.29,.14-.49Zm-.59,15.58l.06,.03v-.06s-.06,.03-.06,.03Zm-.47,3.21l-.06,.02,.05,.04v-.06Z"/><path d="M507.66,55.02c-.68,.52-.59,1.08-.27,1.59,.4,.62,.38,1.18-.19,1.6-.52,.39-1.05,.37-1.47-.26-.34-.51-.49,0-.54,.2-.11,.41,.13,.77,.4,1.02,.65,.6,.81,1.23,.2,1.91-.61,.67-1.27,.63-1.89-.14-.59,.93-.03,1.32,.6,1.69,1.06,.62,1.11,1.86,.13,2.47-.55,.34-1.03,.15-1.54-.26-.23,.65-.27,1.1,.49,1.28,.4,.09,.78,.26,1.18,.38,.96,.29,1.36,.98,1.12,1.89-.24,.89-.84,1.23-1.82,1.02-.31-.07-.73-.25-.71,.26,0,.34-.2,.99,.57,.95,.51-.02,1,.11,1.52,.04,1.14-.16,1.96,.52,2.05,1.61,.1,1.17-.45,1.77-1.73,1.85-.32,.02-.67,.06-.51,.44,.15,.36,.27,.95,.88,.8,.55-.13,1.12-.22,1.65-.47,1.21-.56,2.35-.15,2.79,.95,.45,1.11,0,2-1.28,2.51-.34,.14-.65,.36-.42,.68,.32,.43,.69,.99,1.36,.8,.42-.12,.77-.38,1.07-.75,.87-1.05,2.09-1.29,2.95-.65,1.03,.77,1.2,1.95,.48,3.14-.14,.23-.59,.5-.15,.78,.36,.23,.81,.44,1.2-.05,.29-.37,.57-.72,.7-1.22,.25-.96,.74-1.83,1.84-1.97,1.1-.14,2,.39,2.66,1.23,.7,.87,.39,1.74-.37,2.71,.77-.06,1.36-.05,1.93-.18,.53-.12,.61-.62,.55-1.08-.17-1.47,.45-2.47,1.78-3.05,1.2-.52,3.31-.15,4.15,.7,.66,.67,.59,1.43,.14,2.34,.9-.14,1.7-.18,2.43-.41,.55-.17,.74-.7,.6-1.32-.33-1.47,.17-2.47,1.56-3.06,1.47-.63,2.99-.63,4.49-.11,1.86,.65,2.14,1.83,.79,3.36,1.09-.03,2.13-.06,3.17-.11,.53-.02,.8-.22,.65-.86-.25-1.08,.17-1.85,1.16-2.34,1.98-.99,5.87-.16,7.26,1.55,.63,.78,.47,1.63-.59,2.56,1.38,.42,2.69,.83,4.01,1.23-.04-1.6,.65-2.35,2.26-2.45,2.2-.14,5.14,1.83,5.87,3.92,.22,.61,.14,1.18-.37,1.55-.58,.43-.31,.62,.11,.87,.36,.21,.71,.44,1.04,.69,.57,.44,1.04,.89,1.52-.18,.27-.59,1.04-.67,1.7-.63,2.36,.14,5.14,2.96,5.25,5.35,.03,.59-.05,1.17-.66,1.48-.48,.25-.35,.51-.08,.82,.23,.26,.49,.51,.67,.81,.34,.54,.7,.69,1.34,.41,.95-.41,1.84-.06,2.56,.59,1.61,1.44,2.58,3.23,2.63,5.43,.02,.67-.12,1.34-.71,1.68-.64,.37-.55,.8-.28,1.27,.5,.88,.2,1.26-.71,1.57-5.49,1.87-10.98,3.77-16.45,5.69-.59,.21-.81,.09-1.05-.49-2.59-6.46-7.1-10.94-13.79-13.1-3.48-1.13-7.05-.99-10.62-.68-4.07,.35-8.12,.79-12.21,.82-7.96,.07-15.13-2.1-21.09-7.55-5.33-4.88-8.42-10.99-9.33-18.15-.86-6.73,.52-12.96,4.58-18.47,3.94-5.34,9.21-8.53,15.89-8.93,7.73-.47,14.89,3.62,17.23,11.44,.78,2.6,.81,5.22-.19,7.79-.14,.35-.32,.7-.54,1-.37,.51-.65,.63-1.14-.04-.47-.63-.57-1.22-.64-1.95-.13-1.47-.45-2.91-.82-4.34-.11-.43-.43-.59-.8-.74-.52-.2-.93-.51-.62-1.15,.22-.45-.13-.4-.35-.44-.59-.09-.94-.37-.87-1.02,.03-.24,.01-.5-.26-.54-.6-.08-.96-.37-1.2-.94-.15-.36-.54-.28-.85-.16-.64,.26-1.1,.06-1.22-.61-.11-.61-.41-.58-.79-.34-.55,.35-1.01,.4-1.35-.25-.21-.4-.38-.16-.58,.02-.56,.51-1.02,.33-1.25-.31-.22-.61-.41-.34-.6-.05-.48,.74-.92,.81-1.44,.03-.22-.34-.49-.23-.8,.28-.53,.89-.73,.92-1.46,.27-.48-.43-.58,0-.67,.32-.38,1.39-.54,1.47-1.63,.67-.28-.21-.43-.08-.49,.16-.06,.24-.1,.52-.05,.76,.16,.67,.14,1.23-.64,1.45-.72,.21-1.04-.21-1.13-.9Zm50.44,31.31c.11-.03,.22-.06,.34-.08,.04-.26-.13-.37-.33-.46-.39,.19-.39,.37,0,.55h-.01Z"/><g><polyline id="polyline1310" class="cls-1" points="550.83 141.83 555.36 145.13 560.29 147.68 565.59 149.48 573.86 150.68 582.2 149.98 588.9 148.28 595.1 144.88 599.64 148.18 607.21 151.77 618.18 153.77 626.51 153.12 634.5 150.62 639.45 147.98 646.41 152.65 654.21 155.67 662.49 156.87 670.81 156.21 678.81 153.72 683.76 151.08 691.76 156.76 701.27 159.35 706.84 159.97 715.17 159.31 723.16 156.82 728.11 154.18 728.61 146.98 723.67 149.58 718.39 151.45 710.14 152.69 701.77 152.1 694.78 150.53 688.8 147.14 684.27 143.88 676.74 147.49 669.71 149.42 665.79 149.59 657.42 149 649.42 146.63 643.39 143.39 639.96 140.78 632.42 144.39 627.02 145.87 621.48 146.49 613.11 145.91 605.11 143.53 600.14 140.94 595.61 137.68 588.07 141.29 579.93 143.2 577.16 143.4 568.8 142.85 560.8 140.44 555.87 137.88 551.33 134.62 550.83 141.83"/><polyline id="polyline1312" class="cls-1" points="572.38 136.02 553.49 102.02 585.97 104.29 590.17 97.34 604.74 98.36 609.44 91.45 594.34 90.39 602.28 77.16 618.34 78.29 632.16 60.15 635.86 60.41 632.92 67.64 639 68.06 638.65 73.12 630.91 72.58 629.51 79.22 635.15 85.97 680.35 89.13 692.04 71.87 706.8 72.9 705.55 90.89 713.79 91.47 717.18 98.98 624.17 92.48 621.27 99.52 720.6 106.46 723.99 113.94 730.89 114.42 729.12 139.73 724.18 142.33 716.18 144.83 707.85 145.48 699.56 144.28 694.27 142.49 689.31 139.89 684.77 136.63 677.24 140.25 669.09 142.16 663.5 142.38 655.22 141.19 647.42 138.16 640.46 133.54 632.93 137.15 624.78 139.06 616.42 139.09 608.22 137.28 600.65 133.7 596.11 130.44 588.7 134.02 580.63 135.94 577.9 136.17 572.38 136.02"/></g></g></svg>