<?xml version="1.0" encoding="UTF-8"?><svg id="Layer_4" xmlns="http://www.w3.org/2000/svg" viewBox="0 0 1714.01 1643.19"><defs><style>.cls-1{fill:#010101;}.cls-2{fill:none;stroke:#010101;stroke-dasharray:0 0 0 12;stroke-linecap:round;stroke-linejoin:round;stroke-width:9px;}.cls-3{opacity:.75;}</style></defs><g class="cls-3"><path class="cls-1" d="M971.21,915.03l-.32-4.94c3.51,.19,6.41-.87,8.55-3.52,2.54-3.16,2.41-6.02-.56-8.41-2.38-1.91-4.39-1.8-7.28,.43l-2.25,1.85c-5.01,3.99-9.12,4.4-13.45,.92-5.03-4.04-5.07-9.41-.72-14.82,3.1-3.86,6.49-5.43,10.86-5.12l.21,4.85c-3.12-.2-5.41,.66-7.51,3.27-2.38,2.96-2.4,5.38,.36,7.61,2.26,1.82,4.22,1.53,6.94-.57l2.29-1.81c5.34-4.24,9.07-4.57,13.59-.94,5.42,4.36,5.67,10.02,1.1,15.71-3.23,4.01-7.24,5.73-11.82,5.51Z"/><path class="cls-1" d="M1012.54,885.51l-2.88,3.58c-2.32,2.88-4.77,2.9-7.27,.89l-2.34-1.88c-5.12,4.93-12.03,4.82-21.03-2.42-9.89-7.96-10.84-15.33-5.57-21.87s12.66-7.21,22.56,.76c8.77,7.05,10.51,13.66,7.1,19.57l2.96,2.38,3.04-3.78,3.43,2.76Zm-16.83-13.86l-6.54-5.27c-4.44-3.57-8.92-3.51-12.05,.38-3.13,3.9-2.23,8.28,2.21,11.85l6.54,5.27c4.44,3.57,8.92,3.52,12.05-.38s2.23-8.28-2.21-11.85Z"/><path class="cls-1" d="M989.49,844.84l17.61,14.17c4.32,3.48,7.46,3.81,10.53,0,3.07-3.82,2.07-6.8-2.25-10.28l-17.61-14.17,3.32-4.13,16.95,13.63c7.4,5.96,8.77,11.03,3.25,17.89s-10.77,6.61-18.17,.65l-16.95-13.63,3.32-4.13Z"/><path class="cls-1" d="M1032.1,847.55l-3.31-2.66,2.66-3.31-20.57-16.55-2.67,3.31-3.31-2.66,8.65-10.75,3.31,2.66-2.66,3.31,20.57,16.55,2.66-3.31,3.31,2.66-8.65,10.75Z"/><path class="cls-1" d="M1017.57,809.93l7.21-8.96c5.17-6.43,12.19-6.94,21.78,.77,9.58,7.71,10.59,14.68,5.42,21.11l-7.21,8.96-27.19-21.88Zm30.78,10c2.85-3.54,2.23-7.64-2.21-11.21l-6.31-5.08c-4.44-3.57-8.57-3.3-11.43,.24l-3.89,4.83,19.95,16.05,3.89-4.83Z"/><path class="cls-1" d="M1074.07,795.38l-3.32,4.13-27.2-21.88,8.65-10.75c3.73-4.64,8.56-4.73,13.74-.56,4.21,3.38,5.57,7.11,3.95,10.88l15.58,4-3.7,4.6-14.9-4.22-3.92,4.87,11.1,8.93Zm-9.53-18c1.57-1.95,1.44-3.78-.82-5.6l-2.53-2.04c-2.26-1.82-4.08-1.55-5.65,.4l-5.05,6.27,9,7.24,5.05-6.27Z"/><path class="cls-1" d="M1074.55,766.95c-9.9-7.96-10.84-15.33-5.57-21.87,5.27-6.55,12.66-7.21,22.56,.76,9.9,7.96,10.84,15.33,5.57,21.87s-12.66,7.21-22.56-.76Zm16.69-14.04l-6.54-5.27c-4.44-3.57-8.92-3.52-12.05,.38s-2.23,8.28,2.21,11.85l6.54,5.27c4.44,3.57,8.92,3.51,12.05-.38,3.13-3.9,2.23-8.28-2.21-11.85Z"/><path class="cls-1" d="M1085.02,726.09l17.61,14.17c4.33,3.48,7.46,3.82,10.53,0,3.07-3.82,2.07-6.8-2.25-10.28l-17.61-14.17,3.32-4.13,16.95,13.63c7.4,5.96,8.77,11.04,3.25,17.89s-10.77,6.61-18.17,.65l-16.95-13.63,3.32-4.13Z"/><path class="cls-1" d="M1112.34,699.56l23.57,18.96-3.32,4.13-23.57-18.96-5.8,7.21-3.62-2.92,14.92-18.54,3.62,2.91-5.8,7.21Z"/><path class="cls-1" d="M1144.81,707.46l-27.2-21.88,12.69-15.78,3.62,2.91-9.37,11.65,7.95,6.39,8.46-10.52,3.58,2.88-8.46,10.52,8.42,6.77,9.37-11.65,3.62,2.91-12.69,15.78Z"/><path class="cls-1" d="M1164.93,682.45l-3.32,4.13-27.2-21.88,8.65-10.75c3.73-4.64,8.56-4.73,13.74-.56,4.21,3.39,5.57,7.12,3.95,10.88l15.58,4-3.7,4.6-14.9-4.22-3.92,4.87,11.1,8.93Zm-9.53-18c1.57-1.95,1.44-3.78-.82-5.6l-2.53-2.04c-2.26-1.82-4.08-1.55-5.65,.4l-5.05,6.27,9,7.24,5.05-6.27Z"/></g><g class="cls-3"><path d="M894.58,852.09c-.12-.67-.31-1.17-.97-1.42,.02-.25,.03-.51,.06-.76,.13-1.18,.2-1.22,1.39-1.08,.38,.05,.75,.27,1.2,.12-.33-.46-1.47,.03-1-1.12-.13,.1-.2,.14-.24,.19-.78,.87-1.31,.88-2.09,.01-.15-.17-.3-.27-.52-.3-.52-.08-.79-.43-.97-.89-.59-1.5,.37-4.04,1.8-4.78,.71-.37,1.18-.23,1.52,.49,.1,.21,.16,.44,.46,.44,.29,0,.37-.22,.48-.43,.28-.55,.37-1.19,.8-1.67,.03-.04,.05-.15,.03-.16-.45-.3-.39-.99-.96-1.22-.71-.29-.95-.9-.98-1.61-.03-.76,.21-1.47,.59-2.1,.61-1,1.31-1.92,2.46-2.34,.86-.31,1.45,0,1.7,.87,.06,.21,.04,.47,.33,.61,.08-.38,.31-.68,.52-1,.21-.33,.35-.71,.69-.94,.08-.06,.18-.13,.11-.21-.31-.42-.26-1.02-.73-1.38-.85-.64-1.08-1.49-.71-2.52,.61-1.7,1.84-2.8,3.52-3.37,1.24-.42,1.82,.05,1.85,1.37,0,.13-.08,.29,.12,.34,.13,.03,.2-.09,.27-.18,.38-.46,.74-.95,1.15-1.38,.43-.46,.41-1.12-.12-1.51-.57-.42-.82-.98-.78-1.68,.11-1.8,1.29-2.84,2.68-3.71,.66-.41,1.39-.65,2.18-.38,.69,.24,.9,.85,.99,1.6,.59-.68,1.1-1.24,1.57-1.83,.34-.42,.23-1.08-.2-1.38-.96-.66-1.27-1.55-.9-2.64,.44-1.29,1.32-2.22,2.56-2.76,1.46-.64,2.33-.2,2.74,1.33,0,.03,.07,.05,.17,.12,.46-.62,.95-1.23,1.37-1.88,.21-.32,.2-.65-.3-.79-.87-.24-1.26-.9-1.38-1.73-.21-1.43,.54-2.42,1.59-3.24,1.27-.99,2.23-.84,3.12,.48,.02,.02,.08,.01,.14,.02,.4-.65,.68-1.35,.98-2.05,.16-.36,.11-.54-.33-.58-.92-.08-1.43-.68-1.73-1.48-.46-1.23,.02-2.2,.89-3.05,.82-.81,1.73-.85,2.7-.27,.17-.35,.11-.68,.17-.99,.11-.6,.06-.94-.74-.97-1.28-.06-2.2-1.1-2.23-2.32-.03-1.3,.83-2.35,2.15-2.53,.45-.06,.47-.23,.38-.58-.12-.44-.18-.82-.85-.66-1.12,.27-2.22-.21-2.59-.98-.38-.78-.1-1.7,.75-2.53,.02-.02,.03-.03,.05-.05,.24-.18,.33-.38,.06-.62-.36-.31-.18-.54,.1-.79,.75-.69,1.48-1.38,2.22-2.08,3.2-3.03,6.41-6.05,9.6-9.09,.45-.43,.71-.4,1.1,.07,1.76,2.1,3.24,4.38,4.33,6.89,2.96,6.78,3.26,13.76,1.44,20.87-1.89,7.38-5.73,13.71-10.65,19.44-3.72,4.33-7.89,8.22-12.02,12.14-2.93,2.78-5.78,5.63-8.25,8.85-4.94,6.43-6.97,13.75-6.33,21.75,.54,6.78,3.08,12.83,7.4,18.12,2.58,3.15,5.68,5.72,8.99,8.06,.85,.6,1.73,1.16,2.46,1.9,.48,.48,.43,.76-.21,.9-.38,.09-.31,.32-.37,.54l-.97-.06c-.16-.12-.34-.12-.53-.14-.54-.08-1.18-.09-1.58-.32-.51-.28-.95-.58-1.55-.58-.07,0-.15-.1-.21-.17-.36-.35-.7-.5-1.22-.22-.53,.29-1.09,.05-1.13-.47-.04-.5-.24-.44-.57-.33-.52,.17-1.04,.13-1.15-.49-.09-.57-.39-.6-.82-.55-.34,.04-.66-.07-.75-.36-.24-.76-.72-.76-1.36-.59-.49,.13-1.09-.3-1.01-.76,.16-.9-.37-.74-.88-.67-.66,.1-1.17-.19-1.12-.75,.07-.65-.18-.64-.63-.48-.36,.13-.64-.01-.84-.3-.19-.27-.34-.6-.03-.87,.24-.2,.06-.27-.06-.34-.26-.17-.55-.16-.86-.12-.55,.06-.99-.45-.86-.96,.17-.68-.07-.95-.76-.89-.86,.08-1.33-.5-1.03-1.33,.15-.41-.02-.6-.4-.69-.21-.05-.41,.02-.61,.03-.67,.05-.92-.43-1.09-.96-.14-.46,0-.8,.53-.82-.27-.84-.88-.8-1.53-.74-.68,.07-1.33-.71-1.34-1.54,0-.72,.49-.68,1-.6-.48-1.17-.52-1.19-1.62-1.12-.81,.05-1.52-.8-1.5-1.8,0-.26,.07-.5,.26-.7,.33-.33,.68,.05,1.03,.01-.38-1.31-.41-1.34-1.59-1.38-.37-.01-.7-.12-.91-.41-.5-.67-.63-1.43-.41-2.23,.12-.43,.43-.64,.91-.44,.13,.05,.23,.26,.41,.1-.33-1.54-.13-1.36-1.7-1.64-.32-.06-.55-.25-.73-.49-.41-.54-.54-1.16-.47-1.83,.13-1.21,.67-1.51,1.72-1,.1-1.32-.3-1.83-1.65-1.99-.57-.07-.97-.33-1.16-.84-.39-1.02-.35-2.05,.17-3.01,.35-.66,.9-.74,1.47-.25,.17,.14,.31,.27,.54,.17,.24-.11,.2-.34,.22-.54,.04-.43-.15-.88,.09-1.29,1.13-.76,1.69-2.38,1.44-3.77Zm15.12-32.54s0,0,0,0h0Zm6.98-4.82c.01-.05,.02-.11,.03-.16-.05,0-.11,0-.16,.01,0,.05,0,.1,0,.15,.05,0,.09,0,.14,0Zm8.5-11.25s.09,0,.14,0c.15-.07,.07-.11-.02-.15-.02,0-.05,0-.07,0-.01,.05-.03,.1-.04,.15h0Zm.58-.39s.1-.09,.14-.13h0s-.1,.09-.15,.13h0Zm-3.29,4.82s-.02-.02-.03-.03c-.02,0-.03,0-.05-.01h0s.05,.03,.08,.04Zm-23.6,28.54c.09,.16,.2,.29,.41,.17h0c.33-.35-.19-.26-.22-.42-.1,0-.21-.02-.31-.03-.27,.24-.02,.24,.13,.28Zm25.62-28.46c-.09,.1-.17,.22-.02,.32,.11,.08,.19-.01,.25-.11-.08-.07-.15-.14-.23-.21Zm-1.12-8.81h0c.03,.12,.04,.31,.22,.28,.16-.03,.09-.17,.02-.27-.02,0-.05,0-.07,0h-.17Zm-12.16,22.68c-.08-.14-.13-.3-.36-.35,.02,.21,.03,.4,.05,.59-1.08-.14-1.84,.34-2.38,1.23-.12,.2-.21,.42-.15,.66,.09,.34,.19,.52,.67,.42,.77-.17,1.22-.72,1.74-1.18,.3-.27,.18-.73,.13-1.12,.14,.04,.25,.01,.29-.14,0-.04,0-.07,0-.11Zm14.02-36.18c0,.05,0,.11,0,.16,0,.04,0,.08-.02,.12h0c-.09,.11-.26,.2-.16,.37,.03,.06,.19,.04,.29,.06,.09,0,.19,0,.28,0,.1-.04,.2-.07,.3-.11,.11-.04,.16-.12,.14-.24-.15-.4-.42-.52-.82-.37Zm-21.39,40.92c-.05-.27-.33-.26-.56-.15,0,.04-.01,.08-.02,.12,0,.06,0,.11,0,.17,0,0,0,0,0,0-.32,.25-.18,.42,.1,.56,.03,.15,.09,.25,.27,.16,.41-.2,.27-.57,.21-.85Zm15.05-17.95c.44,.2,.48-.23,.65-.44,.41-.5,1.02-.86,.92-1.68-.07-.55-.36-.6-.76-.48-.83,.25-1.17,.89-1.3,1.71-.01,.38,.11,.71,.5,.89Zm-20.39,56.06c-.49-4.88-.22-9.7,1.21-14.43-1.58,4.7-1.93,9.52-1.21,14.43Zm29.14-68.87c.11-.25-.02-.36-.17-.47,.05,.14,.1,.27,.17,.47Zm-1.3-11.54s.1,.08,.15,.12c.01-.03,.04-.08,.03-.09-.04-.05-.1-.09-.15-.14-.01,.05-.04,.1-.03,.11Zm-3.9,29.58l.02-.04h-.05s.03,.04,.03,.04Zm-4.53,3.25h.04s-.04-.05-.04-.05v.05Z"/><path d="M1103.11,612.64c.22,2.39,.16,4.76-.41,7.1-1.71,6.93-5.92,11.93-12.45,14.78-8.6,3.76-16.83,2.68-24.59-2.34-1.19-.77-2.4-1.53-3.59-2.31-1.89-1.25-3.66-.79-5.43,.14-2.16,1.12-3.29,3.07-4,5.27-1.05,3.24-1.13,6.59-1.02,9.94,.14,4.5,.7,8.96,1.23,13.42,.66,5.55,.84,11.09,.06,16.65-.83,5.91-2.85,11.37-6.21,16.35-.49,.72-.83,.31-1.23,.02-2.73-1.99-5.46-3.99-8.19-5.99-2.77-2.03-5.54-4.07-8.32-6.09-.34-.25-.61-.45-.27-.89,.22-.29-.03-.42-.24-.56-.46-.29-.84-.67-1.15-1.11-.81-1.16-.35-2.31,1.07-2.59,.7-.14,1.4-.15,2.08,.11,.81,.31,.64-.45,.8-.76,.27-.52-.21-.46-.51-.5-.86-.09-1.54-.47-2.03-1.17-.98-1.43-.41-3.05,1.26-3.59,.63-.21,1.27-.31,1.92-.15,.5,.12,.64-.08,.66-.51,.02-.29,.05-.59,.09-.88,.06-.42-.1-.52-.51-.41-1.31,.36-2.2-.26-2.86-1.28-.66-1.03-.76-2.14-.09-3.19,.67-1.04,1.72-1.57,2.92-1.33,.85,.17,.86-.13,.81-.75-.05-.74,.05-1.48-.12-2.3-1.05,.79-2.11,.98-3.09,.15-1.23-1.05-1.55-2.46-1.24-4.01,.26-1.29,1.19-1.92,2.4-2.24,.35-.09,.69-.03,1.04,.03,.59,.1,.93-.1,.91-.76-.02-.8,0-1.59,0-2.38-.34-.09-.44,.16-.6,.27-1.11,.82-2.45,.59-3.14-.57-1-1.68-1.2-3.42-.21-5.18,.67-1.19,1.79-1.62,3.11-1.28,.63,.16,1.35-.22,1.48-.85,.17-.83,.28-1.68,.43-2.59-.28,.11-.48,.18-.68,.25-.95,.33-1.53,.17-2.15-.59-1.6-1.97-.83-5.87,1.41-7.1,.71-.39,1.45-.42,2.18-.08,.91,.42,1.59,.15,1.96-.76,.22-.52,.49-1.02,.73-1.53,.07-.15,.31-.3,.1-.49-.17-.15-.35-.01-.53,.04-.23,.07-.46,.18-.69,.21-.73,.08-1.25-.22-1.53-.91-.95-2.37,1.11-6.2,3.64-6.74,.79-.17,1.49-.02,2.08,.58,.62,.62,1.76,.62,2.43,.04,.52-.45,1.05-.9,1.58-1.35-.24-.32-.58-.22-.85-.3-.94-.25-1.37-.92-1.18-1.88,.41-2.04,3.26-4.16,5.34-3.97,.94,.09,1.64,.5,1.93,1.44,.05,.16,.08,.33,.24,.39,.93,.38,1.32,1.11,1.3,2.11,.1-.07,.14-.08,.14-.1q-.1-1.5,1.54-1.87c.32-.07,.71,0,.8-.51,.08-.45-.24-.52-.5-.7-.76-.52-.86-1.36-.26-2.08,1.28-1.55,4.35-2.02,6.04-.92,.6,.39,.98,.9,.92,1.66-.05,.74,.68,1.26,.56,2.04-.02,.17,.26,.14,.41,.17,.48,.1,.95,.18,1.43,.27,.17,.03,.36,.18,.51-.06,.12-.19,.17-.36,.06-.6-.6-1.37-.12-2.11,1.41-2.16,1.31-.04,2.52,.25,3.56,1.08,.85,.69,1.08,1.53,.61,2.49-.28,.57-.02,1.22-.34,1.79-.09,.16,1.12,1.22,1.33,1.16,.26-.08,.45-.26,.48-.58,.11-1.28,.65-1.68,1.87-1.45,1.61,.31,2.26,1.76,1.41,3.13-.28,.46-.33,1-.59,1.48-.22,.4,.31,.65,.62,.78,.39,.17,.31-.24,.36-.44,.23-.75,.93-1.15,1.7-.95,.73,.19,1.04,.84,.77,1.66-.13,.38-.34,.72-.33,1.15,0,.26,.06,.47,.25,.64,.12,.11,.24,.25,.42,.2,.23-.06,.11-.25,.12-.4,.04-.82,.52-1.33,1.21-1.31,.66,.02,.98,.52,.96,1.4,0,.35,.02,.69,.04,1.04,.02,.44,.39,.54,.69,.49,.42-.07,.11-.37,.08-.56-.11-.59,.26-1.22,.81-1.28,.64-.07,1.04,.25,1.16,.86,.06,.31,.13,.62,.22,.93,.15,.53,.46,.67,.97,.54,.1-.1,.04-.19,0-.28-.31-.64-.18-1.2,.39-1.4,.64-.22,1.03,.07,1.25,.67,.06,.17,.16,.34,.28,.48,.18,.2,.27,.59,.67,.45,.38-.14,.04-.41,.07-.62,.05-.34,.17-.63,.51-.76,.34-.13,.64-.04,.88,.22,.16,.18,.3,.38,.46,.55,.11,.12,.26,.21,.43,.11,.13-.07,.12-.21,.14-.35,.11-1.01,.48-1.16,1.33-.53,.24,.18,.48,.29,.74,.15,.35-.18-.03-.35-.04-.53-.02-.29,.07-.53,.31-.7,.23-.16,.46-.12,.68,.03,.32,.21,.63,.45,1.04,.08-.42-.22-.57-.57-.31-.97,.49-.74,1.01,.04,1.6-.03-.26-.33-.36-.68-.13-1.04,.3-.46,.72-.2,1.1-.16,.41,.04,.85,.15,.45-.55-.35-.61,0-1.1,.72-1.12,.58-.01,1.12,.04,.89-.85-.09-.34,.23-.54,.6-.63,.42-.1,.71-.27,.31-.77-.3-.39-.17-.77,.32-.96,.24-.1,.5-.16,.77-.24-.72-.95-.65-1.2,.42-1.64,.1-.04,.21-.08,.28-.14,.39-.37,.03-.82,.15-1.22,.1-.36,.76-.59,.25-1.09-.15-.14-.15-.36-.06-.53,.46-.79,.48-1.65,.49-2.51,0-.15,1.27-1.45,1.42-1.44,.58,.04,.71,.59,1.05,.91,.34,1.13,.69,2.25,1.03,3.38Zm-66.72,35.15s0,0,0,0c-.02-.05-.03-.11-.05-.16,.04-.06,.08-.11,.13-.17-.02,0-.05,0-.06,.02-.02,.05-.04,.1-.06,.15,.02,.05,.03,.1,.05,.15Zm3.52-15.17h0s0,0,0,0Zm-2.25,35.91c.08-.07,.16-.14,.24-.22-.03-.07-.05-.13-.08-.2-.31-.03-.5,.12-.55,.41-.02,.18,.11,.11,.2,.07l.19-.07Zm-2.85,3.57c.12,.02,.24,.04,.36,.06,.16,.11,.33,.23,.51,.03-.02-.06-.04-.12-.06-.18-.24-.71-.56-.17-.86-.05-.12,.09-.11,.14,.04,.15Zm9.48-54.59h0s-.03,.05-.05,.07c.01-.02,.03-.05,.04-.07Zm-13.32,29.76c-.07-.04-.14-.07-.21-.11-.02,.12-.04,.24-.06,.35,.15,.19,.35,.21,.56,.17h0c.14,.05,.3,.01,.27-.15-.06-.3-.36-.2-.57-.27,0,0,0,0,0,0Zm6.35-5.31h0c-.09,.02-.2,0-.21,.14,0,.02,.02,.05,.04,.05,.13,0,.14-.1,.17-.19Zm1.36-15.01h0c-.03,.1-.05,.21-.08,.31,.36,.41,.68,.14,.99-.08v-.02c.09-.07,.17-.13,.26-.2,.01-.15,.03-.29,.04-.44,.01-.05,.03-.1,.05-.14,.22-.22,.78-.06,.74-.58-.03-.4,.12-.74,.3-1.06,.29-.51,.2-.92-.29-1.23-.53-.34-.7,.21-.97,.44-.68,.56-.73,1.45-1.1,2.18-.16,.11-.1,.26-.08,.4,.05,.14,.09,.28,.14,.42Zm-2.69,9.56l.02,.07,.02,.07c.02,.09,.01,.25,.17,.15,.11-.07,.2-.21,.11-.34-.11-.15-.22-.05-.32,.05Zm2.69-.66c-.02-.05-.03-.1-.05-.15-.47,.02-.34,.31-.34,.59,.31-.06,.32-.27,.38-.43Zm-7.95,33.78c-.7,.27-.83,.86-.85,1.5-.02,.59,.5,.82,.84,1.16,.12,.11,.32,.04,.42-.11,.35-.54,.72-1.08,.69-1.76-.02-.62-.52-.97-1.11-.78Zm3.06,8.99c.64-.2,1.41-1.32,1.13-1.8-.3-.53-.96-.36-1.44-.35-.46,.01-.91,1.2-.73,1.76,.18,.54,.58,.54,1.04,.39Zm33.09-61.67c-.19-.66-.9-.74-1.38-1.06-.38-.26-.83,.05-1.2,.23-.26,.12-.13,.36,.04,.52,.54,.49,1.2,.8,1.89,.98,.45,.11,.83-.04,.65-.67Zm-30.29,61.34c-.06-.02-.14-.06-.15-.06-.04,.06-.09,.13-.09,.19,0,.09,.07,.14,.15,.08,.05-.04,.05-.13,.08-.21Zm14.64-59.93s.05-.06,.08-.08c-.02-.01-.05-.04-.05-.04-.03,.02-.05,.05-.08,.08,.02,.01,.03,.02,.05,.04Zm.29,.38l.03,.05,.02-.05h-.05Zm-15.04,7.28l.04-.05h-.06s.02,.05,.02,.05Z"/><path d="M946.04,703.07c-.64,1.08-1.2,1.32-2.23,.9-1.48-.6-2.6-1.61-3.21-3.11-.49-1.21-.15-2.26,.98-2.89,.38-.21,.32-.37,.14-.65-.41-.61-.8-1.24-1.21-1.86-.2-.31-.35-.5-.63,0-.46,.82-1.19,1.06-2.01,.62-1.76-.93-2.87-2.38-3.11-4.4-.12-1.04,.41-1.83,1.43-2.11,.53-.15,.64-.4,.42-.86-.36-.77-.72-1.53-1.08-2.28-.26,0-.23,.19-.28,.3-.41,.98-1.21,1.25-2.13,.72-1.5-.86-2.75-3.39-2.53-5.11,.14-1.11,.67-1.71,1.73-1.88,.29-.05,.47-.14,.58-.4,.17-.38,.47-.64,.66-.73-1.13-.38-.51-1.66-1.12-2.36-.37,.42-.81,.87-1.5,.7-.71-.18-1.15-.7-1.5-1.31-.83-1.43-1.16-2.95-.7-4.58,.31-1.09,.87-1.48,1.99-1.65,.54-.08,1.11-.23,.92-1.1-.14-.64-.04-1.34-.05-2.02-.1,0-.18-.02-.2,0-1.14,1.17-1.93,1.03-2.57-.48-.67-1.56-.73-3.15-.02-4.71,.46-1.01,1.1-1.35,2.17-1.27,.88,.07,1.42-.33,1.6-1.19,.06-.28,.13-.55,.21-.83,.07-.24,.15-.48,.23-.72-.17-.16-.26,0-.37,.07-.92,.49-1.6,.24-1.94-.73-.49-1.37,.21-4.04,1.33-4.97,.57-.48,1.21-.67,1.98-.39,.74,.27,1.39,.1,1.78-.66,.05-.1,.12-.19,.17-.3,.17-.38,.62-.71,.52-1.13-.16-.64-.73-.15-1.1-.25-.55-.15-.78-.52-.85-1.04-.2-1.48,1.21-3.58,2.67-3.97,.46-.12,.87-.05,1.29,.23,1.04,.69,1.79,.57,2.42-.3,.27-.38,.27-.58-.25-.69-1-.22-1.28-.76-.93-1.73,.28-.77,.76-1.38,1.48-1.81,.56-.34,1.12-.4,1.67,0,.31,.22,.67,.3,1.01,.43,.49,.17,1.27-.21,1.37-.7,.05-.25-.08-.34-.3-.41-1.11-.38-1.3-.71-.97-1.61,.43-1.17,1.26-1.67,2.2-1.32,.26,.1,.52,.22,.79,.3,.85,.25,.85,.25,1.39-.61-.38-.14-.87-.02-1.1-.46-.16-.32-.18-.65-.11-.99,.16-.81,.8-1.16,1.83-1.01,.64,.09,1.14-.02,1.19-.87-.75,.14-1.27-.11-1.35-.92-.07-.68,.37-1.11,1.27-1.29,.55-.1,1-.28,.9-1.05-.43,.06-.9,.32-1.27-.15-.45-.56-.25-1.38,.43-1.71,.25-.12,.52-.23,.75-.38,.21-.14,.23-.39,.14-.61-.09-.24-.27-.13-.43-.09-.51,.13-.83-.11-.99-.57-.15-.43-.12-.84,.29-1.14,.18-.13,.37-.28,.49-.46,.2-.29,.3-.54-.24-.61-1.01-.13-1.19-.62-.63-1.5,.26-.41,.57-.84-.37-.78-.6,.04-.85-.44-.66-1.01,.19-.54,.24-.86-.51-.86-.5,0-.78-.33-.67-.86,.09-.45,.19-.79-.52-.57-.46,.14-.86-.14-.86-.68,0-.4-.04-.57-.5-.51-.56,.07-.82-.27-.86-.81-.03-.44-.16-.69-.71-.47-.56,.22-1.02,.03-1.17-.61-.12-.52-.41-.74-.92-.55-.71,.27-.78-1.04-1.47-.62-.7,.42-1.03,.11-1.33-.47-.13-.25-.3-.16-.46,.02-.45,.49-.89,.29-1.22-.13-.22-.29-.44-.4-.78-.37-1.33,.11-2.66,.15-3.97,.33-.68,.09-1.21,.14-1.86-.27-.68-.42-.45-.67-.09-1.01,.91-.85,2.03-1.35,3.19-1.73,6.12-2,11.82-.87,16.87,2.86,6.81,5.02,9.29,12.03,8.23,20.3-.59,4.58-2.95,8.42-5.63,12.06-1.89,2.56-3.97,4.97-5.73,7.62-3.16,4.75-3.81,10-2.9,15.52,.69,4.22,2.24,8.13,4.27,11.88,3.43,6.33,8.32,11.45,13.49,16.34,2.57,2.44,5.22,4.81,7.9,7.13,.6,.52,.69,.88,.11,1.5-3.45,3.69-6.88,7.4-10.3,11.12-.43,.46-.78,.52-1.18,.03-.33-.39-.65-.47-1.07-.08-.3,.28-.72,.3-1.13,.27-1.52-.14-3.39-1.75-3.74-3.23-.14-.6-.14-1.17,.18-1.73,.3-.53-.33-1.77-.9-1.87-.23-.04-.28,.15-.37,.28-.38,.53-.94,.66-1.52,.53-1.74-.4-3.03-1.4-3.71-3.07-.4-.99-.24-1.92,.64-2.6,.33-.25,.3-.39,.06-.66-.44-.48-.86-.98-1.33-1.53Zm10.81,12.01c-.03,.13-.07,.25-.1,.38,.21,.12,.49,.37,.61,.01,.1-.31-.24-.38-.51-.39Zm-18.42-21.38s-.09,.07-.14,.1c-.4,.55-.41,.93,.41,.94,.05-.04,.11-.07,.16-.11-.05-.17-.09-.34-.14-.52h0c0-.21-.08-.35-.29-.42Zm11.59,10.42l.06-.03-.05-.04v.07Zm2.15,2.42l-.02,.06h.06s-.04-.06-.04-.06Z"/><path d="M842.76,803.54c-.04,.86,.45,1.15,1.05,1.23,.73,.09,1.14,.46,1.11,1.17-.03,.65-.39,1.04-1.14,.96-.6-.06-.32,.37-.19,.55,.24,.35,.67,.4,1.04,.35,.88-.12,1.47,.17,1.59,1.07,.12,.9-.33,1.38-1.32,1.36,.34,1.05,.99,.87,1.68,.62,1.15-.42,2.14,.33,1.98,1.48-.09,.65-.55,.88-1.18,1.02,.35,.59,.67,.91,1.3,.44,.33-.25,.7-.44,1.05-.66,.84-.55,1.63-.42,2.17,.35,.53,.76,.41,1.44-.38,2.06-.25,.19-.66,.4-.26,.71,.27,.21,.63,.78,1.09,.17,.3-.4,.72-.69,1-1.14,.61-.98,1.65-1.17,2.55-.54,.97,.68,1.07,1.48,.31,2.51-.19,.26-.38,.55,.02,.67,.37,.12,.9,.4,1.18-.16,.25-.51,.54-1,.69-1.57,.34-1.29,1.38-1.9,2.51-1.54,1.13,.37,1.54,1.28,1.11,2.59-.11,.35-.14,.73,.25,.76,.53,.03,1.2,.11,1.49-.53,.18-.4,.2-.84,.11-1.31-.25-1.34,.35-2.43,1.39-2.68,1.25-.3,2.26,.33,2.72,1.64,.09,.26,0,.77,.5,.62,.41-.13,.86-.34,.73-.95-.1-.46-.19-.9-.49-1.32-.58-.81-.93-1.74-.34-2.68,.59-.94,1.58-1.28,2.65-1.26,1.11,.02,1.58,.81,1.85,2.02,.44-.63,.83-1.08,1.09-1.6,.24-.48-.09-.87-.48-1.12-1.24-.81-1.61-1.93-1.21-3.32,.37-1.25,2-2.63,3.19-2.74,.94-.08,1.47,.46,1.89,1.39,.47-.78,.95-1.42,1.24-2.13,.22-.53-.06-1.01-.64-1.3-1.35-.68-1.79-1.71-1.35-3.16,.46-1.53,1.43-2.7,2.79-3.52,1.69-1.01,2.78-.47,3.09,1.54,.67-.86,1.32-1.68,1.95-2.5,.32-.43,.34-.75-.24-1.05-.99-.5-1.31-1.31-1.06-2.39,.51-2.16,3.63-4.62,5.84-4.59,1.01,.01,1.55,.69,1.59,2.1,1.21-.79,2.36-1.54,3.51-2.29-1.26-.99-1.39-2-.44-3.3,1.3-1.78,4.7-2.78,6.77-2,.61,.23,1,.64,.96,1.28-.04,.72,.27,.64,.74,.47,.39-.14,.79-.26,1.19-.36,.71-.16,1.35-.23,.83-1.29-.28-.58,.15-1.23,.61-1.71,1.62-1.73,5.57-2.05,7.47-.61,.47,.36,.86,.79,.71,1.45-.12,.53,.17,.6,.58,.58,.35-.01,.71-.04,1.05,0,.63,.08,.97-.1,1.17-.77,.29-.99,1.13-1.45,2.09-1.6,2.14-.32,4.13,.08,5.86,1.46,.52,.42,.95,.95,.84,1.62-.12,.73,.26,.93,.8,1.03,.99,.18,1.1,.66,.76,1.55-2.08,5.42-4.13,10.85-6.16,16.28-.22,.59-.45,.68-1.05,.49-6.63-2.14-12.95-1.55-18.89,2.21-3.09,1.95-5.27,4.79-7.32,7.73-2.33,3.35-4.59,6.75-7.18,9.91-5.04,6.16-11.3,10.28-19.3,11.37-7.16,.98-13.83-.57-19.92-4.45-5.72-3.65-9.62-8.7-11.26-15.34-1.59-6.45-.66-12.53,3.3-17.92,4.58-6.24,12.31-9.12,19.82-5.92,2.5,1.07,4.53,2.72,5.87,5.13,.18,.33,.33,.69,.42,1.06,.15,.61,.07,.9-.75,.85-.78-.04-1.3-.34-1.91-.76-1.21-.84-2.52-1.52-3.86-2.15-.4-.19-.73-.05-1.08,.14-.49,.27-.99,.39-1.28-.26-.2-.46-.39-.16-.56,0-.45,.39-.89,.49-1.34,.02-.17-.17-.38-.33-.58-.14-.44,.41-.9,.51-1.48,.32-.37-.12-.56,.23-.67,.55-.22,.66-.66,.89-1.25,.55-.54-.31-.71-.05-.76,.39-.08,.64-.33,1.03-1.05,.88-.44-.1-.37,.18-.36,.45,.04,.76-.4,1-1.03,.76-.61-.23-.53,.1-.42,.43,.27,.84,.04,1.23-.89,1.12-.4-.05-.5,.23-.3,.79,.34,.97,.24,1.15-.73,1.3-.64,.1-.37,.45-.18,.72,.83,1.18,.79,1.35-.53,1.68-.34,.09-.33,.28-.19,.48,.14,.2,.33,.41,.55,.52,.62,.3,1.03,.68,.71,1.42-.3,.68-.83,.67-1.42,.29Zm56.34-18.71c.05-.1,.1-.21,.15-.31-.17-.2-.37-.14-.57-.04-.11,.42,.04,.54,.43,.35h-.01Z"/><g><polyline id="polyline1310" class="cls-1" points="937.09 825.93 942.52 824.56 947.64 822.4 952.41 819.49 958.63 813.89 963.43 807.05 966.41 800.81 967.77 793.86 973.21 792.49 980.81 788.97 989.37 781.82 994.2 775 997.4 767.26 998.54 761.77 1006.57 759.42 1013.89 755.35 1020.11 749.76 1024.93 742.94 1028.13 735.2 1029.27 729.71 1038.76 727.2 1046.83 721.55 1050.88 717.66 1055.7 710.84 1058.9 703.1 1060.04 697.62 1054.83 692.62 1053.66 698.08 1051.72 703.34 1047.39 710.47 1041.59 716.52 1035.9 720.89 1029.47 723.31 1024.06 724.71 1022.02 732.81 1019.01 739.44 1016.62 742.57 1010.82 748.62 1003.87 753.25 997.53 755.81 993.33 756.77 991.28 764.88 988.96 769.98 985.89 774.63 980.09 780.68 973.14 785.31 967.97 787.47 962.56 788.87 960.52 796.97 956.77 804.45 955.15 806.7 949.38 812.78 942.4 817.38 937.28 819.53 931.87 820.93 937.09 825.93"/><polyline id="polyline1312" class="cls-1" points="946.41 805.65 908.2 798.41 930.74 774.9 928.09 767.23 938.19 756.69 935.89 748.65 925.41 759.58 920.33 745.01 931.47 733.39 926.39 711.16 928.95 708.49 932.62 715.37 936.84 710.97 940.5 714.48 935.13 720.08 939.34 725.41 948.14 725.39 979.49 692.68 973.71 672.65 983.95 661.97 996.97 674.45 1002.69 668.48 1010.63 670.69 946.1 737.99 949.66 744.72 1018.57 672.84 1026.48 675.02 1031.27 670.03 1049.58 687.6 1048.42 693.05 1045.22 700.79 1040.39 707.62 1034.17 713.22 1029.4 716.13 1024.23 718.29 1018.82 719.69 1016.78 727.78 1013.03 735.27 1009.63 739.71 1003.41 745.3 996.09 749.37 988.08 751.75 986.04 759.85 982.29 767.33 976.96 773.78 970.32 778.92 962.73 782.44 957.32 783.84 955.33 791.84 951.63 799.26 950.07 801.5 946.41 805.65"/></g></g><g class="cls-3"><g><path class="cls-2" d="M72.03,1616.26c56.34-16.22,183.5-60.93,338.14-166.96,210.08-144.04,317.37-326.88,434.72-454.96,117.36-128.08,316.21-378.65,362.78-465.87s92.53-303.23,228.55-408.72c89.97-69.78,164.63-91.32,204.87-97.91"/><polygon class="cls-1" points="84 1636.14 40.74 1624.22 72.68 1592.71 84 1636.14"/><polygon class="cls-1" points="1636.84 45.19 1673.27 19 1632.37 .54 1636.84 45.19"/></g></g></svg>