<?xml version="1.0" encoding="UTF-8"?><svg id="squid_ava_evm" xmlns="http://www.w3.org/2000/svg" viewBox="0 0 1750.59 1586.14"><defs><style>.cls-1{fill:#010101;}.cls-2{fill:none;stroke:#010101;stroke-dasharray:0 0 0 12;stroke-linecap:round;stroke-linejoin:round;stroke-width:9px;}.cls-3{opacity:.75;}</style></defs><g class="cls-3"><g><path class="cls-2" d="M45.93,52.86c111.13,116.3,203.2,271.37,410.26,350.08,154.67,58.79,279,73,376,118,115.91,53.77,181,149,243,252,23.61,39.22,189.43,236.07,245,320,98,148,90,157,203,293,72.27,86.98,94.21,77.71,172.46,142"/><polygon class="cls-1" points="34.43 73.37 23.19 29.93 66.43 41.91 34.43 73.37"/><polygon class="cls-1" points="1676.04 1540.92 1720.19 1548.93 1705.05 1506.69 1676.04 1540.92"/></g></g><g class="cls-3"><path class="cls-1" d="M340.52,422.94l4.49-2.11c1.1,3.33,3.15,5.65,6.4,6.67,3.86,1.21,6.48,.04,7.62-3.58,.91-2.91,.07-4.75-3.06-6.62l-2.54-1.42c-5.55-3.21-7.43-6.89-5.77-12.18,1.93-6.15,6.91-8.16,13.54-6.08,4.72,1.48,7.43,4.06,8.73,8.24l-4.44,1.96c-.96-2.97-2.58-4.79-5.78-5.8-3.63-1.14-5.89-.27-6.95,3.11-.87,2.77,.11,4.49,3.07,6.26l2.52,1.47c5.9,3.42,7.57,6.78,5.83,12.31-2.08,6.63-7.26,8.94-14.22,6.75-4.91-1.54-7.97-4.65-9.44-8.99Z"/><path class="cls-1" d="M383.08,450.64l-4.39-1.38c-3.53-1.11-4.44-3.38-3.48-6.44l.9-2.86c-6.46-2.97-8.88-9.44-5.43-20.46,3.8-12.12,10.32-15.68,18.33-13.17s11.33,9.16,7.53,21.28c-3.37,10.74-8.88,14.77-15.63,13.75l-1.14,3.63,4.63,1.45-1.32,4.2Zm6.76-20.73l2.51-8.02c1.71-5.44,.02-9.58-4.75-11.08s-8.52,.94-10.23,6.38l-2.51,8.02c-1.71,5.44-.02,9.58,4.75,11.08s8.52-.94,10.23-6.38Z"/><path class="cls-1" d="M412.54,414.34l-6.76,21.57c-1.66,5.3-.83,8.33,3.84,9.8,4.67,1.47,7.09-.55,8.75-5.85l6.76-21.57,5.06,1.59-6.51,20.76c-2.84,9.06-7.07,12.19-15.47,9.56-8.4-2.63-10.08-7.62-7.24-16.68l6.51-20.76,5.06,1.59Z"/><path class="cls-1" d="M425.57,455l1.27-4.06,4.06,1.27,7.9-25.19-4.06-1.27,1.27-4.06,13.17,4.13-1.27,4.06-4.06-1.27-7.9,25.19,4.06,1.27-1.27,4.06-13.17-4.13Z"/><path class="cls-1" d="M455.29,427.74l10.97,3.44c7.87,2.47,10.91,8.82,7.23,20.56-3.68,11.74-9.8,15.21-17.67,12.75l-10.97-3.44,10.44-33.3Zm1.92,32.31c4.34,1.36,7.93-.71,9.63-6.15l2.42-7.73c1.71-5.44-.05-9.19-4.39-10.55l-5.92-1.86-7.66,24.43,5.92,1.86Z"/><path class="cls-1" d="M489.45,475.04l-5.06-1.59,10.44-33.3,13.17,4.13c5.68,1.78,7.53,6.24,5.54,12.58-1.62,5.15-4.59,7.78-8.69,7.65l1.96,15.97-5.63-1.77-1.51-15.41-5.96-1.87-4.26,13.6Zm13.28-15.44c2.39,.75,4.05-.04,4.92-2.81l.97-3.1c.87-2.77-.05-4.36-2.43-5.11l-7.68-2.41-3.46,11.02,7.68,2.41Z"/><path class="cls-1" d="M516.1,465.1c3.8-12.12,10.32-15.68,18.33-13.17s11.33,9.16,7.53,21.28c-3.8,12.12-10.31,15.68-18.33,13.17s-11.33-9.16-7.53-21.28Zm19.16,10.41l2.51-8.02c1.71-5.44,.02-9.58-4.75-11.08s-8.52,.94-10.23,6.38l-2.51,8.02c-1.71,5.44-.02,9.58,4.75,11.08s8.52-.94,10.23-6.38Z"/><path class="cls-1" d="M557.96,459.94l-6.76,21.57c-1.66,5.3-.83,8.33,3.84,9.8,4.68,1.47,7.09-.55,8.75-5.85l6.76-21.57,5.06,1.59-6.51,20.76c-2.84,9.06-7.07,12.19-15.47,9.56-8.4-2.63-10.08-7.62-7.24-16.68l6.51-20.76,5.06,1.59Z"/><path class="cls-1" d="M592.64,475.69l-9.05,28.87-5.06-1.59,9.05-28.87-8.83-2.77,1.39-4.44,22.71,7.12-1.39,4.44-8.83-2.77Z"/><path class="cls-1" d="M597.13,508.8l10.44-33.3,19.32,6.06-1.39,4.44-14.27-4.47-3.05,9.73,12.88,4.04-1.38,4.39-12.88-4.04-3.23,10.31,14.27,4.47-1.39,4.44-19.32-6.06Z"/><path class="cls-1" d="M627.76,518.41l-5.06-1.59,10.44-33.3,13.17,4.13c5.68,1.78,7.53,6.24,5.54,12.58-1.62,5.15-4.59,7.78-8.69,7.65l1.96,15.97-5.63-1.77-1.51-15.41-5.96-1.87-4.26,13.6Zm13.28-15.44c2.39,.75,4.05-.04,4.92-2.81l.97-3.1c.87-2.77-.05-4.36-2.43-5.11l-7.68-2.41-3.46,11.02,7.68,2.41Z"/></g><g class="cls-3"><path d="M383.54,342.24c.53-.41,.9-.82,.81-1.51,.23-.1,.46-.2,.7-.3,1.1-.43,1.18-.39,1.6,.73,.13,.35,.1,.79,.45,1.12,.26-.51-.71-1.29,.53-1.41-.15-.07-.21-.11-.28-.13-1.13-.29-1.39-.75-.98-1.84,.08-.21,.1-.39,.03-.6-.17-.49,.02-.9,.34-1.27,1.06-1.21,3.75-1.54,5.07-.62,.66,.46,.75,.94,.27,1.57-.14,.19-.32,.34-.18,.61,.13,.26,.36,.23,.6,.23,.62,0,1.23-.23,1.85-.06,.05,.01,.16-.02,.16-.05,.06-.54,.7-.81,.64-1.41-.07-.76,.35-1.26,.98-1.61,.66-.38,1.39-.5,2.14-.45,1.17,.07,2.31,.28,3.21,1.1,.68,.62,.66,1.29,.02,1.91-.16,.15-.4,.25-.38,.58,.38-.1,.75-.04,1.13,0,.39,.04,.79-.02,1.15,.18,.09,.05,.2,.1,.24,0,.23-.47,.78-.7,.88-1.28,.18-1.05,.82-1.65,1.91-1.8,1.79-.25,3.33,.34,4.62,1.57,.94,.9,.8,1.64-.36,2.28-.11,.06-.3,.07-.24,.26,.03,.13,.17,.14,.28,.16,.59,.12,1.18,.22,1.76,.38,.61,.17,1.18-.15,1.28-.81,.11-.7,.49-1.18,1.13-1.47,1.65-.73,3.12-.18,4.53,.66,.67,.39,1.22,.93,1.35,1.75,.11,.72-.34,1.19-.97,1.62,.87,.21,1.6,.4,2.35,.55,.53,.11,1.07-.3,1.13-.81,.14-1.16,.78-1.84,1.93-2.02,1.35-.21,2.58,.14,3.63,.99,1.24,.99,1.25,1.97,.09,3.04-.02,.02-.02,.08-.03,.21,.77,.12,1.53,.27,2.3,.34,.38,.04,.67-.12,.56-.63-.19-.88,.21-1.54,.89-2.03,1.17-.84,2.39-.65,3.61-.09,1.47,.67,1.78,1.59,1.02,2.99-.01,.02,.02,.08,.05,.14,.76,.05,1.51-.03,2.27-.08,.39-.03,.53-.15,.36-.56-.36-.85-.06-1.59,.51-2.22,.88-.98,1.96-1,3.12-.62,1.1,.36,1.56,1.14,1.48,2.27,.39-.01,.65-.22,.95-.31,.58-.18,.86-.38,.52-1.1-.54-1.16-.04-2.46,1.02-3.05,1.13-.63,2.47-.35,3.24,.74,.26,.37,.42,.32,.69,.06,.34-.31,.64-.54,.19-1.06-.75-.87-.84-2.06-.33-2.75,.51-.69,1.46-.88,2.59-.51,.02,0,.04,.02,.06,.03,.28,.13,.49,.11,.58-.23,.11-.46,.4-.41,.75-.28,.95,.34,1.91,.67,2.87,1,4.17,1.44,8.33,2.89,12.5,4.3,.58,.2,.68,.44,.45,1.01-1.04,2.54-2.38,4.9-4.1,7.03-4.64,5.76-10.69,9.26-17.83,10.94-7.42,1.74-14.81,1.27-22.16-.44-5.56-1.29-10.94-3.19-16.33-5.03-3.82-1.31-7.67-2.52-11.66-3.22-7.99-1.4-15.41,.19-22.21,4.46-5.75,3.62-9.95,8.67-12.63,14.95-1.6,3.75-2.44,7.68-2.99,11.7-.14,1.03-.22,2.07-.54,3.06-.21,.65-.47,.73-.9,.23-.25-.3-.43-.13-.65-.08l-.39-.89c.03-.19-.06-.36-.12-.53-.18-.51-.46-1.09-.45-1.55,.01-.58,.07-1.12-.2-1.65-.03-.06,.02-.18,.05-.27,.15-.48,.12-.85-.37-1.19-.5-.34-.55-.94-.11-1.22,.43-.27,.28-.41,.03-.66-.39-.38-.6-.87-.09-1.24,.46-.35,.35-.63,.11-.98-.19-.28-.25-.62-.03-.84,.56-.57,.34-.99-.11-1.47-.34-.38-.24-1.1,.21-1.25,.87-.28,.49-.67,.19-1.09-.39-.54-.37-1.13,.15-1.34,.6-.24,.49-.46,.13-.78-.28-.26-.28-.58-.12-.88,.15-.29,.38-.58,.76-.42,.29,.12,.26-.07,.28-.21,.03-.31-.12-.56-.29-.82-.31-.46-.06-1.09,.45-1.21,.68-.16,.81-.5,.43-1.08-.47-.72-.17-1.41,.7-1.52,.43-.06,.52-.29,.43-.67-.05-.21-.21-.35-.31-.53-.35-.57-.04-1.02,.35-1.41,.34-.34,.71-.36,.97,.09,.62-.63,.31-1.15-.05-1.7-.38-.57,0-1.51,.75-1.9,.64-.34,.83,.12,1,.6,.81-.97,.82-1.01,.25-1.95-.42-.7,0-1.72,.9-2.16,.23-.11,.48-.17,.74-.09,.45,.14,.27,.62,.46,.92,.98-.94,1-.98,.49-2.04-.16-.34-.22-.67-.06-1,.36-.76,.98-1.23,1.79-1.4,.44-.09,.77,.09,.82,.6,.01,.14-.12,.33,.1,.41,1.22-1,1.15-.74,.67-2.27-.1-.31-.03-.6,.1-.87,.29-.61,.78-1.02,1.41-1.26,1.13-.44,1.65-.11,1.68,1.06,1.22-.53,1.48-1.12,1-2.38-.21-.54-.16-1.01,.2-1.42,.72-.82,1.65-1.26,2.75-1.25,.75,0,1.07,.45,.9,1.19-.05,.22-.1,.4,.1,.56,.21,.17,.39,.02,.58-.06,.4-.16,.71-.54,1.19-.51,1.2,.64,2.89,.39,4.01-.47Zm35.84-1.66s0,0,0,0h0Zm7.5,3.95c.05-.01,.11-.03,.16-.04-.03-.05-.06-.09-.09-.14-.05,.02-.09,.04-.14,.06,.02,.04,.04,.08,.07,.12Zm13.91,2.33s.04,.09,.06,.13c.14,.1,.13,.01,.12-.09-.01-.02-.02-.04-.03-.07-.05,.01-.1,.02-.15,.03h0Zm.6,.33c.06,.02,.12,.05,.18,.07h0c-.06-.02-.12-.04-.18-.06h0Zm-5.8-.68s.01-.03,.01-.04c0-.02,0-.03-.01-.05h0s0,.06,0,.09Zm-36.22-7.7c-.1,.16-.16,.31,.04,.44h0c.46,.12,.15-.29,.27-.4-.04-.1-.08-.19-.12-.29-.34-.12-.22,.09-.19,.25Zm37.08,9.53c-.13-.03-.27-.05-.3,.13-.02,.14,.1,.16,.21,.17,.03-.1,.06-.2,.08-.3Zm7.29-5.07h0c-.1,.09-.26,.18-.15,.33,.1,.13,.19,0,.25-.11-.01-.02-.02-.04-.03-.07l-.08-.15Zm-25.74-.28c.09-.13,.2-.25,.14-.48-.18,.11-.34,.22-.5,.32-.38-1.02-1.15-1.47-2.2-1.54-.23-.02-.47,0-.65,.17-.26,.24-.38,.41-.06,.79,.51,.6,1.2,.74,1.85,.99,.38,.14,.73-.18,1.05-.41,.03,.14,.1,.23,.26,.2,.03-.02,.07-.03,.1-.04Zm38.56-4.33s-.1,.05-.15,.07c-.04,.02-.08,.03-.11,.04h0c-.14-.03-.3-.13-.4,.03-.04,.06,.05,.19,.08,.29,.04,.08,.08,.17,.13,.25,.08,.07,.16,.14,.23,.21,.09,.08,.18,.08,.27,.01,.28-.32,.27-.62-.05-.9Zm-46.18-.02c.21-.17,.08-.41-.13-.57-.04,.01-.07,.03-.11,.04-.05,.02-.1,.05-.15,.07,0,0,0,0,0,0-.37-.17-.46,.03-.45,.35-.11,.1-.18,.2-.02,.31,.36,.27,.63-.03,.85-.21Zm22.88,5.03c.03,.48,.43,.32,.69,.37,.63,.14,1.24,.51,1.91,.03,.46-.32,.37-.6,.08-.89-.6-.62-1.33-.62-2.12-.36-.34,.16-.58,.43-.56,.85Zm-59.13,7.88c4.1-2.69,8.49-4.69,13.35-5.61-4.89,.78-9.33,2.69-13.35,5.61Zm74.53-6.05c.27-.02,.31-.19,.34-.37-.1,.11-.2,.21-.34,.37Zm9.63-6.49c-.02,.06-.03,.13-.04,.19,.03,0,.09,0,.1-.02,.02-.06,.03-.12,.05-.2-.05,.01-.11,0-.11,.03Zm-28.02,10.24h.05s-.03-.04-.03-.04l-.02,.04Zm-4.98-2.51l.03,.03v-.05s-.03,.02-.03,.02Z"/><path d="M692.33,416.21c-2.01,1.3-4.15,2.35-6.49,2.92-6.93,1.69-13.31,.28-18.87-4.19-7.31-5.88-10.17-13.68-9.31-22.88,.13-1.42,.24-2.84,.39-4.25,.23-2.25-1-3.61-2.63-4.75-2-1.39-4.25-1.49-6.53-1.1-3.36,.57-6.36,2.05-9.29,3.7-3.92,2.21-7.62,4.77-11.33,7.3-4.61,3.15-9.44,5.88-14.73,7.76-5.62,2-11.4,2.74-17.37,2.06-.87-.1-.66-.59-.59-1.08,.5-3.35,1.01-6.69,1.52-10.04,.52-3.4,1.04-6.79,1.55-10.19,.06-.41,.12-.74,.67-.65,.36,.06,.36-.22,.38-.47,.05-.54,.2-1.05,.45-1.53,.66-1.26,1.89-1.37,2.79-.25,.44,.55,.78,1.18,.87,1.89,.1,.86,.69,.36,1.05,.36,.58,0,.31-.4,.2-.68-.31-.8-.3-1.58,.1-2.34,.81-1.53,2.51-1.78,3.77-.55,.47,.46,.86,.99,1.02,1.63,.12,.5,.36,.53,.76,.35,.27-.12,.54-.23,.82-.33,.4-.14,.41-.33,.12-.64-.93-.99-.79-2.07-.18-3.13,.6-1.06,1.54-1.67,2.78-1.55,1.23,.11,2.18,.8,2.53,1.98,.24,.83,.51,.7,1.04,.37,.63-.39,1.34-.64,1.98-1.17-1.19-.56-1.85-1.42-1.56-2.67,.36-1.58,1.46-2.52,2.98-2.96,1.26-.37,2.26,.17,3.1,1.09,.24,.27,.35,.6,.45,.94,.18,.57,.52,.78,1.1,.45,.69-.39,1.41-.74,2.11-1.11-.07-.35-.34-.32-.52-.4-1.24-.6-1.66-1.9-.95-3.04,1.02-1.67,2.48-2.65,4.5-2.59,1.36,.04,2.26,.84,2.57,2.16,.15,.64,.82,1.1,1.44,.92,.82-.23,1.62-.52,2.49-.82-.22-.2-.38-.34-.54-.48-.73-.69-.86-1.28-.47-2.18,1-2.33,4.81-3.45,6.94-2.04,.68,.45,1.04,1.09,1.08,1.9,.05,1,.6,1.47,1.58,1.39,.56-.05,1.13-.04,1.69-.06,.17,0,.41,.13,.48-.14,.06-.22-.15-.32-.28-.45-.17-.17-.37-.32-.51-.52-.41-.61-.39-1.21,.09-1.78,1.66-1.94,6.01-1.89,7.66,.1,.52,.62,.7,1.31,.45,2.11-.27,.84,.27,1.85,1.09,2.17,.64,.25,1.28,.52,1.93,.77,.17-.36-.07-.61-.13-.89-.21-.96,.18-1.64,1.12-1.91,2-.59,5.2,.96,5.99,2.9,.35,.87,.31,1.69-.39,2.38-.12,.11-.25,.22-.24,.4,.1,1-.37,1.68-1.27,2.13,.11,.05,.14,.08,.15,.08q1.28-.79,2.38,.5c.21,.25,.34,.62,.82,.47,.44-.14,.35-.46,.39-.77,.11-.92,.8-1.39,1.72-1.2,1.97,.42,3.8,2.92,3.61,4.92-.07,.71-.35,1.28-1.04,1.59-.68,.3-.81,1.18-1.54,1.44-.16,.06,0,.29,.04,.44,.14,.47,.28,.93,.43,1.39,.05,.17,.01,.4,.29,.42,.22,.02,.39-.02,.56-.22,.94-1.17,1.81-1.09,2.57,.25,.64,1.14,.95,2.35,.69,3.65-.21,1.08-.85,1.66-1.92,1.69-.64,.02-1.09,.54-1.74,.53-.19,0-.57,1.56-.41,1.71,.19,.19,.44,.28,.73,.16,1.18-.49,1.79-.21,2.15,.99,.47,1.57-.51,2.82-2.12,2.7-.54-.04-1.04,.17-1.58,.16-.46-.01-.43,.57-.4,.91,.03,.42,.36,.16,.56,.12,.77-.15,1.45,.29,1.63,1.07,.17,.74-.26,1.31-1.12,1.45-.39,.06-.8,.03-1.17,.24-.23,.12-.39,.27-.46,.52-.04,.16-.1,.33,.01,.46,.16,.18,.28-.02,.41-.08,.74-.34,1.43-.15,1.72,.47,.28,.59,0,1.11-.8,1.5-.31,.15-.6,.34-.9,.51-.38,.23-.3,.59-.11,.84,.26,.34,.38-.07,.54-.19,.48-.37,1.2-.33,1.51,.12,.36,.53,.26,1.04-.22,1.43-.25,.2-.49,.4-.72,.62-.4,.38-.38,.72-.03,1.1,.14,.05,.18-.05,.25-.14,.42-.57,.98-.71,1.42-.31,.49,.46,.42,.95-.02,1.41-.12,.13-.23,.3-.3,.47-.1,.25-.4,.52-.09,.8,.3,.27,.38-.16,.58-.23,.33-.12,.63-.14,.91,.1,.27,.24,.33,.55,.21,.88-.08,.23-.19,.44-.27,.67-.05,.15-.07,.33,.1,.43,.13,.08,.24,.01,.37-.04,.95-.37,1.25-.11,1.08,.93-.05,.29-.03,.55,.22,.73,.32,.22,.29-.19,.45-.28,.25-.15,.5-.19,.76-.05,.25,.13,.32,.35,.29,.62-.04,.38-.11,.77,.41,.96,0-.48,.24-.77,.72-.72,.88,.09,.43,.91,.77,1.41,.17-.38,.44-.64,.86-.6,.55,.06,.51,.54,.66,.9,.15,.38,.26,.82,.7,.14,.38-.59,.98-.51,1.32,.12,.28,.51,.48,1.02,1.16,.39,.26-.24,.59-.05,.84,.23,.29,.33,.56,.5,.83-.08,.2-.45,.6-.5,1-.16,.2,.17,.37,.37,.57,.57,.51-1.08,.77-1.13,1.65-.39,.08,.07,.16,.15,.26,.18,.5,.17,.74-.35,1.15-.44,.36-.08,.87,.4,1.08-.28,.06-.2,.24-.3,.44-.29,.91,.04,1.68-.34,2.46-.73,.13-.07,1.87,.46,1.93,.59,.24,.53-.19,.91-.32,1.35l-2.52,2.48Zm-62.05-42.87s0,0,0,0c.04-.04,.08-.08,.12-.12,.07,.01,.14,.02,.21,.03-.02-.02-.03-.04-.05-.04-.05,0-.1,0-.16,.02-.04,.04-.08,.07-.11,.11Zm15.08-3.9h0s0,0,0,0Zm-32.87,14.63c.1,.04,.2,.07,.3,.11,.05-.05,.09-.11,.14-.16-.12-.29-.34-.39-.62-.29-.17,.06-.05,.15,.03,.21l.15,.14Zm-4.48-.88c.04,.12,.08,.23,.11,.35-.02,.2-.06,.4,.21,.46,.04-.04,.09-.09,.13-.13,.52-.54-.11-.58-.35-.78-.13-.06-.18-.03-.11,.11Zm52.77-16.87h0s-.05,0-.08,0c.03,0,.05,0,.08,0Zm-32.54,1.97c0-.08,0-.16,0-.24-.11,.04-.23,.07-.34,.11-.11,.22-.02,.4,.11,.58h0c.02,.14,.13,.27,.25,.17,.24-.19,0-.42-.02-.63,0,0,0,0,0,0Zm7.64,3.17h0c-.06-.06-.09-.17-.22-.12-.02,0-.03,.04-.03,.06,.05,.12,.15,.08,.24,.06Zm13.94-5.74h0c-.11,.02-.21,.05-.32,.07-.19,.51,.19,.66,.53,.84h.02c.1,.04,.19,.09,.29,.13,.14-.06,.27-.11,.41-.17,.05-.01,.1-.02,.15-.02,.3,.1,.42,.66,.86,.38,.34-.21,.71-.24,1.08-.22,.59,.02,.91-.24,.96-.83,.05-.63-.51-.53-.84-.66-.81-.34-1.63,.02-2.44,.04-.17-.09-.28,.03-.39,.12-.1,.11-.21,.21-.31,.32Zm-9.72,2.04l-.05,.05-.05,.05c-.07,.06-.21,.13-.06,.22,.11,.07,.28,.08,.35-.06,.08-.16-.06-.22-.19-.26Zm1.83,2.07s.08-.08,.11-.11c-.23-.41-.43-.16-.68-.02,.2,.24,.38,.16,.56,.14Zm-33.63,8.59c-.56-.49-1.15-.33-1.73-.06-.53,.26-.5,.82-.63,1.28-.05,.16,.11,.3,.29,.32,.64,.06,1.29,.13,1.88-.2,.54-.3,.62-.91,.18-1.34Zm-6.55,6.87c.48,.48,1.83,.63,2.12,.17,.33-.51-.12-1.01-.36-1.44-.23-.41-1.48-.25-1.9,.17-.4,.41-.21,.77,.13,1.1Zm69.99,.77c.5-.48,.24-1.14,.3-1.71,.05-.46-.43-.71-.76-.96-.23-.17-.38,.05-.44,.28-.18,.71-.16,1.43,0,2.13,.11,.45,.42,.71,.89,.26Zm-68.39,1.55c0-.07,0-.15-.02-.16-.07,0-.15-.02-.21,.01-.08,.04-.09,.13,0,.17,.06,.02,.14-.01,.23-.03Zm59.9-14.77s.07,.02,.11,.03c0-.02,.01-.06,0-.06-.03-.01-.07-.02-.11-.03,0,.02,0,.04,0,.06Zm-.2,.44l-.03,.05h.05s-.02-.05-.02-.05Zm-13.41-9.96h.06s-.02-.05-.02-.05l-.04,.05Z"/><path d="M539.45,318.86c-1.25-.06-1.72-.46-1.83-1.56-.15-1.59,.22-3.05,1.28-4.28,.85-1,1.93-1.18,3.01-.47,.37,.24,.48,.11,.64-.18,.36-.65,.73-1.29,1.09-1.93,.18-.32,.28-.54-.29-.56-.94-.03-1.49-.56-1.48-1.49,.01-2,.78-3.65,2.46-4.79,.87-.59,1.81-.48,2.53,.29,.38,.4,.65,.38,.96-.02,.51-.67,1.02-1.35,1.52-2.01-.13-.22-.27-.12-.39-.11-1.06,.09-1.67-.49-1.62-1.55,.07-1.72,1.73-4.01,3.36-4.61,1.05-.39,1.82-.2,2.47,.66,.17,.23,.34,.35,.63,.33,.41-.03,.78,.12,.95,.24-.19-1.17,1.24-1.22,1.57-2.09-.54-.13-1.15-.32-1.32-1-.17-.71,.09-1.35,.46-1.93,.89-1.4,2.08-2.4,3.74-2.74,1.11-.23,1.72,.09,2.39,1,.32,.44,.72,.88,1.4,.3,.5-.43,1.17-.66,1.77-.98-.05-.09-.06-.17-.1-.18-1.56-.47-1.81-1.23-.77-2.5,1.07-1.31,2.45-2.11,4.17-2.2,1.11-.06,1.71,.35,2.13,1.33,.35,.81,.95,1.1,1.8,.87,.27-.08,.55-.14,.83-.2,.25-.05,.5-.09,.74-.13,.06-.22-.13-.23-.23-.3-.86-.59-.95-1.3-.25-2.06,.99-1.07,3.68-1.68,5.02-1.12,.69,.29,1.16,.76,1.26,1.57,.1,.78,.55,1.28,1.41,1.27,.11,0,.23,.02,.34,.01,.42-.02,.91,.22,1.24-.07,.5-.44-.2-.71-.29-1.09-.12-.56,.1-.93,.53-1.23,1.22-.86,3.74-.59,4.75,.53,.32,.35,.45,.75,.4,1.25-.13,1.25,.32,1.85,1.39,2,.46,.07,.64-.03,.49-.54-.27-.99,.08-1.49,1.1-1.62,.81-.11,1.58,.03,2.29,.47,.56,.34,.88,.81,.78,1.48-.05,.38,.04,.73,.09,1.1,.07,.52,.78,1.02,1.25,.89,.24-.07,.26-.23,.22-.46-.18-1.16,.03-1.48,.98-1.6,1.24-.16,2.06,.35,2.19,1.34,.04,.28,.05,.56,.1,.84,.17,.87,.18,.87,1.19,.95-.05-.4-.38-.78-.1-1.19,.21-.29,.5-.47,.83-.56,.79-.23,1.39,.17,1.74,1.15,.22,.61,.55,1,1.32,.65-.47-.6-.49-1.18,.19-1.62,.57-.37,1.16-.19,1.73,.53,.34,.44,.71,.76,1.35,.31-.25-.35-.7-.65-.46-1.2,.29-.65,1.11-.86,1.72-.42,.23,.17,.44,.35,.69,.49,.23,.12,.45,.02,.61-.16,.17-.19-.01-.3-.12-.42-.35-.39-.28-.79,.05-1.14,.31-.34,.68-.5,1.15-.27,.2,.1,.42,.2,.63,.22,.35,.04,.62,.02,.43-.5-.35-.96,0-1.34,1.04-1.26,.49,.04,1.01,.12,.52-.69-.31-.52,0-.96,.59-1.05,.57-.08,.87-.19,.52-.85-.23-.44-.07-.84,.45-1,.44-.13,.79-.19,.27-.73-.33-.34-.28-.83,.2-1.07,.35-.18,.48-.3,.22-.68-.32-.47-.14-.85,.32-1.14,.37-.23,.53-.46,.09-.84-.45-.39-.49-.89,0-1.32,.41-.35,.47-.71,.06-1.07-.57-.51,.56-1.17-.13-1.59-.7-.43-.58-.86-.2-1.4,.16-.23,0-.34-.23-.4-.64-.18-.67-.66-.45-1.14,.15-.33,.15-.58-.03-.87-.71-1.12-1.36-2.29-2.13-3.37-.39-.56-.68-1.01-.63-1.77,.06-.79,.39-.71,.86-.54,1.17,.42,2.14,1.18,3.01,2.03,4.6,4.5,6.24,10.07,5.28,16.27-1.3,8.36-6.36,13.8-14.19,16.7-4.33,1.6-8.82,1.28-13.3,.59-3.14-.49-6.25-1.22-9.41-1.55-5.68-.6-10.63,1.26-15.1,4.62-3.42,2.57-6.17,5.75-8.55,9.28-4.02,5.97-6.29,12.68-8.24,19.52-.97,3.41-1.85,6.85-2.67,10.3-.18,.77-.46,1.02-1.28,.79-4.87-1.35-9.75-2.67-14.63-3.98-.61-.16-.82-.45-.57-1.03,.19-.47,.11-.79-.42-.98-.39-.14-.6-.5-.76-.88-.58-1.41-.02-3.81,1.13-4.8,.46-.4,.98-.66,1.62-.64,.6,.02,1.42-1.11,1.24-1.67-.07-.23-.26-.18-.42-.2-.65-.09-1.02-.53-1.17-1.1-.45-1.73-.16-3.33,1.01-4.71,.69-.82,1.59-1.1,2.6-.64,.37,.17,.49,.08,.61-.25,.22-.61,.47-1.21,.74-1.89Zm-5.64,15.14c-.13,.03-.25,.06-.38,.08,0,.24-.1,.61,.27,.55,.32-.05,.23-.39,.11-.63Zm10.42-26.22c-.05-.03-.1-.05-.16-.08-.67-.1-1.01,.07-.64,.8,.06,.03,.11,.06,.17,.09,.13-.12,.26-.24,.39-.36h0c.19-.09,.28-.24,.25-.46Zm-3.87,15.1l.05,.04v-.06s-.05,.02-.05,.02Zm-1.14,3.04h-.06s.04,.06,.04,.06l.03-.06Z"/><path d="M402.58,273.83c-.78,.36-.81,.93-.6,1.5,.26,.69,.12,1.23-.52,1.53-.59,.27-1.1,.14-1.38-.57-.22-.57-.47-.11-.57,.08-.2,.37-.04,.78,.17,1.08,.51,.72,.53,1.38-.21,1.91-.74,.53-1.38,.34-1.81-.54-.77,.79-.31,1.28,.23,1.78,.9,.83,.69,2.05-.4,2.44-.61,.22-1.04-.08-1.45-.57-.36,.59-.5,1.02,.21,1.35,.37,.17,.71,.42,1.07,.62,.87,.49,1.13,1.25,.69,2.08-.43,.82-1.09,1.03-2,.61-.29-.13-.66-.4-.75,.1-.06,.34-.4,.92,.35,1.05,.5,.08,.95,.32,1.48,.36,1.15,.08,1.8,.92,1.66,2.01-.15,1.17-.81,1.64-2.08,1.44-.32-.05-.66-.08-.59,.33,.07,.39,.06,.98,.69,.97,.57-.01,1.14,.02,1.71-.11,1.3-.29,2.33,.35,2.53,1.52,.2,1.18-.42,1.95-1.78,2.18-.36,.06-.71,.22-.56,.58,.22,.49,.46,1.12,1.16,1.07,.43-.03,.83-.21,1.21-.51,1.07-.84,2.32-.82,3.02-.01,.84,.97,.76,2.16-.2,3.17-.19,.2-.68,.36-.31,.73,.3,.3,.7,.6,1.18,.21,.37-.3,.71-.59,.94-1.04,.45-.89,1.12-1.63,2.21-1.54,1.1,.09,1.87,.81,2.34,1.76,.5,1,.01,1.78-.94,2.57,.77,.1,1.34,.24,1.92,.23,.54,0,.73-.48,.77-.94,.14-1.47,.97-2.32,2.38-2.6,1.28-.26,3.26,.56,3.9,1.56,.51,.79,.27,1.52-.36,2.31,.91,.05,1.69,.19,2.46,.11,.57-.06,.87-.53,.86-1.17-.02-1.51,.69-2.38,2.17-2.66,1.57-.3,3.06,.01,4.41,.84,1.68,1.03,1.71,2.24,.06,3.45,1.07,.2,2.1,.39,3.12,.57,.53,.09,.83-.04,.82-.7-.01-1.11,.56-1.77,1.63-2.04,2.15-.55,5.77,1.08,6.77,3.05,.45,.9,.11,1.69-1.12,2.38,1.26,.71,2.46,1.38,3.66,2.05,.3-1.58,1.13-2.16,2.73-1.92,2.18,.33,4.64,2.88,4.91,5.07,.08,.65-.11,1.18-.69,1.44-.65,.29-.44,.54-.08,.87,.3,.28,.6,.58,.87,.89,.47,.55,.82,1.09,1.52,.14,.39-.52,1.16-.44,1.8-.26,2.28,.63,4.4,3.99,4,6.34-.1,.59-.3,1.13-.96,1.31-.52,.14-.45,.42-.25,.78,.17,.3,.37,.61,.49,.93,.22,.6,.54,.82,1.22,.68,1.02-.2,1.81,.33,2.38,1.11,1.27,1.75,1.84,3.7,1.42,5.87-.13,.66-.4,1.29-1.05,1.5-.71,.23-.7,.66-.54,1.18,.3,.96-.07,1.28-1.02,1.39-5.77,.66-11.53,1.36-17.28,2.08-.62,.08-.81-.08-.92-.7-1.17-6.87-4.63-12.19-10.7-15.72-3.16-1.84-6.68-2.45-10.24-2.91-4.05-.52-8.11-.95-12.11-1.78-7.79-1.62-14.35-5.26-19.01-11.84-4.18-5.9-5.9-12.52-5.28-19.72,.59-6.76,3.25-12.56,8.38-17.08,4.98-4.39,10.8-6.39,17.42-5.37,7.66,1.17,13.79,6.69,14.42,14.83,.21,2.71-.31,5.27-1.83,7.58-.21,.32-.46,.62-.74,.87-.47,.42-.76,.48-1.1-.28-.32-.71-.3-1.31-.21-2.04,.19-1.46,.18-2.94,.12-4.42-.02-.44-.29-.67-.62-.89-.46-.31-.81-.7-.36-1.26,.31-.39-.04-.42-.25-.5-.56-.22-.84-.56-.64-1.18,.08-.23,.12-.49-.14-.58-.57-.2-.86-.56-.97-1.17-.07-.38-.47-.39-.79-.34-.68,.11-1.09-.17-1.07-.85,.02-.62-.28-.65-.7-.5-.61,.23-1.07,.18-1.26-.53-.12-.44-.33-.24-.57-.11-.66,.38-1.07,.11-1.16-.56-.08-.65-.33-.42-.58-.17-.62,.62-1.07,.6-1.41-.27-.15-.38-.43-.33-.84,.1-.7,.75-.91,.75-1.49-.05-.38-.52-.57-.12-.72,.17-.66,1.28-.83,1.32-1.74,.31-.23-.26-.4-.17-.51,.05-.11,.22-.21,.49-.21,.73,.02,.69-.13,1.23-.93,1.28-.74,.05-.97-.42-.92-1.12Zm42.67,41.27c.12,0,.23,0,.35-.01,.09-.25-.05-.39-.22-.52-.42,.1-.46,.28-.11,.54h-.01Z"/><g><polyline id="polyline1310" class="cls-1" points="426.41 367.81 430.14 371.99 434.42 375.53 439.21 378.41 447.05 381.33 455.34 382.41 462.25 382.17 469.04 380.16 472.77 384.34 479.41 389.45 489.71 393.73 497.99 394.85 506.33 394.1 511.73 392.57 517.53 398.6 524.52 403.21 532.36 406.13 540.64 407.25 548.98 406.5 554.38 404.97 561 412.22 569.74 416.75 575.05 418.54 583.33 419.66 591.68 418.91 597.07 417.38 599.08 410.45 593.7 411.94 588.14 412.66 579.81 412.12 571.76 409.78 565.26 406.76 560.14 402.19 556.39 398.04 548.27 399.98 541 400.38 537.12 399.71 529.07 397.37 521.75 393.35 516.54 388.91 513.74 385.64 505.61 387.57 500.02 387.88 494.47 387.31 486.42 384.97 479.1 380.95 474.79 377.38 471.05 373.23 462.93 375.16 454.56 375.31 451.81 374.91 443.76 372.61 436.45 368.56 432.17 365.02 428.42 360.87 426.41 367.81"/><polyline id="polyline1312" class="cls-1" points="448.7 366.68 437.43 329.46 468.7 338.55 474.27 332.65 488.3 336.73 494.36 330.97 479.81 326.74 490.37 315.49 505.83 319.99 523.18 305.19 526.74 306.22 522.34 312.66 528.19 314.36 526.77 319.23 519.32 317.06 516.55 323.26 520.64 331.05 564.15 343.7 579.23 329.3 593.43 333.43 588.4 350.75 596.34 353.06 598.06 361.11 508.53 335.09 504.21 341.36 599.82 369.15 601.56 377.18 608.19 379.11 601.11 403.47 595.73 404.97 587.39 405.72 579.11 404.6 571.26 401.67 566.47 398.79 562.17 395.21 558.42 391.06 550.3 393 541.93 393.14 536.42 392.19 528.58 389.26 521.59 384.66 515.77 378.66 507.64 380.6 499.28 380.74 491.09 379.01 483.46 375.5 476.82 370.4 473.08 366.25 465.07 368.19 456.78 368.35 454.07 368 448.7 366.68"/></g></g></svg>