<?xml version="1.0" encoding="UTF-8"?><svg id="squid_ava_evm" xmlns="http://www.w3.org/2000/svg" viewBox="0 0 1923.2 1830.59"><defs><style>.cls-1{fill:#010101;}.cls-2{fill:none;stroke:#010101;stroke-dasharray:0 0 0 12;stroke-linecap:round;stroke-linejoin:round;stroke-width:9px;}.cls-3{opacity:.75;}</style></defs><g class="cls-3"><g><path class="cls-2" d="M33.84,1783.38c57.98-90.98,174.78-201.35,270.3-215.81,105.56-15.97,217.62-18.79,309.25-73.58,59.65-35.66,64.55-25.17,108.31-79.16,107.56-132.7,51.28-297.88,197-387,73.74-45.1,349.5-229.26,411-290,241-238,330.9-284.53,480.7-551.02,26.86-47.79,40-74.05,78.7-139.74"/><polygon class="cls-1" points="56.73 1789.34 17.6 1811.3 18.14 1766.43 56.73 1789.34"/><polygon class="cls-1" points="1905.22 64.17 1905.6 19.3 1866.55 41.4 1905.22 64.17"/></g></g><g class="cls-3"><path class="cls-1" d="M1156.54,928.56l.9-4.87c3.35,1.04,6.43,.73,9.15-1.31,3.24-2.44,3.81-5.25,1.53-8.28-1.83-2.44-3.81-2.82-7.16-1.37l-2.64,1.23c-5.84,2.64-9.93,2.03-13.26-2.41-3.88-5.15-2.61-10.37,2.95-14.55,3.96-2.98,7.62-3.67,11.79-2.3l-.99,4.75c-2.97-.96-5.4-.69-8.08,1.32-3.04,2.29-3.65,4.63-1.52,7.46,1.74,2.32,3.71,2.52,6.87,1.15l2.67-1.19c6.22-2.8,9.92-2.21,13.4,2.43,4.18,5.55,3.04,11.1-2.79,15.5-4.12,3.1-8.43,3.77-12.81,2.44Z"/><path class="cls-1" d="M1203.85,910.11l-3.68,2.77c-2.96,2.23-5.34,1.64-7.26-.92l-1.8-2.4c-6.17,3.52-12.85,1.72-19.79-7.51-7.64-10.15-6.74-17.52-.03-22.57s14.04-3.87,21.68,6.27c6.77,8.99,6.84,15.82,2.07,20.72l2.29,3.04,3.88-2.92,2.65,3.52Zm-12.91-17.57l-5.05-6.71c-3.43-4.55-7.78-5.6-11.78-2.59s-4.2,7.48-.77,12.03l5.05,6.71c3.43,4.55,7.78,5.6,11.78,2.59,3.99-3.01,4.2-7.48,.77-12.03Z"/><path class="cls-1" d="M1191.51,865.01l13.59,18.06c3.34,4.44,6.29,5.53,10.21,2.58,3.91-2.95,3.68-6.09,.34-10.52l-13.59-18.06,4.23-3.19,13.08,17.38c5.71,7.59,5.79,12.85-1.24,18.14-7.03,5.29-12.06,3.76-17.78-3.83l-13.08-17.38,4.23-3.19Z"/><path class="cls-1" d="M1232.15,878.11l-2.56-3.4,3.4-2.56-15.88-21.1-3.4,2.56-2.56-3.4,11.03-8.3,2.56,3.4-3.4,2.56,15.88,21.1,3.39-2.56,2.56,3.4-11.03,8.3Z"/><path class="cls-1" d="M1227.3,838.08l9.19-6.92c6.59-4.96,13.53-3.73,20.92,6.1,7.4,9.83,6.66,16.83,.07,21.79l-9.19,6.92-20.99-27.89Zm27.38,17.26c3.63-2.74,4.04-6.86,.61-11.41l-4.87-6.47c-3.43-4.55-7.5-5.31-11.13-2.57l-4.96,3.73,15.39,20.46,4.96-3.73Z"/><path class="cls-1" d="M1285.64,837.85l-4.23,3.19-20.99-27.89,11.03-8.3c4.76-3.58,9.46-2.49,13.46,2.83,3.25,4.31,3.65,8.26,1.16,11.52l14.12,7.71-4.71,3.55-13.4-7.75-4.99,3.76,8.57,11.39Zm-4.81-19.78c2-1.5,2.32-3.31,.58-5.63l-1.96-2.6c-1.74-2.32-3.57-2.5-5.57-1l-6.43,4.84,6.95,9.23,6.43-4.84Z"/><path class="cls-1" d="M1293.09,810.41c-7.64-10.15-6.74-17.52-.03-22.57,6.71-5.05,14.04-3.87,21.68,6.27,7.64,10.15,6.74,17.52,.03,22.57-6.71,5.05-14.04,3.87-21.68-6.27Zm19.62-9.51l-5.05-6.71c-3.43-4.55-7.78-5.6-11.78-2.59s-4.2,7.48-.77,12.03l5.05,6.71c3.43,4.55,7.78,5.6,11.78,2.59,3.99-3.01,4.2-7.48,.77-12.03Z"/><path class="cls-1" d="M1313.27,773.37l13.59,18.06c3.34,4.44,6.29,5.53,10.21,2.58,3.91-2.95,3.68-6.09,.34-10.52l-13.59-18.06,4.23-3.19,13.08,17.38c5.71,7.59,5.79,12.85-1.24,18.14s-12.06,3.76-17.78-3.83l-13.08-17.38,4.23-3.19Z"/><path class="cls-1" d="M1346.27,754.36l18.19,24.17-4.23,3.19-18.19-24.17-7.39,5.56-2.8-3.72,19.02-14.31,2.8,3.72-7.39,5.56Z"/><path class="cls-1" d="M1375.81,769.99l-20.99-27.89,16.18-12.18,2.8,3.72-11.95,8.99,6.13,8.15,10.79-8.12,2.77,3.67-10.79,8.12,6.5,8.63,11.95-8.99,2.8,3.72-16.18,12.18Z"/><path class="cls-1" d="M1401.46,750.69l-4.23,3.19-20.99-27.89,11.03-8.3c4.75-3.58,9.46-2.49,13.46,2.83,3.25,4.31,3.65,8.26,1.16,11.52l14.12,7.71-4.71,3.55-13.4-7.75-4.99,3.76,8.57,11.39Zm-4.81-19.78c2-1.5,2.32-3.31,.58-5.63l-1.95-2.6c-1.74-2.32-3.58-2.5-5.57-1l-6.43,4.84,6.95,9.23,6.43-4.84Z"/></g><g class="cls-3"><path d="M1097.74,848.74c.05-.67-.01-1.21-.59-1.61,.08-.24,.16-.48,.25-.72,.42-1.11,.5-1.13,1.61-.7,.35,.14,.66,.45,1.13,.42-.21-.53-1.44-.33-.7-1.33-.16,.07-.22,.08-.28,.12-.97,.65-1.49,.53-2.03-.5-.1-.2-.23-.33-.43-.42-.48-.2-.66-.61-.72-1.1-.2-1.6,1.35-3.83,2.92-4.19,.78-.18,1.2,.07,1.36,.84,.05,.23,.04,.47,.33,.54,.28,.07,.41-.12,.57-.29,.41-.46,.65-1.07,1.19-1.42,.04-.03,.09-.13,.07-.15-.36-.41-.14-1.06-.63-1.42-.62-.46-.7-1.1-.55-1.8,.16-.75,.56-1.37,1.09-1.89,.83-.82,1.74-1.54,2.96-1.66,.91-.09,1.4,.36,1.44,1.26,0,.22-.08,.47,.17,.67,.17-.35,.47-.59,.75-.84,.29-.26,.51-.6,.9-.74,.09-.03,.2-.08,.16-.18-.2-.49,0-1.05-.37-1.51-.66-.83-.68-1.71-.07-2.62,1.01-1.5,2.47-2.26,4.24-2.4,1.3-.1,1.75,.5,1.46,1.79-.03,.12-.15,.27,.03,.36,.12,.06,.22-.04,.31-.1,.48-.36,.95-.73,1.45-1.06,.53-.34,.68-.98,.25-1.5-.45-.55-.55-1.15-.34-1.82,.55-1.71,1.95-2.44,3.51-2.94,.74-.24,1.51-.29,2.21,.16,.61,.4,.66,1.04,.56,1.8,.73-.51,1.37-.93,1.98-1.38,.44-.32,.49-.99,.15-1.38-.77-.87-.85-1.81-.22-2.78,.75-1.15,1.82-1.82,3.16-2.05,1.57-.27,2.31,.38,2.33,1.96,0,.03,.05,.07,.13,.16,.6-.49,1.22-.96,1.79-1.49,.28-.26,.36-.58-.1-.83-.78-.44-1-1.18-.92-2.01,.15-1.44,1.11-2.21,2.34-2.75,1.48-.65,2.37-.27,2.91,1.23,0,.03,.07,.03,.13,.06,.54-.53,.99-1.14,1.46-1.74,.24-.31,.24-.5-.18-.65-.87-.3-1.22-1.01-1.32-1.86-.14-1.3,.56-2.13,1.61-2.74,1-.58,1.89-.4,2.68,.4,.25-.29,.27-.63,.41-.92,.25-.55,.29-.89-.47-1.12-1.23-.37-1.86-1.61-1.6-2.79,.28-1.27,1.38-2.08,2.71-1.92,.45,.05,.52-.1,.51-.47,0-.46,.03-.84-.66-.85-1.15-.02-2.1-.74-2.27-1.59-.17-.84,.32-1.67,1.35-2.27,.02-.01,.04-.02,.06-.03,.28-.12,.41-.29,.21-.58-.27-.39-.04-.57,.29-.74,.89-.48,1.78-.98,2.66-1.47,3.85-2.15,7.7-4.29,11.54-6.45,.54-.3,.78-.21,1.05,.34,1.19,2.47,2.06,5.04,2.51,7.74,1.2,7.3-.22,14.14-3.73,20.58-3.64,6.69-8.92,11.88-15.1,16.22-4.67,3.28-9.66,6.03-14.64,8.82-3.52,1.98-6.99,4.04-10.17,6.55-6.37,5.03-10.13,11.62-11.48,19.53-1.14,6.7-.17,13.19,2.72,19.38,1.73,3.69,4.1,6.94,6.73,10.02,.67,.79,1.39,1.55,1.92,2.45,.34,.59,.23,.84-.42,.83-.39,0-.38,.24-.49,.44l-.92-.3c-.12-.15-.3-.2-.48-.27-.5-.21-1.12-.38-1.46-.7-.43-.4-.78-.8-1.36-.95-.07-.02-.12-.14-.17-.21-.26-.43-.56-.66-1.13-.52-.59,.15-1.07-.22-.98-.73,.08-.5-.12-.48-.47-.46-.55,.03-1.04-.13-.99-.76,.05-.57-.23-.68-.66-.73-.34-.04-.62-.23-.64-.54-.05-.8-.51-.91-1.17-.9-.51,0-.98-.56-.79-.99,.37-.83-.17-.81-.69-.86-.66-.07-1.09-.47-.9-1,.22-.61-.02-.67-.5-.62-.39,.04-.62-.17-.74-.5-.12-.31-.18-.67,.19-.85,.29-.14,.12-.24,.03-.34-.21-.23-.5-.29-.81-.33-.55-.07-.85-.68-.6-1.14,.33-.62,.17-.94-.52-1.04-.85-.13-1.16-.81-.67-1.54,.25-.36,.13-.59-.22-.76-.19-.1-.4-.08-.6-.12-.66-.12-.79-.65-.82-1.2-.02-.48,.2-.77,.72-.66-.05-.88-.65-1-1.3-1.09-.68-.1-1.12-1.01-.92-1.83,.17-.7,.64-.54,1.11-.34-.18-1.25-.21-1.28-1.29-1.49-.8-.15-1.28-1.15-1.01-2.11,.07-.25,.19-.47,.42-.61,.4-.24,.65,.21,.99,.27-.05-1.36-.07-1.4-1.2-1.73-.36-.1-.65-.29-.79-.62-.32-.77-.26-1.55,.15-2.26,.23-.39,.58-.51,.99-.21,.11,.08,.16,.31,.38,.2,.06-1.58,.21-1.35-1.25-2.01-.29-.13-.47-.38-.58-.66-.26-.63-.24-1.26,0-1.89,.43-1.14,1.02-1.3,1.91-.55,.42-1.26,.15-1.85-1.11-2.33-.54-.2-.86-.56-.92-1.1-.13-1.08,.16-2.07,.9-2.88,.51-.56,1.05-.5,1.49,.12,.13,.18,.24,.34,.49,.3,.26-.05,.28-.28,.34-.47,.15-.41,.07-.89,.41-1.23,1.28-.46,2.22-1.89,2.32-3.31Zm22.65-27.83s0,0,0,0h0Zm7.95-2.96s.05-.1,.07-.15c-.05,0-.11-.02-.16-.03-.02,.05-.03,.1-.05,.15,.04,0,.09,.02,.13,.03Zm11.01-8.81s.09,.03,.14,.04c.17-.03,.09-.09,.02-.15-.02,0-.05-.01-.07-.02-.03,.05-.05,.09-.08,.14h0Zm.66-.23c.06-.03,.11-.06,.17-.09h0c-.06,.04-.12,.06-.17,.09h0Zm-4.37,3.87s-.01-.03-.02-.04c-.01-.01-.03-.02-.05-.03h0s.04,.04,.06,.06Zm-29.88,21.87c.05,.18,.12,.33,.35,.26h0c.4-.26-.12-.3-.11-.46-.1-.03-.2-.07-.29-.1-.32,.17-.08,.23,.06,.3Zm31.82-21.29c-.11,.08-.22,.17-.1,.31,.09,.11,.19,.03,.27-.04-.06-.09-.11-.18-.17-.26Zm1.08-8.82h0c0,.13-.04,.31,.14,.32,.17,0,.13-.14,.09-.26-.02,0-.05-.01-.07-.02l-.17-.04Zm-17.36,19c-.04-.15-.05-.32-.26-.43-.03,.2-.06,.4-.1,.59-1.01-.4-1.87-.12-2.61,.61-.17,.16-.31,.35-.3,.6,0,.35,.06,.55,.55,.57,.78,.02,1.36-.4,1.97-.72,.36-.18,.35-.67,.4-1.05,.12,.07,.24,.07,.32-.06,.01-.03,.02-.07,.03-.1Zm22.48-31.63c-.02,.05-.03,.1-.05,.16-.01,.04-.03,.08-.05,.11h0c-.12,.08-.3,.13-.25,.32,.02,.06,.17,.09,.27,.13,.09,.02,.18,.05,.27,.07,.1-.01,.21-.02,.31-.03,.12-.01,.18-.08,.19-.2-.05-.42-.28-.61-.7-.56Zm-30.79,34.41c.02-.27-.26-.33-.51-.28-.01,.04-.03,.07-.04,.11-.02,.05-.03,.11-.05,.16,0,0,0,0,0,0-.38,.16-.28,.36-.04,.57,0,.15,.03,.26,.22,.22,.44-.09,.4-.49,.42-.77Zm19-13.71c.38,.3,.52-.11,.74-.26,.52-.38,1.2-.59,1.3-1.41,.07-.55-.2-.67-.62-.65-.86,.04-1.35,.58-1.69,1.34-.11,.37-.07,.72,.26,.98Zm-33.54,49.33c.73-4.85,2.17-9.45,4.72-13.69-2.68,4.16-4.21,8.75-4.72,13.69Zm45.17-59.6c.17-.22,.07-.36-.05-.5,.01,.14,.03,.29,.05,.5Zm1.58-11.51c.03,.06,.08,.1,.12,.15,.02-.03,.06-.07,.05-.08-.03-.06-.07-.11-.12-.17-.02,.04-.06,.08-.05,.1Zm-11.04,27.72l.03-.04h-.05s.02,.04,.02,.04Zm-5.19,2.04h.05s-.03-.05-.03-.05l-.02,.05Z"/><path d="M1358.7,667.84c-.37,2.37-1.01,4.66-2.15,6.78-3.36,6.3-8.66,10.11-15.7,11.27-9.26,1.53-16.97-1.54-23.26-8.31-.97-1.04-1.95-2.07-2.91-3.12-1.52-1.67-3.36-1.66-5.29-1.2-2.37,.56-3.94,2.17-5.17,4.13-1.81,2.88-2.71,6.11-3.43,9.39-.97,4.4-1.52,8.86-2.11,13.31-.72,5.54-1.91,10.96-4.03,16.15-2.25,5.52-5.56,10.32-10.04,14.32-.65,.58-.88,.1-1.2-.28-2.16-2.6-4.32-5.21-6.47-7.82-2.19-2.65-4.37-5.3-6.57-7.95-.27-.32-.48-.58-.04-.93,.28-.23,.08-.42-.1-.6-.37-.4-.65-.85-.84-1.36-.5-1.33,.23-2.32,1.67-2.25,.71,.04,1.4,.2,1.99,.61,.71,.5,.73-.28,.97-.54,.39-.44-.09-.5-.37-.61-.81-.3-1.38-.83-1.68-1.63-.6-1.62,.35-3.05,2.1-3.17,.66-.04,1.31,.01,1.9,.32,.45,.24,.64,.08,.77-.33,.09-.28,.19-.56,.3-.83,.16-.39,.03-.53-.39-.52-1.36,.03-2.07-.79-2.45-1.95-.39-1.16-.21-2.26,.7-3.11,.9-.84,2.05-1.1,3.16-.57,.78,.37,.86,.09,.97-.53,.13-.73,.42-1.42,.45-2.26-1.21,.51-2.29,.43-3.03-.61-.93-1.32-.9-2.77-.22-4.19,.57-1.19,1.63-1.57,2.88-1.58,.36,0,.68,.14,1,.29,.55,.25,.93,.13,1.07-.52,.17-.78,.39-1.55,.58-2.31-.31-.18-.46,.04-.65,.12-1.27,.52-2.52-.03-2.9-1.32-.56-1.87-.32-3.61,1.07-5.07,.94-.99,2.13-1.13,3.33-.48,.57,.31,1.36,.12,1.64-.46,.37-.76,.69-1.56,1.05-2.4-.3,.03-.51,.06-.72,.08-1,.09-1.53-.21-1.94-1.1-1.07-2.3,.64-5.89,3.11-6.53,.78-.2,1.5-.05,2.14,.46,.78,.63,1.5,.53,2.09-.25,.34-.45,.72-.87,1.08-1.3,.11-.13,.37-.22,.22-.45-.13-.19-.34-.1-.52-.09-.24,.02-.49,.07-.72,.03-.73-.1-1.16-.52-1.26-1.25-.34-2.53,2.6-5.74,5.18-5.64,.81,.03,1.45,.35,1.87,1.07,.45,.76,1.56,1.03,2.35,.64,.62-.31,1.24-.61,1.86-.92-.16-.37-.5-.36-.75-.5-.85-.48-1.1-1.23-.68-2.11,.9-1.88,4.18-3.24,6.15-2.53,.89,.32,1.47,.89,1.52,1.87,0,.16,0,.34,.14,.44,.81,.59,1,1.4,.74,2.37,.11-.04,.15-.05,.16-.06q.27-1.48,1.96-1.44c.33,0,.69,.16,.9-.3,.19-.42-.11-.57-.31-.8-.61-.7-.5-1.53,.26-2.08,1.62-1.19,4.71-.89,6.08,.59,.49,.53,.72,1.11,.49,1.84-.23,.7,.35,1.39,.05,2.11-.07,.16,.21,.2,.35,.27,.44,.21,.88,.41,1.32,.61,.16,.07,.31,.26,.51,.07,.16-.15,.25-.31,.21-.56-.25-1.48,.4-2.07,1.9-1.75,1.28,.28,2.38,.86,3.18,1.92,.66,.88,.67,1.74-.02,2.56-.41,.49-.32,1.18-.77,1.65-.13,.14,.79,1.46,1,1.45,.27-.02,.5-.14,.6-.44,.42-1.21,1.04-1.47,2.17-.95,1.48,.69,1.76,2.26,.59,3.38-.39,.37-.56,.89-.94,1.29-.31,.33,.14,.7,.41,.91,.34,.26,.36-.16,.46-.34,.4-.67,1.18-.88,1.88-.5,.66,.37,.8,1.07,.34,1.8-.22,.34-.51,.62-.61,1.03-.06,.25-.06,.47,.08,.69,.09,.14,.18,.3,.35,.3,.24,0,.17-.22,.22-.36,.24-.78,.84-1.17,1.5-.97,.63,.19,.83,.74,.59,1.6-.09,.33-.15,.67-.22,1.01-.09,.44,.25,.62,.55,.64,.42,.03,.2-.33,.21-.53,.04-.6,.55-1.12,1.1-1.04,.64,.08,.95,.5,.92,1.12-.02,.32-.03,.63-.02,.96,.02,.55,.28,.77,.8,.76,.12-.07,.08-.17,.06-.28-.15-.69,.12-1.21,.72-1.26,.67-.06,.98,.32,1.04,.95,.02,.18,.07,.37,.15,.53,.13,.24,.12,.64,.54,.6,.4-.04,.14-.39,.22-.59,.13-.32,.32-.57,.68-.61,.36-.04,.63,.12,.8,.43,.11,.21,.2,.44,.32,.65,.08,.14,.2,.27,.39,.22,.15-.04,.17-.17,.22-.3,.36-.95,.75-1,1.42-.18,.19,.23,.39,.39,.69,.32,.38-.09,.05-.35,.09-.52,.05-.29,.2-.5,.47-.6,.26-.1,.48,0,.65,.19,.25,.29,.5,.59,.99,.33-.36-.32-.41-.69-.06-1.02,.65-.6,.97,.29,1.56,.36-.17-.38-.19-.75,.13-1.04,.41-.37,.74-.02,1.11,.11,.38,.14,.79,.35,.57-.43-.19-.67,.27-1.07,.97-.91,.57,.13,1.08,.32,1.07-.6,0-.36,.36-.47,.73-.47,.44,0,.75-.09,.49-.67-.2-.45,.03-.79,.55-.85,.26-.03,.52-.03,.81-.04-.47-1.1-.33-1.32,.81-1.49,.1-.02,.22-.02,.31-.07,.46-.26,.23-.79,.44-1.15,.19-.32,.88-.39,.51-.99-.11-.18-.06-.38,.08-.52,.64-.65,.87-1.48,1.1-2.32,.04-.14,1.59-1.09,1.73-1.04,.56,.18,.55,.75,.79,1.14l.17,3.53Zm-73.31,17.68s0,0,0,0c0-.06,0-.11,0-.17,.05-.04,.11-.09,.16-.13-.02,0-.05,0-.07,0-.04,.04-.06,.08-.09,.13,0,.05,0,.11,0,.16Zm7.14-13.84h0s0,0,0,0Zm-11,34.26c.09-.05,.19-.1,.28-.15,0-.07-.02-.14-.03-.21-.3-.11-.52-.01-.63,.27-.07,.16,.08,.13,.17,.12l.2-.02Zm-3.64,2.76c.11,.05,.22,.1,.33,.14,.13,.15,.26,.31,.49,.15,0-.06,0-.13-.01-.19-.05-.75-.5-.3-.82-.26-.14,.06-.14,.11,0,.16Zm22.6-50.59h0s-.04,.04-.06,.06c.02-.02,.04-.04,.06-.06Zm-20.22,25.57c-.06-.05-.12-.1-.17-.16-.05,.11-.1,.22-.15,.33,.09,.22,.29,.29,.51,.3h0c.13,.08,.29,.08,.3-.08,.02-.31-.3-.28-.48-.4,0,0,0,0,0,0Zm7.46-3.58h0c-.09,0-.19-.05-.24,.08,0,.02,.01,.05,.03,.06,.13,.04,.16-.06,.21-.14Zm5.01-14.22h0c-.05,.09-.1,.19-.15,.28,.25,.48,.62,.3,.98,.16h.01c.1-.06,.19-.1,.29-.15,.05-.14,.1-.28,.15-.42,.02-.05,.05-.09,.09-.13,.27-.16,.77,.13,.86-.38,.07-.4,.29-.69,.55-.95,.41-.43,.42-.84,.02-1.26-.44-.46-.73,.03-1.05,.18-.8,.38-1.07,1.23-1.6,1.84-.18,.07-.16,.23-.18,.37,.01,.15,.02,.3,.03,.44Zm-4.96,8.6v.07s0,.07,0,.07c0,.09-.05,.24,.13,.19,.12-.04,.24-.16,.19-.3-.07-.17-.2-.11-.32-.03Zm2.77,.02c0-.05,0-.11,0-.16-.46-.1-.4,.22-.47,.49,.31,.02,.37-.18,.48-.33Zm-16.01,30.8c-.74,.09-1.02,.63-1.19,1.25-.16,.57,.28,.92,.53,1.33,.09,.14,.3,.12,.43,0,.47-.44,.96-.87,1.11-1.54,.13-.61-.27-1.07-.88-1.03Zm.76,9.47c.67-.04,1.69-.94,1.54-1.47-.16-.58-.84-.59-1.31-.69-.45-.1-1.17,.94-1.14,1.53,.04,.57,.43,.67,.91,.63Zm47.22-51.66c-.02-.69-.69-.94-1.08-1.37-.31-.34-.82-.15-1.22-.07-.28,.06-.22,.32-.08,.51,.41,.61,.96,1.07,1.59,1.41,.41,.22,.81,.16,.79-.49Zm-44.42,52.02c-.05-.04-.12-.1-.13-.09-.05,.05-.12,.1-.13,.16-.02,.09,.04,.16,.13,.11,.06-.03,.08-.11,.13-.19Zm28.91-54.5s.06-.04,.09-.06c-.01-.02-.03-.05-.04-.05-.03,.02-.06,.04-.1,.06,.01,.02,.03,.03,.04,.05Zm.19,.44l.02,.05,.03-.04h-.05Zm-16.37,3.35l.05-.04-.06-.02v.06Z"/><path d="M1184.23,716.93c-.88,.89-1.49,.98-2.38,.32-1.29-.95-2.12-2.2-2.34-3.81-.18-1.3,.41-2.22,1.66-2.56,.42-.11,.41-.28,.3-.6-.25-.7-.48-1.4-.72-2.1-.12-.35-.22-.57-.61-.16-.65,.68-1.41,.73-2.1,.11-1.48-1.34-2.2-3.01-1.93-5.03,.14-1.04,.84-1.67,1.9-1.7,.56-.01,.72-.23,.62-.73-.16-.83-.33-1.66-.49-2.47-.25-.06-.27,.12-.34,.22-.64,.85-1.48,.91-2.24,.18-1.24-1.2-1.83-3.96-1.2-5.57,.41-1.04,1.07-1.49,2.14-1.4,.29,.02,.49-.02,.67-.25,.25-.33,.61-.5,.82-.55-1-.64-.09-1.74-.51-2.56-.46,.31-1,.65-1.62,.31-.64-.35-.94-.97-1.13-1.63-.45-1.59-.4-3.15,.45-4.61,.57-.98,1.21-1.22,2.34-1.11,.55,.05,1.14,.05,1.16-.84,.02-.66,.29-1.31,.45-1.97-.1-.03-.17-.07-.2-.05-1.39,.85-2.12,.53-2.38-1.09-.26-1.68,.06-3.23,1.14-4.57,.69-.86,1.39-1.04,2.41-.7,.84,.28,1.46,.02,1.85-.76,.13-.25,.26-.5,.4-.75,.13-.22,.27-.43,.4-.64-.13-.19-.25-.06-.38-.03-1.01,.25-1.61-.16-1.7-1.18-.14-1.45,1.2-3.86,2.51-4.49,.67-.32,1.33-.36,2.01,.11,.65,.45,1.32,.44,1.89-.2,.08-.09,.16-.16,.23-.25,.26-.33,.78-.53,.78-.97,0-.66-.67-.32-1-.51-.5-.28-.63-.7-.57-1.22,.17-1.49,2.05-3.18,3.56-3.19,.48,0,.85,.16,1.19,.54,.84,.93,1.59,1,2.42,.3,.35-.3,.4-.49-.08-.73-.92-.46-1.06-1.05-.48-1.9,.46-.68,1.08-1.16,1.88-1.39,.63-.19,1.19-.12,1.63,.4,.25,.29,.57,.46,.88,.66,.44,.29,1.28,.1,1.5-.34,.11-.23,0-.35-.19-.47-.98-.64-1.09-1.01-.54-1.8,.71-1.03,1.63-1.31,2.46-.74,.23,.16,.45,.34,.69,.48,.77,.46,.77,.45,1.5-.25-.33-.23-.84-.23-.95-.72-.08-.35-.02-.68,.13-.99,.36-.74,1.06-.92,2.02-.53,.6,.25,1.11,.26,1.36-.55-.76-.05-1.2-.42-1.08-1.23,.1-.68,.63-.99,1.55-.94,.55,.03,1.04-.02,1.13-.8-.43-.04-.95,.09-1.2-.46-.29-.65,.1-1.4,.83-1.56,.28-.06,.56-.09,.82-.19,.24-.09,.32-.32,.29-.56-.03-.25-.23-.19-.39-.19-.52,0-.77-.31-.82-.8-.04-.46,.09-.84,.56-1.03,.21-.08,.42-.18,.59-.32,.27-.23,.43-.45-.09-.65-.95-.38-1-.89-.24-1.61,.35-.34,.76-.67-.17-.85-.59-.11-.72-.64-.39-1.14,.32-.48,.44-.78-.28-.96-.48-.12-.67-.51-.44-1,.2-.41,.38-.72-.37-.68-.48,.02-.8-.34-.66-.86,.1-.38,.1-.56-.36-.62-.56-.07-.73-.46-.64-1,.08-.44,.01-.7-.57-.63-.59,.07-.99-.23-.98-.88,.01-.54-.21-.82-.76-.76-.76,.09-.5-1.2-1.27-.96-.79,.24-1.02-.14-1.18-.79-.07-.28-.25-.22-.46-.09-.56,.36-.94,.06-1.15-.43-.14-.33-.33-.5-.67-.55-1.31-.22-2.61-.51-3.93-.66-.68-.08-1.21-.16-1.74-.71-.55-.57-.27-.76,.16-1,1.09-.6,2.3-.81,3.52-.89,6.42-.43,11.67,2.06,15.65,6.91,5.37,6.54,6.05,13.95,2.99,21.7-1.69,4.3-4.92,7.43-8.42,10.31-2.46,2.02-5.07,3.84-7.43,5.98-4.24,3.83-6.15,8.76-6.62,14.33-.36,4.26,.17,8.43,1.22,12.56,1.77,6.98,5.26,13.14,9.06,19.16,1.9,3,3.88,5.95,5.9,8.86,.45,.65,.45,1.02-.26,1.48-4.25,2.73-8.49,5.48-12.71,8.25-.53,.34-.88,.31-1.15-.26-.22-.46-.51-.61-1.01-.34-.36,.2-.78,.12-1.16-.02-1.44-.5-2.85-2.53-2.83-4.04,0-.61,.16-1.17,.6-1.63,.42-.44,.12-1.8-.42-2.04-.22-.1-.31,.08-.43,.18-.5,.42-1.07,.41-1.6,.14-1.59-.82-2.59-2.1-2.84-3.89-.15-1.06,.24-1.92,1.26-2.36,.38-.17,.39-.31,.22-.62-.31-.57-.59-1.16-.92-1.81Zm7.53,14.29c-.06,.11-.13,.23-.19,.34,.17,.16,.38,.48,.59,.16,.17-.27-.13-.43-.4-.5Zm-12.6-25.25c-.05,.02-.11,.04-.16,.07-.52,.43-.62,.8,.17,1.01,.06-.02,.12-.04,.18-.06,0-.18,0-.36,0-.53h0c.06-.2,0-.36-.18-.48Zm8.68,12.95h.06s-.04-.06-.04-.06l-.03,.06Zm1.5,2.87l-.04,.05h.06s-.03-.05-.03-.05Z"/><path d="M1059.43,788.95c-.25,.82,.16,1.23,.72,1.45,.69,.27,1,.73,.79,1.41-.19,.62-.63,.91-1.34,.65-.57-.21-.4,.28-.32,.48,.15,.39,.55,.55,.92,.59,.88,.1,1.38,.52,1.28,1.43-.1,.9-.66,1.25-1.61,.99,.07,1.1,.75,1.09,1.48,1.01,1.22-.12,1.99,.85,1.55,1.92-.25,.6-.75,.72-1.39,.7,.2,.66,.43,1.05,1.15,.74,.38-.16,.79-.25,1.18-.39,.95-.32,1.68,0,2.01,.87,.33,.87,.04,1.49-.87,1.9-.29,.13-.73,.22-.42,.62,.21,.27,.42,.92,1.02,.43,.39-.32,.87-.49,1.25-.86,.83-.8,1.89-.73,2.61,.1,.77,.89,.68,1.7-.32,2.51-.25,.21-.5,.44-.15,.66,.33,.21,.77,.61,1.18,.13,.37-.43,.77-.84,1.06-1.35,.65-1.17,1.81-1.5,2.81-.87,1.01,.63,1.17,1.62,.44,2.78-.2,.31-.31,.68,.06,.8,.51,.16,1.14,.4,1.58-.15,.27-.34,.4-.76,.43-1.24,.08-1.36,.93-2.27,2-2.26,1.28,.02,2.11,.87,2.24,2.26,.02,.27-.19,.75,.34,.72,.43-.02,.92-.12,.94-.74,.02-.47,.04-.92-.15-1.4-.37-.93-.47-1.92,.33-2.68,.8-.76,1.85-.85,2.88-.57,1.07,.29,1.33,1.18,1.29,2.41,.58-.5,1.07-.84,1.45-1.28,.35-.41,.13-.86-.19-1.2-1-1.09-1.09-2.27-.35-3.51,.66-1.13,2.59-2.06,3.77-1.87,.93,.15,1.31,.81,1.49,1.81,.65-.64,1.27-1.14,1.72-1.76,.34-.46,.19-1-.3-1.42-1.14-.99-1.31-2.09-.54-3.4,.82-1.37,2.05-2.27,3.57-2.73,1.89-.57,2.81,.22,2.62,2.25,.86-.67,1.69-1.3,2.5-1.95,.42-.33,.52-.65,.02-1.08-.84-.73-.95-1.59-.44-2.57,1.02-1.97,4.66-3.58,6.79-3.01,.97,.26,1.34,1.05,1.03,2.42,1.37-.47,2.66-.91,3.97-1.36-.98-1.27-.85-2.28,.39-3.31,1.7-1.41,5.23-1.54,7.05-.28,.54,.37,.81,.87,.62,1.47-.22,.68,.11,.68,.6,.64,.41-.04,.83-.06,1.24-.05,.72,.02,1.36,.11,1.12-1.04-.13-.64,.45-1.15,1.01-1.51,1.99-1.28,5.9-.62,7.39,1.25,.37,.47,.64,.98,.34,1.58-.24,.48,.01,.62,.42,.71,.34,.07,.7,.13,1.02,.26,.59,.23,.97,.14,1.32-.46,.52-.89,1.45-1.13,2.42-1.03,2.15,.22,3.98,1.1,5.32,2.85,.41,.53,.69,1.16,.42,1.78-.3,.68,.03,.97,.52,1.19,.92,.42,.9,.91,.35,1.69-3.35,4.74-6.66,9.5-9.97,14.27-.36,.52-.6,.55-1.14,.22-5.9-3.71-12.17-4.68-18.86-2.5-3.48,1.13-6.28,3.34-8.99,5.69-3.08,2.67-6.11,5.41-9.4,7.84-6.4,4.73-13.48,7.19-21.5,6.28-7.18-.81-13.27-3.95-18.22-9.21-4.65-4.94-7.19-10.79-7.14-17.63,.05-6.64,2.44-12.31,7.6-16.56,5.98-4.93,14.18-5.82,20.67-.87,2.16,1.65,3.72,3.75,4.43,6.41,.1,.37,.15,.75,.15,1.13,0,.63-.15,.89-.94,.64-.75-.24-1.18-.65-1.66-1.2-.96-1.11-2.07-2.09-3.21-3.03-.34-.28-.69-.23-1.08-.13-.54,.14-1.06,.14-1.18-.57-.08-.5-.34-.25-.54-.15-.53,.27-.98,.26-1.3-.31-.12-.21-.28-.41-.53-.28-.53,.29-.99,.27-1.52-.05-.33-.2-.6,.09-.78,.37-.37,.59-.86,.7-1.34,.23-.45-.43-.67-.23-.84,.19-.24,.61-.58,.92-1.24,.59-.41-.2-.4,.09-.46,.35-.15,.75-.63,.87-1.19,.49-.54-.37-.53-.03-.51,.32,.05,.88-.27,1.2-1.14,.87-.38-.14-.54,.1-.48,.69,.09,1.03-.05,1.18-1.03,1.08-.64-.06-.47,.35-.35,.65,.51,1.35,.43,1.5-.92,1.5-.35,0-.39,.19-.3,.42,.09,.23,.22,.48,.41,.64,.52,.44,.83,.91,.34,1.55-.46,.59-.97,.44-1.45-.06Zm59.21-4.3c.07-.09,.15-.18,.22-.26-.12-.23-.32-.22-.54-.18-.21,.38-.1,.53,.33,.44h-.01Z"/><g><polyline id="polyline1310" class="cls-1" points="1145.37 833.82 1150.98 833.83 1156.46 832.99 1161.81 831.34 1169.21 827.44 1175.54 821.99 1179.97 816.67 1182.99 810.28 1188.6 810.28 1196.83 808.73 1206.88 803.91 1213.24 798.48 1218.24 791.76 1220.69 786.72 1229.06 786.41 1237.15 784.27 1244.56 780.38 1250.91 774.95 1255.91 768.23 1258.37 763.19 1268.18 763.09 1277.39 759.6 1282.26 756.82 1288.62 751.4 1293.62 744.68 1296.07 739.64 1292.25 733.52 1289.78 738.53 1286.6 743.14 1280.65 749 1273.54 753.44 1266.96 756.27 1260.13 757.04 1254.54 757.07 1250.57 764.42 1246.03 770.1 1242.95 772.55 1235.84 776.99 1227.96 779.77 1221.18 780.69 1216.87 780.6 1212.9 787.95 1209.39 792.32 1205.27 796.08 1198.16 800.52 1190.29 803.3 1184.75 804.13 1179.16 804.15 1175.19 811.5 1169.72 817.83 1167.6 819.62 1160.51 824.09 1152.62 826.84 1147.13 827.67 1141.54 827.7 1145.37 833.82"/><polyline id="polyline1312" class="cls-1" points="1159.39 816.46 1124.13 800.05 1151.75 782.8 1151.06 774.71 1163.45 766.97 1163.19 758.61 1150.35 766.63 1149 751.27 1162.66 742.74 1163.18 719.94 1166.33 717.98 1168.2 725.55 1173.37 722.32 1176.05 726.62 1169.47 730.73 1172.24 736.93 1180.78 739.07 1219.2 715.07 1218.52 694.23 1231.07 686.4 1240.62 701.69 1247.63 697.31 1254.79 701.4 1175.71 750.79 1177.51 758.19 1261.96 705.44 1269.09 709.5 1274.96 705.84 1288.4 727.36 1285.93 732.36 1280.93 739.08 1274.57 744.51 1267.16 748.41 1261.82 750.06 1256.28 750.88 1250.7 750.91 1246.73 758.26 1241.25 764.59 1236.86 768.06 1229.46 771.96 1221.37 774.1 1213.02 774.44 1209.05 781.79 1203.58 788.12 1196.83 793.07 1189.13 796.42 1180.9 797.97 1175.32 797.99 1171.42 805.25 1166.02 811.54 1163.95 813.33 1159.39 816.46"/></g></g></svg>