<?xml version="1.0" encoding="UTF-8"?><svg id="Layer_4" xmlns="http://www.w3.org/2000/svg" viewBox="0 0 1130.93 266.42"><defs><style>.cls-1{fill:#010101;}.cls-2{fill:#fff;}.cls-3{fill:none;stroke:#010101;stroke-dasharray:0 0 0 12;stroke-linecap:round;stroke-linejoin:round;stroke-width:9px;}.cls-4{opacity:.75;}</style></defs><g class="cls-4"><line class="cls-2" x1="1108.6" y1="174.12" x2="21.6" y2="210.12"/><g><line class="cls-3" x1="1076.32" y1="175.19" x2="53.88" y2="209.05"/><polygon class="cls-1" points="1069.02 152.98 1108.6 174.12 1070.51 197.83 1069.02 152.98"/><polygon class="cls-1" points="59.69 186.4 21.6 210.12 61.18 231.26 59.69 186.4"/></g></g><g class="cls-4"><path class="cls-1" d="M434.86,243.04l3.54-3.47c2.14,2.78,4.85,4.29,8.25,4.18,4.05-.14,6.13-2.11,6.01-5.91-.1-3.05-1.5-4.5-5.08-5.23l-2.87-.5c-6.29-1.19-9.29-4.04-9.48-9.59-.22-6.45,3.82-9.98,10.76-10.22,4.95-.17,8.35,1.37,10.97,4.88l-3.54,3.32c-1.88-2.49-4.03-3.67-7.37-3.56-3.8,.13-5.65,1.69-5.53,5.24,.1,2.9,1.59,4.2,4.97,4.89l2.87,.55c6.7,1.28,9.39,3.89,9.58,9.69,.23,6.95-3.89,10.84-11.19,11.08-5.15,.17-9.06-1.75-11.89-5.35Z"/><path class="cls-1" d="M484.19,255.09l-4.6,.15c-3.7,.12-5.31-1.72-5.42-4.92l-.1-3c-7.08-.66-11.51-5.97-11.89-17.51-.43-12.69,4.54-18.21,12.94-18.49,8.4-.28,13.72,4.89,14.15,17.59,.38,11.25-3.49,16.88-10.2,18.15l.13,3.8,4.85-.16,.15,4.4Zm-.48-21.8l-.28-8.4c-.19-5.7-3.15-9.05-8.15-8.88-5,.17-7.73,3.71-7.54,9.41l.28,8.4c.19,5.7,3.16,9.05,8.15,8.88,5-.17,7.73-3.71,7.54-9.41Z"/><path class="cls-1" d="M499.98,211.09l.76,22.59c.19,5.55,1.97,8.14,6.87,7.97,4.9-.16,6.51-2.87,6.32-8.42l-.76-22.59,5.3-.18,.73,21.74c.32,9.49-2.64,13.85-11.43,14.14-8.8,.29-12.04-3.85-12.36-13.34l-.73-21.74,5.3-.18Z"/><path class="cls-1" d="M525.73,245.15l-.14-4.25,4.25-.14-.88-26.39-4.25,.14-.14-4.25,13.79-.46,.14,4.25-4.25,.14,.88,26.39,4.25-.14,.14,4.25-13.79,.46Z"/><path class="cls-1" d="M544.75,209.59l11.5-.38c8.25-.28,13.21,4.71,13.63,17s-4.21,17.6-12.46,17.88l-11.49,.38-1.17-34.88Zm12.51,29.85c4.55-.15,7.24-3.29,7.05-8.99l-.27-8.1c-.19-5.7-3.09-8.65-7.64-8.5l-6.2,.21,.86,25.59,6.2-.21Z"/><path class="cls-1" d="M592.64,242.9l-5.3,.18-1.17-34.88,13.79-.46c5.95-.2,9.17,3.4,9.39,10.04,.18,5.4-1.75,8.86-5.67,10.1l7.14,14.42-5.9,.2-6.52-14.04-6.25,.21,.48,14.24Zm7.42-18.96c2.5-.08,3.81-1.38,3.71-4.28l-.11-3.25c-.1-2.9-1.49-4.1-3.99-4.02l-8.05,.27,.39,11.54,8.05-.27Z"/><path class="cls-1" d="M614.5,224.71c-.43-12.69,4.54-18.21,12.94-18.49s13.72,4.89,14.15,17.59c.43,12.69-4.54,18.21-12.94,18.5s-13.72-4.89-14.15-17.59Zm21.53,3.48l-.28-8.4c-.19-5.7-3.15-9.05-8.15-8.88-5,.17-7.73,3.71-7.54,9.41l.28,8.4c.19,5.7,3.15,9.05,8.15,8.88,5-.17,7.73-3.71,7.54-9.41Z"/><path class="cls-1" d="M652.29,205.98l.76,22.59c.19,5.55,1.97,8.14,6.87,7.98s6.51-2.87,6.32-8.42l-.76-22.59,5.3-.18,.73,21.74c.32,9.49-2.64,13.85-11.43,14.14-8.8,.29-12.04-3.85-12.35-13.34l-.73-21.74,5.3-.18Z"/><path class="cls-1" d="M690.22,209.36l1.01,30.23-5.3,.18-1.01-30.23-9.25,.31-.16-4.65,23.79-.8,.16,4.65-9.25,.31Z"/><path class="cls-1" d="M705.43,239.12l-1.17-34.88,20.24-.68,.16,4.65-14.94,.5,.34,10.2,13.49-.45,.15,4.6-13.49,.45,.36,10.79,14.94-.5,.16,4.65-20.24,.68Z"/><path class="cls-1" d="M737.51,238.05l-5.3,.18-1.17-34.88,13.79-.46c5.95-.2,9.17,3.4,9.39,10.04,.18,5.4-1.75,8.86-5.67,10.1l7.14,14.42-5.9,.2-6.52-14.04-6.25,.21,.48,14.24Zm7.42-18.96c2.5-.08,3.81-1.38,3.71-4.28l-.11-3.25c-.1-2.9-1.49-4.1-3.99-4.02l-8.05,.27,.39,11.54,8.05-.27Z"/></g><g class="cls-4"><path d="M451.63,159.82c.39-.55,.61-1.05,.31-1.69,.19-.16,.38-.33,.58-.49,.92-.74,1.01-.72,1.74,.22,.23,.3,.33,.72,.76,.94,.09-.56-1.07-1.02,.08-1.5-.17-.02-.24-.04-.3-.04-1.17,.07-1.55-.3-1.49-1.47,.01-.22-.02-.4-.15-.58-.31-.42-.26-.87-.06-1.31,.65-1.48,3.12-2.6,4.65-2.11,.77,.24,.99,.67,.73,1.42-.08,.22-.2,.42,.01,.63,.21,.21,.41,.11,.64,.04,.59-.19,1.1-.58,1.75-.62,.05,0,.15-.07,.14-.09-.1-.53,.42-.98,.19-1.54-.3-.71-.04-1.31,.45-1.83,.52-.56,1.18-.89,1.91-1.07,1.13-.28,2.28-.43,3.39,.09,.83,.39,1.02,1.03,.59,1.82-.11,.19-.31,.36-.19,.66,.33-.21,.71-.26,1.07-.34,.38-.08,.75-.25,1.15-.18,.1,.02,.22,.03,.23-.07,.08-.52,.54-.9,.46-1.49-.14-1.05,.28-1.82,1.28-2.29,1.64-.78,3.28-.68,4.87,.11,1.17,.58,1.25,1.32,.34,2.28-.09,.09-.26,.15-.15,.32,.07,.11,.2,.08,.32,.07,.6-.06,1.19-.15,1.79-.17,.63-.02,1.08-.5,.98-1.16-.11-.7,.11-1.27,.63-1.74,1.35-1.19,2.92-1.1,4.52-.73,.76,.18,1.45,.52,1.81,1.27,.32,.66,.03,1.23-.44,1.83,.89-.06,1.65-.1,2.4-.18,.54-.06,.93-.6,.83-1.11-.21-1.14,.19-1.99,1.23-2.5,1.23-.6,2.5-.64,3.76-.15,1.48,.58,1.79,1.51,1,2.87-.02,.03,.01,.08,.03,.21,.77-.12,1.54-.2,2.3-.36,.37-.08,.6-.31,.35-.77-.45-.78-.26-1.53,.24-2.2,.86-1.16,2.09-1.33,3.42-1.17,1.6,.2,2.17,.98,1.87,2.55,0,.03,.05,.06,.08,.12,.74-.18,1.43-.48,2.14-.75,.37-.14,.46-.3,.18-.65-.6-.7-.54-1.49-.18-2.28,.55-1.19,1.57-1.54,2.79-1.53,1.16,.01,1.83,.62,2.1,1.72,.36-.13,.56-.4,.82-.58,.5-.34,.71-.62,.17-1.21-.87-.95-.78-2.34,.06-3.22,.89-.94,2.25-1.08,3.31-.27,.36,.27,.5,.17,.68-.15,.23-.4,.45-.7-.13-1.07-.98-.6-1.42-1.71-1.14-2.53,.28-.81,1.13-1.28,2.32-1.26,.02,0,.05,0,.07,0,.3,.04,.5-.04,.48-.4-.03-.47,.26-.51,.63-.49,1.01,.04,2.03,.07,3.04,.1,4.41,.12,8.81,.25,13.22,.36,.62,.01,.78,.22,.73,.83-.24,2.73-.81,5.39-1.81,7.94-2.7,6.89-7.42,12.04-13.73,15.78-6.55,3.89-13.74,5.65-21.27,6.23-5.69,.43-11.39,.24-17.09,.1-4.04-.1-8.07-.1-12.09,.43-8.04,1.06-14.65,4.81-19.85,10.92-4.41,5.18-6.89,11.25-7.57,18.05-.4,4.06-.02,8.06,.66,12.06,.17,1.02,.41,2.04,.4,3.08,0,.68-.23,.84-.79,.49-.33-.21-.45,0-.65,.12l-.64-.73c-.03-.19-.16-.32-.27-.47-.33-.44-.77-.9-.9-1.34-.16-.56-.26-1.09-.69-1.51-.05-.05-.03-.18-.03-.27,0-.5-.14-.85-.71-1.02-.58-.18-.81-.73-.47-1.13,.33-.39,.14-.48-.17-.64-.49-.25-.83-.65-.46-1.16,.34-.47,.15-.7-.19-.96-.27-.21-.42-.52-.28-.79,.37-.71,.02-1.04-.54-1.37-.44-.26-.56-.98-.17-1.25,.75-.53,.27-.79-.15-1.09-.53-.39-.7-.96-.26-1.32,.5-.41,.33-.58-.11-.79-.35-.16-.44-.47-.38-.81,.06-.32,.18-.67,.59-.63,.31,.03,.23-.15,.2-.28-.07-.31-.28-.5-.53-.7-.43-.35-.38-1.02,.07-1.29,.6-.36,.63-.72,.09-1.16-.67-.55-.58-1.29,.21-1.66,.4-.19,.41-.44,.2-.77-.11-.18-.3-.27-.46-.41-.51-.44-.35-.96-.09-1.45,.22-.42,.57-.56,.95-.2,.4-.78-.05-1.19-.56-1.6-.53-.43-.44-1.44,.14-2.04,.51-.51,.83-.14,1.13,.28,.48-1.17,.48-1.21-.35-1.94-.61-.54-.51-1.64,.21-2.33,.19-.18,.41-.3,.68-.31,.47,0,.45,.51,.72,.74,.65-1.2,.66-1.24-.15-2.1-.26-.27-.41-.58-.36-.93,.12-.83,.57-1.46,1.29-1.87,.39-.22,.76-.15,.96,.33,.05,.13-.02,.35,.22,.36,.86-1.32,.87-1.05-.04-2.36-.18-.26-.21-.57-.17-.86,.09-.67,.44-1.21,.96-1.63,.95-.76,1.54-.6,1.92,.51,1-.87,1.08-1.51,.24-2.57-.36-.45-.45-.92-.23-1.42,.45-1,1.2-1.69,2.25-2.01,.72-.22,1.16,.11,1.22,.86,.02,.22,.03,.41,.27,.5,.25,.09,.38-.1,.53-.23,.33-.28,.51-.72,.98-.85,1.34,.25,2.88-.49,3.69-1.65Zm33.7-12.33s0,0,0,0h0Zm8.35,1.52s.09-.06,.14-.09c-.04-.04-.08-.07-.12-.11-.04,.03-.08,.07-.11,.1,.03,.03,.07,.06,.1,.09Zm13.96-1.95s.06,.07,.09,.11c.16,.06,.13-.03,.09-.12-.02-.02-.03-.04-.05-.05-.05,.03-.09,.05-.14,.08h0Zm.68,.13c.06,0,.13,0,.19,.01h0c-.06,0-.13,0-.19,0h0Zm-5.74,1.09s0-.03,0-.04c0-.02-.02-.03-.03-.05h0s.01,.06,.02,.09Zm-36.87,3.52c-.05,.18-.06,.34,.17,.4h0c.48-.02,.05-.32,.14-.46-.07-.08-.13-.16-.2-.24-.36-.02-.18,.16-.1,.29Zm38.23-2.03c-.13,.01-.27,.04-.25,.21,.02,.14,.15,.13,.26,.1,0-.1,0-.21-.01-.31Zm5.44-7.03h0c-.07,.11-.2,.25-.04,.35,.14,.09,.19-.06,.21-.18-.02-.02-.03-.04-.05-.06l-.12-.12Zm-24.64,7.45c.04-.15,.12-.3,0-.5-.13,.16-.26,.31-.38,.45-.66-.86-1.54-1.06-2.56-.81-.23,.06-.45,.14-.57,.36-.17,.31-.24,.5,.18,.77,.66,.42,1.37,.35,2.06,.39,.4,.03,.64-.39,.88-.7,.07,.13,.16,.18,.31,.11,.03-.02,.05-.05,.08-.07Zm35.49-15.69s-.08,.07-.12,.11c-.03,.03-.06,.05-.1,.07h0c-.14,.01-.33-.04-.37,.15-.02,.07,.1,.17,.16,.25,.06,.07,.13,.13,.19,.2,.1,.04,.19,.09,.29,.13,.11,.05,.2,.02,.26-.07,.18-.39,.07-.67-.32-.84Zm-44.06,13.83c.15-.23-.05-.41-.29-.5-.03,.02-.06,.05-.09,.07-.04,.04-.08,.08-.13,.11,0,0,0,0,0,0-.41-.05-.43,.17-.33,.47-.08,.13-.11,.24,.08,.3,.43,.15,.59-.22,.75-.45Zm23.34-2.07c.17,.45,.51,.17,.77,.15,.64-.06,1.33,.11,1.84-.54,.34-.44,.17-.68-.2-.88-.76-.41-1.45-.19-2.13,.29-.28,.26-.42,.58-.27,.98Zm-54.04,25.25c3.11-3.8,6.7-7.02,11.05-9.35-4.43,2.21-8.09,5.37-11.05,9.35Zm69.29-28.12c.25-.1,.24-.27,.21-.45-.06,.13-.12,.26-.21,.45Zm7.24-9.08c0,.06,.01,.13,.02,.19,.03-.01,.09-.03,.09-.05,0-.06,0-.13-.01-.21-.04,.02-.1,.04-.1,.06Zm-23.66,18.18h.05s-.04-.05-.04-.05v.05Zm-5.51-.9l.04,.02v-.05s-.04,.03-.04,.03Z"/><path d="M768.39,137.78c-1.53,1.85-3.25,3.49-5.31,4.73-6.11,3.69-12.61,4.26-19.26,1.66-8.74-3.42-13.8-10-15.74-19.04-.3-1.39-.62-2.78-.9-4.17-.45-2.22-2.03-3.14-3.94-3.74-2.32-.73-4.5-.15-6.56,.91-3.03,1.55-5.45,3.86-7.75,6.31-3.08,3.28-5.84,6.83-8.61,10.36-3.45,4.39-7.24,8.44-11.72,11.82-4.76,3.59-10.05,6.03-15.95,7.18-.86,.17-.81-.37-.88-.85-.53-3.34-1.04-6.69-1.56-10.03-.53-3.4-1.05-6.79-1.58-10.19-.07-.41-.11-.75,.44-.82,.36-.05,.28-.32,.22-.56-.12-.53-.12-1.07-.03-1.6,.25-1.4,1.39-1.88,2.59-1.08,.59,.39,1.1,.89,1.4,1.55,.35,.79,.77,.14,1.11,.03,.55-.18,.18-.48-.01-.71-.54-.67-.76-1.42-.6-2.26,.31-1.7,1.86-2.45,3.43-1.65,.59,.3,1.12,.68,1.46,1.25,.27,.44,.51,.4,.83,.11,.22-.2,.45-.38,.68-.56,.34-.26,.29-.44-.07-.65-1.18-.67-1.37-1.74-1.11-2.93,.26-1.19,.97-2.05,2.19-2.32,1.2-.26,2.32,.11,3.01,1.13,.48,.72,.7,.52,1.11,.04,.48-.56,1.09-1.01,1.54-1.71-1.3-.18-2.19-.8-2.29-2.08-.13-1.61,.64-2.84,1.96-3.71,1.1-.73,2.2-.52,3.28,.11,.31,.18,.51,.47,.71,.76,.35,.49,.73,.59,1.18,.1,.54-.58,1.12-1.13,1.68-1.69-.17-.31-.42-.2-.62-.23-1.36-.2-2.15-1.31-1.82-2.62,.48-1.9,1.57-3.27,3.51-3.82,1.31-.37,2.41,.12,3.1,1.29,.33,.56,1.11,.8,1.64,.45,.71-.47,1.38-.99,2.14-1.53-.27-.12-.47-.21-.66-.3-.9-.44-1.2-.97-1.11-1.93,.26-2.52,3.56-4.74,6.01-4.02,.78,.23,1.32,.73,1.6,1.49,.35,.94,1.02,1.22,1.92,.85,.52-.22,1.06-.37,1.59-.57,.16-.06,.43,0,.42-.28-.01-.23-.24-.26-.41-.34-.22-.11-.45-.19-.64-.34-.57-.46-.73-1.04-.44-1.72,1-2.35,5.17-3.6,7.34-2.2,.68,.44,1.06,1.04,1.06,1.88,0,.88,.81,1.68,1.69,1.75,.69,.05,1.38,.11,2.07,.16,.05-.4-.25-.57-.39-.81-.49-.85-.32-1.62,.49-2.16,1.73-1.16,5.25-.64,6.58,.97,.6,.73,.81,1.52,.35,2.39-.08,.14-.17,.29-.1,.45,.39,.93,.15,1.71-.58,2.41,.12,.02,.16,.04,.17,.03q.99-1.13,2.42-.24c.28,.18,.51,.49,.93,.2,.38-.26,.2-.54,.14-.85-.17-.91,.35-1.57,1.29-1.66,2-.19,4.51,1.65,4.92,3.61,.15,.7,.05,1.33-.52,1.83-.56,.48-.41,1.37-1.04,1.84-.14,.1,.08,.28,.17,.41,.27,.4,.54,.8,.82,1.2,.1,.14,.13,.38,.4,.32,.21-.05,.37-.14,.46-.38,.55-1.4,1.4-1.58,2.53-.53,.96,.89,1.61,1.96,1.76,3.28,.12,1.09-.31,1.84-1.33,2.19-.6,.21-.88,.85-1.5,1.03-.18,.05-.07,1.66,.12,1.76,.24,.13,.5,.14,.75-.07,.98-.82,1.65-.73,2.35,.29,.92,1.35,.36,2.84-1.22,3.21-.52,.12-.94,.48-1.46,.63-.44,.13-.24,.68-.11,.99,.16,.4,.39,.04,.57-.05,.69-.37,1.47-.15,1.87,.54,.38,.65,.14,1.33-.63,1.72-.36,.18-.75,.27-1.05,.58-.18,.19-.29,.37-.28,.63,0,.16,0,.35,.15,.44,.2,.12,.26-.1,.37-.2,.61-.55,1.31-.57,1.78-.07,.45,.48,.33,1.06-.31,1.67-.25,.24-.47,.5-.71,.76-.3,.33-.1,.66,.15,.83,.35,.25,.34-.18,.45-.35,.34-.5,1.04-.68,1.48-.33,.5,.4,.56,.91,.22,1.43-.18,.27-.35,.53-.5,.81-.27,.48-.15,.8,.3,1.06,.14,0,.16-.1,.19-.21,.23-.67,.73-.98,1.26-.72,.61,.29,.68,.78,.41,1.35-.08,.16-.13,.35-.14,.53-.01,.27-.23,.61,.16,.79,.37,.17,.32-.26,.49-.39,.28-.21,.56-.32,.9-.18,.33,.15,.48,.42,.47,.78-.01,.24-.05,.48-.06,.72,0,.16,.03,.33,.22,.38,.15,.04,.24-.06,.35-.15,.79-.63,1.16-.48,1.31,.57,.04,.29,.13,.54,.42,.63,.38,.12,.22-.27,.34-.4,.19-.22,.42-.33,.71-.27,.27,.05,.41,.24,.46,.5,.07,.38,.12,.77,.68,.79-.14-.46,0-.81,.47-.9,.87-.18,.69,.74,1.16,1.11,.05-.42,.23-.74,.65-.83,.54-.11,.65,.36,.9,.66,.26,.32,.5,.71,.71-.07,.18-.68,.78-.78,1.3-.28,.42,.4,.77,.82,1.23,.03,.18-.31,.55-.22,.87-.03,.37,.23,.69,.31,.77-.33,.06-.49,.42-.66,.9-.45,.24,.1,.46,.24,.71,.38,.16-1.18,.39-1.31,1.46-.87,.1,.04,.2,.09,.3,.09,.53,.01,.6-.56,.97-.76,.32-.18,.95,.12,.94-.6,0-.21,.14-.36,.33-.41,.88-.23,1.5-.83,2.13-1.43,.11-.1,1.92-.12,2.02-.01,.39,.44,.09,.92,.1,1.39l-1.66,3.12Zm-72.05-22.29s0,0,0,0c.03-.05,.05-.1,.08-.15,.07,0,.14-.02,.21-.03-.02-.01-.04-.03-.06-.03-.05,.02-.1,.04-.14,.06-.03,.05-.05,.09-.08,.14Zm13.21-8.24h0s0,0,0,0Zm-26.97,23.82c.11,0,.21,0,.32,.01,.03-.07,.06-.13,.09-.2-.2-.24-.44-.27-.68-.09-.14,.11,0,.15,.09,.19l.18,.09Zm-4.54,.51c.07,.1,.14,.2,.21,.3,.04,.19,.07,.4,.34,.38,.03-.06,.06-.11,.09-.17,.34-.67-.28-.52-.57-.64-.15-.02-.18,.02-.08,.14Zm45.29-31.92h0s-.05,.02-.08,.02c.03,0,.05-.01,.08-.02Zm-30.46,11.64c-.02-.07-.05-.15-.07-.22-.1,.07-.2,.14-.29,.21-.03,.24,.1,.39,.28,.52h0c.07,.13,.2,.22,.29,.09,.17-.25-.12-.4-.21-.59,0,0,0,0,0,0Zm8.24,.74h0c-.08-.04-.14-.14-.24-.05-.01,.01-.02,.05,0,.06,.09,.1,.17,.03,.25-.01Zm11.58-9.66h0c-.09,.05-.19,.11-.28,.17-.03,.55,.38,.57,.76,.64h.02c.1,0,.21,.02,.31,.03,.11-.09,.23-.19,.34-.28,.04-.03,.09-.05,.14-.06,.32,0,.59,.51,.93,.11,.26-.31,.6-.44,.96-.54,.57-.16,.79-.5,.66-1.07-.14-.62-.65-.35-1-.38-.88-.08-1.54,.51-2.32,.77-.19-.03-.25,.11-.34,.23-.07,.13-.13,.26-.2,.4Zm-8.66,4.86l-.03,.06-.03,.06c-.05,.08-.17,.18,.01,.23,.12,.03,.29,0,.31-.16,.03-.18-.12-.2-.26-.19Zm2.37,1.43s.05-.09,.08-.14c-.35-.32-.46-.02-.65,.18,.26,.17,.41,.03,.58-.04Zm-29.5,18.28c-.69-.3-1.2,.03-1.66,.46-.43,.4-.23,.93-.22,1.41,0,.16,.19,.25,.38,.21,.63-.13,1.27-.26,1.74-.76,.42-.45,.32-1.06-.23-1.34Zm-4.19,8.52c.6,.31,1.93,.06,2.07-.48,.16-.59-.42-.93-.77-1.27-.34-.32-1.49,.2-1.76,.73-.26,.51,.03,.8,.46,1.01Zm67-20.25c.33-.61-.11-1.16-.22-1.73-.09-.45-.63-.55-1.02-.69-.27-.1-.35,.16-.34,.4,.04,.73,.28,1.41,.65,2.03,.24,.4,.61,.55,.93-.02Zm-64.77,21.99c-.03-.06-.05-.14-.06-.14-.07,.01-.15,.03-.2,.07-.06,.06-.05,.15,.05,.16,.06,0,.13-.05,.21-.09Zm52.71-32.05s.08,0,.11,0c0-.02,0-.06,0-.06-.04,0-.08,0-.11,0,0,.02,0,.04,0,.06Zm-.06,.47v.06s.04-.02,.04-.02l-.04-.04Zm-15.78-5.48h.06s-.04-.06-.04-.06l-.02,.06Z"/><path d="M593.35,90.76c-1.21,.32-1.78,.08-2.21-.94-.62-1.47-.7-2.98-.07-4.47,.51-1.21,1.49-1.7,2.73-1.35,.42,.12,.49-.04,.56-.36,.15-.72,.31-1.44,.46-2.17,.08-.36,.1-.6-.44-.45-.9,.26-1.59-.09-1.86-.98-.59-1.91-.35-3.71,.91-5.31,.65-.82,1.58-1,2.5-.49,.48,.27,.74,.17,.91-.31,.29-.8,.57-1.59,.84-2.37-.19-.18-.29-.03-.41,.02-.99,.4-1.74,.03-2.02-.99-.45-1.66,.45-4.35,1.82-5.4,.89-.69,1.68-.73,2.55-.11,.24,.17,.43,.23,.7,.13,.39-.15,.78-.12,.98-.06-.53-1.07,.81-1.54,.87-2.46-.56,.04-1.19,.04-1.56-.56-.38-.63-.32-1.31-.14-1.98,.43-1.6,1.26-2.91,2.74-3.73,.99-.55,1.66-.43,2.58,.24,.44,.32,.95,.63,1.43-.13,.35-.56,.92-.98,1.39-1.46-.07-.07-.11-.14-.15-.14-1.63,.02-2.09-.63-1.48-2.15,.63-1.57,1.7-2.74,3.32-3.35,1.04-.39,1.73-.18,2.43,.63,.58,.67,1.24,.77,1.97,.29,.24-.15,.48-.3,.73-.44,.22-.12,.45-.23,.67-.35-.01-.23-.19-.18-.31-.22-1-.3-1.3-.96-.86-1.89,.62-1.31,3-2.71,4.45-2.58,.74,.07,1.33,.37,1.67,1.12,.33,.71,.91,1.06,1.73,.79,.11-.03,.22-.05,.33-.09,.39-.15,.94-.06,1.16-.44,.34-.57-.41-.62-.6-.95-.29-.5-.18-.92,.14-1.34,.91-1.19,3.39-1.68,4.69-.92,.41,.24,.65,.58,.75,1.07,.25,1.23,.86,1.67,1.92,1.5,.46-.07,.6-.22,.31-.67-.56-.86-.37-1.45,.56-1.88,.74-.35,1.52-.44,2.33-.24,.64,.16,1.08,.51,1.19,1.18,.06,.38,.26,.69,.42,1.02,.23,.47,1.05,.74,1.46,.48,.21-.14,.18-.3,.08-.51-.52-1.05-.42-1.42,.46-1.82,1.13-.52,2.07-.29,2.49,.62,.12,.26,.22,.52,.35,.77,.42,.78,.43,.78,1.42,.55-.17-.37-.6-.63-.45-1.1,.11-.34,.33-.59,.62-.78,.68-.46,1.38-.25,2.01,.58,.39,.52,.82,.79,1.46,.22-.63-.43-.82-.97-.3-1.6,.44-.53,1.05-.53,1.81-.01,.46,.31,.9,.51,1.38-.1-.35-.26-.86-.41-.79-1,.08-.71,.8-1.16,1.51-.91,.27,.09,.53,.21,.8,.26,.25,.05,.43-.11,.53-.33,.1-.23-.1-.28-.24-.36-.45-.27-.5-.66-.3-1.1,.2-.42,.5-.68,1.01-.6,.22,.03,.46,.06,.67,.02,.35-.06,.6-.17,.26-.61-.62-.81-.4-1.28,.61-1.51,.47-.11,1-.19,.29-.82-.45-.4-.29-.92,.25-1.18,.52-.25,.78-.44,.25-.97-.36-.35-.32-.79,.13-1.09,.38-.26,.69-.42,.04-.77-.42-.23-.51-.71-.13-1.08,.28-.28,.37-.43,0-.72-.45-.35-.39-.77-.04-1.18,.29-.34,.37-.6-.17-.83-.55-.24-.74-.7-.39-1.26,.28-.45,.24-.81-.26-1.04-.7-.31,.18-1.28-.6-1.48-.8-.2-.81-.65-.61-1.28,.09-.27-.1-.32-.34-.31-.67,.02-.84-.43-.77-.96,.05-.36-.03-.59-.29-.82-1.01-.86-1.99-1.77-3.04-2.58-.54-.41-.95-.75-1.13-1.5-.18-.78,.16-.79,.65-.78,1.24,.05,2.39,.48,3.48,1.03,5.74,2.91,8.97,7.74,9.91,13.94,1.27,8.37-1.93,15.08-8.53,20.18-3.65,2.83-8.03,3.87-12.51,4.55-3.14,.48-6.32,.71-9.44,1.34-5.6,1.13-9.76,4.39-13.02,8.93-2.49,3.48-4.16,7.33-5.38,11.42-2.05,6.91-2.2,13.98-2.01,21.09,.1,3.55,.29,7.09,.55,10.63,.06,.79-.14,1.11-.98,1.13-5.05,.17-10.1,.37-15.15,.59-.63,.03-.91-.18-.86-.81,.04-.51-.13-.79-.69-.81-.41-.02-.73-.3-.99-.61-.98-1.17-1.16-3.63-.36-4.92,.32-.52,.73-.92,1.35-1.1,.58-.16,1.02-1.49,.68-1.96-.14-.19-.3-.09-.46-.06-.65,.11-1.13-.2-1.44-.7-.95-1.51-1.16-3.13-.45-4.8,.42-.99,1.19-1.52,2.29-1.39,.41,.05,.49-.07,.5-.42,.03-.65,.09-1.3,.14-2.02Zm-.84,16.13c-.11,.07-.23,.13-.34,.2,.06,.23,.08,.61,.42,.44,.29-.15,.1-.44-.08-.63Zm2.08-28.14c-.06,0-.11-.02-.17-.03-.67,.11-.94,.37-.37,.96,.06,.01,.12,.03,.19,.04,.09-.15,.18-.31,.27-.46h0c.16-.14,.2-.31,.1-.51Zm.84,15.56l.06,.02v-.06s-.06,.04-.06,.04Zm-.18,3.24l-.06,.02,.05,.04v-.06Z"/><path d="M449.28,88.84c-.63,.58-.49,1.13-.12,1.61,.45,.58,.48,1.14-.04,1.61-.48,.44-1.01,.46-1.48-.13-.38-.47-.49,.04-.52,.25-.07,.41,.2,.75,.49,.98,.7,.54,.92,1.16,.37,1.88-.55,.72-1.21,.74-1.89,.03-.5,.98,.09,1.32,.75,1.63,1.11,.52,1.28,1.75,.35,2.45-.52,.39-1.01,.24-1.55-.11-.17,.67-.17,1.12,.61,1.23,.41,.05,.8,.18,1.21,.27,.98,.2,1.45,.85,1.28,1.78-.16,.91-.73,1.31-1.72,1.18-.31-.04-.75-.18-.68,.32,.04,.34-.11,1,.65,.89,.5-.07,1,.02,1.52-.1,1.12-.27,2,.34,2.19,1.42,.2,1.16-.28,1.8-1.56,2-.32,.05-.66,.12-.47,.49,.18,.35,.35,.92,.95,.72,.54-.18,1.09-.32,1.6-.62,1.15-.67,2.32-.37,2.86,.69,.54,1.06,.18,1.99-1.04,2.61-.33,.17-.62,.42-.36,.72,.35,.4,.77,.93,1.43,.68,.4-.16,.73-.45,1-.85,.77-1.13,1.97-1.48,2.88-.92,1.09,.67,1.37,1.83,.76,3.09-.12,.25-.55,.55-.08,.79,.38,.2,.85,.36,1.19-.16,.26-.4,.51-.77,.59-1.28,.16-.98,.57-1.89,1.65-2.13,1.08-.24,2.02,.21,2.76,.98,.77,.8,.55,1.69-.12,2.73,.76-.13,1.35-.18,1.9-.36,.51-.17,.55-.68,.45-1.13-.31-1.45,.23-2.5,1.49-3.2,1.14-.63,3.28-.45,4.19,.32,.72,.6,.72,1.37,.35,2.31,.88-.22,1.67-.33,2.38-.63,.53-.22,.67-.76,.47-1.37-.47-1.44-.06-2.47,1.28-3.19,1.41-.76,2.92-.9,4.46-.52,1.91,.48,2.3,1.63,1.1,3.27,1.08-.13,2.12-.25,3.15-.39,.53-.07,.78-.29,.57-.91-.35-1.06,0-1.85,.94-2.44,1.89-1.17,5.83-.7,7.37,.88,.7,.72,.61,1.58-.36,2.61,1.42,.3,2.76,.58,4.11,.86-.19-1.59,.43-2.4,2.02-2.65,2.18-.34,5.28,1.35,6.2,3.37,.27,.59,.25,1.16-.22,1.58-.54,.48-.26,.64,.19,.85,.37,.18,.74,.37,1.09,.59,.61,.39,1.11,.79,1.5-.32,.21-.61,.97-.76,1.64-.79,2.37-.08,5.39,2.48,5.71,4.85,.08,.59,.05,1.17-.52,1.53-.46,.29-.3,.54,0,.82,.26,.24,.53,.47,.74,.74,.39,.5,.76,.62,1.37,.28,.91-.5,1.83-.23,2.61,.35,1.74,1.29,2.86,2.98,3.11,5.17,.08,.66,0,1.35-.55,1.74-.6,.43-.47,.84-.16,1.29,.58,.83,.31,1.24-.56,1.63-5.3,2.36-10.59,4.76-15.86,7.17-.57,.26-.8,.16-1.09-.4-3.17-6.2-8.07-10.25-14.93-11.79-3.57-.8-7.11-.34-10.64,.3-4.02,.72-8.02,1.53-12.08,1.93-7.92,.79-15.26-.71-21.69-5.59-5.76-4.37-9.38-10.17-10.95-17.23-1.47-6.62-.66-12.95,2.88-18.81,3.43-5.68,8.39-9.33,15-10.35,7.66-1.18,15.16,2.25,18.2,9.82,1.01,2.52,1.28,5.12,.53,7.78-.1,.36-.26,.73-.45,1.05-.32,.54-.59,.68-1.13,.07-.52-.58-.68-1.16-.81-1.88-.26-1.45-.71-2.86-1.21-4.25-.15-.42-.48-.55-.86-.66-.53-.15-.98-.42-.72-1.09,.18-.47-.16-.39-.39-.4-.59-.04-.97-.28-.96-.94,0-.24-.03-.5-.31-.51-.6-.03-.99-.28-1.28-.82-.18-.34-.56-.23-.86-.08-.62,.31-1.09,.16-1.27-.49-.17-.6-.46-.54-.82-.26-.51,.4-.96,.49-1.36-.12-.25-.38-.39-.13-.57,.07-.51,.56-.99,.43-1.27-.19-.27-.59-.44-.3-.6,0-.41,.78-.84,.89-1.43,.16-.25-.32-.51-.19-.77,.35-.45,.93-.64,.99-1.43,.4-.52-.38-.58,.06-.63,.38-.25,1.42-.4,1.51-1.56,.82-.3-.18-.43-.04-.47,.2-.04,.25-.06,.53,.02,.76,.22,.65,.25,1.21-.5,1.5-.69,.27-1.06-.11-1.21-.79Zm53.08,26.58c.11-.04,.22-.08,.33-.11,.02-.26-.16-.36-.37-.43-.37,.22-.35,.4,.06,.55h-.01Z"/><g><polyline id="polyline1310" class="cls-1" points="500.19 171.35 505.01 174.22 510.15 176.31 515.59 177.62 523.94 178.06 532.18 176.6 538.69 174.3 544.56 170.35 549.38 173.22 557.24 176.1 568.35 177.09 576.59 175.68 584.32 172.46 589.01 169.38 596.36 173.4 604.41 175.69 612.76 176.13 620.99 174.72 628.73 171.5 633.42 168.42 641.9 173.35 651.6 175.06 657.21 175.17 665.45 173.75 673.18 170.54 677.86 167.46 677.7 160.24 673.02 163.28 667.93 165.63 659.83 167.62 651.45 167.8 644.34 166.87 638.08 164.04 633.26 161.2 626.09 165.49 619.28 168.05 615.38 168.58 607 168.76 598.81 167.13 592.51 164.45 588.85 162.17 581.68 166.45 576.43 168.42 570.97 169.54 562.59 169.72 554.4 168.09 549.22 165.97 544.41 163.13 537.24 167.41 529.29 170.06 526.56 170.5 518.18 170.73 509.99 169.05 504.85 166.96 500.03 164.13 500.19 171.35"/><polyline id="polyline1312" class="cls-1" points="521.12 163.59 499.21 131.46 531.77 130.76 535.31 123.46 549.91 123.14 553.97 115.83 538.82 116.15 545.52 102.26 561.62 101.91 573.73 82.59 577.44 82.51 575.17 89.97 581.26 89.84 581.37 94.91 573.61 95.08 572.83 101.82 579.06 108.03 624.36 107.04 634.43 88.79 649.22 88.47 649.61 106.5 657.88 106.32 661.94 113.49 568.72 115.51 566.48 122.78 666.03 120.62 670.09 127.76 677 127.61 677.55 152.98 672.86 156.02 665.13 159.24 656.9 160.65 648.53 160.21 643.1 158.91 637.92 156.78 633.1 153.95 625.93 158.23 617.99 160.88 612.45 161.61 604.09 161.18 596.05 158.88 588.7 154.91 581.52 159.19 573.59 161.84 565.26 162.64 556.93 161.58 549.06 158.7 544.25 155.87 537.19 160.12 529.33 162.76 526.64 163.24 521.12 163.59"/></g></g></svg>