<?xml version="1.0" encoding="UTF-8"?><svg id="Layer_1" xmlns="http://www.w3.org/2000/svg" viewBox="0 0 545 545"><defs><style>.cls-1{fill:#fefefe;}.cls-2{fill:#e81179;}</style></defs><circle class="cls-2" cx="272.5" cy="272.5" r="272.5"/><path class="cls-1" d="M276.32,461.1c-40.8,.16-74.97-6.15-106.17-24.53-28.67-16.88-46.84-41.82-56.07-73.59-1.02-3.52-.09-4.65,3.35-5.37,25.89-5.4,51.74-10.96,77.59-16.52,2.57-.55,4.2-.44,5.15,2.66,8.14,26.69,27.31,40.5,53.89,44.94,17.38,2.91,34.83,2.9,52.02-1.75,8.88-2.4,16.58-6.83,22.76-13.73,12.88-14.4,9.69-34.81-7.15-44.21-11.3-6.31-23.79-9.4-36.31-12.15-25.82-5.69-51.84-10.55-76.72-19.85-12.66-4.73-24.91-10.24-36.29-17.62-24.87-16.12-37.13-39.65-38.65-68.59-2.93-55.61,26.26-99.33,79.5-116.65,47.54-15.47,95.32-13.36,141.62,5.83,30.92,12.81,51.61,36.3,64.35,67.03,1.31,3.17,1.42,4.93-2.58,6.15-23.85,7.3-47.61,14.87-71.4,22.37-2.02,.64-3.63,1.18-4.69-1.61-10.69-28.29-32.49-39.95-61.44-40.53-11.68-.23-23.32,.47-34.48,4.46-12.85,4.59-19.66,13.15-20.14,25.14-.5,12.49,5.77,22.44,17.95,27.93,14.39,6.49,29.9,8.95,45.21,12.04,24.63,4.98,49.3,9.97,72.76,19.15,35.26,13.81,59.38,38.46,68.17,75.84,6.37,27.07,1.44,53.06-12.96,76.84-19.62,32.42-48.93,51.46-85.45,59.95-6.96,1.62-14.01,2.92-21.08,3.95-12.54,1.83-25.19,2.48-32.77,2.41Z"/></svg>