<?xml version="1.0" encoding="UTF-8"?><svg id="Layer_1" xmlns="http://www.w3.org/2000/svg" viewBox="0 0 127 127"><defs><style>.cls-1{fill:none;}.cls-2{opacity:.5;}</style></defs><circle class="cls-1" cx="63.5" cy="63.5" r="63.5"/><g id="Sui" class="cls-2"><path d="M63.32,126c-10.09-.24-19.07-3.43-26.94-9.85-6.05-4.93-10.17-11.16-12.98-18.33-2.22-5.66-2.96-11.56-2.68-17.61,.31-6.88,2.35-13.25,5.73-19.22,3.58-6.33,7.17-12.66,10.77-18.97,4.08-7.16,8.18-14.3,12.26-21.45,3.17-5.55,6.31-11.12,9.47-16.67,1.43-2.52,3.8-3.47,6.36-2.57,1.12,.39,1.91,1.11,2.5,2.15,4.01,7.07,8.05,14.12,12.07,21.18,3.79,6.65,7.57,13.32,11.36,19.97,3.34,5.87,6.73,11.7,9.99,17.62,2.72,4.95,4.32,10.29,4.89,15.93,1.19,11.8-2.1,22.29-9.27,31.62-5.94,7.73-13.85,12.48-23.18,14.96-3.37,.9-6.83,1.25-10.33,1.24Zm.83-9.15c1.02-.1,2.7-.21,4.36-.45,5.77-.82,10.94-3.08,15.57-6.61,.88-.67,1.47-1.5,1.67-2.57,.35-1.84,.77-3.67,.92-5.53,.29-3.54-.16-7.03-1.63-10.27-2.06-4.55-5.54-7.93-9.61-10.7-3.48-2.36-7.36-3.96-11.23-5.57-5.29-2.19-10.18-5.07-14.14-9.26-3.63-3.83-6.21-8.27-7.22-13.52-.05-.28-.34-.51-.51-.76-.21,.19-.5,.35-.63,.59-1.92,3.4-3.77,6.86-5.75,10.23-2.38,4.06-4.5,8.2-5.5,12.85-1.24,5.75-1.09,11.45,.6,17.08,1.75,5.82,4.77,10.85,9.21,15.05,6.53,6.18,14.27,9.29,23.9,9.44Zm33.25-34.31c-.2-2.03-.32-4.06-.62-6.08-.62-4.12-2.28-7.87-4.32-11.45-6.31-11.12-12.65-22.21-18.99-33.31-2.43-4.26-4.88-8.5-7.35-12.74-.3-.52-.7-.99-1.14-1.4-.82-.77-1.82-.87-2.71-.2-.58,.43-1.11,1.01-1.48,1.63-1.88,3.21-3.73,6.44-5.55,9.68-3.08,5.49-4.52,11.38-4.27,17.67,.26,6.47,3.27,11.51,8.22,15.47,2.92,2.34,6.23,4.04,9.72,5.4,4.45,1.74,8.71,3.85,12.62,6.63,6.61,4.68,11.41,10.63,13.28,18.69,.05,.24,.34,.42,.51,.63,.18-.22,.44-.41,.52-.67,1.02-3.23,1.47-6.55,1.55-9.95Z"/></g></svg>