<?xml version="1.0" encoding="UTF-8"?><svg id="Layer_1" xmlns="http://www.w3.org/2000/svg" viewBox="0 0 87.18 87.18"><defs><style>.cls-1{fill:#fff;}.cls-2{fill:#7cc1d7;}.cls-3{fill:#7fb2d1;}.cls-4{fill:#80a9cc;}.cls-5{fill:#80b7d5;}.cls-6{fill:#80cecb;}.cls-7{fill:#80cfcd;}.cls-8{fill:#80ceca;}.cls-9{fill:#80d0d9;}.cls-10{fill:#80cadf;}.cls-11{fill:#7dbbd4;}.cls-12{fill:#7dcfdd;}.cls-13{fill:#9999ca;}.cls-14{fill:#999bcc;}.cls-15{fill:#97b5dd;}.cls-16{fill:#99a0d0;}.cls-17{fill:#96d4f0;}.cls-18{fill:#97a0cf;}.cls-19{fill:#7fa6ca;}.cls-20{fill:#7faecf;}.cls-21{fill:#7bc6da;}.cls-22{fill:#7bcbdc;}.cls-23{fill:#8abbdb;}.cls-24{fill:#8b9ac8;}.cls-25{fill:#8ad4e1;}.cls-26{fill:#a1afda;}.cls-27{fill:#91bcdf;}.cls-28{fill:#9f9ece;}.cls-29{fill:#9ecff0;}.cls-30{fill:#91d6ea;}.cls-31{fill:#92a2ce;}.cls-32{fill:#9fa2d1;}.cls-33{fill:#83d0d3;}.cls-34{fill:#83d0d6;}.cls-35{fill:#83d1e0;}.cls-36{fill:#83c5dd;}.cls-37{fill:#86b7d7;}.cls-38{fill:#83cfe2;}.cls-39{fill:#a099cb;}.cls-40{fill:#83bcd8;}.cls-41{fill:#939ecc;}.cls-42{fill:#86d2da;}.cls-43{fill:#86cbe3;}.cls-44{fill:#86d2e4;}.cls-45{fill:#85b6d7;}.cls-46{fill:#93a8d3;}.cls-47{fill:#85add1;}.cls-48{fill:#85b1d4;}.cls-49{fill:#c1aad2;}.cls-50{fill:#b8a6d1;}.cls-51{fill:#b8a7d1;}.cls-52{fill:#b69ecb;}.cls-53{fill:#bb9ecb;}.cls-54{fill:#bb9fcb;}.cls-55{fill:#8ab3d6;}.cls-56{fill:#b8afd6;}.cls-57{fill:#b8a2cd;}.cls-58{fill:#9d9ece;}.cls-59{fill:#b5c3e4;}.cls-60{fill:#b99ac9;}.cls-61{fill:#b8c1e2;}.cls-62{fill:#9da2d1;}.cls-63{fill:#8ba2cd;}.cls-64{fill:#9cb3dc;}.cls-65{fill:#8ba7cf;}.cls-66{fill:#a19acb;}.cls-67{fill:#b9afd6;}.cls-68{fill:#8fbfe0;}.cls-69{fill:#91a7d2;}.cls-70{fill:#c2aad2;}.cls-71{fill:#8fb2d8;}.cls-72{fill:#8ed6e7;}.cls-73{fill:#b4a3cf;}.cls-74{fill:#b3b0d8;}.cls-75{fill:#b4abd4;}.cls-76{fill:#90add5;}.cls-77{fill:#9099c9;}.cls-78{fill:#b699c8;}.cls-79{fill:#c1bbdd;}.cls-80{fill:#b79ecb;}.cls-81{fill:#b795c5;}.cls-82{fill:#b58ec1;}.cls-83{fill:#b793c4;}.cls-84{fill:#98a6d3;}.cls-85{fill:#8cd5e4;}.cls-86{fill:#8d9eca;}.cls-87{fill:#8da2cd;}.cls-88{fill:#8dacd3;}.cls-89{fill:#8bb7da;}.cls-90{fill:#8d95c6;}.cls-91{fill:#8bc5e2;}.cls-92{fill:#b899c7;}.cls-93{fill:#92b8de;}.cls-94{fill:#84d1d6;}.cls-95{fill:#aca7d2;}.cls-96{fill:#a99ecd;}.cls-97{fill:#a9aad5;}.cls-98{fill:#b3a5d1;}.cls-99{fill:#b3a9d3;}.cls-100{fill:#a8caeb;}.cls-101{fill:#b2aed6;}.cls-102{fill:#b1c6e6;}.cls-103{fill:#bda3ce;}.cls-104{fill:#bda6d0;}.cls-105{fill:#aaa4d1;}.cls-106{fill:#a79ece;}.cls-107{fill:#b19fcd;}.cls-108{fill:#adb1d9;}.cls-109{fill:#aea8d3;}.cls-110{fill:#b39bca;}.cls-111{fill:#a5a4d1;}.cls-112{fill:#a3cdee;}.cls-113{fill:#afabd5;}.cls-114{fill:#afa4d0;}.cls-115{fill:#af9dcc;}.cls-116{fill:#bca3ce;}.cls-117{fill:#bc99c7;}.cls-118{fill:#c1a1cc;}.cls-119{fill:#c1a4ce;}.cls-120{fill:#bcabd3;}.cls-121{fill:#a6a1cf;}.cls-122{fill:#bdabd3;}.cls-123{fill:#bfafd5;}.cls-124{fill:#c0a4ce;}.cls-125{fill:#bf9eca;}.cls-126{fill:#bebedf;}.cls-127{fill:#ccb1d5;}.cls-128{fill:#c6b6d9;}.cls-129{fill:#c9b2d6;}.cls-130{fill:#d0b0d4;}.cls-131{fill:#c4b9dc;}.cls-132{fill:#ac9bca;}.cls-133{fill:#acc8e9;}.cls-134{fill:#ada2cf;}.cls-135{fill:#c8b3d7;}.cls-136{fill:#a7b1da;}.cls-137{fill:#a8acd6;}.cls-138{fill:#88d3dd;}.cls-139{fill:#94b2da;}.cls-140{fill:#a3a4d2;}.cls-141{fill:#a39ecd;}.cls-142{fill:#9bacd6;}.cls-143{fill:#9ba7d3;}.cls-144{fill:#9497c9;}.cls-145{fill:#93d6ed;}.cls-146{fill:#949dcc;}.cls-147{fill:#a2a9d5;}.cls-148{fill:#a2a8d5;}.cls-149{fill:#96acd6;}.cls-150{fill:#89a7cf;}.cls-151{fill:#85d1d9;}.cls-152{fill:#85d2dd;}.cls-153{fill:#869bc6;}.cls-154{fill:#86a1ca;}.cls-155{fill:#89add3;}.cls-156{fill:#88c1de;}.cls-157{fill:#87b3d5;}.cls-158{fill:#87d2dd;}.cls-159{fill:#87d3e1;}.cls-160{fill:#8897c5;}.cls-161{fill:#86a8ce;}.cls-162{fill:#9ad2f0;}.cls-163{fill:#81a2c8;}.cls-164{fill:#81cfd0;}.cls-165{fill:#81cfd1;}.cls-166{fill:#839ec7;}.cls-167{fill:#82d1df;}.cls-168{fill:#82d0d3;}.cls-169{fill:#81c2db;}.cls-170{fill:#81cbdf;}.cls-171{fill:#82bcd8;}</style></defs><circle class="cls-1" cx="43.48" cy="38.91" r="38.64"/><g><path class="cls-1" d="M0,.04c28.47,0,56.94,.01,85.41-.04,1.48,0,1.78,.29,1.78,1.78-.06,27.88-.06,55.75,0,83.63,0,1.48-.29,1.78-1.78,1.78-28.47-.06-56.94-.04-85.41-.04,0-29.03,0-58.07,0-87.1Z"/><path class="cls-135" d="M37.68,68.54c-1.23,.03-2.35-.38-3.43-.91-.72-.64-1.13-1.46-1.48-2.35-3.44-8.92-6.83-17.86-10.18-26.81-.37-.99-.87-2.03-.05-3.06,1.52-.58,2.82-.1,4.04,.82,2.19,5.83,4.79,11.5,6.64,17.46,.72,2.32,1.85,4.51,2.78,6.76,.85,2.06,1.43,4.21,2.19,6.3,.21,.59,.76,1.52-.51,1.79Z"/><path class="cls-127" d="M29.48,65.47c-1.88-1.1-3.86-2.06-5.22-3.87-3.04-7.28-5.81-14.66-8.54-22.06-.51-1.37-1.62-2.61-1.23-4.25,.11-.22,.28-.38,.5-.49,1.19-.33,2.37-.39,3.55,.09,1.77,2.84,2.62,6.07,3.79,9.15,2.38,6.28,4.78,12.55,7.26,18.79,.31,.77,1.48,1.85-.12,2.64Z"/><path class="cls-8" d="M72.35,36.44c.5,5.71-.37,11.17-2.95,16.32-.35,.7-.58,1.48-1.29,1.95-1.1-.05-1.36-.94-1.69-1.73-.97-2.25-1.81-4.55-2.81-6.78-.16-.54,.01-1.02,.22-1.5,.38-.79,.91-1.48,1.33-2.25,.28-.49,.57-.98,.89-1.45,.54-.77,1-1.6,1.7-2.24,.52-.4,1-.86,1.52-1.25,.48-.31,.95-.64,1.44-.95,.54-.23,1.07-.62,1.65-.11Z"/><path class="cls-130" d="M14.75,35.16c1.15,3.16,2.26,6.33,3.45,9.48,1.84,4.83,3.75,9.63,5.61,14.46,.31,.8,.59,1.63,.45,2.52-5.55-4.73-8.55-10.85-9.97-17.9-.58-2.86-.39-5.72-.37-8.6,.29-.24,.56-.2,.82,.04Z"/><path class="cls-129" d="M22.54,35.58c.2,2.85,1.52,5.35,2.5,7.95,3.02,8.05,6.13,16.07,9.21,24.1-1.09-.24-2.2-.44-3.04-1.28-2.08-5.98-4.4-11.86-6.67-17.77-1.29-3.36-2.49-6.75-3.82-10.1-.41-1.03-1.04-2.1-.51-3.31,.34-.38,.78-.43,1.25-.36,.46,.11,.84,.34,1.08,.77Z"/><path class="cls-129" d="M20.38,35.16c.4,2.96,1.89,5.55,2.89,8.31,2.22,6.13,4.55,12.22,6.77,18.35,.53,1.46,2.23,2.65,1.18,4.53-.7-.05-1.28-.34-1.73-.87,.56-1.93-.82-3.34-1.42-4.93-3.04-8.13-6.19-16.22-9.29-24.33-.12-.32-.09-.71-.13-1.06,.58-.51,1.16-.51,1.73,0Z"/><path class="cls-131" d="M40.74,68.95l-.86-.04c-1.74-1.32-2.05-3.46-2.73-5.28-2.87-7.66-5.82-15.28-8.72-22.93-.42-1.12-1.12-2.24-.31-3.49,.95-.41,1.59,.03,2.12,.78,3.24,8.86,6.44,17.73,10.25,26.37,.53,1.19,.84,2.46,.87,3.77,0,.37,.11,.93-.61,.82Z"/><path class="cls-79" d="M40.74,68.95c.33-1.53-.05-3.04-.72-4.29-2.28-4.23-3.54-8.85-5.31-13.27-1.51-3.76-2.93-7.56-4.36-11.35-.22-.59-.29-1.24-.43-1.87,1.15-.31,1.7,.4,2.15,1.27,3.24,9.23,6.98,18.27,10.42,27.42,.29,.78,1.19,1.64,0,2.47-.62,0-1.27,.22-1.76-.37Z"/><path class="cls-128" d="M28.18,37.3c.16,2.87,1.62,5.33,2.6,7.93,2.98,7.91,6.06,15.79,9.09,23.68-.74-.05-1.56,.28-2.2-.38,.81-.78,.02-1.49-.19-2.14-1.22-3.93-3.06-7.64-4.37-11.53-1.82-5.39-4.13-10.58-6.06-15.92-.29-.8-.42-1.66-.62-2.49,.16-.13,.35-.19,.56-.18,.52,.2,1.28,.12,1.18,1.03Z"/><path class="cls-126" d="M42.5,69.33c-.17-2.76-1.68-5.09-2.6-7.6-2.59-7.11-5.41-14.14-8.12-21.21-.12-.32-.09-.71-.12-1.06,1.12-.27,1.69,.38,2.11,1.27,1.87,4.97,3.63,9.98,5.63,14.9,1.35,3.33,2.65,6.68,3.91,10.04,.41,1.1,.75,2.18,1.84,2.81,.18,.13,.31,.29,.42,.48-.94,.77-2.04,.29-3.07,.37Z"/><path class="cls-102" d="M49.02,68.52c-.78,.73-1.75,.31-2.63,.41-.68-.35-1.07-.92-1.34-1.63-2.7-7.08-5.6-14.08-8.08-21.24-.27-.77-.81-1.62,.05-2.4,.8-.23,1.29,.27,1.79,.75,.3,.34,.52,.74,.66,1.17,2.21,7.21,5.4,14.06,7.91,21.15,.18,.51,.5,.86,.93,1.14,.29,.15,.54,.34,.7,.63Z"/><path class="cls-100" d="M49.02,68.52c-.3,0-.6,0-.89-.01-2.73-6.53-5.07-13.22-7.71-19.8-.22-.56-.72-1.34,.03-1.99,1.19-.28,1.77,.66,2.53,1.26,.11,.19,.18,.39,.2,.6-.09,.74,.05,1.46,.34,2.12,2.21,5.01,3.86,10.25,5.92,15.32,.28,.69,.68,1.26,1.18,1.78,.04,.09,.08,.19,.13,.28-.45,.6-1.12,.38-1.71,.44Z"/><path class="cls-168" d="M68.05,19.17c.61-.16,1.21-.39,1.84-.48,1.71-.25,2.73,.23,2.56,2.26-.15,1.83-.07,3.68-.09,5.53-.67,.75-1.49,1.1-2.5,.98-.18-.13-.31-.29-.4-.49-.15-2.09-.51-4.1-1.61-5.94-.34-.57-.74-1.34,.21-1.85Z"/><path class="cls-59" d="M37.26,43.81c-.72,.72-.02,1.39,.19,1.97,2.79,7.79,5.75,15.51,8.93,23.15-.27,.01-.55,.02-.82,.03-.16,0-.32-.01-.48-.02-.8-.7-1.11-1.68-1.46-2.62-2.47-6.53-4.89-13.08-7.51-19.56-.38-.94-.6-1.92-.97-2.86-.2-.52-.39-1.12,.25-1.55,1,0,1.81,.26,1.87,1.46Z"/><path class="cls-7" d="M63.73,45.97c1.55,1.49,1.69,3.65,2.59,5.44,.56,1.12,.81,2.4,1.79,3.3-.07,.97-.97,1.37-1.41,2.09-1.34,.54-1.56-.6-1.92-1.36-1.1-2.32-1.75-4.82-2.69-7.21,.03-1.12,.32-2.06,1.64-2.25Z"/><path class="cls-17" d="M54.62,66.77c-.3,.48-.79,.44-1.25,.46-1,.17-1.48-.49-1.7-1.26-1.29-4.54-3.53-8.73-4.82-13.27-.14-.48-.28-.96-.13-1.47,.69-.6,1.29-.22,1.89,.17,.16,.16,.29,.34,.4,.54,1.86,4.94,4.03,9.78,5.62,14.83Z"/><path class="cls-7" d="M72.35,36.44c-.56,.14-1.12,.29-1.68,.43-1.49-2.38-2.6-4.94-3.4-7.63,.04-.46,.23-.84,.52-1.18,.58-.49,1.13-1.05,2.01-.72h0c1.52,1.57,2.14,3.55,2.55,5.62,0,1.16,0,2.33,0,3.49Z"/><path class="cls-162" d="M46.82,51.17c1.55,4.97,4.01,9.62,5.26,14.69,.16,.66,.68,1.07,1.28,1.37-.32,.46-.82,.41-1.29,.45-1.12,.11-1.18-.85-1.47-1.51-1.89-4.26-3.29-8.7-5.03-13.01-.35-.86-.94-1.91,.31-2.65,.49-.02,.99-.05,.95,.67Z"/><path class="cls-94" d="M64.21,59.92c-.46,.69-1.04,1.27-1.75,1.71-.45-.11-.78-.42-.93-.81-1.13-2.97-2.58-5.83-3.28-8.97,.13-.59,.52-.99,.96-1.35,.39-.26,.78-.46,1.26-.22,1.79,3,2.86,6.29,3.74,9.64Z"/><path class="cls-145" d="M54.62,66.77c-1.67-1.06-1.46-3.02-2.11-4.55-1.42-3.35-2.64-6.79-3.94-10.2,.7-.51,1.29-.29,1.85,.25,1.7,3.33,2.59,6.99,4.13,10.4,.48,1.06,.92,2.1,1.71,2.96,.04,.1,.08,.2,.12,.3-.46,.53-1.07,.77-1.75,.85Z"/><path class="cls-34" d="M69.8,27.34c-.58,.29-1.16,.58-1.73,.87-.97-.38-1.01-1.37-1.37-2.14-.58-2-1.45-3.98-.36-6.08,.55-.31,.98-.9,1.72-.82-.44,.69-.03,1.26,.31,1.79,1.27,1.96,1.67,4.09,1.44,6.38Z"/><path class="cls-29" d="M45.97,50.73c-.75,.54-.29,1.15-.07,1.72,1.83,4.8,3.67,9.6,5.53,14.38,.12,.31,.42,.56,.64,.83-.35,.47-.86,.39-1.34,.4,0,0-.02-.03-.02-.03-1.41-1.55-1.67-3.61-2.43-5.45-1.51-3.64-2.84-7.34-4.29-11-.26-.66-.65-1.3-.37-2.06,1.02-.8,1.64,.01,2.34,.56,.15,.2,.15,.41,.02,.62Z"/><path class="cls-53" d="M13.94,23.01c0-.72,0-1.44,0-2.17,.99-.74,1.96-.08,2.93,.05,1.26,.44,2.53,.84,3.8,1.21,.77,.23,1.38,.68,1.69,1.45,.34,1.39-1.1,1.51-1.64,2.28-.41,.18-.82,.16-1.22-.03-.95-1.03-2.27-1.33-3.53-1.76-.73-.25-1.49-.43-2.03-1.04Z"/><path class="cls-85" d="M59.38,64.17c-.45,.51-1.02,.82-1.68,.96-2.46-3.78-4.04-7.9-4.78-12.35,.53-.36,1.08-.36,1.64-.1,1.16,1.09,1.46,2.63,1.94,4.04,.85,2.53,2.11,4.9,2.88,7.46Z"/><path class="cls-42" d="M58.53,51.63c1.31,3.33,2.62,6.67,3.93,10.01-.29,.28-.57,.55-.86,.83-1.07,.19-1.37-.66-1.65-1.35-1.1-2.73-2.32-5.41-3.09-8.26,0-.22,.03-.43,.11-.64,.2-.42,.57-.61,.99-.74,.21-.03,.41,.02,.58,.16Z"/><path class="cls-72" d="M52.89,52.95c1.6,4.06,3.21,8.12,4.81,12.18-.31,.48-.74,.77-1.33,.8,0,0-.02-.04-.02-.04-2.05-3.86-3.43-7.99-4.88-12.09-.12-.34-.08-.71,.16-1.02,.46-.25,.89-.24,1.27,.17Z"/><path class="cls-164" d="M62.43,48.14c1.5,2.21,1.67,4.95,2.92,7.27,.35,.64,.46,1.35,1.36,1.39-.27,.95-.83,1.68-1.66,2.22-2.12-2.93-3.16-6.29-3.9-9.78,.07-.47,.27-.86,.66-1.15,.22-.13,.43-.11,.63,.04Z"/><path class="cls-138" d="M57.22,52.47c1.1,2.91,2.19,5.82,3.3,8.73,.2,.54,.49,1.03,1.07,1.26-.37,.72-1.11,.96-1.75,1.33-1.96-3.41-3.52-6.96-4.1-10.9,.39-.52,.82-.86,1.48-.42Z"/><path class="cls-25" d="M55.93,52.92c1.3,3.62,2.61,7.25,3.91,10.87-.15,.13-.31,.26-.46,.38-1.84-1.38-1.95-3.7-2.79-5.57-.8-1.78-1.59-3.68-1.97-5.67,.2-.27,.48-.34,.8-.32,.2,.05,.37,.15,.5,.3Z"/><path class="cls-33" d="M61.56,49c.59,3.54,2.46,6.63,3.48,10.02-.28,.3-.56,.6-.84,.9-1.89-2.97-2.53-6.45-3.95-9.61-.24-.43,.02-.73,.26-1.04,.31-.25,.61-.5,1.04-.26Z"/><path class="cls-124" d="M16.91,21.27c-.99-.14-1.99-.29-2.98-.43-.37-2.54,1.51-2.07,2.95-2.19,1.1-.25,2.2-.44,3.27,.15,.45,.67,.72,1.37,.31,2.16-1.1,1.09-2.33,.63-3.55,.31Z"/><path class="cls-151" d="M66.33,19.99c-.07,2.07,.18,4.09,.87,6.05-.6,.77-1.35,.99-2.26,.62-1.22-1.28-2.08-2.67-1.2-4.51,.6-1.04,1.53-1.69,2.6-2.15Z"/><path class="cls-49" d="M19.94,19.11c-.92-.84-2.05-.25-3.07-.45,3.37-.71,6.72-.77,10.03,.35,.57,.53,1.03,1.09,.49,1.91-2.76,.52-5.11-.61-7.45-1.81Z"/><path class="cls-152" d="M63.73,22.14c-.32,1.67,.83,2.9,1.3,4.33,.03,.7-.35,1.21-.83,1.66-.57,.43-1.19,.57-1.86,.25-.81-.62-.97-1.45-.8-2.39,.4-1.47,1.17-2.73,2.2-3.85Z"/><path class="cls-92" d="M13.94,23.01c1.65,.11,3.08,.94,4.64,1.34,.63,.16,.9,.63,.93,1.26-.46,.51-1.08,.55-1.7,.6-1.3,.02-2.63,.9-3.88-.18v-3.02Z"/><path class="cls-125" d="M13.93,28.65c0-.72,0-1.44,0-2.17,2.28-.12,3.83,1.28,5.39,2.63,.17,.46,.15,.9-.13,1.32-.37,.33-.81,.4-1.28,.36-1.5-.39-2.74-1.27-3.98-2.15Z"/><path class="cls-6" d="M72.35,32.96c-.83-1.88-1.99-3.61-2.55-5.61,.85-.29,1.7-.58,2.55-.86,0,2.16,0,4.32,0,6.48Z"/><path class="cls-122" d="M27.31,20.84c-.14-.61-.27-1.22-.41-1.83,.93,.12,1.9,.15,2.58,.94,1.1,.81,2.13,1.66,1.55,3.28-.77,.3-1.47,0-2.18-.26-.72-.56-2.06-.68-1.54-2.13Z"/><path class="cls-117" d="M13.93,28.65c1.59-.12,2.51,1.27,3.84,1.73,.48,.49,.93,.99,.52,1.75-1.12,.47-2.1-.41-3.18-.34-.45-.05-.85-.21-1.18-.53,0-.87,0-1.73,0-2.6Z"/><path class="cls-83" d="M13.93,31.25c.41,0,.83,0,1.24,0,.89,.44,1.86,.72,2.7,1.29,.68,.47,1.38,1.07,1.2,1.88-.21,.98-1.21,.33-1.83,.51-1.24-.59-2.52-1.12-3.31-2.36,0-.44,0-.88,0-1.31Z"/><path class="cls-56" d="M31.21,23.01c-.58-1.02-1.15-2.03-1.73-3.05,1.78,.52,3.21,1.55,4.36,3,.21,.5-.06,.83-.43,1.11-.67,.3-1.29,.16-1.88-.23-.26-.22-.47-.46-.32-.83Z"/><path class="cls-169" d="M57.62,32.89c.03-.34,.13-.63,.47-.78,.66-.48,1.26-.34,1.82,.19,.41,.52,.55,1.14,.66,1.78-.19,.84,.81,1.66,.06,2.52-.88,.26-1.34-.42-1.91-.85-.61-.86-1.64-1.56-1.09-2.86Z"/><path class="cls-118" d="M19.08,29.07c-1.71-.87-3.43-1.73-5.14-2.6,0-.15,0-.3,0-.45,1.32,.23,2.56-.33,3.85-.42,.35,1.39,1.65,2.11,2.27,3.31-.08,.2-.23,.32-.43,.37-.21,0-.39-.07-.54-.22Z"/><path class="cls-170" d="M59.83,32.54c-.54-.3-1.1-.5-1.74-.44,.44-.72,.88-1.44,1.32-2.16,.72-.52,1.41-.51,2.09,.08,.14,.16,.23,.35,.27,.55-.16,.87-.22,1.77-.72,2.54-.61,.25-.93-.14-1.22-.58Z"/><path class="cls-35" d="M61.56,30.37c-.66-.41-1.39-.49-2.15-.43,.71-1.32,1.41-2.64,2.12-3.96,.3,.74,.6,1.48,.9,2.22,.23,.93-.29,1.56-.87,2.17Z"/><path class="cls-97" d="M37.31,26.4c1.13,.9,2.15,1.91,3.03,3.07,.22,.47-.03,.76-.38,1.02-.54,.16-1-.06-1.45-.3-.58-.4-1.07-.9-1.48-1.48-.3-.54-.57-1.09-.39-1.73,.14-.3,.35-.5,.68-.57Z"/><path class="cls-171" d="M57.62,32.89c.09,1.07,1.05,1.71,1.34,2.68,.31,.27,.77,.48,.38,1.01-.76,.42-1.46,.1-2.17-.18-.68-.39-1.17-.92-1.3-1.73,.58-.6,1.17-1.19,1.75-1.79Z"/><path class="cls-147" d="M39.89,30.37c.15-.3,.3-.61,.45-.91,1.3,1.16,2.6,2.33,3.91,3.5-.44,.91-1.2,.55-1.89,.49-.3-.06-.59-.17-.84-.35-.5-.93-1.52-1.56-1.62-2.72Z"/><path class="cls-143" d="M42.49,32.97c.59,.02,1.17,.42,1.76-.01,.87,.58,1.74,1.16,2.61,1.73-.21,.39-.56,.58-.95,.73-.3,.09-.61,.11-.92,.07-.92-.22-1.83-.45-2.37-1.34-.18-.38-.37-.76-.12-1.18Z"/><path class="cls-101" d="M37.31,26.4c-.15,.17-.31,.34-.46,.51-.76,.22-1.2-.47-1.82-.64-.8-.62-1.62-1.24-1.64-2.39,.15-.31,.31-.61,.46-.92,1.3,1,2.46,2.14,3.47,3.44Z"/><path class="cls-46" d="M45.95,35.14c.19-.36,.53-.43,.9-.45,.86,.31,1.72,.63,2.57,.94,.29,.26,.58,.53,.6,.96-.06,.43-.28,.74-.68,.93-.3,.09-.6,.08-.9-.04-.78-.84-2.28-.91-2.49-2.35Z"/><path class="cls-82" d="M13.94,32.56c1,.7,2.45,.78,2.97,2.14-.65,.51-1.52-.09-2.16,.42,0,0,0,.03,0,.03-.27-.01-.55-.03-.82-.04,0-.85,0-1.7,.01-2.56Z"/><path class="cls-157" d="M52.89,36.04c.5-.34,1.05-.51,1.66-.51,1.27-.17,1.7,.73,2.11,1.65,.04,.33-.01,.64-.22,.91-1.52,.3-2.33-1.06-3.53-1.5-.13-.18-.14-.36-.01-.55Z"/><path class="cls-37" d="M56.36,37.31c-.43-.76-1.03-1.36-1.81-1.78,.32-.48,.75-.78,1.32-.85,.71,.18,.8,.98,1.35,1.33,.34,.41,.4,.85,.11,1.32-.33,.22-.66,.24-.98-.02Z"/><path class="cls-88" d="M52.89,36.04c0,.13,0,.27,0,.4,.25,.28,.26,.59,.1,.92-.16,.16-.36,.26-.58,.32-1.13,.16-1.93-.37-2.56-1.24-.33-.17-.42-.46-.43-.8,1.16,.13,2.31,.27,3.47,.4Z"/><path class="cls-78" d="M26.88,36.44c-.14,0-.29,0-.43,.01-1.25-.51-2.53-.91-3.9-.88-.35-.02-.68-.09-.87-.44-.68-.43-1.39-.85-1.11-1.86,.71-1.1,1.6-.63,2.4-.2,1.18,.63,2.4,1.17,3.55,1.86,.45,.42,.8,.86,.37,1.5Z"/><path class="cls-81" d="M20.81,33.41c-.06,.75,.62,1.13,.87,1.73-.43,0-.87,0-1.3,.01-.58,0-1.16,0-1.73,0-1.3,0-2.6-.01-3.9-.02,.61-.7,1.44-.32,2.16-.42,.57,0,1.14,0,1.84,0-.44-2.08-2.43-2.34-3.57-3.46,1.1,0,2.06,.46,3.03,.87,1.35-.54,1.99,.36,2.6,1.3Z"/><path class="cls-94" d="M68.06,39.04c-.58,.72-1.15,1.45-1.73,2.17-1.26-1.91-1.98-4.09-3.06-6.09-.09-.19-.15-.38-.17-.59,.21-1.05,.55-2.03,1.58-2.58,.22-.01,.43,.03,.62,.14,1.54,2.08,3.09,4.14,2.77,6.96Z"/><path class="cls-165" d="M67.63,29.07c.77,2.7,2.59,4.98,3.04,7.8-.24,.57-.68,.87-1.3,.87-1.76-2.19-2.64-4.78-3.45-7.42,.19-.94,.65-1.51,1.71-1.25Z"/><path class="cls-33" d="M66.33,30.37c1.01,2.46,2.02,4.91,3.04,7.37-.28,.58-.71,1.02-1.3,1.3-.58-2.5-1.85-4.7-3.03-6.93-.45-.53-.15-.97,.17-1.41,.33-.28,.65-.56,1.13-.32Z"/><path class="cls-158" d="M65.47,42.51c-.1,.92-.73,1.52-1.3,2.17-.95,.07-.9-.77-1.2-1.3-.03-1.89-1.24-3.37-1.76-5.09-.05-.34-.02-.67,.08-.99,.23-.53,.52-1,1.18-1.06,2.1,1.56,2.39,3.99,3,6.27Z"/><path class="cls-42" d="M65.47,42.51c-1.5-1.78-1.43-4.34-3.04-6.07-.14-.14-.2-.3-.16-.5,.19-.54,.41-1.06,1.04-1.23,1.54,1.92,2.53,4.1,3.03,6.5-.29,.43-.58,.87-.87,1.3Z"/><path class="cls-167" d="M63.3,43.37c.29,.43,.58,.87,.87,1.3-.15,.43-.29,.87-.44,1.3-.56,.64-1.2,1.24-1.3,2.16-.14,0-.29,0-.43,0-.58-.31-.89-.83-1.15-1.41-.22-.78,.05-1.46,.43-2.11,.56-.6,.95-1.48,2.02-1.24Z"/><path class="cls-110" d="M26.88,36.44c-.14-.43-.29-.86-.43-1.3,.08-.06,.17-.12,.25-.19,2.99,.31,5.09,2.47,7.63,3.72,.45,.41,.86,.83,1.01,1.45-.05,1.01-.86,.81-1.48,.92-.19-.04-.34-.13-.46-.28-.33-.77-1.12-.91-1.74-1.3-.33-.77-1.1-.93-1.74-1.28-.44-.56-1.05-.8-1.73-.87-.43-.29-.87-.58-1.3-.87Z"/><path class="cls-61" d="M33.39,40.75c.14,0,.29,.01,.43,.02,.8,.36,1.94,.37,1.74,1.73,.04,2.87,1.68,5.21,2.61,7.79,2.25,6.24,4.61,12.44,6.92,18.65-1.45-.28-1.74-1.5-2.18-2.63-1.6-4.14-3.3-8.23-4.79-12.41-1.02-2.87-2.55-5.55-3.06-8.6-.26-1.61-2.06-2.68-1.68-4.54Z"/><path class="cls-133" d="M40.74,46.84c-.69,.99,.13,1.75,.44,2.54,2.13,5.54,4.32,11.07,6.47,16.6,.31,.8,.59,1.63,.47,2.52-2.12-1.92-2.43-4.73-3.4-7.18-1.15-2.92-2.25-5.84-3.52-8.72-.99-2.24-1.47-4.71-2.18-7.08,.96-.06,1.66,.22,1.72,1.32Z"/><path class="cls-132" d="M35.56,42.5c-.32-.84-1.22-1.09-1.74-1.73,.43-.14,.86-.29,1.29-.43,.93-.64,1.53,.27,2.28,.49,.27,.17,.49,.39,.65,.66,.37,.85,.74,1.71,.8,2.66-.03,.21-.12,.39-.27,.54-.44-.29-.88-.59-1.31-.88-.57-.44-1.14-.87-1.7-1.31Z"/><path class="cls-66" d="M38.58,44.7c0-.15,0-.3,0-.46,.77-.57,1.45-.11,2.14,.2,.79,.99,1.94,1.67,2.49,2.87,.03,.34-.05,.65-.32,.88-.97-.04-1.35-1.03-2.16-1.35-.57-.44-1.15-.88-1.72-1.32-.15-.28-.3-.55-.44-.83Z"/><path class="cls-112" d="M43.8,49.4c2.24,5.94,4.48,11.88,6.71,17.83,.1,.26,.13,.55,.2,.83-2.02-.22-2.03-2.17-2.48-3.37-1.62-4.39-3.06-8.85-5.01-13.13-.38-.85-1.19-1.89-.31-2.98,.72-.18,.94,.17,.89,.82Z"/><path class="cls-14" d="M43.8,49.4c-.3-.27-.59-.55-.89-.82,0-.13-.01-.26-.01-.39,0-.3,.01-.61,.02-.91,.35-.36,.77-.4,1.22-.27,1.06,.62,1.94,1.42,2.48,2.56-.03,.43,.04,.96-.69,.77-.71-.31-1.42-.62-2.13-.93Z"/><path class="cls-41" d="M45.93,50.33c.36-.19,.45-.51,.46-.89,.31-.38,.75-.46,1.21-.49,.34-.01,.68,.03,1.01,.14,.33,.13,.59,.35,.79,.64,.36,.92,.68,1.83-.86,1.89-.57-.15-1.14-.3-1.71-.45-.18-.34-.5-.42-.85-.44-.01-.14-.03-.27-.05-.41Z"/><path class="cls-87" d="M48.53,51.63c.93-.38,.92-1.01,.46-1.75,1.44-.88,1.98,.44,2.77,1.14,.24,.59,.87,1.24-.19,1.68-.47,.23-.89,.11-1.28-.18-.53-.32-1.09-.53-1.73-.49,0-.13-.02-.26-.04-.39Z"/><path class="cls-9" d="M66.33,30.37c-.29,.14-.58,.29-.87,.43-.99-.77-1.32-1.83-1.3-3.03,.29-.43,.58-.87,.87-1.3,.72-.14,1.44-.29,2.17-.43,.29,.72,.58,1.44,.87,2.17-.15,.29-.29,.58-.44,.86-.55,.32-1.28,.45-1.3,1.3Z"/><path class="cls-36" d="M60.7,49.44c-.15,.29-.29,.58-.44,.86-.29,.15-.57,.29-.86,.44-.66-.18-.89-.77-1.2-1.28-.39-1.23-1.7-2-1.74-3.42,.04-.2,.12-.38,.25-.54,.93-.16,1.37,.71,2.11,.97,.85,.84,1.93,1.55,1.88,2.97Z"/><path class="cls-40" d="M58.53,49.44c.29,.44,.58,.87,.88,1.31-.29,.29-.58,.59-.87,.88-.14,0-.28-.01-.42-.01-1.37-.04-1.28-1.25-1.66-2.08-.03-.34,.03-.66,.22-.94,.95-.44,1.38,.26,1.86,.84Z"/><path class="cls-30" d="M50.29,52.51c.42,0,.84,0,1.26,0,.17,.07,.23,.16,.19,.25-.05,.1-.1,.15-.15,.15,1.49,4.36,3.68,8.47,4.75,12.98-1.02,.06-1.37-.79-1.65-1.45-1.6-3.93-3.29-7.82-4.41-11.92Z"/><path class="cls-80" d="M20.81,25.61c-.54-1.31,1.27-.86,1.3-1.73,.25-.26,.57-.31,.91-.26,2.52,.52,4.88,1.52,7.23,2.54,.52,.26,.91,.63,1.16,1.16,.17,.62-.03,1.1-.58,1.45-.58,.16-1.09-.07-1.61-.28-2.48-1.17-5.12-1.73-7.81-2.12-.32-.15-.53-.4-.61-.75Z"/><path class="cls-119" d="M20.81,25.61c.15,.14,.29,.29,.44,.43,.03,1.05,1.16,.83,1.64,1.41,.51,.62,1.53,.77,1.71,1.75,0,.35-.09,.65-.37,.87-1.52,.08-2.96-.18-4.27-.99-.88-1.05-2.78-1.47-2.17-3.46,.58,0,1.16,0,1.73,0,.43,0,.87,0,1.3,0Z"/><path class="cls-116" d="M22.98,23.87c-.29,0-.58,0-.87,0-.54-1.43-1.99-1.21-3.06-1.68-.71-.31-1.55-.32-2.14-.92,1.19,.1,2.34-.09,3.47-.43,3-.36,4.94,.57,5.65,2.68-.94,.76-2.02,.34-3.05,.35Z"/><path class="cls-150" d="M51.59,52.9c0-.13-.02-.27-.04-.4,.56-.43-.1-.89,.04-1.33-.15-.38,.08-.55,.37-.7,.2-.05,.4-.06,.6-.04,1.13,.41,1.87,1.42,2.95,1.91,.12,.18,.11,.36-.03,.53-.29,.02-.57,.04-.86,.05-.58,0-1.16,0-1.73,.01-.43-.01-.87-.03-1.3-.04Z"/><path class="cls-45" d="M56.79,49.44c.44,.72,.6,1.61,1.32,2.17-.19,.34-.51,.43-.86,.45-.97-.24-1.73-.71-2.07-1.71-.05-.33,0-.64,.18-.93,.16-.15,.35-.25,.56-.3,.34-.03,.63,.08,.88,.31Z"/><path class="cls-48" d="M55.49,50.31c.58,.58,1.17,1.17,1.75,1.75,0,.14-.01,.27-.02,.41-.43,.15-.87,.3-1.3,.44-.15-.01-.3-.02-.44-.03,0-.14,0-.27,0-.41-.62-.41-1.13-.89-1-1.73,.24-.36,.51-.65,1-.43Z"/><path class="cls-10" d="M60.7,49.44c-.74-.86-1.2-1.94-2.17-2.6-.19-.7,.26-.95,.81-1.12,.85-.03,1.38,.45,1.79,1.12,.58,.24,.87,.68,.87,1.3-.15,.29-.29,.58-.44,.86-.29,.15-.57,.29-.86,.44Z"/><path class="cls-104" d="M26.01,23.44c-1.35-2.02-3.69-1.89-5.64-2.6-.14-.58-.29-1.16-.43-1.73,2.46,.58,4.91,1.16,7.37,1.73,.13,1.02,1.11,1.2,1.73,1.73,.35,.45,.39,.91,.08,1.39-1.18,.64-2.19,.36-3.11-.53Z"/><path class="cls-12" d="M64.16,27.77c.43,1.01,.87,2.02,1.3,3.03-.14,.43-.29,.87-.43,1.3-.14,0-.29,0-.43,0-1.43,.54-2.17-.51-3.03-1.3,0-.14,0-.29,0-.43-.18-.91,.48-1.49,.87-2.17,.63,.07,1.19-.14,1.73-.43Z"/><path class="cls-60" d="M20.81,33.41c-.95-.26-1.56-1.22-2.6-1.3-.14-.58-.29-1.16-.43-1.73,.43,0,.87,0,1.3,0,2.52,.38,4.39,2.12,6.59,3.18,.45,.44,1.05,.8,.78,1.59,0,0,0,0,0,0-1.38-.08-2.43-.94-3.6-1.54-.63-.32-1.28-1.07-2.04-.19Z"/><path class="cls-54" d="M25.58,33.84c-2.3-.9-4.41-2.17-6.5-3.47,0-.43,0-.87,0-1.3,.14,0,.29,0,.43,0,2.38,.96,4.86,1.73,6.71,3.66,.25,.36,.48,.73,.25,1.19-.32,.19-.61,.16-.89-.08Z"/><path class="cls-51" d="M29.05,23.87c0-.43,0-.87,0-1.3,.72,.14,1.44,.29,2.17,.43,.14,.14,.29,.29,.43,.43,.31,.54,.92,.99,.58,1.75-.36,.46-.85,.66-1.43,.67-.87-.4-1.71-.84-1.75-1.98Z"/><path class="cls-99" d="M32.08,25.17c-.14-.58-.29-1.16-.43-1.73,.54,.29,1.1,.5,1.73,.43,.58,.72,1.16,1.44,1.73,2.17,.22,.51-.08,.81-.45,1.08-.42,.19-.84,.19-1.27,.03-.7-.48-1.51-.9-1.31-1.98Z"/><path class="cls-21" d="M63.3,34.71c-.29,.43-.58,.87-.87,1.3-1.19,0-1.62-.94-2.17-1.73-.3-.54-.5-1.1-.43-1.73,.43,.14,.87,.29,1.3,.43,1.15,.05,1.75,.77,2.17,1.73h0Z"/><path class="cls-11" d="M61.57,37.31c0,.28,0,.57-.01,.85-.18,.41-.47,.68-.95,.68-.45-.06-.78-.3-1.05-.65-.3-.56-.68-1.12-.16-1.75-.14-.29-.29-.58-.43-.87,.58,.29,1.16,.58,1.73,.87,.71-.12,1.02,.14,.87,.87Z"/><path class="cls-2" d="M61.57,37.31c-.17-.41-.46-.71-.87-.87,.15-.78-1.08-1.29-.43-2.17,1,.23,1.37,1.25,2.17,1.73,0,.14,0,.29,0,.43-.29,.29-.57,.58-.86,.87Z"/><path class="cls-103" d="M26.01,32.97c-1.92-1.71-4.6-2.16-6.5-3.9,.14,0,.29,0,.43,0,1.52-.08,2.94,.31,4.34,.87,1.39,.35,2.68,.96,3.82,1.82,.55,.42,1.44,.84,.81,1.84-1.11,.46-1.99-.13-2.89-.63Z"/><path class="cls-22" d="M63.29,34.71c-.72-.58-1.44-1.16-2.17-1.73-.36-.82-.16-1.53,.43-2.17,1.21-.03,1.88,1.21,3.03,1.3l-1.3,2.6Z"/><path class="cls-140" d="M39.89,30.37c.83,.7,1.68,1.38,1.73,2.6-.28,.36-.67,.41-1.09,.4-.2-.02-.39-.08-.57-.16-.17-.11-.31-.24-.43-.39-.37-.56-.87-1.03-1.23-1.6-.07-.46-.73-1.06,.28-1.28,.43,.14,.87,.29,1.3,.43Z"/><path class="cls-109" d="M34.68,26.91c.14-.29,.29-.58,.43-.87,.81-.18,1.24,.4,1.73,.87,.14,.58,.29,1.16,.43,1.73-.47,.49-1.04,.47-1.63,.29-.75-.47-1.27-1.05-.97-2.02Z"/><path class="cls-105" d="M35.55,28.64c.58,0,1.16,0,1.73,0,.58,.28,1.02,.72,1.3,1.3-.5,.43,.15,.87,0,1.3-1.01,.26-1.62-.65-2.48-.84-.39-.19-.72-.43-.84-.88-.04-.34,.03-.64,.28-.88Z"/><path class="cls-5" d="M59.39,36.44c.14,.58,.29,1.15,.43,1.73-1.23,.79-2.07,.42-2.6-.87,0-.43,0-.87,0-1.3,.72,.14,1.44,.29,2.17,.43Z"/><path class="cls-32" d="M40.32,32.98c.43,0,.87,0,1.3,0,.29,0,.58,0,.87,0,.14,.29,.29,.58,.43,.87-.14,.29-.3,.57-.64,.67-1-.07-2-.15-1.96-1.54Z"/><path class="cls-31" d="M45.95,35.14c.75,.87,2.15,.95,2.6,2.17,.25,.26,.27,.56,.14,.89-.27,.36-.64,.56-1.07,.66-1.22,.06-1.42-1.1-2.07-1.72-.34-.62-1.07-1.16-.47-2h.87Z"/><path class="cls-16" d="M45.09,35.14c-.06,.75,.62,1.13,.87,1.73-.73,.57-1.43,.11-2.15-.04-.31-.12-.57-.31-.8-.55-.39-.61-1.1-1.15-.52-2.01,.14-.14,.29-.29,.43-.43,.38,1,1.48,.8,2.17,1.3Z"/><path class="cls-63" d="M48.56,38.17c0-.29,0-.58,0-.87,.29,0,.58,0,.87,0,1.45,.03,2.14,1.06,2.82,2.11,.01,.47-.21,.82-.59,1.08-.3,.14-.62,.15-.94,.06-.85-.68-2-1.09-2.17-2.39Z"/><path class="cls-65" d="M52.02,39.47c-.87-.72-1.73-1.44-2.6-2.17,.14-.29,.29-.58,.43-.87,.96,0,1.55,1.13,2.6,.87,.55,.65,.79,1.37,.49,2.21-.32,.2-.63,.22-.93-.05Z"/><path class="cls-47" d="M52.89,37.31c0-.29,0-.58,0-.87,1.49-.09,2.3,1.17,3.47,1.73,.09,.05,.19,.09,.28,.14,.23,.25,.34,.52,.17,.85-.48,.48-1.03,.7-1.71,.54-1-.55-1.55-1.53-2.21-2.39Z"/><path class="cls-3" d="M57.23,37.31c.77,.58,1.57,1.05,2.6,.87,.29,.15,.58,.29,.88,.44,.29,.85-.18,1.38-.78,1.85-.2,.06-.39,.07-.59,.02-1.01-.74-1.84-1.72-2.97-2.3,0,0,0,0,0,0,0-.29,0-.58,0-.87,.29,0,.58,0,.87,0Z"/><path class="cls-161" d="M52.89,37.31c1.34,.1,1.47,1.42,2.17,2.17,.15,.16,.21,.35,.2,.57-.11,.33-.35,.53-.67,.64-.44,.11-.86,.08-1.27-.12-.36-.28-.65-.58-.43-1.09-.41-.67-.48-1.41-.43-2.16,.15,0,.29,0,.44,0Z"/><path class="cls-159" d="M59.83,40.34c.29-.58,.58-1.15,.88-1.73,.28-.15,.57-.3,.85-.45,.72,1.69,2.19,3.13,1.74,5.21-.58,.43-1.16,.87-1.73,1.3-.21,.15-.42,.15-.62,0-.86-1.32-1.94-2.58-1.12-4.33Z"/><path class="cls-38" d="M61.13,44.67c.14,0,.29,0,.43,0-.14,.72-.29,1.44-.43,2.17-.58-.29-1.16-.58-1.73-.87-.61-.29-.82-.75-.58-1.39,.81-.98,1.57-.63,2.31,.09Z"/><path class="cls-52" d="M25.58,33.84c.29,0,.58,0,.87,0,3.06,.16,5.4,1.79,7.63,3.68,.32,.48,.61,.96,.17,1.52-2.71-1.09-4.92-3.16-7.8-3.9-.29-.43-.58-.87-.87-1.3Z"/><path class="cls-107" d="M34.25,39.04c-.14-.43-.29-.87-.43-1.3,.15-.14,.33-.22,.54-.23,1.06,.23,1.62,1.12,2.34,1.79,.39,.58,.94,1.1,.59,1.9-.72-.29-1.44-.58-2.17-.87-.29-.43-.58-.87-.87-1.3Z"/><path class="cls-106" d="M40.75,44.68c-.72-.15-1.44-.29-2.17-.44-.29-.87-.58-1.73-.87-2.6,.61-.54,1.16-.11,1.73,.1,.91,.6,2.21,.93,1.73,2.5-.1,.18-.25,.33-.42,.44Z"/><path class="cls-134" d="M39.45,42.07c-.58-.14-1.16-.29-1.73-.43-.14-.14-.29-.29-.43-.43-.29-.58-.58-1.16-.87-1.73,.22-.36,.55-.53,.95-.59,.2,.03,.37,.11,.52,.25,.46,.95,1.38,1.61,1.67,2.67-.03,.09-.07,.18-.1,.27Z"/><path class="cls-28" d="M40.75,44.68c0-.14,0-.29,0-.43,.8-.54,1.36-.05,1.92,.44,.46,.75,1.1,1.36,1.63,2.05,.06,.2,.03,.38-.09,.55-.43,0-.87,0-1.3,0-.75-.84-2.07-1.22-2.17-2.6Z"/><path class="cls-18" d="M44.22,47.27c0-.14,0-.29,0-.43,.26-.27,.58-.35,.94-.34,1.36,.53,2.92,.9,2.53,2.94-.43,0-.87,0-1.3,0-.89-.55-1.61-1.28-2.17-2.17Z"/><path class="cls-84" d="M47.69,49.44c-.24-1.49-1.46-2.01-2.6-2.6-.25-.27-.26-.57-.12-.89,.16-.16,.35-.26,.56-.31,.94-.08,1.66,.38,2.34,.95,.52,.56,.9,1.2,1.02,1.98,0,.34-.09,.63-.34,.87-.29,0-.58,0-.87,0Z"/><path class="cls-69" d="M48.56,49.44c0-.29,0-.58,0-.87,.34-.35,.77-.44,1.24-.38,1.08,.55,2.16,1.1,2.23,2.54-.14,.14-.29,.29-.43,.43-1.05-.07-1.31-1.72-2.6-1.3-.14-.14-.29-.29-.43-.43Z"/><path class="cls-43" d="M58.96,44.67l.43,1.3c-.41,.16-.7,.45-.87,.87-.73-.23-1.21-.8-1.73-1.3-.93-.39-1.01-1.21-1.04-2.06,.09-.31,.29-.55,.56-.72,.3-.12,.6-.13,.9-.04,.78,.48,1.48,1.02,1.75,1.96Z"/><path class="cls-156" d="M58.53,49.44c-.58-.29-1.16-.58-1.73-.87-1.17,.17-1.46-.71-1.82-1.51-.16-.53-.33-1.06,.04-1.58,.72-.28,1.27,.03,1.79,.49,.16,1.37,1.78,2,1.73,3.46Z"/><path class="cls-91" d="M56.79,45.98c-.63,.07-1.19-.14-1.73-.43-1.07,.18-1.48-.56-1.85-1.34-.03-.21,.04-.4,.18-.56,.53-.33,1.14-.4,1.73-.54,.31-.03,.6,.03,.81,.28,.29,.72,.58,1.43,.86,2.15,0,.14,0,.29,0,.43Z"/><path class="cls-23" d="M55.49,46.84c.03,.88,.61,1.35,1.3,1.73,0,.29,0,.58,0,.87-.29,0-.58,0-.87,0-1.02-.63-2.19-1.18-1.66-2.74,.44-.24,.85-.15,1.23,.14Z"/><path class="cls-70" d="M24.28,29.07c-1.16-.76-2.18-1.72-3.5-2.24-.28-.11-.77-.27-.35-.7,.15-.15,.54-.07,.81-.1,2.95-.05,5.71,.61,8.24,2.17,.6,.68,1.66,1.07,1.5,2.26-.1,.51-.23,1.01-.69,1.33-2.34-.16-4.23-1.32-6.01-2.73Z"/><path class="cls-57" d="M29.05,23.87c.58,.58,1.16,1.16,1.73,1.73,.28,.5,.3,.87-.43,.87-.35,0-.8,.12-1.05-.05-1.94-1.29-4.33-1.42-6.32-2.55,.91-.83,2.03-.26,3.03-.43,1.01,.14,2.02,.29,3.03,.43Z"/><path class="cls-115" d="M30.78,28.65c.15-.43,.29-.87,.44-1.3,.9-.33,1.59,.29,2.36,.51,.5,.25,.88,.63,1.16,1.11,.41,.83,.6,1.68,.17,2.56-.72,.63-1.17-.07-1.7-.34-.8-.85-2.28-1.06-2.42-2.54Z"/><path class="cls-123" d="M30.78,28.65c.87,.72,1.74,1.44,2.6,2.16,.3,.39,.38,.81,.15,1.27-1.65,.62-2.18-.57-2.75-1.7-.05-.95-1.44-1.1-1.3-2.17,.43,.15,.87,.29,1.3,.44Z"/><path class="cls-73" d="M33.38,28.21c-.72-.29-1.45-.58-2.17-.87-.41-.16-.7-.45-.87-.87,.35-.19,.43-.51,.43-.87,.43-.14,.87-.29,1.3-.43,.43,.58,.87,1.16,1.3,1.73,.35,.43,.37,.87,0,1.3Z"/><path class="cls-104" d="M24.28,29.07c2.02,.87,4.05,1.73,6.07,2.6,1.32,.15,1.73,1.18,2.12,2.22,.07,.46,.01,.89-.29,1.27-1.42,.08-2.63-.2-3.13-1.76-.66-1.16-1.78-1.7-2.94-2.19-.7-.3-1.47-.48-1.83-1.27,0-.29,0-.58,0-.87Z"/><path class="cls-155" d="M54.63,50.74c.29,.58,.58,1.16,.87,1.73-1.48,.25-1.96-1.26-3.03-1.73-.3-.39-.38-.8-.16-1.26,.24-.28,.55-.37,.9-.36,.87,.19,1.28,.79,1.44,1.62Z"/><path class="cls-76" d="M52.46,49.44c0,.43,0,.87,0,1.3-.14,0-.29,0-.43,0-.72-.72-1.44-1.44-2.17-2.17-.47-.48-.91-.96-.54-1.7,.85-.42,1.4,.13,1.98,.6,.34,.68,1.27,1.02,1.17,1.97Z"/><path class="cls-89" d="M54.19,46.84c.58,.87,1.16,1.73,1.73,2.6-.14,0-.29,0-.43,0-.98,.69-1.48-.41-2.22-.59-.59-.45-1.1-.95-1.07-1.77,.06-.31,.24-.54,.49-.72,.39-.2,.75-.09,1.11,.08,.16,.1,.3,.23,.39,.4Z"/><path class="cls-55" d="M53.32,48.57c.72,.29,1.44,.58,2.17,.87,0,.29,0,.58,0,.87-.29,.14-.58,.29-.87,.43-.43-.43-.87-.87-1.3-1.3-.26-.29-.23-.58,0-.87Z"/><path class="cls-57" d="M29.05,33.41c.84,.87,2.04,1.13,3.03,1.73,1.32-.14,1.76,.91,2.38,1.73,.08,.33,.05,.63-.21,.87-.14,0-.29,0-.43,0-2.22-1.76-4.79-2.83-7.37-3.9-.14-.29-.29-.58-.43-.87,1.01,.14,2.02,.29,3.03,.43Z"/><path class="cls-114" d="M33.38,28.21c0-.43,0-.87,0-1.3,.43,0,.87,0,1.3,0,.29,.58,.58,1.16,.87,1.73,0,.29,0,.58,0,.87-.57,.27-.89-.23-1.3-.43-.16-.41-.45-.7-.87-.87Z"/><path class="cls-58" d="M42.49,34.27c-.06,.75,.62,1.13,.87,1.73-.47,.46-1.03,.48-1.62,.31-.94-.47-1.86-.97-2.21-2.07-.08-.48-.03-.93,.37-1.28,.14,0,.29,0,.43,0,.46,.87,1.28,1.15,2.17,1.3Z"/><path class="cls-141" d="M39.89,32.97c0,.43,0,.87,0,1.3-1.26,.31-2.14-.19-2.74-1.29-.04-.51,.2-.86,.62-1.11,.9-.38,1.47,.27,2.13,.66,0,.14,0,.29,0,.43Z"/><path class="cls-121" d="M39.88,32.54l-2.17-.43c-1.24-.24-1.81-.88-1.3-2.17,.72,.43,1.44,.87,2.17,1.3,.58,.28,1.02,.72,1.3,1.3Z"/><path class="cls-96" d="M36.42,29.94c0,.98,.69,1.55,1.3,2.17-.14,.29-.29,.58-.43,.87-.24,.26-.56,.35-.9,.34-.85-.24-1.77-.42-1.7-1.63,.01-.89,.09-1.8-.43-2.6,.43,.14,.87,.29,1.3,.43,.19,.35,.51,.43,.87,.43Z"/><path class="cls-146" d="M43.79,36.44c.72,.14,1.44,.29,2.17,.43,.82,.33,.65,1.67,1.73,1.73,.11,.4-.13,.59-.44,.74-.79,.23-1.51-.05-2.23-.31-.41-.18-.77-.43-1.04-.79-.31-.58-.72-1.15-.19-1.81Z"/><path class="cls-86" d="M47.25,39.04c.14-.14,.29-.29,.43-.43,.19-.35,.51-.43,.87-.43,.71,.73,1.72,1.17,2.17,2.17,.25,.26,.26,.54,.1,.85-1.16,.36-1.86-.73-2.85-.91-.45-.29-.94-.56-.72-1.24Z"/><path class="cls-13" d="M43.79,36.44c.14,.58,.29,1.16,.43,1.73-.54,.58-1.26,.53-1.96,.52-.24-.01-.47-.06-.69-.13-.59-.23-1-.62-1.14-1.25,.02-.77,.18-1.42,1.18-1.3,.58,0,1.16,0,1.73,0,.14,.14,.29,.29,.43,.43Z"/><path class="cls-153" d="M50.72,41.21c0-.29,0-.58,0-.87,.29,0,.58,0,.87,0,.56,.09,.91,.48,1.23,.9,.4,.8,1.3,1.51,.5,2.54l.03,.04c-.32,.34-.74,.44-1.19,.44-.33,0-.64-.09-.93-.25-.17-.13-.31-.29-.41-.48-.24-.58-.48-1.16-.41-1.82,.06-.2,.17-.38,.32-.52Z"/><path class="cls-154" d="M52.46,41.21c-.41-.16-.7-.45-.87-.87,.14-.29,.29-.58,.43-.87,.29,0,.58,0,.87,0,.14,.29,.29,.58,.43,.87,.52,.38,.79,.76,0,1.13-.33,.06-.62-.03-.86-.27Z"/><path class="cls-20" d="M56.36,38.17c1.53,.02,2.45,.87,3.04,2.19,.14,.73-.28,.95-.89,.99-.95-.49-2.03-.89-1.72-2.32-.14-.29-.29-.58-.43-.87Z"/><path class="cls-4" d="M56.79,39.04c.21,1.03,1.33,1.34,1.75,2.2,.06,.4-.17,.55-.51,.62-1.19-.34-2.42-.64-2.97-1.95,0-.14,0-.29,0-.43,.58-.14,1.16-.29,1.73-.43Z"/><path class="cls-44" d="M58.12,41.66c.14-.14,.28-.28,.42-.42,.29-.29,.57-.58,.86-.88,.14-.01,.28-.02,.42-.03-.04,1.59,1.02,2.85,1.3,4.34-.72-.07-1.44-.61-2.17,0-.75-.42-1.34-1-1.75-1.77-.23-.8,.4-.99,.91-1.25Z"/><path class="cls-163" d="M53.32,41.21c.48-.29,.03-.58,0-.87,.43,0,.87,0,1.3,0,.95,.62,2.62,.77,1.74,2.61-.14,.15-.29,.29-.43,.44-.29,0-.58,0-.86,0-.66-.66-1.7-1.03-1.74-2.18Z"/><path class="cls-19" d="M56.36,42.95c.36-1.5-1.3-1.65-1.74-2.61,.14-.14,.29-.29,.43-.43,1.02,.58,2.04,1.17,3.06,1.75-.3,.42-.61,.83-.91,1.25-.28,.01-.57,.03-.85,.04Z"/><path class="cls-98" d="M34.25,37.74v-.87c-.18-.53,.09-.81,.54-1.01,1.4,.61,2.84,1.19,2.49,3.17-.19,.35-.51,.43-.87,.43-.72-.58-1.44-1.16-2.17-1.73Z"/><path class="cls-111" d="M42.49,45.11c-.44-.56-1.05-.8-1.73-.87,.7-1.4-.9-1.42-1.3-2.17,0,0,0,0,0,0,.24-.55,.66-.77,1.25-.69,.41,.1,.76,.3,1.06,.59,.43,.98,1.67,1.45,1.72,2.68-.22,.39-.51,.63-.99,.45Z"/><path class="cls-75" d="M37.28,39.04c-.32-1.48-1.55-2.18-2.6-3.03-.24-.31-.25-.63-.06-.96,.51-.39,1.06-.39,1.64-.21,.94,.52,1.4,1.41,1.8,2.35,.14,.55,.14,1.1-.12,1.62-.08,.08-.16,.16-.23,.24-.14,0-.29,0-.43,0Z"/><path class="cls-95" d="M40.75,41.64c-.43,.14-.87,.29-1.3,.43-.48-1.07-1.98-1.55-1.73-3.03,0,0,0,0,0,0,.96-.37,1.74,.14,2.54,.54,.67,.56,1.17,1.17,.5,2.06Z"/><path class="cls-62" d="M42.49,45.11c.29-.14,.58-.29,.87-.43,.77,.18,1.42,.51,1.73,1.3,0,.29,0,.58,0,.87-.29,0-.58,0-.87,0-.85-.3-1.43-.88-1.73-1.73Z"/><path class="cls-148" d="M45.09,45.97c-.63-.36-1.42-.52-1.73-1.3-.3-1.05-2-1.17-1.73-2.6,.22-1.15,.93-.32,1.43-.36,1.09,.53,1.6,1.62,2.33,2.48,.27,.57,.66,1.14,.14,1.78h-.43Z"/><path class="cls-149" d="M49.42,46.84c.14,.58,.29,1.16,.43,1.73-.43,0-.87,0-1.3,0-.29-.58-.58-1.15-.87-1.73-.29-.38-.38-.78-.17-1.23,.15-.18,.33-.28,.56-.3,.78,.22,1.42,.56,1.34,1.52Z"/><path class="cls-142" d="M47.69,45.54c0,.43,0,.87,0,1.3-.72-.29-1.44-.58-2.17-.87-.14-.58-.29-1.16-.43-1.73,.63-.5,1.2-.13,1.78,.12,.4,.3,1,.48,.82,1.18Z"/><path class="cls-68" d="M52.03,43.82c.44,0,.87,0,1.31,0,.41,.73,.98,1.3,1.72,1.71,.14,.43,.29,.87,.43,1.3-.43,0-.87,0-1.3,0-.14,0-.29,0-.43,0-.58-1.01-1.99-1.53-1.73-3.02Z"/><path class="cls-166" d="M53.32,41.21c.6,.71,1.75,.98,1.74,2.18-.48,.6-1.14,.38-1.75,.4,.28-1.05-.86-1.62-.86-2.58,.29,0,.58,0,.87,0Z"/><path class="cls-120" d="M32.08,33.84c-.58-.72-1.16-1.44-1.73-2.17,.02-.48-.08-.99,.43-1.3,.99,.39,1.36,1.71,2.6,1.73,.67,.73,1.31,1.47,.97,2.58-1.03,.45-1.63-.26-2.27-.85Z"/><path class="cls-67" d="M34.25,34.71c0-.96-1.13-1.55-.87-2.6,0-.43,0-.87,0-1.3,.43,.29,.87,.58,1.3,.87,.32,.77,1.1,.94,1.72,1.3,.16,.17,.28,.36,.38,.57,.14,.59,.12,1.15-.37,1.59-.58,0-1.16,0-1.73,0-.24-.05-.38-.2-.43-.43Z"/><path class="cls-50" d="M34.25,34.71c.14,.14,.29,.29,.43,.43,0,.29,0,.58,0,.87-.14,.29-.29,.58-.43,.87-.72-.58-1.45-1.16-2.17-1.73,0-.43,0-.87,0-1.3,.72,.29,1.44,.58,2.17,.87Z"/><path class="cls-71" d="M53.32,48.57c0,.29,0,.58,0,.87-.29,0-.58,0-.87,0-.42-.58-1.39-.76-1.3-1.73-.24-.32-.28-.65-.02-.98,.47-.27,.91-.27,1.32,.11-.06,.75,.62,1.13,.87,1.73Z"/><path class="cls-139" d="M51.16,46.84c0,.29,0,.58,0,.87-.58-.29-1.16-.58-1.73-.87-.43-.43-.87-.87-1.3-1.3-.17-.36,.06-.52,.34-.64,1.03-.14,1.66,.8,2.58,.98,.33,.29,.47,.59,.11,.96Z"/><path class="cls-93" d="M51.16,46.84c0-.36-.08-.68-.43-.87-1-.76-2.16-1.48-.84-2.91,.48-.13,.9-.02,1.27,.31,0,.14,.02,.28,.02,.41,.22,1.1,1.83,1.29,1.71,2.62-.14,.14-.29,.29-.43,.43-.43,0-.87,0-1.3,0Z"/><path class="cls-27" d="M52.89,46.41c-.22-.61-.84-.74-1.26-1.12-.4-.37-1.3-.7-.46-1.49,.28,.01,.57,.02,.85,.03,.53,1.03,1.53,1.8,1.73,3.02-.29-.14-.58-.29-.87-.43Z"/><path class="cls-39" d="M36.42,33.41c0-.14,0-.29-.01-.43,.29,0,.59,0,.88,0,.87,.43,1.73,.87,2.6,1.3,.58,.58,1.16,1.16,1.73,1.73-.58,.24-.87,.68-.87,1.3-.72,.28-1.07-.29-1.53-.63-.99-1.04-2.14-1.95-2.8-3.27Z"/><path class="cls-144" d="M42.04,38.18c.73,0,1.46,0,2.18,0,.29,.14,.58,.29,.87,.43,.57,.41,1.06,.85,1.06,1.63-.06,.4-.23,.74-.53,1.02-.41,.19-.75,0-1.08-.22-.37-.29-.74-.59-1.14-.84-.64-.55-1.55-.92-1.36-2.02Z"/><path class="cls-77" d="M45.96,40.34c-.29-.58-.58-1.16-.87-1.73,.72,.14,1.44,.29,2.17,.43,.17,.41,.45,.7,.87,.87,.18,.53,.34,1.06-.19,1.5-.92,.12-1.5-.36-1.98-1.06Z"/><path class="cls-24" d="M48.12,41.21c-.27-.43-.27-.87,0-1.3,1.06,.05,1.76,.82,2.6,1.3,0,.14,0,.29,0,.43-.61,.53-1.31,.6-2.06,.38-.34-.16-.65-.35-.55-.81Z"/><path class="cls-136" d="M42.04,38.18c.44,.73,1.02,1.31,1.75,1.74,.57,.93,.22,1.48-.73,1.8-1.35-.05-1.87-.93-2.09-2.1,.04-.56,.22-1.05,.65-1.43,.14,0,.28,0,.42,0Z"/><path class="cls-108" d="M41.62,38.19c-.01,.47,.08,.98-.43,1.29-.6,.49-1.02,.06-1.47-.27-.36-.45-.57-.97-.67-1.54-.04-.47,.02-.91,.4-1.23,.43,.29,.87,.58,1.3,.88,.29,.29,.58,.58,.87,.88Z"/><path class="cls-160" d="M48.56,41.64c.72,0,1.44,0,2.17,0,.14,.58,.29,1.16,.43,1.74-.43,0-.87,0-1.3,0-.42-.32-1.2,.11-1.41-.66,.39-.32-.09-.73,.11-1.08Z"/><path class="cls-137" d="M39.89,39.04c.43,.14,.87,.29,1.3,.43,.41,.85,.79,1.74,1.73,2.17,.1,.1,.13,.19,.1,.29-.03,.1-.06,.14-.1,.14-.43,.15-.87-.5-1.3,0-.36,0-.68-.08-.87-.43,.04-.74-.08-1.41-.87-1.73-.24-.29-.28-.58,0-.87Z"/><path class="cls-74" d="M39.45,36.43c0,.44,0,.87,0,1.31-.7,.34-1.23,.01-1.73-.43-.43-.72-.87-1.44-1.3-2.17,0-.58,0-1.16,0-1.73,1.19,.83,2.19,1.85,3.04,3.03Z"/><path class="cls-113" d="M37.72,37.31c.63-.07,1.19,.14,1.73,.43,.14,.43,.29,.87,.43,1.3,0,.29,0,.58,0,.87-.72-.29-1.44-.58-2.17-.87,0-.58,0-1.16,0-1.73Z"/><path class="cls-26" d="M42.92,42.07c0-.14,0-.29,0-.43,.46-.49,1.05-.91,.87-1.72,.41,.15,.7,.44,.87,.84,.4,.75,1.19,1.17,1.65,1.87,.4,.61,1.08,1.18,.51,2.04-.58-.14-1.16-.29-1.73-.43-1.09-.35-1.17-1.72-2.17-2.17Z"/><path class="cls-64" d="M46.82,44.67c-.13-1.63-2.12-2.23-2.16-3.91,.29,.14,.58,.28,.87,.42,1.14-.26,1.86,.36,2.47,1.19,.13,.92,.93,1.71,.56,2.74-.14,.14-.29,.29-.43,.43-.14,0-.29,0-.43,0-.29-.29-.58-.58-.87-.87Z"/><path class="cls-15" d="M48.56,45.11c-.37-.84-.98-1.6-.87-2.6,.29-.26,.57-.25,.85,.02,.44,.28,.88,.57,1.32,.85-.49,1.13,.47,1.77,.87,2.6-.93,.24-1.39-.72-2.17-.87Z"/><path class="cls-90" d="M48.53,42.52c-.28,0-.56-.01-.85-.02-.72-.44-1.44-.88-2.16-1.32,0-.35,.09-.66,.43-.84,.72,.29,1.44,.58,2.17,.87,.14,.14,.29,.29,.43,.43,.04,.29,.49,.6-.02,.88Z"/></g></svg>