<svg id="Layer_1" data-name="Layer 1" xmlns="http://www.w3.org/2000/svg" viewBox="0 0 122.92 121.4"><defs><style>.cls-1,.cls-2{fill:#648dc9;}.cls-2,.cls-3{fill-rule:evenodd;}.cls-3{fill:#fff;}</style></defs><path class="cls-1" d="M101.08,43c3.21-10.33,17.82-10.33,21,0h0a11,11,0,0,0,16.46,6h0c9.09-5.85,20.28,3.54,16.1,13.51h0a11,11,0,0,0,8.76,15.17h0c10.72,1.37,13.26,15.75,3.65,20.7h0a11,11,0,0,0-3,17.26h0c7.34,7.94,0,20.59-10.51,18.2h0a11,11,0,0,0-13.42,11.26h0c.52,10.8-13.21,15.8-19.76,7.19h0a11,11,0,0,0-17.52,0h0c-6.54,8.61-20.27,3.61-19.75-7.19h0a11,11,0,0,0-13.42-11.26h0c-10.54,2.39-17.85-10.26-10.51-18.2h0a11,11,0,0,0-3-17.26h0c-9.61-5-7.07-19.33,3.65-20.7h0a11,11,0,0,0,8.76-15.17h0c-4.18-10,7-19.36,16.1-13.51h0a11,11,0,0,0,16.46-6Z" transform="translate(-50.13 -35.27)"/><path class="cls-2" d="M111.59,51.13A46.38,46.38,0,1,0,158,97.51,46.09,46.09,0,0,0,111.59,51.13Z" transform="translate(-50.13 -35.27)"/><path class="cls-3" d="M105,117.38,87.08,99.49l6-5.3L105,106.12l26.5-25.84,6,5.3Z" transform="translate(-50.13 -35.27)"/></svg>