<?xml version="1.0" encoding="utf-8"?>
<!-- Generator: Adobe Illustrator 27.0.0, SVG Export Plug-In . SVG Version: 6.00 Build 0)  -->
<svg version="1.1" id="Layer_1" xmlns="http://www.w3.org/2000/svg" xmlns:xlink="http://www.w3.org/1999/xlink" x="0px" y="0px"
	 viewBox="0 0 1565.2 1494.2" style="enable-background:new 0 0 1565.2 1494.2;" xml:space="preserve">
<style type="text/css">
	.st0{fill:url(#SVGID_1_);stroke:#FFFFFF;stroke-width:0.25;}
	.st1{opacity:0.26;fill:url(#SVGID_00000138559630886264828450000018346780221833772930_);enable-background:new    ;}
</style>
<linearGradient id="SVGID_1_" gradientUnits="userSpaceOnUse" x1="782.62" y1="642.006" x2="782.62" y2="1546.252" gradientTransform="matrix(1 0 0 -1 0 1546.252)">
	<stop  offset="0.34" style="stop-color:#EDFBF6"/>
	<stop  offset="0.65" style="stop-color:#F5FCFA"/>
	<stop  offset="0.86" style="stop-color:#FFFFFF"/>
</linearGradient>
<rect x="0.1" class="st0" width="1565" height="904.2"/>
<linearGradient id="SVGID_00000031177984062359259050000003454796823645966765_" gradientUnits="userSpaceOnUse" x1="782.61" y1="51.996" x2="782.61" y2="643.8459" gradientTransform="matrix(1 0 0 -1 0 1546.252)">
	<stop  offset="0.41" style="stop-color:#9945FF"/>
	<stop  offset="0.47" style="stop-color:#924DF9"/>
	<stop  offset="0.58" style="stop-color:#7F66EA"/>
	<stop  offset="0.72" style="stop-color:#608ED1"/>
	<stop  offset="0.88" style="stop-color:#36C4B0"/>
	<stop  offset="1" style="stop-color:#14F195"/>
</linearGradient>
<path style="opacity:0.26;fill:url(#SVGID_00000031177984062359259050000003454796823645966765_);enable-background:new    ;" d="
	M1564.6,1413.7c0-2.2,0-4.4,0-6.6l-79.3-66.9h79.1c0-1.6,0-3.2,0-4.8h-84.7l-148.8-125.6h133.2l100.2,66.2c0-2,0-3.9,0-5.9
	l-91.2-60.2h91.2c0-1.6,0-3.2,0-4.8h-98.4l-114.1-75.3H1453l111.1,61.8c0-1.9,0-3.8,0-5.6l-100.9-56.2h96.8l4.2,2.1
	c0-2.3,0-4.6,0-6.8h-2.8l-107-52.6h91.1l18.8,8.3c0-1.8,0-3.6,0-5.3l-6.8-3h6.8c0-1.6,0-3.2,0-4.8h-17.6l-78.3-34.7h79.1l16.9,6.6
	c0-1.7,0-3.5,0-5.2l-3.5-1.4h3.5c0-1.6,0-3.2,0-4.8h-15.9l-64.9-25.1h80.9c0-1.7,0-3.4,0-5.1l-62.4-21.2h62.5c0-1.6,0-3.2,0-4.8
	h-76.7l-49.4-16.8h72.8l53.2,14.2c0-1.7,0-3.3,0-5L1530,955h34.7c0-1.6,0-3.2,0-4.8h-52.6l-49.2-13.2h93.8l8,1.7
	c0-2.2,0-4.3,0.1-6.5h-7.5l-51.7-10.8h59.2c0-1.6,0-3.2,0-4.8h-82.2l-45.9-9.6h128.2c0-1.6,0-3.2,0-4.8H0.1c0,1.6,0,3.2,0.1,4.8
	h127.2l-45.9,9.6H0.3c0,1.6,0,3.2,0.1,4.8h58.1L6.8,932.3H0.5c0,2.1,0,4.1,0.1,6.2l6.9-1.4h93.8l-49.2,13.2H0.7c0,1.6,0,3.2,0,4.8
	h33.5l-33.4,8.9c0,1.7,0,3.3,0,5l52-13.9h72.8l-49.4,16.8H0.9c0,1.6,0,3.2,0,4.8h61.3L1.1,997.3c0,1.9,0,3.7,0,5.6h79.6L15.8,1028
	H1.2c0,1.6,0,3.2,0,4.8h2.1l-2.1,0.8c0,1.7,0,3.5,0,5.2l15.6-6H96l-78.3,34.7H1.4c0,1.6,0,3.2,0,4.8h5.4l-5.4,2.4c0,1.8,0,3.6,0,5.3
	l17.4-7.7h91.1L3,1124.8H1.6c0,2,0,4.1,0,6.1l2.7-1.3h96.8l-99.4,55.3c0,1.9,0,3.8,0,5.6l109.5-60.9h101.5L98.5,1205H1.7
	c0,1.6,0,3.2,0,4.8h89.6l-89.5,59.2c0,2,0,3.9,0,5.9l98.5-65.1h141.8L93.3,1335.4H1.7c0,1.6,0,3.2,0,4.8h85.9l-86.1,72.7
	c0,2.2,0,4.4,0,6.6l93.9-79.3h151.1l-139.1,151.1l4.1,3.1l141.9-154.1H421l-92.5,151.4l4.6,2.3l93.9-153.7h176.2l-48.1,151.9
	l5.1,1.3l48.6-153.2h174.8v152.6h5.3v-152.6h174l48.6,153.2l5.1-1.3l-48.1-151.9H1141l93.9,153.7l4.6-2.3l-92.5-151.4h168.1
	l141.9,154.1l4.1-3.1l-139.1-151.1h155.4L1564.6,1413.7L1564.6,1413.7z M691.5,907.2h48.9l-3,9.6h-51.7L691.5,907.2L691.5,907.2z
	 M460.7,971.7L486,955H544l-19.8,16.8H460.7L460.7,971.7z M518.4,976.5l-25.5,21.5h-72.1l32.6-21.5H518.4z M451.7,971.7H395
	l30.1-16.8h52L451.7,971.7L451.7,971.7z M384.9,971.7h-59.6l34-16.8H415L384.9,971.7z M376.3,976.5l-38.7,21.5h-65.8l43.8-21.5
	H376.3L376.3,976.5z M386.4,976.5h58.1l-32.6,21.5h-64.2L386.4,976.5z M413.6,1002.8h73.7l-29.8,25.1h-81.9L413.6,1002.8
	L413.6,1002.8z M459.6,1032.7h69.9l-31.9,34.7h-79.1L459.6,1032.7L459.6,1032.7z M465.3,1028l29.8-25.1h62l-23.1,25.1H465.3
	L465.3,1028z M500.7,998.1l25.5-21.5h55l-19.8,21.5H500.7L500.7,998.1z M531.9,971.7l19.8-16.8h49.4l-15.4,16.8H531.9L531.9,971.7z
	 M557.4,950.2l15.6-13.2h44.6l-12.1,13.2H557.4L557.4,950.2z M549.6,950.2h-56.3l19.9-13.2h52L549.6,950.2L549.6,950.2z
	 M484.3,950.2h-50.6l23.6-13.2h46.9L484.3,950.2L484.3,950.2z M423.6,950.2H369l26.8-13.2h51.5L423.6,950.2z M358,950.2h-63.5
	l29.7-13.2h60.5L358,950.2z M282.4,950.2H230l34-13.2h48.1L282.4,950.2z M283.7,955h64.6l-34,16.8h-68.4L283.7,955z M304.5,976.5
	l-43.8,21.5h-74.3l48.6-21.5H304.5L304.5,976.5z M262.1,1002.8H329l-45.2,25.1H211L262.1,1002.8z M339.1,1002.8h65.5l-38,25.1H294
	L339.1,1002.8L339.1,1002.8z M368.3,1032.7h83.5l-41.1,34.7h-94.9L368.3,1032.7L368.3,1032.7z M412.8,1072.2h80.3l-48.5,52.6h-94.2
	L412.8,1072.2L412.8,1072.2z M500,1072.2h84.6l-32.2,52.6H451.6L500,1072.2L500,1072.2z M504.4,1067.4l31.9-34.7h72.3l-21.2,34.7
	H504.4L504.4,1067.4z M540.8,1028l23.1-25.1H627l-15.3,25.1H540.8L540.8,1028z M568.3,998.1l19.8-21.5h54.9l-13.2,21.5H568.3z
	 M592.6,971.7L608,955h48.2L646,971.7H592.6z M612.4,950.2l12.1-13.2h42.7l-8,13.2H612.4z M628.9,932.3l9.9-10.8h37.9l-6.6,10.8
	H628.9L628.9,932.3z M622,932.3h-43.4l12.8-10.8h40.5L622,932.3L622,932.3z M570.9,932.3h-50.4l16.3-10.8h46.9L570.9,932.3z
	 M511.5,932.3H466l19.4-10.8h42.5L511.5,932.3L511.5,932.3z M455.9,932.3h-50.3l21.9-10.8h47.8L455.9,932.3z M394.5,932.3H335
	l24.3-10.8h57L394.5,932.3z M323,932.3h-46.6l27.8-10.8h43.1L323,932.3L323,932.3z M262.9,932.3h-55.2l31.7-10.8h51.3L262.9,932.3
	L262.9,932.3z M192.7,932.3h-54.9l40.2-10.8h46.4L192.7,932.3z M193.6,937.1h56.9l-34,13.2h-61.8L193.6,937.1L193.6,937.1z
	 M217.7,955h53.9l-37.8,16.8h-59.4L217.7,955L217.7,955z M223,976.5l-48.6,21.5h-67.9l55.6-21.5H223L223,976.5z M175.6,1002.8H251
	l-51.1,25.1h-81.1L175.6,1002.8L175.6,1002.8z M201.3,1032.7h74l-62.4,34.7h-82.1L201.3,1032.7z M285.4,1032.7h74l-52.5,34.7H223
	L285.4,1032.7z M308.6,1072.2h96.5l-62.4,52.6H228.9L308.6,1072.2L308.6,1072.2z M344.8,1129.6h95.5l-69.4,75.3H255.5L344.8,1129.6
	L344.8,1129.6z M447.2,1129.6h102.4l-46,75.3H377.8L447.2,1129.6z M555.6,1129.6h114.3L646,1205H509.6L555.6,1129.6L555.6,1129.6z
	 M558.5,1124.8l32.2-52.6h97.4l-16.7,52.6H558.5z M593.6,1067.4l21.2-34.7h85.8l-11,34.7H593.6L593.6,1067.4z M617.7,1028l15.3-25.1
	h77l-8,25.1H617.7z M636,998.1l13.2-21.5h69.3l-6.8,21.5H636z M652,971.7l10.2-16.8h63l-5.3,16.8H652z M665.2,950.2l8-13.2h57.7
	l-4.2,13.2H665.2z M676.2,932.3l6.6-10.8h53.1l-3.4,10.8H676.2L676.2,932.3z M685.4,907.2l-5.8,9.6h-36.4l8.8-9.6H685.4L685.4,907.2
	z M645.1,907.2l-8.8,9.6h-39.3l11.3-9.6H645.1z M600.6,907.2l-11.3,9.6H544l14.5-9.6H600.6z M549.5,907.2l-14.5,9.6h-41.1l17.2-9.6
	H549.5z M501,907.2l-17.2,9.6h-46.7l19.5-9.6H501z M445.5,907.2l-19.5,9.6h-56l21.6-9.6H445.5L445.5,907.2z M379.7,907.2l-21.6,9.6
	h-41.5l24.7-9.6H379.7z M327.8,907.2l-24.7,9.6h-49.5l28.2-9.6H327.8z M266.7,907.2l-28.2,9.6h-42.6l23.8-6.4l-1.1-3.2H266.7
	L266.7,907.2z M150.9,907.2h62l-35.8,9.6H105L150.9,907.2L150.9,907.2z M30.4,932.3l51.7-10.8h77.3l-40.2,10.8H30.4L30.4,932.3z
	 M70.7,950.2l49.2-13.2h58.7l-38.8,13.2H70.7L70.7,950.2z M140.7,955h63.5L161,971.7H91.3L140.7,955L140.7,955z M13.8,998.1
	l63.5-21.5h71.4L93,998.1H13.8L13.8,998.1z M29.2,1028l64.9-25.1h69.5l-56.7,25.1H29.2L29.2,1028z M29.7,1067.4l78.3-34.7h82.1
	l-70.5,34.7H29.7L29.7,1067.4z M109.7,1124.8H14l107-52.6h83.3L109.7,1124.8L109.7,1124.8z M119.8,1124.8l94.6-52.6h85.2l-79.7,52.6
	H119.8L119.8,1124.8z M107.5,1205l114.1-75.3H337l-89.3,75.3H107.5L107.5,1205z M250.8,1335.3H101l148.8-125.6h116.6L250.8,1335.3
	L250.8,1335.3z M423.9,1335.3H257.7l115.6-125.6h127.2L423.9,1335.3z M604.7,1335.3H430l76.7-125.6h137.9L604.7,1335.3z
	 M783.6,1335.3H610.3l39.8-125.6h133.5V1335.3z M783.6,1205h-132l23.9-75.3h108.1V1205z M783.6,1124.8H677l16.7-52.6h89.9
	L783.6,1124.8L783.6,1124.8z M783.6,1067.4h-88.4l11-34.7h77.4V1067.4z M783.6,1028h-75.9l8-25.1h68L783.6,1028L783.6,1028z
	 M783.6,998.1h-66.4l6.8-21.5h59.6L783.6,998.1L783.6,998.1z M783.6,971.7h-58.1l5.3-16.8h52.8V971.7z M783.6,950.2h-51.3l4.2-13.2
	h47.1V950.2z M783.6,932.3H738l3.4-10.8h42.2L783.6,932.3L783.6,932.3z M783.6,916.7h-40.7l3-9.6h37.6L783.6,916.7L783.6,916.7z
	 M1456.7,1205h-131.6l-89.3-75.3h106.8L1456.7,1205z M1150.6,1002.8l38,25.1h-73.3l-29.8-25.1H1150.6L1150.6,1002.8z M1079.9,998.1
	l-25.5-21.5h56.4l32.6,21.5H1079.9z M1119.8,976.5h58.1l38.7,21.5h-64.2L1119.8,976.5z M1187.9,976.5h60.8l43.8,21.5h-65.8
	L1187.9,976.5L1187.9,976.5z M1179.3,971.8l-30.1-16.8h55.7l34,16.8H1179.3z M1169.2,971.8h-56.7l-25.4-16.8h51.9L1169.2,971.8
	L1169.2,971.8z M1103.5,971.8h-54.8l-19.8-16.8h49.3L1103.5,971.8z M1041,971.8h-58.1L967.4,955h53.7L1041,971.8z M1046.6,976.5
	l25.5,21.5h-65.1l-19.8-21.5H1046.6z M1077.8,1002.8l29.8,25.1h-73l-23.1-25.1H1077.8L1077.8,1002.8z M1113.3,1032.7l41.1,34.7
	h-83.4l-31.9-34.7H1113.3z M1121,1032.7h74.9l52.5,34.7h-86.3L1121,1032.7z M1159.6,1002.8h65.5l45.2,25.1h-72.6L1159.6,1002.8
	L1159.6,1002.8z M1235.2,1002.8h66.9l51.1,25.1h-72.8L1235.2,1002.8z M1259.7,976.5h69.4l48.6,21.5h-74.3L1259.7,976.5L1259.7,976.5
	z M1250,971.8l-34-16.8h64.6l37.8,16.8H1250L1250,971.8z M1252.1,937.1h48.1l34,13.2h-52.4L1252.1,937.1z M1269.7,950.2h-63.5
	l-26.8-13.2h60.5L1269.7,950.2z M1195.2,950.2h-54.6l-23.7-13.2h51.5L1195.2,950.2L1195.2,950.2z M1130.5,950.2h-50.6l-19.9-13.2
	h46.9L1130.5,950.2z M1070.9,950.2h-47.7l-15.6-13.2h43.4L1070.9,950.2z M1015.5,950.2H963l-12.1-13.2h49L1015.5,950.2z
	 M956.1,950.2h-47.2l-8-13.2H944L956.1,950.2z M960.5,955l15.4,16.8H922L911.8,955H960.5z M980.3,976.5l19.8,21.5h-62.1l-13.2-21.5
	H980.3L980.3,976.5z M1004.6,1002.8l23.1,25.1h-71.3l-15.3-25.1H1004.6z M1032.1,1032.7l31.9,34.7h-83.6l-21.2-34.7H1032.1
	L1032.1,1032.7z M1068.4,1072.2l48.5,52.6h-101.4l-32.2-52.6H1068.4L1068.4,1072.2z M1075.3,1072.2h84.7l62.4,52.6h-98.6
	L1075.3,1072.2L1075.3,1072.2z M1167.8,1072.2h87.9l79.7,52.6h-105.2L1167.8,1072.2z M1204.9,1032.7h74l62.4,34.7h-83.8
	L1204.9,1032.7z M1289,1032.7h74l70.5,34.7h-82.1L1289,1032.7z M1313.2,1002.8h75.4l56.7,25.1h-81.1L1313.2,1002.8z M1341.2,976.5
	h60.9l55.6,21.5h-67.9L1341.2,976.5z M1330.4,971.8l-37.8-16.8h53.9l43.2,16.8H1330.4z M1313.6,937.1h56.9l38.8,13.2h-61.8
	L1313.6,937.1z M1339.8,921.5h46.4l40.2,10.8h-54.9L1339.8,921.5z M1356.5,932.3h-55.2l-27.8-10.8h51.3L1356.5,932.3L1356.5,932.3z
	 M1287.8,932.3h-46.6l-24.3-10.8h43.1L1287.8,932.3L1287.8,932.3z M1229.2,932.3h-59.5l-21.9-10.8h57L1229.2,932.3z M1158.7,932.3
	h-50.3l-19.3-10.8h47.8L1158.7,932.3L1158.7,932.3z M1098.2,932.3h-45.5l-16.3-10.8h42.5L1098.2,932.3L1098.2,932.3z M1043.7,932.3
	H1002l-12.8-10.8h38.3L1043.7,932.3L1043.7,932.3z M994.2,932.3h-47.7l-9.9-10.8h44.9L994.2,932.3z M939.6,932.3h-41.7l-6.6-10.8
	h38.3L939.6,932.3L939.6,932.3z M891.8,932.3h-52.7l-3.4-10.8h49.6L891.8,932.3L891.8,932.3z M894.8,937.1l8,13.2h-58l-4.2-13.2
	H894.8z M905.7,955l10.2,16.8h-64.3l-5.3-16.8H905.7L905.7,955z M918.9,976.5l13.2,21.5h-72.1l-6.8-21.5H918.9z M934.9,1002.8
	l15.3,25.1h-80.9l-8-25.1H934.9L934.9,1002.8z M953.2,1032.7l21.2,34.7h-92.5l-11-34.7H953.2z M977.3,1072.2l32.2,52.6H900.1
	l-16.7-52.6H977.3L977.3,1072.2z M1012.4,1129.6l46,75.3H925.5l-23.9-75.3H1012.4L1012.4,1129.6z M1018.4,1129.6h102.9l69.4,75.3
	h-126.2L1018.4,1129.6z M1128.2,1129.6h99.8l89.3,75.3h-119.7L1128.2,1129.6L1128.2,1129.6z M1344.3,1124.8l-79.7-52.6h85.2
	l94.6,52.6H1344.3z M1550.2,1124.8h-95.7l-94.6-52.6h83.3L1550.2,1124.8z M1534.5,1067.4h-90l-70.5-34.7h82.1L1534.5,1067.4z
	 M1535,1028h-77.6l-56.7-25.1h69.4L1535,1028z M1550.4,998.1h-79.2l-55.6-21.5h71.4L1550.4,998.1z M1472.8,971.7h-69.6L1360,955
	h63.5L1472.8,971.7z M1493.5,950.2h-69l-38.8-13.2h58.7L1493.5,950.2z M1533.8,932.3h-88.7l-40.2-10.8h77.3L1533.8,932.3
	L1533.8,932.3z M1413.2,907.2l45.9,9.6H1387l-35.8-9.6H1413.2L1413.2,907.2z M1345.6,907.2l-1.1,3.2l23.8,6.4h-42.7l-28.2-9.6
	H1345.6L1345.6,907.2z M1282.4,907.2l28.2,9.6h-49.5l-24.7-9.6H1282.4z M1222.9,907.2l24.7,9.6h-41.5l-21.6-9.6H1222.9L1222.9,907.2
	z M1172.5,907.2l21.6,9.6h-55.9l-19.4-9.6H1172.5L1172.5,907.2z M1107.6,907.2l19.4,9.6h-46.7l-17.2-9.6H1107.6z M1053.1,907.2
	l17.2,9.6h-41.1l-14.5-9.6H1053.1z M1005.7,907.2l14.5,9.6h-36.7l-11.3-9.6H1005.7z M964.4,907.2l11.3,9.6h-43.6l-8.8-9.6H964.4
	L964.4,907.2z M916.4,907.2l8.8,9.6h-36.9l-5.8-9.6H916.4z M876.5,907.2l5.8,9.6h-48.2l-3-9.6H876.5z M788.9,907.2h36.8l3,9.6h-39.8
	V907.2z M788.9,921.5h41.3l3.4,10.8h-44.7V921.5z M788.9,937.1h46.3l4.2,13.2h-50.4L788.9,937.1L788.9,937.1z M788.9,955h51.9
	l5.3,16.8h-57.2V955z M788.9,976.5h58.8l6.8,21.5h-65.6L788.9,976.5L788.9,976.5z M788.9,1002.8H856l8,25.1h-75.1V1002.8z
	 M788.9,1032.7h76.6l11,34.7h-87.6V1032.7z M788.9,1072.2h89.1l16.7,52.6H788.9L788.9,1072.2L788.9,1072.2z M788.9,1129.6h107.3
	L920,1205H788.9L788.9,1129.6L788.9,1129.6z M788.9,1335.3v-125.6h132.7l39.8,125.6H788.9L788.9,1335.3z M966.8,1335.3L927,1209.8
	h134.3l76.7,125.6H966.8L966.8,1335.3z M1144.1,1335.3l-76.7-125.6h127.7l115.6,125.6H1144.1z M1317.6,1335.3L1202,1209.8h121
	l148.8,125.6H1317.6L1317.6,1335.3z"/>
</svg>
