<?xml version="1.0" encoding="UTF-8"?><svg id="Layer_2" xmlns="http://www.w3.org/2000/svg" viewBox="0 0 78 66"><defs><style>.cls-1{fill:#fff;}</style></defs><path d="M39,61c-10.69,0-21.39,0-32.08,0-4.08,0-5.68-1.62-5.68-5.73,0-12.83,0-25.67,0-38.5,0-3.98,1.63-5.61,5.6-5.62,4.21,0,8.43,.07,12.64-.06,.83-.03,2.08-.6,2.39-1.26,1.88-4.02,4.95-5.04,9.2-4.81,6.15,.34,12.33,.19,18.49,.04,2.46-.06,4.23,.79,5.23,2.9,1.25,2.62,3.1,3.49,5.99,3.26,3.63-.28,7.29-.09,10.94-.06,3.22,.03,5.03,1.81,5.04,5.04,.02,13.21,.02,26.42,0,39.63,0,3.43-1.8,5.17-5.29,5.17-10.82,.01-21.64,0-32.46,0Zm.03-46.81c-10.75-.02-19.59,8.75-19.65,19.49-.06,10.84,8.76,19.73,19.58,19.75,10.75,.02,19.6-8.75,19.66-19.49,.06-10.84-8.76-19.73-19.59-19.75ZM14.09,24.75c2.34,0,3.75-1.14,3.74-3.02,0-1.88-1.42-3.01-3.76-3-2.34,0-3.75,1.14-3.74,3.02,0,1.88,1.42,3.01,3.76,3.01Z"/><path class="cls-1" d="M39.03,14.19c10.83,.02,19.65,8.91,19.59,19.75-.06,10.74-8.9,19.51-19.66,19.49-10.82-.02-19.65-8.92-19.58-19.75,.06-10.74,8.9-19.51,19.65-19.49Zm-.05,36.23c9.1,0,16.58-7.42,16.63-16.5,.04-9.2-7.42-16.71-16.6-16.72-9.11,0-16.58,7.41-16.63,16.5-.05,9.19,7.42,16.72,16.6,16.72Z"/><path class="cls-1" d="M14.09,24.75c-2.34,0-3.76-1.13-3.76-3.01,0-1.88,1.4-3.02,3.74-3.02,2.35,0,3.76,1.12,3.76,3,0,1.88-1.41,3.02-3.74,3.02Z"/><path d="M38.98,50.43c-9.18,0-16.64-7.53-16.6-16.72,.04-9.09,7.52-16.51,16.63-16.5,9.18,0,16.64,7.52,16.6,16.72-.04,9.09-7.52,16.51-16.63,16.5Zm0-3.03c7.45,0,13.57-6.08,13.6-13.52,.03-7.45-6.03-13.6-13.47-13.64-7.53-.05-13.7,6.08-13.69,13.61,.01,7.44,6.12,13.54,13.56,13.55Z"/><path class="cls-1" d="M38.98,47.39c-7.44,0-13.55-6.11-13.56-13.55-.01-7.52,6.16-13.66,13.69-13.61,7.43,.05,13.49,6.19,13.47,13.64-.03,7.44-6.15,13.52-13.6,13.52Zm10.59-13.56c0-5.8-4.71-10.56-10.5-10.6-5.81-.03-10.59,4.67-10.64,10.45-.05,5.89,4.72,10.7,10.59,10.69,5.8-.01,10.54-4.75,10.55-10.55Z"/><path d="M49.57,33.84c0,5.8-4.75,10.54-10.55,10.55-5.87,.01-10.65-4.8-10.59-10.69,.05-5.78,4.84-10.48,10.64-10.45,5.79,.03,10.51,4.79,10.5,10.6Z"/></svg>