<?xml version="1.0" encoding="utf-8"?>
<!-- Generator: Adobe Illustrator 24.1.0, SVG Export Plug-In . SVG Version: 6.00 Build 0)  -->
<svg version="1.1" id="Layer_1" xmlns="http://www.w3.org/2000/svg" xmlns:xlink="http://www.w3.org/1999/xlink" x="0px" y="0px"
	 viewBox="0 0 24 24" style="enable-background:new 0 0 24 24;" xml:space="preserve">
<style type="text/css">
	.st0{fill:#7D86C1;}
</style>
<path class="st0" d="M10.2,11.2c-0.2,0-0.4,0-0.6,0.1c-0.2,0.1-0.3,0.3-0.4,0.5C9.1,12,9,12.2,9.1,12.4c0,0.2,0.1,0.4,0.3,0.6
	c0.1,0.2,0.3,0.3,0.6,0.3c0.2,0,0.4,0,0.6,0c0.2-0.1,0.4-0.2,0.5-0.4c0.1-0.2,0.2-0.4,0.2-0.6c0-0.1,0-0.3-0.1-0.4
	c0-0.1-0.1-0.2-0.2-0.3c-0.1-0.1-0.2-0.2-0.3-0.2C10.5,11.2,10.4,11.2,10.2,11.2z M13.8,11.2c-0.2,0-0.4,0-0.6,0.1
	c-0.2,0.1-0.3,0.3-0.4,0.5c-0.1,0.2-0.1,0.4-0.1,0.6c0,0.2,0.1,0.4,0.3,0.6c0.1,0.2,0.3,0.3,0.6,0.3c0.2,0,0.4,0,0.6,0
	c0.2-0.1,0.4-0.2,0.5-0.4c0.1-0.2,0.2-0.4,0.2-0.6c0-0.1,0-0.3-0.1-0.4c0-0.1-0.1-0.2-0.2-0.3c-0.1-0.1-0.2-0.2-0.3-0.2
	C14.1,11.2,13.9,11.2,13.8,11.2z"/>
<path class="st0" d="M18.5,3H5.5C5.2,3,4.9,3.1,4.7,3.2C4.5,3.3,4.2,3.4,4.1,3.6C3.9,3.8,3.7,4,3.6,4.2C3.5,4.5,3.5,4.7,3.5,5v13.2
	c0,0.3,0.1,0.5,0.2,0.8c0.1,0.2,0.2,0.5,0.4,0.7c0.2,0.2,0.4,0.3,0.6,0.4c0.2,0.1,0.5,0.2,0.8,0.2h11.1L16,18.4l1.2,1.2l1.2,1.1
	l2.1,1.9V5c0-0.3-0.1-0.5-0.2-0.8s-0.2-0.5-0.4-0.7c-0.2-0.2-0.4-0.3-0.6-0.4C19.1,3.1,18.8,3,18.5,3z M14.8,15.7
	c0,0-0.4-0.4-0.6-0.8c0.7-0.2,1.3-0.6,1.8-1.2c-0.4,0.2-0.7,0.4-1.1,0.6c-0.5,0.2-0.9,0.3-1.4,0.4c-0.8,0.2-1.7,0.2-2.5,0
	c-0.5-0.1-1-0.2-1.4-0.4c-0.2-0.1-0.5-0.2-0.7-0.3c0,0-0.1,0-0.1,0c0,0,0,0,0,0c-0.2-0.1-0.3-0.2-0.3-0.2c0.4,0.6,1,1,1.7,1.2
	c-0.3,0.4-0.7,0.8-0.7,0.8c-0.6,0-1.2-0.1-1.7-0.4c-0.5-0.3-1-0.6-1.3-1.1c0-2,0.5-3.9,1.4-5.7c0.8-0.6,1.7-1,2.7-1l0.1,0.1
	C9.7,7.9,8.8,8.3,8,8.9c0,0,0.2-0.1,0.6-0.3c0.7-0.3,1.4-0.5,2.2-0.6c0.1,0,0.1,0,0.2,0c0.7-0.1,1.3-0.1,2,0c1,0.1,2,0.4,2.9,0.9
	c-0.7-0.6-1.5-1-2.4-1.2l0.1-0.2c1,0,2,0.4,2.7,1c0.9,1.8,1.4,3.7,1.4,5.7c-0.3,0.5-0.8,0.9-1.3,1.1C15.9,15.6,15.3,15.7,14.8,15.7z
	"/>
</svg>
