<svg width="180" height="48" viewBox="0 0 180 48" fill="none" xmlns="http://www.w3.org/2000/svg">
<path fill-rule="evenodd" clip-rule="evenodd" d="M35.5 23.25L34.4425 22.1925L28.75 27.8775V13.5H27.25V27.8775L21.5575 22.1925L20.5 23.25L28 30.75L35.5 23.25ZM35.5 30V33H20.5V30H19V33C19 33.8284 19.6716 34.5 20.5 34.5H35.5C36.3284 34.5 37 33.8284 37 33V30H35.5Z" fill="white"/>
<path d="M49.5271 30.5H57.8112V28.7997H51.5022V24.7919H57.3062V23.098H51.5022V19.1094H57.7345V17.4091H49.5271V30.5ZM68.6185 20.6818H66.5667L64.0866 28.2372H63.9843L61.4978 20.6818H59.4459L63.0127 30.5H65.0582L68.6185 20.6818ZM74.2947 30.6982C76.436 30.6982 77.9509 29.6435 78.3856 28.0455L76.5766 27.7195C76.2314 28.6463 75.4005 29.1193 74.3138 29.1193C72.6775 29.1193 71.578 28.0582 71.5269 26.1662H78.507V25.4886C78.507 21.9411 76.3849 20.554 74.1604 20.554C71.4246 20.554 69.6221 22.6378 69.6221 25.6548C69.6221 28.7038 71.3991 30.6982 74.2947 30.6982ZM71.5333 24.7344C71.61 23.3409 72.6199 22.1328 74.1732 22.1328C75.6562 22.1328 76.6278 23.2322 76.6341 24.7344H71.5333ZM82.5388 24.6705C82.5388 23.1044 83.4976 22.2095 84.8271 22.2095C86.1247 22.2095 86.911 23.0597 86.911 24.4851V30.5H88.8222V24.255C88.8222 21.826 87.4862 20.554 85.4791 20.554C84.0026 20.554 83.0374 21.2379 82.5835 22.2798H82.4621V20.6818H80.6276V30.5H82.5388V24.6705ZM95.9685 20.6818H93.955V18.3295H92.0438V20.6818H90.6056V22.2159H92.0438V28.0135C92.0374 29.7969 93.3989 30.6598 94.9074 30.6278C95.5146 30.6214 95.9237 30.5064 96.1475 30.4233L95.8023 28.8445C95.6744 28.87 95.4379 28.9276 95.1311 28.9276C94.5111 28.9276 93.955 28.723 93.955 27.6172V22.2159H95.9685V20.6818ZM103 30.5H104.975V24.7919H111.501V30.5H113.483V17.4091H111.501V23.098H104.975V17.4091H103V30.5ZM116.206 30.5H118.117V20.6818H116.206V30.5ZM117.171 19.1669C117.829 19.1669 118.379 18.6555 118.379 18.0291C118.379 17.4027 117.829 16.8849 117.171 16.8849C116.506 16.8849 115.963 17.4027 115.963 18.0291C115.963 18.6555 116.506 19.1669 117.171 19.1669ZM128.045 23.0788C127.649 21.5511 126.454 20.554 124.332 20.554C122.114 20.554 120.541 21.7237 120.541 23.4624C120.541 24.8558 121.385 25.7827 123.226 26.1918L124.888 26.5561C125.834 26.767 126.275 27.1889 126.275 27.8026C126.275 28.5632 125.463 29.1577 124.21 29.1577C123.066 29.1577 122.331 28.6655 122.101 27.7003L120.253 27.9815C120.573 29.7202 122.018 30.6982 124.223 30.6982C126.594 30.6982 128.237 29.4389 128.237 27.6619C128.237 26.2749 127.355 25.4183 125.552 25.0028L123.993 24.6449C122.913 24.3892 122.446 24.0249 122.452 23.3601C122.446 22.6058 123.264 22.0689 124.351 22.0689C125.54 22.0689 126.089 22.7273 126.313 23.3857L128.045 23.0788ZM134.922 20.6818H132.908V18.3295H130.997V20.6818H129.559V22.2159H130.997V28.0135C130.991 29.7969 132.352 30.6598 133.861 30.6278C134.468 30.6214 134.877 30.5064 135.101 30.4233L134.755 28.8445C134.628 28.87 134.391 28.9276 134.084 28.9276C133.464 28.9276 132.908 28.723 132.908 27.6172V22.2159H134.922V20.6818ZM141.066 30.6982C143.834 30.6982 145.643 28.6719 145.643 25.6357C145.643 22.5803 143.834 20.554 141.066 20.554C138.298 20.554 136.489 22.5803 136.489 25.6357C136.489 28.6719 138.298 30.6982 141.066 30.6982ZM141.072 29.0938C139.263 29.0938 138.42 27.5149 138.42 25.6293C138.42 23.75 139.263 22.152 141.072 22.152C142.869 22.152 143.712 23.75 143.712 25.6293C143.712 27.5149 142.869 29.0938 141.072 29.0938ZM147.776 30.5H149.687V24.5043C149.687 23.2195 150.678 22.2926 152.033 22.2926C152.429 22.2926 152.877 22.3629 153.03 22.4077V20.5795C152.839 20.554 152.461 20.5348 152.218 20.5348C151.068 20.5348 150.084 21.1868 149.726 22.2415H149.623V20.6818H147.776V30.5ZM156.191 34.1818C157.77 34.1818 158.767 33.3572 159.336 31.8104L163.395 20.701L161.33 20.6818L158.844 28.3011H158.742L156.255 20.6818H154.21L157.802 30.6278L157.565 31.2798C157.08 32.5838 156.396 32.6925 155.347 32.4048L154.887 33.9709C155.117 34.0732 155.616 34.1818 156.191 34.1818Z" fill="white"/>
</svg>
