<?xml version="1.0" encoding="utf-8"?>
<!-- Generator: Adobe Illustrator 24.1.0, SVG Export Plug-In . SVG Version: 6.00 Build 0)  -->
<svg version="1.1" id="Layer_1" xmlns="http://www.w3.org/2000/svg" xmlns:xlink="http://www.w3.org/1999/xlink" x="0px" y="0px"
	 viewBox="0 0 270.5 21" style="enable-background:new 0 0 270.5 21;" xml:space="preserve">
<style type="text/css">
	.st0{fill-rule:evenodd;clip-rule:evenodd;fill:#FFFFFF;}
	.st1{fill:#FFFFFF;}
</style>
<path class="st0" d="M19.1,9.8L18,8.7l-5.7,5.7V0h-1.5v14.4L5.1,8.7L4.1,9.8l7.5,7.5L19.1,9.8z M19.1,16.5v3h-15v-3H2.6v3
	c0,0.8,0.7,1.5,1.5,1.5h15c0.8,0,1.5-0.7,1.5-1.5v-3H19.1z"/>
<path class="st1" d="M37.7,17c4,0,6.3-2.5,6.3-6.6c0-4.1-2.3-6.5-6.2-6.5h-4.4V17H37.7z M35.5,15.3V5.6h2.3c2.9,0,4.3,1.7,4.3,4.8
	c0,3.1-1.5,4.8-4.5,4.8H35.5z M50.5,17.2c2.8,0,4.6-2,4.6-5.1c0-3.1-1.8-5.1-4.6-5.1c-2.8,0-4.6,2-4.6,5.1
	C45.9,15.2,47.7,17.2,50.5,17.2z M50.5,15.6c-1.8,0-2.7-1.6-2.7-3.5c0-1.9,0.8-3.5,2.7-3.5c1.8,0,2.6,1.6,2.6,3.5
	C53.1,14,52.3,15.6,50.5,15.6z M59,17h1.9l2-7.1h0.1l2,7.1H67l2.9-9.8h-2L66,14.4h-0.1L64,7.2h-2l-1.9,7.2H60l-1.9-7.2h-2L59,17z
	 M73.6,11.2c0-1.6,1-2.5,2.3-2.5c1.3,0,2.1,0.9,2.1,2.3v6h1.9v-6.2c0-2.4-1.3-3.7-3.3-3.7c-1.5,0-2.4,0.7-2.9,1.7h-0.1V7.2h-1.8V17
	h1.9V11.2z M84.4,3.9h-1.9V17h1.9V3.9z M91.1,17.2c2.8,0,4.6-2,4.6-5.1c0-3.1-1.8-5.1-4.6-5.1c-2.8,0-4.6,2-4.6,5.1
	C86.5,15.2,88.3,17.2,91.1,17.2z M91.1,15.6c-1.8,0-2.7-1.6-2.7-3.5c0-1.9,0.8-3.5,2.7-3.5c1.8,0,2.6,1.6,2.6,3.5
	C93.7,14,92.9,15.6,91.1,15.6z M100.7,17.2c1.6,0,2.5-0.8,2.9-1.6h0.1V17h1.9v-6.5c0-2.9-2.2-3.4-3.8-3.4c-1.8,0-3.4,0.7-4.1,2.5
	l1.8,0.4c0.3-0.7,1-1.4,2.3-1.4c1.2,0,1.9,0.6,1.9,1.8v0c0,0.7-0.7,0.7-2.5,0.9c-1.9,0.2-3.8,0.7-3.8,2.9
	C97.3,16.2,98.8,17.2,100.7,17.2z M101.1,15.7c-1.1,0-1.9-0.5-1.9-1.4c0-1,0.9-1.4,2-1.5c0.6-0.1,2.1-0.2,2.4-0.5v1.3
	C103.6,14.6,102.7,15.7,101.1,15.7z M111.7,17.2c1.8,0,2.5-1.1,2.8-1.7h0.2V17h1.9V3.9h-1.9v4.9h-0.1c-0.3-0.6-1-1.7-2.8-1.7
	c-2.4,0-4.1,1.9-4.1,5.1C107.6,15.3,109.3,17.2,111.7,17.2z M112.1,15.6c-1.7,0-2.6-1.5-2.6-3.5c0-1.9,0.9-3.4,2.6-3.4
	c1.7,0,2.6,1.4,2.6,3.4C114.7,14.2,113.8,15.6,112.1,15.6z M131.4,7.3h1.9c-0.1-2.1-1.9-3.6-4.6-3.6c-2.6,0-4.6,1.5-4.6,3.8
	c0,1.8,1.3,2.9,3.4,3.5l1.5,0.4c1.4,0.4,2.5,0.8,2.5,2c0,1.3-1.2,2.1-2.9,2.1c-1.5,0-2.8-0.7-2.9-2.1h-2c0.1,2.4,2,3.8,4.9,3.8
	c3.1,0,4.8-1.6,4.8-3.8c0-2.4-2.1-3.3-3.8-3.7l-1.3-0.3c-1-0.3-2.4-0.7-2.4-2c0-1.1,1-1.9,2.6-1.9C130.2,5.4,131.2,6.1,131.4,7.3z
	 M139.8,17.2c2.3,0,3.8-1.4,4-3.3H142c-0.2,1.1-1.1,1.7-2.2,1.7c-1.6,0-2.7-1.3-2.7-3.5c0-2.1,1.1-3.4,2.7-3.4c1.2,0,2,0.8,2.2,1.7
	h1.9c-0.2-2-1.8-3.3-4.1-3.3c-2.8,0-4.6,2.1-4.6,5.1C135.2,15.1,137,17.2,139.8,17.2z M150,17.2c2.8,0,4.6-2,4.6-5.1
	c0-3.1-1.8-5.1-4.6-5.1c-2.8,0-4.6,2-4.6,5.1C145.4,15.2,147.2,17.2,150,17.2z M150,15.6c-1.8,0-2.7-1.6-2.7-3.5
	c0-1.9,0.8-3.5,2.7-3.5c1.8,0,2.6,1.6,2.6,3.5C152.7,14,151.8,15.6,150,15.6z M156.7,17h1.9v-6c0-1.3,1-2.2,2.3-2.2
	c0.4,0,0.8,0.1,1,0.1V7.1c-0.2,0-0.6,0-0.8,0c-1.2,0-2.1,0.7-2.5,1.7h-0.1V7.2h-1.8V17z M167.5,17.2c2.1,0,3.7-1.1,4.1-2.7l-1.8-0.3
	c-0.3,0.9-1.2,1.4-2.3,1.4c-1.6,0-2.7-1.1-2.8-3h7V12c0-3.5-2.1-4.9-4.3-4.9c-2.7,0-4.5,2.1-4.5,5.1
	C162.8,15.2,164.6,17.2,167.5,17.2z M164.8,11.2c0.1-1.4,1.1-2.6,2.6-2.6c1.5,0,2.5,1.1,2.5,2.6H164.8z M181.2,9.6
	c-0.4-1.5-1.6-2.5-3.7-2.5c-2.2,0-3.8,1.2-3.8,2.9c0,1.4,0.8,2.3,2.7,2.7l1.7,0.4c0.9,0.2,1.4,0.6,1.4,1.2c0,0.8-0.8,1.4-2.1,1.4
	c-1.1,0-1.9-0.5-2.1-1.5l-1.8,0.3c0.3,1.7,1.8,2.7,4,2.7c2.4,0,4-1.3,4-3c0-1.4-0.9-2.2-2.7-2.7l-1.6-0.4c-1.1-0.3-1.5-0.6-1.5-1.3
	c0-0.8,0.8-1.3,1.9-1.3c1.2,0,1.7,0.7,2,1.3L181.2,9.6z M192.1,17.2c1.2,0,2.5-0.4,3.4-1.2l0.9,1h2.2l-1.9-2.2
	c0.6-0.7,1.1-1.9,1.1-3.7H196c0,0.9-0.2,1.7-0.5,2.3l-2.6-3.1l0.9-0.7c1.1-0.8,1.7-1.7,1.7-3c0-1.5-1.2-2.9-3.2-2.9
	c-2,0-3.3,1.3-3.3,3.1c0,1.2,0.6,2.1,1.4,3.1c-1.5,1-2.5,2-2.5,3.6C187.8,15.6,189.4,17.2,192.1,17.2z M194.4,14.7
	c-0.7,0.6-1.5,0.9-2.3,0.9c-1.4,0-2.3-1-2.3-2.1c0-0.4,0.3-1.2,1.4-2l0.3-0.3L194.4,14.7z M191.8,9c-0.6-0.7-1.1-1.4-1.1-2.1
	c0-0.8,0.6-1.5,1.5-1.5c0.9,0,1.5,0.7,1.5,1.3c0,0.8-0.4,1.3-1.1,1.7L191.8,9z M204.9,3.9V17h1.9V7.5h0.1l3.9,9.5h1.6l3.9-9.5h0.1
	V17h1.9V3.9h-2.4l-4.2,10.2h-0.2l-4.2-10.2H204.9z M225.1,17.2c2.1,0,3.7-1.1,4.1-2.7l-1.8-0.3c-0.3,0.9-1.2,1.4-2.3,1.4
	c-1.6,0-2.7-1.1-2.8-3h7V12c0-3.5-2.1-4.9-4.3-4.9c-2.7,0-4.5,2.1-4.5,5.1C220.5,15.2,222.2,17.2,225.1,17.2z M222.4,11.2
	c0.1-1.4,1.1-2.6,2.6-2.6c1.5,0,2.5,1.1,2.5,2.6H222.4z M236.1,7.2h-2V4.8h-1.9v2.4h-1.4v1.5h1.4v5.8c0,1.8,1.4,2.6,2.9,2.6
	c0.6,0,1-0.1,1.2-0.2l-0.3-1.6c-0.1,0-0.4,0.1-0.7,0.1c-0.6,0-1.2-0.2-1.2-1.3V8.7h2V7.2z M238.2,17h1.9v-6c0-1.3,1-2.2,2.3-2.2
	c0.4,0,0.8,0.1,1,0.1V7.1c-0.2,0-0.6,0-0.8,0c-1.2,0-2.1,0.7-2.5,1.7H240V7.2h-1.8V17z M245.1,17h1.9V7.2h-1.9V17z M246,5.7
	c0.7,0,1.2-0.5,1.2-1.1s-0.5-1.1-1.2-1.1c-0.7,0-1.2,0.5-1.2,1.1S245.4,5.7,246,5.7z M253.7,17.2c2.3,0,3.8-1.4,4-3.3h-1.9
	c-0.2,1.1-1.1,1.7-2.2,1.7c-1.6,0-2.7-1.3-2.7-3.5c0-2.1,1.1-3.4,2.7-3.4c1.2,0,2,0.8,2.2,1.7h1.9c-0.2-2-1.8-3.3-4.1-3.3
	c-2.8,0-4.6,2.1-4.6,5.1C249.1,15.1,250.8,17.2,253.7,17.2z M267.1,9.6c-0.4-1.5-1.6-2.5-3.7-2.5c-2.2,0-3.8,1.2-3.8,2.9
	c0,1.4,0.8,2.3,2.7,2.7l1.7,0.4c0.9,0.2,1.4,0.6,1.4,1.2c0,0.8-0.8,1.4-2.1,1.4c-1.1,0-1.9-0.5-2.1-1.5l-1.8,0.3
	c0.3,1.7,1.8,2.7,4,2.7c2.4,0,4-1.3,4-3c0-1.4-0.9-2.2-2.7-2.7l-1.6-0.4c-1.1-0.3-1.5-0.6-1.5-1.3c0-0.8,0.8-1.3,1.9-1.3
	c1.2,0,1.7,0.7,2,1.3L267.1,9.6z"/>
</svg>
