<?xml version="1.0" encoding="UTF-8"?><svg id="Layer_1" xmlns="http://www.w3.org/2000/svg" viewBox="0 0 97 103.03"><defs><style>.cls-1{fill-rule:evenodd;}</style></defs><path class="cls-1" d="M48.5,103.03c-3.9,0-7.7-1-11.2-2.9-7.8-4.4-18.2-10.3-26.1-14.8-6.9-3.9-11.2-11.2-11.2-19v-29.6c0-7.8,4.3-15.1,11.2-19,7.8-4.4,18.2-10.3,26.1-14.8,6.9-3.9,15.4-3.9,22.4,0,7.8,4.4,18.2,10.3,26.1,14.8,3.4,1.9,6.1,4.6,8,7.7l-34.2,19.7c-6.8,3.9-11,11.3-11.1,18.9v39Zm48.4-41.9v5.1c0,7.8-4.3,15.1-11.2,19-7.8,4.4-18.2,10.3-26.1,14.8-.7,.4-1.5,.8-2.2,1.1v-9.2c0-4.6,2.6-9,6.5-11.3,9.8-5.7,19.6-11.2,29.4-16.9,1.3-.7,2.5-1.6,3.6-2.6Zm-.1-27.2c.1,.9,.2,1.9,.2,2.8v5.3c0,5.8-3.2,11.2-8.2,14.1-9.8,5.7-19.6,11.2-29.4,16.9-.7,.4-1.3,.8-1.9,1.3v-10.3c0-4.6,2.6-9.1,6.6-11.4l32.7-18.7Z"/></svg>