<svg width="232" height="24" viewBox="0 0 232 24" fill="none" xmlns="http://www.w3.org/2000/svg">
<path d="M25.233 17H26.4659V12.446H30.8807V11.3523H26.4659V7.91193H31.3381V6.81818H25.233V17ZM34.464 6.81818H33.2907V17H34.464V6.81818ZM36.6129 17H37.7862V9.36364H36.6129V17ZM37.2095 8.09091C37.6669 8.09091 38.0447 7.73295 38.0447 7.29545C38.0447 6.85795 37.6669 6.5 37.2095 6.5C36.7521 6.5 36.3743 6.85795 36.3743 7.29545C36.3743 7.73295 36.7521 8.09091 37.2095 8.09091ZM39.9352 19.8636H41.1085V15.8267H41.2079C41.4664 16.2443 41.9636 17.1591 43.4352 17.1591C45.3443 17.1591 46.6767 15.6278 46.6767 13.2017C46.6767 10.7955 45.3443 9.2642 43.4153 9.2642C41.9238 9.2642 41.4664 10.179 41.2079 10.5767H41.0687V9.36364H39.9352V19.8636ZM41.0886 13.1818C41.0886 11.4716 41.8443 10.3182 43.2761 10.3182C44.7676 10.3182 45.5034 11.571 45.5034 13.1818C45.5034 14.8125 44.7477 16.1051 43.2761 16.1051C41.8642 16.1051 41.0886 14.9119 41.0886 13.1818ZM53.8755 11.0739C53.5076 9.99006 52.6824 9.2642 51.171 9.2642C49.5602 9.2642 48.367 10.179 48.367 11.4716C48.367 12.5256 48.9934 13.2315 50.3954 13.5597L51.6681 13.858C52.4387 14.0369 52.8017 14.4048 52.8017 14.9318C52.8017 15.5881 52.1056 16.125 51.0119 16.125C50.0524 16.125 49.4508 15.7124 49.242 14.892L48.1284 15.1705C48.4018 16.468 49.4707 17.1591 51.0318 17.1591C52.8066 17.1591 54.0147 16.1896 54.0147 14.8722C54.0147 13.8082 53.3485 13.1371 51.9863 12.804L50.8528 12.5256C49.948 12.3018 49.5403 11.9986 49.5403 11.4119C49.5403 10.7557 50.2363 10.2784 51.171 10.2784C52.1951 10.2784 52.6177 10.8452 52.8216 11.3722L53.8755 11.0739ZM55.7809 17H56.9542V9.36364H55.7809V17ZM56.3775 8.09091C56.8349 8.09091 57.2127 7.73295 57.2127 7.29545C57.2127 6.85795 56.8349 6.5 56.3775 6.5C55.9201 6.5 55.5423 6.85795 55.5423 7.29545C55.5423 7.73295 55.9201 8.09091 56.3775 8.09091ZM61.9867 17.1591C63.4583 17.1591 63.9554 16.2443 64.214 15.8267H64.3532V17H65.4867V6.81818H64.3134V10.5767H64.214C63.9554 10.179 63.498 9.2642 62.0066 9.2642C60.0776 9.2642 58.7452 10.7955 58.7452 13.2017C58.7452 15.6278 60.0776 17.1591 61.9867 17.1591ZM62.1458 16.1051C60.6742 16.1051 59.9185 14.8125 59.9185 13.1818C59.9185 11.571 60.6543 10.3182 62.1458 10.3182C63.5776 10.3182 64.3333 11.4716 64.3333 13.1818C64.3333 14.9119 63.5577 16.1051 62.1458 16.1051ZM71.0002 17.1591C72.5513 17.1591 73.6848 16.3835 74.0428 15.2301L72.9093 14.9119C72.611 15.7074 71.9199 16.1051 71.0002 16.1051C69.623 16.1051 68.6735 15.2152 68.6188 13.5795H74.1621V13.0824C74.1621 10.2386 72.4718 9.2642 70.8809 9.2642C68.8127 9.2642 67.4405 10.8949 67.4405 13.2415C67.4405 15.5881 68.7928 17.1591 71.0002 17.1591ZM68.6188 12.5653C68.6983 11.3771 69.5385 10.3182 70.8809 10.3182C72.1536 10.3182 72.9689 11.2727 72.9689 12.5653H68.6188ZM88.2367 10C87.8588 7.91193 86.1884 6.67898 84.1401 6.67898C81.535 6.67898 79.6458 8.6875 79.6458 11.9091C79.6458 15.1307 81.535 17.1392 84.1401 17.1392C86.1884 17.1392 87.8588 15.9062 88.2367 13.8182H87.0037C86.7054 15.2301 85.4924 15.9858 84.1401 15.9858C82.2907 15.9858 80.839 14.554 80.839 11.9091C80.839 9.2642 82.2907 7.83239 84.1401 7.83239C85.4924 7.83239 86.7054 8.58807 87.0037 10H88.2367ZM90.07 17H91.2433V12.1676C91.2433 11.1335 92.0586 10.3778 93.1722 10.3778C93.4854 10.3778 93.8086 10.4375 93.8881 10.4574V9.2642C93.7539 9.25426 93.4457 9.24432 93.2717 9.24432C92.3569 9.24432 91.5614 9.76136 91.283 10.517H91.2035V9.36364H90.07V17ZM96.267 19.8636C97.326 19.8636 98.0717 19.3018 98.5142 18.1136L101.766 9.38352L100.483 9.36364L98.375 15.4489H98.2955L96.1875 9.36364H94.9148L97.7386 17.0398L97.5199 17.6364C97.0923 18.7997 96.5653 18.9091 95.7102 18.6903L95.4119 19.7244C95.5312 19.7841 95.8693 19.8636 96.267 19.8636ZM103.318 19.8636H104.491V15.8267H104.591C104.849 16.2443 105.346 17.1591 106.818 17.1591C108.727 17.1591 110.059 15.6278 110.059 13.2017C110.059 10.7955 108.727 9.2642 106.798 9.2642C105.307 9.2642 104.849 10.179 104.591 10.5767H104.452V9.36364H103.318V19.8636ZM104.471 13.1818C104.471 11.4716 105.227 10.3182 106.659 10.3182C108.15 10.3182 108.886 11.571 108.886 13.1818C108.886 14.8125 108.131 16.1051 106.659 16.1051C105.247 16.1051 104.471 14.9119 104.471 13.1818ZM115.17 9.36364H113.54V7.53409H112.366V9.36364H111.213V10.358H112.366V15.1307C112.366 16.4631 113.44 17.0994 114.434 17.0994C114.872 17.0994 115.15 17.0199 115.309 16.9602L115.071 15.9062C114.971 15.9261 114.812 15.9659 114.554 15.9659C114.037 15.9659 113.54 15.8068 113.54 14.8125V10.358H115.17V9.36364ZM119.955 17.1591C122.024 17.1591 123.416 15.5881 123.416 13.2216C123.416 10.8352 122.024 9.2642 119.955 9.2642C117.887 9.2642 116.495 10.8352 116.495 13.2216C116.495 15.5881 117.887 17.1591 119.955 17.1591ZM119.955 16.1051C118.384 16.1051 117.669 14.7528 117.669 13.2216C117.669 11.6903 118.384 10.3182 119.955 10.3182C121.526 10.3182 122.242 11.6903 122.242 13.2216C122.242 14.7528 121.526 16.1051 119.955 16.1051ZM132.315 12.3447L130.36 9.60352H128.897L131.652 13.2607L128.822 17H130.299L132.343 14.1836L134.387 17H135.85L133.02 13.2607L135.774 9.60352H134.291L132.315 12.3447ZM148.154 13.9375H146.507C146.479 14.2383 146.42 14.5049 146.329 14.7373C146.238 14.9697 146.117 15.1634 145.967 15.3184C145.812 15.4779 145.625 15.5986 145.406 15.6807C145.188 15.7627 144.937 15.8037 144.654 15.8037C144.417 15.8037 144.205 15.7718 144.019 15.708C143.836 15.6396 143.674 15.5417 143.533 15.4141C143.396 15.2956 143.278 15.1543 143.178 14.9902C143.082 14.8262 143.002 14.6439 142.938 14.4434C142.856 14.2018 142.795 13.9352 142.754 13.6436C142.717 13.3519 142.699 13.0397 142.699 12.707V11.333C142.699 11.0641 142.713 10.8021 142.74 10.5469C142.772 10.2871 142.818 10.0433 142.877 9.81543C142.954 9.55566 143.052 9.32096 143.171 9.11133C143.294 8.89714 143.444 8.72168 143.622 8.58496C143.759 8.48014 143.911 8.39811 144.08 8.33887C144.253 8.27962 144.447 8.25 144.661 8.25C144.966 8.25 145.229 8.29557 145.447 8.38672C145.666 8.47331 145.851 8.60091 146.001 8.76953C146.147 8.93815 146.261 9.14323 146.343 9.38477C146.429 9.62174 146.486 9.88835 146.514 10.1846H148.154C148.104 9.68783 147.993 9.23665 147.819 8.83105C147.651 8.42546 147.418 8.0791 147.122 7.79199C146.83 7.50944 146.477 7.29069 146.062 7.13574C145.652 6.98079 145.185 6.90332 144.661 6.90332C144.274 6.90332 143.916 6.95573 143.588 7.06055C143.264 7.16536 142.968 7.3112 142.699 7.49805C142.417 7.70312 142.166 7.9515 141.947 8.24316C141.733 8.53027 141.558 8.85156 141.421 9.20703C141.293 9.52604 141.198 9.86556 141.134 10.2256C141.07 10.5856 141.038 10.9593 141.038 11.3467V12.707C141.038 13.1126 141.072 13.5023 141.141 13.876C141.209 14.2497 141.307 14.596 141.435 14.915C141.567 15.2386 141.729 15.5371 141.92 15.8105C142.116 16.0794 142.344 16.3096 142.604 16.501C142.872 16.7061 143.178 16.8656 143.52 16.9795C143.866 17.0889 144.244 17.1436 144.654 17.1436C145.156 17.1436 145.611 17.0684 146.021 16.918C146.436 16.763 146.794 16.5443 147.095 16.2617C147.391 15.9837 147.63 15.6488 147.812 15.2568C147.995 14.8604 148.109 14.4206 148.154 13.9375ZM157.99 12.6865V11.374C157.99 10.9593 157.953 10.5605 157.88 10.1777C157.808 9.79036 157.698 9.42806 157.552 9.09082C157.42 8.77637 157.256 8.48698 157.06 8.22266C156.864 7.95833 156.634 7.72819 156.37 7.53223C156.105 7.33626 155.807 7.18359 155.474 7.07422C155.142 6.96484 154.777 6.91016 154.38 6.91016C153.989 6.91016 153.629 6.96484 153.3 7.07422C152.977 7.17904 152.687 7.32943 152.432 7.52539C152.168 7.72591 151.938 7.96289 151.742 8.23633C151.55 8.50521 151.389 8.80143 151.256 9.125C151.12 9.46224 151.017 9.81999 150.949 10.1982C150.88 10.5765 150.846 10.9684 150.846 11.374V12.6865C150.846 13.0739 150.878 13.4521 150.942 13.8213C151.006 14.1859 151.099 14.5299 151.222 14.8535C151.354 15.1908 151.521 15.5007 151.721 15.7832C151.922 16.0658 152.154 16.3073 152.419 16.5078C152.678 16.7038 152.972 16.8587 153.3 16.9727C153.633 17.082 153.998 17.1367 154.394 17.1367C154.777 17.1367 155.13 17.0843 155.454 16.9795C155.777 16.8747 156.069 16.7311 156.329 16.5488C156.602 16.3483 156.844 16.109 157.053 15.8311C157.263 15.5485 157.438 15.2409 157.58 14.9082C157.712 14.5755 157.812 14.2223 157.88 13.8486C157.953 13.4749 157.99 13.0876 157.99 12.6865ZM156.336 11.3604V12.6865C156.336 12.9281 156.322 13.1696 156.295 13.4111C156.272 13.6527 156.231 13.8828 156.171 14.1016C156.108 14.3522 156.021 14.5824 155.912 14.792C155.807 14.9971 155.675 15.1748 155.515 15.3252C155.379 15.4574 155.214 15.5622 155.023 15.6396C154.836 15.7171 154.627 15.7559 154.394 15.7559C154.153 15.7559 153.938 15.7171 153.752 15.6396C153.569 15.5576 153.407 15.4482 153.266 15.3115C153.12 15.1657 152.995 14.988 152.89 14.7783C152.79 14.5641 152.71 14.334 152.651 14.0879C152.596 13.8691 152.558 13.6413 152.535 13.4043C152.512 13.1628 152.501 12.9235 152.501 12.6865V11.3604C152.501 11.1143 152.512 10.8704 152.535 10.6289C152.562 10.3828 152.603 10.1504 152.658 9.93164C152.717 9.67643 152.801 9.44629 152.911 9.24121C153.02 9.03158 153.155 8.85384 153.314 8.70801C153.446 8.5804 153.601 8.48242 153.779 8.41406C153.957 8.34115 154.157 8.30469 154.38 8.30469C154.613 8.30469 154.82 8.34115 155.003 8.41406C155.185 8.48698 155.347 8.58724 155.488 8.71484C155.647 8.86068 155.782 9.03841 155.891 9.24805C156.005 9.45312 156.096 9.68099 156.165 9.93164C156.224 10.1504 156.267 10.3805 156.295 10.6221C156.322 10.8636 156.336 11.1097 156.336 11.3604ZM162.999 7.04688H160.962V17H162.5V13.623L162.411 9.34375L163.799 13.9307H164.654L166.185 9.17969L166.089 13.623V17H167.634V7.04688H165.59L164.23 11.3057L162.999 7.04688ZM172.807 7.04688H170.77V17H172.308V13.623L172.22 9.34375L173.607 13.9307H174.462L175.993 9.17969L175.897 13.623V17H177.442V7.04688H175.398L174.038 11.3057L172.807 7.04688ZM187.141 7.04688H185.521L185.507 13.7051C185.498 14.015 185.457 14.2998 185.384 14.5596C185.311 14.8148 185.204 15.0358 185.063 15.2227C184.922 15.4049 184.746 15.5462 184.537 15.6465C184.331 15.7422 184.094 15.79 183.826 15.79C183.561 15.79 183.329 15.7422 183.128 15.6465C182.932 15.5462 182.766 15.4095 182.629 15.2363C182.488 15.054 182.381 14.833 182.308 14.5732C182.235 14.3089 182.196 14.0195 182.192 13.7051L182.178 7.04688H180.558L180.544 13.7051C180.549 14.2201 180.629 14.6895 180.784 15.1133C180.943 15.5371 181.166 15.8994 181.454 16.2002C181.736 16.501 182.078 16.7334 182.479 16.8975C182.88 17.057 183.329 17.1367 183.826 17.1367C184.331 17.1367 184.787 17.0547 185.193 16.8906C185.603 16.7266 185.954 16.4941 186.246 16.1934C186.533 15.8926 186.754 15.5326 186.909 15.1133C187.068 14.6895 187.148 14.2201 187.148 13.7051L187.141 7.04688ZM196.901 17V7.04688H195.247L195.233 13.8691L192.021 7.04688H190.353V17H192.014L192.021 10.1504L195.254 17H196.901ZM200.53 7.04688V8.40723H202.608V15.6465H200.53V17H206.395V15.6465H204.269V8.40723H206.395V7.04688H200.53ZM217.154 8.40723V7.04688H209.402V8.40723H212.45V17H214.084V8.40723H217.154ZM223.106 11.8047L221.014 7.04688H219.189L222.279 13.3975L222.286 17H223.892L223.906 13.4453L227.023 7.04688H225.191L223.106 11.8047Z" fill="#F4F6F8"/>
<path fill-rule="evenodd" clip-rule="evenodd" d="M7.52088 20C6.92112 20 6.32136 19.8477 5.78403 19.543C4.56881 18.8541 2.95205 17.9375 1.73686 17.2485C0.662092 16.6393 0 15.5131 0 14.2945L0 9.70554C0 8.48686 0.662092 7.36075 1.73686 6.75144C2.95205 6.06249 4.56881 5.14593 5.78403 4.45698C6.85876 3.84767 8.18288 3.84767 9.25772 4.45698C10.4729 5.14593 12.0896 6.06249 13.3048 6.75144C13.8258 7.04684 14.2499 7.46376 14.5486 7.95377L9.23759 11.0115C8.19179 11.6194 7.52579 12.7686 7.52088 13.9542L7.52088 20ZM15.0416 13.5055L15.0416 14.2945C15.0416 15.5131 14.3796 16.6393 13.3048 17.2485C12.0896 17.9375 10.4729 18.8541 9.25772 19.543C9.14451 19.6072 9.02845 19.6646 8.91038 19.7153L8.91038 18.29C8.91339 17.5805 9.30794 16.8961 9.9254 16.5304C11.4418 15.6491 12.9692 14.7862 14.4855 13.9046C14.6838 13.7873 14.8695 13.6533 15.0416 13.5055ZM15.013 9.26806C15.0319 9.412 15.0416 9.558 15.0416 9.70554L15.0416 10.5373C15.0379 11.4306 14.5405 12.2787 13.7728 12.7335C12.2564 13.6148 10.729 14.4778 9.21271 15.3591C9.10783 15.4212 9.00693 15.4887 8.91038 15.5609L8.91038 13.9569C8.91333 13.237 9.31737 12.5508 9.94293 12.1872L15.013 9.26806Z" fill="white"/>
</svg>
