<?xml version="1.0" encoding="utf-8"?>
<!-- Generator: Adobe Illustrator 27.0.0, SVG Export Plug-In . SVG Version: 6.00 Build 0)  -->
<svg version="1.1" id="Layer_1" xmlns="http://www.w3.org/2000/svg" xmlns:xlink="http://www.w3.org/1999/xlink" x="0px" y="0px"
	 viewBox="0 0 1006.5 149.1" style="enable-background:new 0 0 1006.5 149.1;" xml:space="preserve">
<style type="text/css">
	.st0{enable-background:new    ;}
</style>
<g class="st0">
	<path d="M20.8,84c-2.8,0-5.3-0.6-7.5-1.9c-2.3-1.2-4.1-2.9-5.5-4.9c-1.4-2.1-2.1-4.3-2.1-6.8v-5.4h14.3v4.8c0,0.3,0.1,0.6,0.4,0.8
		c0.3,0.2,0.6,0.3,0.9,0.3h46.8c0.4,0,0.7-0.1,0.9-0.3c0.3-0.2,0.4-0.5,0.4-0.8V56.5c0-0.3-0.1-0.6-0.4-0.8
		c-0.3-0.2-0.6-0.3-0.9-0.3H20.8c-2.8,0-5.3-0.6-7.5-1.9c-2.3-1.2-4.1-2.9-5.5-4.9c-1.4-2.1-2.1-4.3-2.1-6.9V27.3
		c0-2.5,0.7-4.7,2.1-6.8c1.4-2.1,3.2-3.7,5.5-4.9c2.3-1.2,4.8-1.9,7.5-1.9h48c2.8,0,5.3,0.6,7.5,1.9c2.3,1.2,4.1,2.9,5.5,4.9
		c1.4,2.1,2.1,4.3,2.1,6.8v5.4H69.5v-4.8c0-0.3-0.1-0.6-0.4-0.8c-0.3-0.2-0.6-0.3-0.9-0.3H21.4c-0.4,0-0.7,0.1-0.9,0.3
		c-0.3,0.2-0.4,0.5-0.4,0.8v13.4c0,0.3,0.1,0.6,0.4,0.8c0.3,0.2,0.6,0.3,0.9,0.3h47.4c2.8,0,5.3,0.6,7.5,1.9
		c2.3,1.2,4.1,2.9,5.5,4.9c1.4,2.1,2.1,4.3,2.1,6.9v14.5c0,2.5-0.7,4.7-2.1,6.8c-1.4,2.1-3.2,3.7-5.5,4.9c-2.3,1.2-4.8,1.9-7.5,1.9
		H20.8z"/>
	<path d="M113.9,84c-2.8,0-5.3-0.6-7.5-1.9c-2.3-1.2-4.1-2.9-5.5-4.9c-1.4-2.1-2.1-4.3-2.1-6.8V27.3c0-2.5,0.7-4.7,2.1-6.8
		c1.4-2.1,3.2-3.7,5.5-4.9c2.3-1.2,4.8-1.9,7.5-1.9h48c2.8,0,5.3,0.6,7.5,1.9c2.3,1.2,4.1,2.9,5.5,4.9c1.4,2.1,2.1,4.3,2.1,6.8v43.2
		c0,2.5-0.7,4.7-2.1,6.8c-1.4,2.1-3.2,3.7-5.5,4.9c-2.3,1.2-4.8,1.9-7.5,1.9H113.9z M114.4,71h46.7c0.4,0,0.7-0.1,1-0.3
		c0.3-0.2,0.4-0.5,0.4-0.8v-42c0-0.3-0.1-0.6-0.4-0.8c-0.3-0.2-0.6-0.3-1-0.3h-46.7c-0.4,0-0.7,0.1-0.9,0.3
		c-0.3,0.2-0.4,0.5-0.4,0.8v42c0,0.3,0.1,0.6,0.4,0.8C113.8,70.9,114.1,71,114.4,71z"/>
	<path d="M192.3,84V13.6h14.3V71h63.8v13H192.3z"/>
	<path d="M280.2,27.3c0-2.5,0.7-4.7,2.1-6.8c1.4-2.1,3.2-3.7,5.5-4.9c2.3-1.2,4.8-1.9,7.5-1.9h47.9c2.8,0,5.3,0.6,7.6,1.9
		c2.3,1.2,4.2,2.9,5.5,4.9c1.4,2.1,2.1,4.3,2.1,6.8V84H344V60.4h-49.4V84h-14.3V27.3z M344,47.5V27.9c0-0.3-0.1-0.6-0.4-0.8
		c-0.3-0.2-0.6-0.3-1-0.3h-46.7c-0.4,0-0.7,0.1-0.9,0.3c-0.3,0.2-0.4,0.5-0.4,0.8v19.6H344z"/>
	<path d="M374.1,84V13.8h63c2.8,0,5.3,0.6,7.6,1.9c2.3,1.2,4.2,2.9,5.5,4.9c1.4,2.1,2.1,4.3,2.1,6.8v19c0,2.5-0.7,4.8-2.1,6.8
		c-1.4,2.1-3.2,3.7-5.5,4.9c-2.3,1.2-4.9,1.8-7.6,1.8L388.4,60v24H374.1z M389.7,46.9h46.7c0.4,0,0.7-0.1,1-0.3
		c0.3-0.2,0.4-0.5,0.4-0.8v-18c0-0.3-0.1-0.6-0.4-0.8c-0.3-0.2-0.6-0.3-1-0.3h-46.7c-0.4,0-0.7,0.1-0.9,0.3
		c-0.3,0.2-0.4,0.5-0.4,0.8v18c0,0.3,0.1,0.6,0.4,0.8C389,46.8,389.3,46.9,389.7,46.9z M436.4,84l-23.6-25.3h18.8L452,80.4V84H436.4
		z"/>
	<path d="M481.7,84c-2.8,0-5.3-0.6-7.5-1.9c-2.3-1.2-4.1-2.9-5.5-4.9c-1.4-2.1-2.1-4.3-2.1-6.8v-5.4h14.3v4.8c0,0.3,0.1,0.6,0.4,0.8
		c0.3,0.2,0.6,0.3,0.9,0.3H529c0.4,0,0.7-0.1,0.9-0.3c0.3-0.2,0.4-0.5,0.4-0.8V56.5c0-0.3-0.1-0.6-0.4-0.8c-0.3-0.2-0.6-0.3-0.9-0.3
		h-47.3c-2.8,0-5.3-0.6-7.5-1.9c-2.3-1.2-4.1-2.9-5.5-4.9c-1.4-2.1-2.1-4.3-2.1-6.9V27.3c0-2.5,0.7-4.7,2.1-6.8
		c1.4-2.1,3.2-3.7,5.5-4.9c2.3-1.2,4.8-1.9,7.5-1.9h48c2.8,0,5.3,0.6,7.5,1.9c2.3,1.2,4.1,2.9,5.5,4.9c1.4,2.1,2.1,4.3,2.1,6.8v5.4
		h-14.4v-4.8c0-0.3-0.1-0.6-0.4-0.8c-0.3-0.2-0.6-0.3-0.9-0.3h-46.8c-0.4,0-0.7,0.1-0.9,0.3c-0.3,0.2-0.4,0.5-0.4,0.8v13.4
		c0,0.3,0.1,0.6,0.4,0.8c0.3,0.2,0.6,0.3,0.9,0.3h47.4c2.8,0,5.3,0.6,7.5,1.9c2.3,1.2,4.1,2.9,5.5,4.9c1.4,2.1,2.1,4.3,2.1,6.9v14.5
		c0,2.5-0.7,4.7-2.1,6.8c-1.4,2.1-3.2,3.7-5.5,4.9c-2.3,1.2-4.8,1.9-7.5,1.9H481.7z"/>
	<path d="M574.9,84c-2.8,0-5.3-0.6-7.5-1.9c-2.3-1.2-4.1-2.9-5.5-4.9c-1.4-2.1-2.1-4.3-2.1-6.8V27.3c0-2.5,0.7-4.7,2.1-6.8
		c1.4-2.1,3.2-3.7,5.5-4.9c2.3-1.2,4.8-1.9,7.5-1.9h62.9v13H578c-1.2,0-2.1,0.3-2.8,0.9c-0.7,0.6-1,1.4-1,2.5v37.5
		c0,1,0.3,1.9,1,2.5c0.7,0.6,1.6,0.9,2.8,0.9h59.8v13H574.9z"/>
	<path d="M667.2,84c-2.8,0-5.3-0.6-7.5-1.9c-2.3-1.2-4.1-2.9-5.5-4.9c-1.4-2.1-2.1-4.3-2.1-6.8V27.3c0-2.5,0.7-4.7,2.1-6.8
		c1.4-2.1,3.2-3.7,5.5-4.9c2.3-1.2,4.8-1.9,7.5-1.9h48c2.8,0,5.3,0.6,7.5,1.9c2.3,1.2,4.1,2.9,5.5,4.9c1.4,2.1,2.1,4.3,2.1,6.8v43.2
		c0,2.5-0.7,4.7-2.1,6.8c-1.4,2.1-3.2,3.7-5.5,4.9c-2.3,1.2-4.8,1.9-7.5,1.9H667.2z M667.8,71h46.7c0.4,0,0.7-0.1,1-0.3
		c0.3-0.2,0.4-0.5,0.4-0.8v-42c0-0.3-0.1-0.6-0.4-0.8c-0.3-0.2-0.6-0.3-1-0.3h-46.7c-0.4,0-0.7,0.1-0.9,0.3
		c-0.3,0.2-0.4,0.5-0.4,0.8v42c0,0.3,0.1,0.6,0.4,0.8C667.1,70.9,667.4,71,667.8,71z"/>
	<path d="M745.5,84V13.8h63c2.8,0,5.3,0.6,7.6,1.9c2.3,1.2,4.2,2.9,5.5,4.9c1.4,2.1,2.1,4.3,2.1,6.8v19c0,2.5-0.7,4.8-2.1,6.8
		c-1.4,2.1-3.2,3.7-5.5,4.9c-2.3,1.2-4.9,1.8-7.6,1.8L759.8,60v24H745.5z M761.1,46.9h46.7c0.4,0,0.7-0.1,1-0.3
		c0.3-0.2,0.4-0.5,0.4-0.8v-18c0-0.3-0.1-0.6-0.4-0.8c-0.3-0.2-0.6-0.3-1-0.3h-46.7c-0.4,0-0.7,0.1-0.9,0.3
		c-0.3,0.2-0.4,0.5-0.4,0.8v18c0,0.3,0.1,0.6,0.4,0.8C760.5,46.8,760.8,46.9,761.1,46.9z M807.8,84l-23.6-25.3H803l20.4,21.7V84
		H807.8z"/>
	<path d="M838.6,84V13.7h72v13H853v15.6h46.3v13.1H853V71h57.5v13H838.6z"/>
	<path d="M925,84V13.7h63c2.8,0,5.3,0.6,7.6,1.9c2.3,1.2,4.2,2.9,5.5,4.9c1.4,2.1,2.1,4.3,2.1,6.8v43.2c0,2.5-0.7,4.7-2.1,6.8
		c-1.4,2.1-3.2,3.7-5.5,4.9c-2.3,1.2-4.9,1.9-7.6,1.9H925z M940.5,71h46.8c0.4,0,0.7-0.1,1-0.3c0.3-0.2,0.4-0.5,0.4-0.8v-42
		c0-0.3-0.1-0.6-0.4-0.8c-0.3-0.2-0.6-0.3-1-0.3h-46.8c-0.4,0-0.7,0.1-0.9,0.3c-0.3,0.2-0.4,0.5-0.4,0.8v42c0,0.3,0.1,0.6,0.4,0.8
		C939.8,70.9,940.1,71,940.5,71z"/>
</g>
<g class="st0">
	<path d="M752.5,111.3c2.6,0,4.7,0.2,6.2,0.6c1.5,0.4,2.7,1.1,3.3,2.1s1,2.4,1,4.3c0,1.9-0.4,3.4-1.2,4.4c-0.8,1-2.2,1.6-4,1.7v0.2
		c2.3,0.2,3.9,0.9,4.8,2.1c0.9,1.2,1.4,2.9,1.4,5c0,1.8-0.4,3.3-1.1,4.3c-0.7,1-1.8,1.7-3.3,2.1c-1.5,0.4-3.4,0.6-5.8,0.6
		c-1.9,0-3.6,0-5,0c-1.4,0-2.7,0-4-0.1c-1.2-0.1-2.4-0.1-3.7-0.2l0.6-4.1c0.7,0,2,0.1,4,0.1c2,0,4.3,0,6.9,0c1.2,0,2.2-0.1,2.9-0.3
		c0.7-0.2,1.2-0.6,1.4-1.1c0.3-0.6,0.4-1.4,0.4-2.4c0-1.1-0.1-2-0.4-2.5c-0.3-0.6-0.8-1-1.5-1.2s-1.7-0.4-2.9-0.4h-10.8v-3.8h10.7
		c1.1,0,1.9-0.1,2.5-0.3c0.6-0.2,1.1-0.5,1.3-1c0.3-0.5,0.4-1.2,0.4-2.2c0-1-0.1-1.7-0.4-2.2c-0.3-0.5-0.7-0.8-1.4-1
		c-0.7-0.2-1.6-0.3-2.8-0.3c-1.6,0-3,0-4.3,0c-1.2,0-2.3,0-3.3,0c-1,0-1.9,0-2.7,0.1l-0.6-4.1c1.2-0.1,2.3-0.2,3.3-0.2
		c1.1,0,2.3-0.1,3.5-0.1C749.4,111.3,750.8,111.3,752.5,111.3z M747.7,111.6v26.8h-6.5v-26.8H747.7z"/>
</g>
<g class="st0">
	<path d="M792.7,111.6l-10.1,18.3h-6.2l-10.1-18.3h6.9l5,9.9c0.3,0.5,0.5,1.1,0.6,1.7c0.2,0.6,0.3,1.2,0.5,1.7h0.4
		c0.2-0.5,0.3-1.1,0.5-1.7c0.2-0.6,0.4-1.2,0.6-1.7l5-9.9H792.7z M782.8,126.3v12.1h-6.6v-12.1H782.8z"/>
</g>
<g class="st0">
	<path d="M812.6,111.5c1.5,0,3.1,0,4.7,0c1.6,0,3.2,0.1,4.7,0.1c1.5,0.1,3,0.2,4.3,0.3l-0.3,4.3h-10.8c-0.8,0-1.4,0.2-1.8,0.5
		c-0.4,0.3-0.6,0.8-0.6,1.5v20.3h-6.6V117c0-1.7,0.6-3,1.8-4C809.1,112,810.7,111.5,812.6,111.5z M806.9,122.9h17.4v4.2h-17.4V122.9
		z"/>
	<path d="M838.1,111.6v20.1c0,0.6,0.2,1.1,0.6,1.5c0.4,0.3,1,0.5,1.7,0.5h10.4l0.3,4.5c-2,0.2-4.2,0.3-6.4,0.4
		c-2.2,0-4.5,0.1-6.7,0.1c-2.2,0-3.8-0.5-4.9-1.6s-1.7-2.4-1.7-4v-21.4H838.1z"/>
	<path d="M862.6,111.6v26.8H856v-26.8H862.6z"/>
	<path d="M881.3,111.2c2.8,0,5,0.3,6.6,0.8c1.6,0.5,2.7,1.4,3.4,2.7c0.7,1.3,1,3,1,5.3c0,2.3-0.3,4.1-1,5.3
		c-0.6,1.3-1.7,2.2-3.2,2.7c-1.5,0.5-3.5,0.8-6,0.8c-1.3,0-2.6-0.1-3.9-0.2c-1.3-0.1-2.4-0.2-3.5-0.4c-1.1-0.2-2-0.3-2.8-0.5
		s-1.3-0.3-1.6-0.5l0.1-3c1.7,0,3.5,0,5.3,0c1.8,0,3.6,0,5.4,0c1.2,0,2.1-0.2,2.7-0.4c0.6-0.2,1.1-0.7,1.4-1.3
		c0.3-0.6,0.4-1.5,0.4-2.6c0-1.1-0.1-2-0.4-2.6c-0.3-0.6-0.7-1.1-1.4-1.3s-1.5-0.4-2.7-0.4c-2.7,0-4.9,0-6.8,0
		c-1.9,0-3.2,0.1-3.8,0.2l-0.6-4.3c1.2-0.1,2.3-0.2,3.4-0.3c1.1-0.1,2.2-0.1,3.5-0.1C878,111.2,879.5,111.2,881.3,111.2z
		 M876.5,111.6v26.8h-6.6v-26.8H876.5z"/>
	<path d="M907.7,111.1c1.5,0,3.1,0.1,4.8,0.2s3.4,0.4,5.1,0.9l-0.4,3.9c-1.3,0-2.8-0.1-4.5-0.1s-3.4,0-5,0c-0.8,0-1.5,0-2.1,0.1
		s-1,0.1-1.4,0.3c-0.3,0.2-0.6,0.4-0.7,0.8s-0.2,0.8-0.2,1.4c0,0.9,0.2,1.6,0.7,2c0.5,0.4,1.3,0.8,2.4,1.1l5.7,1.7
		c2.4,0.7,4,1.7,5,3c0.9,1.2,1.4,2.9,1.4,4.9c0,1.5-0.2,2.8-0.6,3.8c-0.4,1-1,1.8-1.9,2.4c-0.9,0.6-2,1-3.4,1.2
		c-1.4,0.2-3.1,0.4-5.2,0.4c-1,0-2.4-0.1-4.2-0.2s-3.9-0.4-6.2-0.9l0.4-4.2c1.7,0,3.2,0.1,4.4,0.1c1.3,0,2.3,0.1,3.2,0.1
		c0.9,0,1.7,0,2.3,0c1.2,0,2.1-0.1,2.7-0.2s1.1-0.4,1.4-0.8c0.3-0.4,0.4-0.9,0.4-1.7c0-0.6-0.1-1.1-0.3-1.5
		c-0.2-0.4-0.5-0.7-0.9-0.9s-1-0.4-1.7-0.6l-6.1-1.9c-2.3-0.8-3.9-1.7-4.8-3c-1-1.2-1.4-2.8-1.4-4.8c0-1.6,0.2-2.8,0.6-3.8
		c0.4-1,1.1-1.7,1.9-2.3c0.9-0.5,2-0.9,3.4-1.1S905.7,111.1,907.7,111.1z"/>
	<path d="M931,111.6v26.8h-6.6v-26.8H931z"/>
	<path d="M950,111.2c2.4,0,4.4,0.2,6,0.7c1.6,0.5,2.9,1.2,3.9,2.2c1,1,1.7,2.4,2.2,4.2c0.5,1.8,0.7,4,0.7,6.7c0,2.7-0.2,4.9-0.7,6.7
		c-0.5,1.8-1.2,3.2-2.2,4.2c-1,1-2.3,1.8-3.9,2.2s-3.6,0.7-6,0.7c-2.3,0-4.4,0-6.3-0.1c-1.9-0.1-3.7-0.2-5.4-0.3l2.8-4.4
		c1.1,0.1,2.4,0.1,3.9,0.1c1.5,0,3.2,0.1,5,0.1c1.5,0,2.6-0.3,3.5-0.8s1.5-1.5,1.8-2.8c0.4-1.3,0.5-3.2,0.5-5.6
		c0-2.4-0.2-4.3-0.5-5.6s-1-2.3-1.8-2.8c-0.8-0.5-2-0.8-3.5-0.8c-1.8,0-3.3,0-4.7,0c-1.4,0-2.7,0-4.1,0l-2.9-4.2
		c1.7-0.1,3.5-0.2,5.4-0.3C945.6,111.3,947.7,111.2,950,111.2z M944.9,111.6v26.8h-6.6v-26.8H944.9z"/>
	<path d="M975.2,111.5c1.6,0,3.2,0,4.9,0c1.6,0,3.3,0,4.8,0.1c1.6,0.1,3.1,0.1,4.5,0.3l-0.3,4.3h-11.5c-0.7,0-1.3,0.2-1.6,0.5
		c-0.4,0.3-0.5,0.8-0.5,1.5v13.7c0,0.6,0.2,1.1,0.5,1.5c0.4,0.3,0.9,0.5,1.6,0.5H989l0.3,4.3c-1.4,0.1-2.9,0.2-4.5,0.3
		c-1.6,0.1-3.2,0.1-4.8,0.1c-1.6,0-3.3,0-4.9,0c-1.9,0-3.4-0.5-4.6-1.5c-1.2-1-1.8-2.3-1.8-3.9v-16.3c0-1.6,0.6-2.9,1.8-3.9
		S973.3,111.5,975.2,111.5z M969.6,122.4h17.8v4.2h-17.8V122.4z"/>
</g>
</svg>
