<?xml version="1.0" encoding="utf-8"?>
<!-- Generator: Adobe Illustrator 24.1.0, SVG Export Plug-In . SVG Version: 6.00 Build 0)  -->
<svg version="1.1" id="Layer_1" xmlns="http://www.w3.org/2000/svg" xmlns:xlink="http://www.w3.org/1999/xlink" x="0px" y="0px"
	 viewBox="0 0 24 24" style="enable-background:new 0 0 24 24;" xml:space="preserve">
<style type="text/css">
	.st0{fill-rule:evenodd;clip-rule:evenodd;fill:#7D86C1;}
</style>
<path class="st0" d="M8.9,18.7c2.6,0,5-1,6.8-2.8s2.8-4.3,2.8-6.8V8.6c0.7-0.5,1.2-1.1,1.7-1.7c-0.6,0.3-1.3,0.4-1.9,0.5
	C19,7,19.6,6.3,19.8,5.5c-0.7,0.4-1.4,0.7-2.1,0.8c-1-1.1-2.7-1.4-4.1-0.7S11.5,8,11.9,9.5C9.2,9.3,6.6,8,4.9,5.9
	C4,7.5,4.5,9.4,6,10.4c-0.5,0-1-0.2-1.5-0.4v0c0,1.6,1.1,3,2.7,3.3c-0.5,0.1-1,0.2-1.5,0.1c0.4,1.4,1.7,2.3,3.1,2.3
	c-1.2,1-2.7,1.5-4.2,1.5c-0.3,0-0.5,0-0.8-0.1C5.3,18.2,7.1,18.7,8.9,18.7"/>
</svg>
