<?xml version="1.0" encoding="utf-8"?>
<!-- Generator: Adobe Illustrator 24.1.0, SVG Export Plug-In . SVG Version: 6.00 Build 0)  -->
<svg version="1.1" id="Layer_1" xmlns="http://www.w3.org/2000/svg" xmlns:xlink="http://www.w3.org/1999/xlink" x="0px" y="0px"
	 viewBox="0 0 19 19" style="enable-background:new 0 0 19 19;" xml:space="preserve">
<style type="text/css">
	.st0{fill-rule:evenodd;clip-rule:evenodd;fill:#FFFFFF;}
</style>
<path class="st0" d="M9.5,17.5c-0.6,0-1.2-0.2-1.7-0.5c-1.2-0.7-2.8-1.6-4-2.3C2.6,14.1,2,13,2,11.8V7.2c0-1.2,0.7-2.3,1.7-3
	c1.2-0.7,2.8-1.6,4-2.3c1.1-0.6,2.4-0.6,3.5,0c1.2,0.7,2.8,1.6,4,2.3c0.5,0.3,0.9,0.7,1.2,1.2l-5.3,3.1c-1,0.6-1.7,1.8-1.7,2.9V17.5
	z M17,11v0.8c0,1.2-0.7,2.3-1.7,3c-1.2,0.7-2.8,1.6-4,2.3c-0.1,0.1-0.2,0.1-0.3,0.2v-1.4c0-0.7,0.4-1.4,1-1.8c1.5-0.9,3-1.7,4.6-2.6
	C16.7,11.3,16.8,11.2,17,11z M17,6.8c0,0.1,0,0.3,0,0.4V8c0,0.9-0.5,1.7-1.3,2.2c-1.5,0.9-3,1.7-4.6,2.6c-0.1,0.1-0.2,0.1-0.3,0.2
	v-1.6c0-0.7,0.4-1.4,1-1.8L17,6.8z"/>
</svg>
