<?xml version="1.0" encoding="utf-8"?>
<!-- Generator: Adobe Illustrator 27.0.0, SVG Export Plug-In . SVG Version: 6.00 Build 0)  -->
<svg version="1.1" xmlns="http://www.w3.org/2000/svg" xmlns:xlink="http://www.w3.org/1999/xlink" x="0px" y="0px"
	 viewBox="0 0 637 157.1" style="enable-background:new 0 0 637 157.1;" xml:space="preserve">
<style type="text/css">
	.st0{display:none;}
	.st1{display:inline;}
	.st2{fill:#00EF8B;}
	.st3{fill:#FFFFFF;}
	.st4{fill:#16FF99;}
</style>
<g id="Layer_2" class="st0">
	<path class="st1" d="M206.9,74.6h-9.4v35.2h-13.2V74.6h-6.8V63.3h6.8v-4.4c0-11.4,7.1-17.2,17.9-17.2c1.7,0,3.4,0.2,5,0.6v13.2
		c-1.4-0.6-2.9-0.9-4.5-0.9c-2.6-0.2-4.9,1.8-5.2,4.4c0,0.2,0,0.5,0,0.7v3.5h9.4L206.9,74.6z M226.8,109.8h-13.3V42.6h13.3V109.8z"
		/>
	<path class="st1" d="M256.4,60.3c13.9,0,25.3,11.3,25.3,25.2s-11.3,25.3-25.2,25.3c-13.9,0-25.3-11.3-25.3-25.2v-0.1
		c-0.2-13.7,10.8-25,24.5-25.2C255.9,60.3,256.1,60.3,256.4,60.3z M256.4,97.9c6.8,0,11.7-5.6,11.7-12.4s-4.9-12.3-11.7-12.3
		c-6.8,0-11.8,5.5-11.8,12.3S249.7,97.9,256.4,97.9z"/>
	<path class="st1" d="M295.5,61.3l8.6,32.2l8.6-25.6l-2.3-6.6h13.1l11.2,32.2l8.4-32.2h13.7l-14.4,48.5h-13.8L319,83.2l-9,26.6
		h-13.9l-14.3-48.5L295.5,61.3z"/>
	<path class="st1" d="M365.8,92.7c5-0.1,9.1,3.8,9.2,8.8c0,0.1,0,0.3,0,0.4c0.1,4.9-3.8,8.9-8.7,9c-0.2,0-0.3,0-0.5,0
		c-4.8,0.1-8.9-3.7-9-8.5c0-0.2,0-0.3,0-0.5c-0.2-4.9,3.6-9,8.5-9.2C365.5,92.7,365.7,92.7,365.8,92.7z"/>
	<path class="st1" d="M417.9,108.6c-3.4,1.5-7.1,2.3-10.8,2.3c-15.5,0-25.8-11.2-25.8-25.5S391.6,60,407.1,60
		c3.7,0,7.4,0.8,10.8,2.3v14.2c-3.2-2.2-6.9-3.3-10.8-3.3c-6.8,0.2-12.2,5.9-12,12.7c0.2,6.6,5.5,11.9,12,12c3.9,0,7.6-1.2,10.8-3.5
		V108.6z"/>
	<path class="st1" d="M449.4,60.1c14,0,25.4,11.3,25.5,25.4s-11.3,25.4-25.4,25.5S424.1,99.7,424,85.6v-0.1
		c-0.2-13.8,10.8-25.2,24.6-25.4C448.9,60.1,449.1,60.1,449.4,60.1z M449.4,97.9c6.9,0,11.8-5.7,11.8-12.4s-4.9-12.3-11.8-12.3
		s-11.8,5.6-11.8,12.3S442.6,97.9,449.4,97.9z"/>
	<path class="st1" d="M496.4,66.9c2.7-4.3,7.4-6.9,12.4-6.8c6.9,0,12.3,3.1,15,8.8c2.3-5,7.1-8.8,14.4-8.8c9.4,0,16.8,7.4,16.8,17.9
		v31.8h-13.3v-28c0-5.5-3.1-8.7-7.8-8.7s-8.1,3.2-8.1,8.7v28h-13.3v-28c0-5.5-3.1-8.7-7.8-8.7s-7.8,2.9-8.1,8v28.7h-13.3V61.1h13.3
		v5.8H496.4z"/>
</g>
<g id="Layer_1">
	<circle class="st2" cx="78.5" cy="74.7" r="73.2"/>
	<rect x="90" y="63.3" class="st3" width="20.7" height="20.7"/>
	<path class="st3" d="M69.3,91.7c0,4.3-3.5,7.8-7.8,7.8s-7.8-3.5-7.8-7.8s3.5-7.8,7.8-7.8l0,0h7.8V63.3h-7.7
		c-15.7,0-28.4,12.7-28.4,28.4s12.7,28.4,28.4,28.4S90,107.4,90,91.7v-7.8H69.3V91.7z"/>
	<path class="st3" d="M97.7,52.9H121V32.3H97.7C82,32.3,69.3,45,69.3,60.7v2.6H90v-2.6C90,56.4,93.5,52.9,97.7,52.9z"/>
	<polygon class="st4" points="69.3,83.9 90,83.9 90,83.9 90,63.3 90,63.3 69.3,63.3 	"/>
	<path d="M204.6,61h-9.2v35.8h-12.9V61h-6.7V49.5h6.7V45c0-11.6,6.9-17.5,17.5-17.5c1.5,0,3.9,0.3,4.8,0.6v13.5
		c-1-0.5-2.9-0.9-4.4-0.9c-3.2,0-5,2.2-5,5.2v3.6h9.2V61z M224,96.8h-13V28.5h13V96.8z"/>
	<path d="M255,46.5c13.9,0,24.6,11.2,24.6,25.6c0,14.5-10.7,25.7-24.6,25.7c-13.9,0-24.6-11.3-24.6-25.7
		C230.4,57.7,241.1,46.5,255,46.5z M255,84.7c6.7,0,11.4-5.7,11.4-12.6c0-6.8-4.8-12.5-11.4-12.5c-6.6,0-11.5,5.6-11.5,12.5
		C243.5,79,248.4,84.7,255,84.7z"/>
	<path d="M294,47.5l8.4,32.8l8.4-26l-2.3-6.7h12.8l11,32.8l8.2-32.8h13.4l-14.1,49.3h-13.5l-9.4-27l-8.7,27h-13.6l-14-49.3H294z"/>
	<path d="M385.6,61.5c-2.9-1.9-7.1-3.3-10.4-3.3s-4.7,1.7-4.7,3.6c0,1.6,1,2.4,2.8,3.6l6.8,4.2c5.7,3.6,7.8,8.2,7.8,13.4
		c0,8.5-6.1,15-17.4,15c-4.3,0-9-1-12.4-2.5V82c2.2,2,7.6,4.4,11.4,4.4c3.3,0,4.9-1.6,4.9-3.7c0-1.6-0.9-2.9-3.1-4.3l-7.4-4.5
		c-4.9-3-6.8-7.8-6.8-12.7c0-8.7,6.5-14.8,17.6-14.8c3.5,0,7.8,0.7,10.8,1.7V61.5z"/>
	<path d="M429.4,95.5c-2.7,1.5-7.2,2.4-10.5,2.4c-15,0-25-11.3-25-25.7c0-14.6,10-25.6,25-25.6c3.1,0,7.8,0.9,10.5,2.3v14.3
		c-2.5-1.8-6.1-3.4-10.5-3.4c-6.9,0-11.9,5.6-11.9,12.5c0,6.8,4.9,12.6,11.9,12.6c4.3,0,8.1-1.6,10.5-3.5V95.5z"/>
	<path d="M459.2,46.5c13.9,0,24.6,11.2,24.6,25.6c0,14.5-10.7,25.7-24.6,25.7s-24.6-11.3-24.6-25.7
		C434.6,57.7,445.3,46.5,459.2,46.5z M459.2,84.7c6.7,0,11.4-5.7,11.4-12.6c0-6.8-4.8-12.5-11.4-12.5c-6.6,0-11.5,5.6-11.5,12.5
		C447.7,79,452.7,84.7,459.2,84.7z"/>
	<path d="M506.1,52.9c2.3-3.7,5.9-6.3,11.2-6.3c1,0,2.7,0.1,3.7,0.3v14.4c-1.8-0.9-4.1-1.5-6.9-1.5c-4.6,0-7.7,3.3-8,8.5v28.6h-12.9
		V47.5h12.9V52.9z"/>
	<path d="M537.5,76.4c1.1,5.6,5.9,9.3,12.5,9.3c5.9,0,11.8-1.8,16.1-4.7v13c-4.2,2.3-10.3,3.9-17.1,3.9c-14.1,0-24.4-10.4-24.4-25.7
		c0-14.5,10-25.6,23.7-25.6s22.1,10.7,22.1,23.5c0,2.1-0.4,4.9-0.8,6.4H537.5z M537.5,66.2h20.4c-0.2-5-4.3-8.5-9.8-8.5
		C542.4,57.7,538.2,61.6,537.5,66.2z"/>
	<path d="M612.7,90.5c-3.3,4.7-8.5,7.4-14.5,7.4c-13.4,0-22.4-11.3-22.4-25.7c0-14.5,9-25.6,22.5-25.6c6.1,0,11.1,2.7,14.4,7.3V28.5
		h12.9v68.3h-12.9V90.5z M600.9,59.8c-6.7,0-11.9,5.6-11.9,12.4c0,6.7,5.1,12.5,11.9,12.5c6.8,0,11.8-5.7,11.8-12.5
		C612.7,65.4,607.7,59.8,600.9,59.8z"/>
	<g>
		<path d="M445.8,141.6V111h4.1v30.6H445.8z M456.2,142c-1.6,0-3-0.4-4.3-1.2s-2.4-1.9-3.2-3.4s-1.2-3-1.2-4.8c0-0.1,0-0.1,0-0.1
			c0,0,0-0.1,0-0.1l2.4-0.1c0,0,0,0.1,0,0.1c0,0,0,0.1,0,0.1c0,1.1,0.3,2,0.8,2.9c0.5,0.9,1.2,1.5,2.1,2c0.9,0.5,1.8,0.7,2.7,0.7
			c1.6,0,2.9-0.6,4-1.7c1.1-1.1,1.6-2.9,1.6-5.3c0-2.4-0.5-4.1-1.6-5.3c-1.1-1.1-2.4-1.7-4.1-1.7c-1,0-1.9,0.2-2.7,0.7
			c-0.9,0.5-1.5,1.2-2.1,2c-0.5,0.8-0.8,1.8-0.8,2.9l-2.4-0.1c0-1.8,0.4-3.4,1.2-4.8c0.8-1.4,1.9-2.5,3.2-3.3s2.8-1.2,4.3-1.2
			c1.6,0,3.1,0.4,4.5,1.2c1.4,0.8,2.5,2,3.3,3.6c0.8,1.6,1.3,3.5,1.3,5.8c0,2.3-0.4,4.3-1.2,5.9s-1.9,2.8-3.3,3.7
			C459.4,141.6,457.9,142,456.2,142z"/>
		<path d="M469.3,150.4c-0.5,0-1,0-1.5-0.1c-0.4-0.1-0.7-0.1-0.8-0.2v-3.5c0.2,0.1,0.4,0.1,0.8,0.2c0.4,0.1,0.8,0.1,1.2,0.1
			c0.7,0,1.4-0.2,1.9-0.5c0.5-0.3,1-0.7,1.4-1.3c0.4-0.6,0.7-1.2,0.9-1.9l0.5-1.6l-6.9-20.9h4.2l5.1,17.6h-0.5l5-17.6h4.2l-7.2,22.3
			c-0.4,1.4-1,2.6-1.6,3.7c-0.6,1.1-1.5,2-2.6,2.6C472.4,150.1,471,150.4,469.3,150.4z"/>
		<path d="M499.5,141.6v-17.2h-4.3v-3.5h4.3v-2.3c0-1.1,0.1-2,0.4-2.9c0.3-0.8,0.6-1.6,1.1-2.2c0.5-0.6,1-1.1,1.6-1.5
			s1.3-0.7,2.1-0.9s1.5-0.3,2.4-0.3c0.7,0,1.2,0,1.6,0.1c0.4,0.1,0.6,0.2,0.8,0.2v3.5c-0.2-0.1-0.4-0.1-0.8-0.2
			c-0.4-0.1-0.8-0.1-1.2-0.1c-0.8,0-1.5,0.1-2,0.4c-0.5,0.2-0.9,0.6-1.2,1s-0.5,0.9-0.6,1.5c-0.1,0.6-0.2,1.2-0.2,1.8v1.8h5.7v3.5
			h-5.7v17.2H499.5z M516.9,111v30.6h-4V111H516.9z"/>
		<path d="M524.1,116.5c-0.7,0-1.3-0.2-1.8-0.6s-0.8-0.9-0.8-1.7c0-0.7,0.3-1.2,0.8-1.6s1.1-0.6,1.8-0.6c0.7,0,1.3,0.2,1.8,0.6
			s0.8,0.9,0.8,1.6c0,0.7-0.3,1.3-0.8,1.7S524.8,116.5,524.1,116.5z M522.1,141.6v-20.8h4v20.8H522.1z"/>
		<path d="M531.1,150.1v-29.3h4.1v29.3H531.1z M541.6,142c-1.6,0-3-0.4-4.3-1.2s-2.4-1.9-3.2-3.4s-1.2-3-1.2-4.8c0-0.1,0-0.1,0-0.1
			c0,0,0-0.1,0-0.1l2.4-0.1c0,0,0,0.1,0,0.1c0,0,0,0.1,0,0.1c0,1.1,0.3,2,0.8,2.9c0.5,0.9,1.2,1.5,2.1,2c0.9,0.5,1.8,0.7,2.7,0.7
			c1.6,0,2.9-0.6,4-1.7c1.1-1.1,1.6-2.9,1.6-5.3c0-2.4-0.5-4.1-1.6-5.3c-1.1-1.1-2.4-1.7-4.1-1.7c-1,0-1.9,0.2-2.7,0.7
			c-0.9,0.5-1.5,1.2-2.1,2c-0.5,0.8-0.8,1.8-0.8,2.9l-2.4-0.1c0-1.8,0.4-3.4,1.2-4.8c0.8-1.4,1.9-2.5,3.2-3.3s2.8-1.2,4.3-1.2
			c1.6,0,3.1,0.4,4.5,1.2c1.4,0.8,2.5,2,3.3,3.6c0.8,1.6,1.3,3.5,1.3,5.8c0,2.3-0.4,4.3-1.2,5.9s-1.9,2.8-3.3,3.7
			C544.8,141.6,543.3,142,541.6,142z"/>
		<path d="M562.7,142c-1.2,0-2.3-0.1-3.4-0.4c-1.1-0.3-2-0.7-2.8-1.2c-0.8-0.5-1.4-1.2-1.9-2c-0.4-0.8-0.7-1.7-0.7-2.7
			c0-0.1,0-0.2,0-0.3c0-0.1,0-0.2,0-0.2h4.1c0,0.1,0,0.1,0,0.2c0,0.1,0,0.1,0,0.2c0,1,0.4,1.7,1.3,2.2c0.8,0.5,2,0.7,3.4,0.7
			c0.9,0,1.6-0.1,2.3-0.3c0.7-0.2,1.3-0.5,1.7-0.8s0.6-0.9,0.6-1.4c0-1-0.4-1.6-1.3-2c-0.9-0.4-2.2-0.8-4.1-1.1
			c-1-0.2-1.9-0.4-2.9-0.7c-0.9-0.3-1.7-0.7-2.5-1.1c-0.7-0.5-1.3-1.1-1.7-1.8c-0.4-0.7-0.6-1.6-0.6-2.6c0-1.3,0.4-2.4,1.1-3.3
			s1.8-1.6,3-2.1c1.3-0.5,2.7-0.7,4.2-0.7c1.5,0,2.9,0.3,4.1,0.8c1.3,0.5,2.3,1.2,3.1,2.2c0.8,0.9,1.2,2.1,1.2,3.5
			c0,0.1,0,0.1,0,0.2s0,0.1,0,0.2h-4c0-0.1,0-0.1,0-0.1s0-0.1,0-0.1c0-0.7-0.2-1.2-0.6-1.7c-0.4-0.4-0.9-0.8-1.6-1
			c-0.7-0.2-1.4-0.3-2.1-0.3c-0.7,0-1.4,0.1-2,0.2s-1.2,0.4-1.7,0.8c-0.5,0.4-0.7,0.8-0.7,1.5c0,0.6,0.2,1.1,0.7,1.5
			c0.4,0.4,1.1,0.7,1.9,0.9s1.7,0.5,2.8,0.7c1,0.2,1.9,0.4,2.9,0.7s1.8,0.6,2.5,1.1c0.7,0.5,1.3,1,1.8,1.8s0.7,1.6,0.7,2.6
			c0,1.1-0.2,2-0.7,2.8s-1.1,1.4-1.9,1.9c-0.8,0.5-1.8,0.9-2.8,1.2S563.8,142,562.7,142z"/>
		<path d="M577.6,116.5c-0.7,0-1.3-0.2-1.8-0.6s-0.8-0.9-0.8-1.7c0-0.7,0.3-1.2,0.8-1.6s1.1-0.6,1.8-0.6c0.7,0,1.3,0.2,1.8,0.6
			s0.8,0.9,0.8,1.6c0,0.7-0.3,1.3-0.8,1.7S578.3,116.5,577.6,116.5z M575.6,141.6v-20.8h4v20.8H575.6z"/>
		<path d="M592.9,142c-1.6,0-3.1-0.4-4.5-1.2c-1.4-0.8-2.5-2-3.3-3.7c-0.8-1.6-1.2-3.6-1.2-5.9c0-2.3,0.4-4.2,1.3-5.8
			c0.8-1.6,1.9-2.8,3.3-3.6c1.4-0.8,2.9-1.2,4.5-1.2c1.6,0,3,0.4,4.3,1.2s2.4,1.9,3.2,3.3c0.8,1.4,1.2,3,1.2,4.8c0,0.1,0,0.1,0,0.1
			s0,0.1,0,0.1l-2.4,0.1c0,0,0-0.1,0-0.1s0-0.1,0-0.1c0-1.1-0.3-2-0.8-2.9c-0.5-0.8-1.2-1.5-2.1-2c-0.9-0.5-1.8-0.7-2.7-0.7
			c-1.6,0-3,0.6-4.1,1.7c-1.1,1.1-1.6,2.9-1.6,5.3c0,2.4,0.5,4.1,1.6,5.3c1.1,1.1,2.4,1.7,4,1.7c1,0,1.9-0.2,2.8-0.8
			c0.9-0.5,1.5-1.2,2-2.1c0.5-0.9,0.8-1.9,0.8-3l2.4,0.1c0,1.8-0.4,3.4-1.2,4.9c-0.8,1.4-1.8,2.6-3.2,3.4S594.5,142,592.9,142z
			 M599.3,141.6V111h4.1v30.6H599.3z"/>
		<path d="M609.7,132.7v-3.3h14.7l-0.6,1c0-0.1,0-0.2,0-0.2s0-0.2,0-0.2c0-1.1-0.2-2-0.7-2.9c-0.4-0.9-1.1-1.6-2-2.2
			c-0.9-0.5-2-0.8-3.3-0.8c-1.3,0-2.4,0.3-3.4,0.9c-1,0.6-1.7,1.4-2.3,2.5c-0.5,1.1-0.8,2.3-0.8,3.8c0,1.5,0.3,2.8,0.8,3.9
			c0.5,1.1,1.3,1.9,2.3,2.5c1,0.6,2.2,0.9,3.5,0.9c1,0,1.8-0.1,2.5-0.3c0.7-0.2,1.3-0.5,1.7-0.8c0.5-0.3,0.8-0.7,1-1.1
			c0.2-0.4,0.4-0.8,0.4-1.2h4.1c-0.1,0.8-0.3,1.7-0.8,2.5c-0.5,0.8-1.1,1.6-1.9,2.2c-0.8,0.7-1.8,1.2-3,1.6
			c-1.2,0.4-2.6,0.6-4.1,0.6c-2.1,0-3.9-0.5-5.5-1.4s-2.8-2.2-3.7-3.8s-1.3-3.5-1.3-5.6c0-2.1,0.4-4,1.3-5.6s2.1-2.9,3.7-3.8
			c1.6-0.9,3.4-1.4,5.4-1.4c2.1,0,3.9,0.5,5.4,1.4c1.5,0.9,2.7,2.2,3.5,3.8c0.8,1.6,1.2,3.4,1.2,5.5c0,0.2,0,0.5,0,0.9
			c0,0.3,0,0.5-0.1,0.7H609.7z"/>
	</g>
</g>
</svg>
