<?xml version="1.0" encoding="UTF-8"?><svg id="Layer_3" xmlns="http://www.w3.org/2000/svg" viewBox="0 0 78 66"><defs><style>.cls-1{stroke:#000;stroke-width:2px;}</style></defs><path class="cls-1" d="M30.43,32.92c-1.03-1.13-2.04-2.24-3.05-3.34-3.71-4.06-7.43-8.1-11.13-12.17-.67-.74-1.4-1.09-2.4-1.08-3.19,.03-6.38,.01-9.57,0-.44,0-.89-.02-1.3-.13-.98-.27-1.59-1.19-1.5-2.16,.09-.98,.85-1.84,1.86-1.85,3.7-.03,7.41-.09,11.1,.07,2.17,.09,3.91,1.29,5.38,2.9,4.12,4.53,8.26,9.04,12.39,13.55,.32,.35,.65,.7,1.04,1.12,.45-.48,.86-.93,1.27-1.38,3.98-4.36,7.97-8.7,11.93-13.08,1.96-2.16,4.35-3.25,7.28-3.22,4.21,.04,8.43,.01,12.64,.01,.36,0,.71,0,1.39,0-.48-.39-.73-.62-1-.82-2.68-1.92-5.36-3.84-8.05-5.75-.8-.57-1.15-1.33-.93-2.29,.2-.87,.79-1.46,1.67-1.52,.54-.04,1.19,.11,1.63,.42,4.79,3.37,9.56,6.78,14.32,10.2,1.45,1.04,1.45,2.6,0,3.64-4.76,3.42-9.53,6.83-14.31,10.22-1.14,.81-2.41,.64-3.11-.35-.71-1.02-.45-2.21,.71-3.04,2.62-1.88,5.24-3.75,7.86-5.63,.31-.23,.61-.47,1.09-.84-.53-.03-.84-.07-1.15-.07-4.29,0-8.58,.04-12.86-.02-1.67-.02-2.91,.53-4.03,1.78-4.2,4.7-8.49,9.32-12.74,13.98-.24,.27-.48,.54-.77,.88,.86,.95,1.69,1.86,2.52,2.78,3.79,4.14,7.58,8.26,11.35,12.42,.82,.9,1.78,1.41,2.97,1.41,4.83,.01,9.67,0,14.75,0-.38-.32-.59-.53-.83-.7-2.71-1.95-5.42-3.88-8.13-5.83-1.04-.75-1.31-1.79-.78-2.78,.47-.88,1.47-1.3,2.43-.99,.27,.09,.53,.24,.77,.41,4.75,3.38,9.49,6.75,14.22,10.15,1.45,1.04,1.47,2.6,.03,3.64-4.79,3.45-9.59,6.87-14.4,10.28-1.07,.76-2.33,.56-3.02-.39-.72-1.01-.47-2.21,.69-3.04,2.62-1.88,5.24-3.75,7.86-5.63,.32-.23,.64-.47,1.16-.86-.56-.03-.9-.07-1.24-.07-4.18,0-8.36-.02-12.53,0-3,.02-5.48-1.02-7.5-3.26-4.11-4.54-8.25-9.04-12.38-13.56-.25-.27-.5-.53-.83-.87-.3,.32-.57,.6-.84,.88-4.11,4.49-8.25,8.95-12.31,13.48-2.05,2.29-4.51,3.39-7.56,3.33-2.82-.05-5.64,0-8.47-.01-1.55,0-2.55-.86-2.53-2.13,.02-1.25,.96-2.04,2.48-2.04,3.23,0,6.45-.02,9.68,0,1.07,0,1.87-.37,2.59-1.17,4.46-4.91,8.95-9.79,13.43-14.68,.22-.24,.42-.49,.7-.81Z"/></svg>