<svg class="svg-icon" style="width: 1em; height: 1em;vertical-align: middle;fill: currentColor;overflow: hidden;" viewBox="0 0 1024 1024" version="1.1" xmlns="http://www.w3.org/2000/svg"><path d="M979.38285688 441.16571469a25.78285688 25.78285688 0 0 1 0.54857156 5.48571375v293.34857156a25.78285688 25.78285688 0 0 1-0.54857157 5.48571469v96.48c0 62.4-50.05714313 113.28-111.90857156 113.28H149.12a112.73142844 112.73142844 0 0 1-111.97714312-113.28V154.94857156C37.07428531 90.14857156 89.12 37.21142844 153.37142844 37.21142844h619.88571469c64.32 0 116.29714313 52.93714312 116.29714218 117.80571468v72.68571375h0.48c2.05714313 0 4.11428531 0.27428531 6.10285782 0.68571469a90.10285688 90.10285688 0 0 1 83.17714218 90.44571375v122.33142938z m-51.42857157 324.54857062H622.60571469c-57.05142844 0-129.94285688-80.64-129.94285781-176.02285687 0-86.53714313 75.42857156-168.68571469 129.94285781-168.68571375h305.34857062v-102.17142938a38.60571469 38.60571469 0 0 0-37.98857062-39.15428531 52.11428531 52.11428531 0 0 1-7.33714313-0.54857156H149.6c-24 0-44.43428531-5.48571469-61.02857156-15.22285688v578.05714313c0 34.21714312 27.22285688 61.85142844 60.54857156 61.85142843h718.35428531a61.23428531 61.23428531 0 0 0 60.48-61.85142843V765.71428531z m0-51.42857062V472.43428531H622.60571469c-25.02857156 0-78.51428531 58.21714312-78.51428625 117.25714313 0 68.09142844 51.08571469 124.59428531 78.51428625 124.59428625h305.34857062zM88.43428531 161.87428531a25.64571469 25.64571469 0 0 1 1.98857156 9.80571469c0 33.25714312 19.33714313 56.02285688 59.17714313 56.02285688h688.45714313v-72.68571375a65.62285687 65.62285687 0 0 0-64.73142844-66.37714313H153.37142844a65.69142844 65.69142844 0 0 0-64.86857157 66.44571469v6.85714219z m617.82857156 465.46285782a35.65714313 35.65714313 0 1 1 0.06857157-71.31428625 35.65714313 35.65714313 0 0 1 0 71.31428625z"  /></svg>