<?xml version="1.0" encoding="utf-8"?>
<!-- Generator: Adobe Illustrator 24.1.0, SVG Export Plug-In . SVG Version: 6.00 Build 0)  -->
<svg version="1.1" id="Layer_1" xmlns="http://www.w3.org/2000/svg" xmlns:xlink="http://www.w3.org/1999/xlink" x="0px" y="0px"
	 viewBox="0 0 667 41" style="enable-background:new 0 0 667 41;" xml:space="preserve">
<style type="text/css">
	.st0{fill:#FF0420;}
	.st1{fill:#494243;}
</style>
<g>
	<path class="st0" d="M17.9,36.4c-1.9,0-3.7-0.3-5.3-0.8c-1.6-0.5-3-1.3-4.1-2.3c-1.1-1-1.9-2.3-2.4-3.9c-0.5-1.5-0.5-3.3-0.2-5.4
		c0.2-1.3,0.5-2.6,0.8-3.9c0.3-1.3,0.6-2.6,0.9-4c1-4.1,2.8-7.2,5.4-9.3c2.6-2.1,6.1-3.2,10.5-3.2c1.9,0,3.7,0.3,5.3,0.8
		c1.6,0.5,3,1.3,4.1,2.4c1.1,1.1,1.9,2.4,2.4,3.9c0.5,1.5,0.5,3.3,0.2,5.4c-0.2,1.3-0.5,2.7-0.8,4c-0.3,1.3-0.6,2.6-0.9,3.9
		c-1,4.2-2.8,7.2-5.5,9.3C25.8,35.4,22.3,36.4,17.9,36.4z M18.5,29.8c1.6,0,3.1-0.5,4.3-1.5c1.2-1,2.1-2.5,2.6-4.6
		c0.3-1.3,0.6-2.6,0.9-3.8c0.3-1.2,0.5-2.4,0.7-3.7c0.4-2.1,0.2-3.7-0.5-4.6c-0.8-1-2-1.5-3.6-1.5s-3.1,0.5-4.3,1.5
		c-1.2,1-2.1,2.5-2.6,4.6c-0.3,1.3-0.6,2.5-0.9,3.7c-0.3,1.2-0.5,2.4-0.8,3.8c-0.4,2.1-0.2,3.7,0.5,4.6
		C15.6,29.4,16.8,29.8,18.5,29.8z"/>
	<path class="st0" d="M38.9,35.9c-0.3,0-0.5-0.1-0.7-0.3c-0.2-0.2-0.2-0.5-0.2-0.8l6.3-29.5c0.1-0.3,0.2-0.6,0.5-0.8
		c0.3-0.2,0.6-0.3,0.9-0.3h12.1c1.8,0,3.5,0.2,5,0.6s2.8,1.1,3.8,2c1,0.9,1.7,2,2.1,3.3c0.4,1.3,0.4,2.9,0,4.6
		c-0.8,3.5-2.3,6.1-4.6,7.7c-2.3,1.7-5.4,2.5-9.3,2.5h-6.1l-2.1,10c-0.1,0.3-0.2,0.6-0.5,0.8c-0.3,0.2-0.6,0.3-0.9,0.3H38.9z
		 M49.7,18.6H55c1.2,0,2.4-0.3,3.3-1c1-0.7,1.6-1.7,1.9-3c0.2-0.8,0.2-1.5,0.1-2.1c-0.1-0.6-0.4-1.1-0.9-1.5
		c-0.5-0.4-1.3-0.5-2.4-0.5h-5.5L49.7,18.6z"/>
	<path class="st0" d="M77.7,35.9c-0.3,0-0.6-0.1-0.8-0.3c-0.2-0.2-0.2-0.5-0.2-0.8l5-23.5h-8.1c-0.3,0-0.5-0.1-0.7-0.3
		c-0.2-0.2-0.2-0.5-0.2-0.8l1-4.9c0.1-0.3,0.2-0.6,0.5-0.8c0.3-0.2,0.6-0.3,0.9-0.3h24.5c0.3,0,0.6,0.1,0.8,0.3
		c0.2,0.2,0.2,0.5,0.2,0.8l-1,4.9c-0.1,0.3-0.2,0.6-0.5,0.8c-0.3,0.2-0.6,0.3-0.9,0.3H90l-5,23.5c-0.1,0.3-0.2,0.6-0.5,0.8
		c-0.3,0.2-0.6,0.3-0.9,0.3H77.7z"/>
	<path class="st0" d="M100.3,35.9c-0.3,0-0.6-0.1-0.8-0.3c-0.2-0.2-0.2-0.5-0.2-0.8l6.3-29.5c0.1-0.3,0.2-0.6,0.5-0.8
		c0.3-0.2,0.6-0.3,0.9-0.3h6.1c0.3,0,0.5,0.1,0.7,0.3c0.2,0.2,0.2,0.5,0.2,0.8l-6.3,29.5c-0.1,0.3-0.2,0.6-0.5,0.8
		c-0.3,0.2-0.5,0.3-0.8,0.3H100.3z"/>
	<path class="st0" d="M116.2,35.9c-0.3,0-0.6-0.1-0.8-0.3c-0.2-0.2-0.2-0.5-0.2-0.8l6.3-29.5c0.1-0.3,0.2-0.6,0.5-0.8
		c0.3-0.2,0.6-0.3,0.9-0.3h4.9c0.5,0,0.8,0.1,1,0.4c0.2,0.3,0.3,0.5,0.4,0.6l4.9,14.4l11.1-14.4c0.1-0.2,0.3-0.4,0.6-0.6
		c0.3-0.3,0.7-0.4,1.2-0.4h4.9c0.3,0,0.6,0.1,0.8,0.3c0.2,0.2,0.2,0.5,0.2,0.8l-6.3,29.5c-0.1,0.3-0.2,0.6-0.5,0.8
		c-0.3,0.2-0.6,0.3-0.9,0.3h-5.5c-0.3,0-0.5-0.1-0.7-0.3c-0.2-0.2-0.2-0.5-0.2-0.8l3.5-16.8l-7,9.2c-0.2,0.2-0.5,0.5-0.8,0.7
		c-0.3,0.2-0.6,0.3-1.1,0.3h-2.4c-0.4,0-0.7-0.1-0.9-0.3c-0.2-0.2-0.3-0.5-0.4-0.7l-3.2-9.6L123,34.8c-0.1,0.3-0.2,0.6-0.5,0.8
		c-0.3,0.2-0.5,0.3-0.8,0.3H116.2z"/>
	<path class="st0" d="M154.9,35.9c-0.3,0-0.6-0.1-0.8-0.3c-0.2-0.2-0.2-0.5-0.2-0.8l6.3-29.5c0.1-0.3,0.2-0.6,0.5-0.8
		c0.3-0.2,0.6-0.3,0.9-0.3h6.1c0.3,0,0.5,0.1,0.7,0.3c0.2,0.2,0.2,0.5,0.2,0.8l-6.3,29.5c-0.1,0.3-0.2,0.6-0.5,0.8
		c-0.3,0.2-0.5,0.3-0.8,0.3H154.9z"/>
	<path class="st0" d="M182,36.4c-3,0-5.5-0.4-7.4-1.3c-1.9-0.8-3.3-2-4.1-3.4c-0.8-1.4-1.1-2.9-0.9-4.5c0.1-0.2,0.2-0.5,0.4-0.7
		c0.2-0.2,0.4-0.3,0.7-0.3h5.8c0.4,0,0.7,0.1,0.9,0.2c0.2,0.2,0.4,0.3,0.5,0.6c0.1,0.5,0.4,0.9,0.7,1.3c0.4,0.4,0.9,0.8,1.5,1
		c0.7,0.3,1.5,0.4,2.4,0.4c1.8,0,3.2-0.3,4.2-0.8c1.1-0.5,1.7-1.3,1.9-2.2c0.2-0.7,0.1-1.2-0.3-1.7c-0.4-0.4-1.1-0.8-2.1-1.2
		c-1-0.3-2.4-0.7-4.1-1.1c-2.2-0.5-4-1.2-5.5-2c-1.4-0.9-2.4-2-3-3.3c-0.6-1.3-0.6-3-0.2-4.8c0.6-2.8,2.1-5,4.5-6.6
		c2.4-1.6,5.5-2.4,9.3-2.4c2,0,3.7,0.3,5.2,0.8c1.5,0.5,2.8,1.3,3.8,2.2c1,0.9,1.8,1.9,2.2,2.9c0.5,1,0.6,2,0.5,3
		c0,0.2-0.2,0.5-0.4,0.7c-0.2,0.2-0.5,0.3-0.7,0.3h-6.1c-0.3,0-0.6-0.1-0.8-0.2c-0.2-0.1-0.4-0.3-0.6-0.6c0-0.7-0.3-1.2-1-1.8
		c-0.7-0.5-1.6-0.8-2.8-0.8c-1.3,0-2.4,0.2-3.3,0.7c-0.9,0.5-1.4,1.2-1.6,2.2c-0.2,0.6-0.1,1.1,0.2,1.6c0.3,0.5,0.9,0.8,1.8,1.2
		c0.9,0.3,2.1,0.7,3.7,1c2.7,0.5,4.8,1.2,6.3,2.1c1.5,0.9,2.5,1.9,3.1,3.2c0.5,1.3,0.6,2.9,0.2,4.8c-0.7,3.1-2.3,5.4-4.8,7
		C189.6,35.6,186.2,36.4,182,36.4z"/>
	<path class="st0" d="M208.4,35.9c-0.3,0-0.6-0.1-0.8-0.3c-0.2-0.2-0.2-0.5-0.2-0.8l5-23.5h-8.1c-0.3,0-0.5-0.1-0.7-0.3
		c-0.2-0.2-0.2-0.5-0.2-0.8l1-4.9c0.1-0.3,0.2-0.6,0.5-0.8c0.3-0.2,0.6-0.3,0.9-0.3h24.5c0.3,0,0.6,0.1,0.8,0.3
		c0.2,0.2,0.2,0.5,0.2,0.8l-1,4.9c-0.1,0.3-0.2,0.6-0.5,0.8c-0.3,0.2-0.6,0.3-0.9,0.3h-8.1l-5,23.5c-0.1,0.3-0.2,0.6-0.5,0.8
		c-0.3,0.2-0.6,0.3-0.9,0.3H208.4z"/>
	<path class="st0" d="M231,35.9c-0.3,0-0.6-0.1-0.8-0.3c-0.2-0.2-0.2-0.5-0.2-0.8l6.3-29.5c0.1-0.3,0.2-0.6,0.5-0.8
		c0.3-0.2,0.6-0.3,0.9-0.3h6.1c0.3,0,0.5,0.1,0.7,0.3c0.2,0.2,0.2,0.5,0.2,0.8l-6.3,29.5c-0.1,0.3-0.2,0.6-0.5,0.8
		c-0.3,0.2-0.5,0.3-0.8,0.3H231z"/>
	<path class="st0" d="M259.3,36.4c-2.1,0-3.9-0.3-5.6-0.8c-1.7-0.5-3-1.3-4.1-2.3c-1.1-1-1.8-2.3-2.3-3.9c-0.4-1.5-0.5-3.3-0.1-5.3
		c0.2-1.2,0.5-2.6,0.8-4c0.3-1.4,0.6-2.8,0.9-4.1c0.7-2.6,1.7-4.9,3.1-6.7c1.4-1.8,3.2-3.2,5.3-4.2c2.1-1,4.7-1.4,7.6-1.4
		c1.9,0,3.7,0.2,5.4,0.7c1.7,0.5,3.1,1.2,4.2,2.2c1.2,1,2,2.1,2.5,3.5c0.5,1.3,0.6,2.9,0.3,4.6c-0.1,0.3-0.2,0.5-0.4,0.7
		c-0.2,0.2-0.4,0.3-0.7,0.3h-6.2c-0.4,0-0.7-0.1-0.9-0.2c-0.2-0.2-0.3-0.5-0.4-0.9c0-1.6-0.4-2.7-1.2-3.3c-0.8-0.6-2-0.9-3.4-0.9
		c-1.7,0-3.1,0.5-4.3,1.4c-1.2,0.9-2.1,2.5-2.6,4.6c-0.6,2.5-1.2,5-1.6,7.6c-0.4,2.2-0.2,3.7,0.5,4.6c0.8,0.9,2,1.4,3.6,1.4
		c1.4,0,2.7-0.3,3.8-0.9c1.1-0.6,2-1.7,2.8-3.3c0.2-0.5,0.5-0.8,0.7-0.9c0.2-0.2,0.6-0.2,1-0.2h6.2c0.3,0,0.5,0.1,0.6,0.3
		c0.2,0.2,0.2,0.4,0.1,0.7c-0.4,1.7-1.1,3.2-2,4.6c-0.9,1.3-2,2.5-3.4,3.5c-1.3,1-2.9,1.7-4.6,2.2C263.4,36.1,261.5,36.4,259.3,36.4
		z"/>
	<path class="st0" d="M302,36.4c-3,0-5.5-0.4-7.4-1.3c-1.9-0.8-3.3-2-4.1-3.4c-0.8-1.4-1.1-2.9-0.9-4.5c0.1-0.2,0.2-0.5,0.4-0.7
		c0.2-0.2,0.4-0.3,0.7-0.3h5.8c0.4,0,0.7,0.1,0.9,0.2c0.2,0.2,0.4,0.3,0.5,0.6c0.1,0.5,0.4,0.9,0.7,1.3c0.4,0.4,0.9,0.8,1.5,1
		c0.7,0.3,1.5,0.4,2.4,0.4c1.8,0,3.2-0.3,4.2-0.8c1.1-0.5,1.7-1.3,1.9-2.2c0.2-0.7,0.1-1.2-0.3-1.7c-0.4-0.4-1.1-0.8-2.1-1.2
		c-1-0.3-2.4-0.7-4.1-1.1c-2.2-0.5-4-1.2-5.5-2c-1.4-0.9-2.4-2-3-3.3c-0.6-1.3-0.6-3-0.2-4.8c0.6-2.8,2.1-5,4.5-6.6
		c2.4-1.6,5.5-2.4,9.3-2.4c2,0,3.7,0.3,5.2,0.8c1.5,0.5,2.8,1.3,3.8,2.2c1,0.9,1.8,1.9,2.2,2.9c0.5,1,0.6,2,0.5,3
		c0,0.2-0.2,0.5-0.4,0.7c-0.2,0.2-0.5,0.3-0.7,0.3h-6.1c-0.3,0-0.6-0.1-0.8-0.2c-0.2-0.1-0.4-0.3-0.6-0.6c0-0.7-0.3-1.2-1-1.8
		c-0.7-0.5-1.6-0.8-2.8-0.8c-1.3,0-2.4,0.2-3.3,0.7c-0.9,0.5-1.4,1.2-1.6,2.2c-0.2,0.6-0.1,1.1,0.2,1.6c0.3,0.5,0.9,0.8,1.8,1.2
		c0.9,0.3,2.1,0.7,3.7,1c2.7,0.5,4.8,1.2,6.3,2.1c1.5,0.9,2.5,1.9,3.1,3.2c0.5,1.3,0.6,2.9,0.2,4.8c-0.7,3.1-2.3,5.4-4.8,7
		C309.7,35.6,306.3,36.4,302,36.4z"/>
	<path class="st0" d="M334.4,36.4c-2.1,0-3.9-0.3-5.6-0.8c-1.7-0.5-3-1.3-4.1-2.3c-1.1-1-1.8-2.3-2.3-3.9c-0.4-1.5-0.5-3.3-0.1-5.3
		c0.2-1.2,0.5-2.6,0.8-4c0.3-1.4,0.6-2.8,0.9-4.1c0.7-2.6,1.7-4.9,3.1-6.7c1.4-1.8,3.2-3.2,5.3-4.2c2.1-1,4.7-1.4,7.6-1.4
		c1.9,0,3.7,0.2,5.4,0.7c1.7,0.5,3.1,1.2,4.2,2.2c1.2,1,2,2.1,2.5,3.5c0.5,1.3,0.6,2.9,0.3,4.6c-0.1,0.3-0.2,0.5-0.4,0.7
		c-0.2,0.2-0.4,0.3-0.7,0.3h-6.2c-0.4,0-0.7-0.1-0.9-0.2c-0.2-0.2-0.3-0.5-0.4-0.9c0-1.6-0.4-2.7-1.2-3.3c-0.8-0.6-2-0.9-3.4-0.9
		c-1.7,0-3.1,0.5-4.3,1.4c-1.2,0.9-2.1,2.5-2.6,4.6c-0.6,2.5-1.2,5-1.6,7.6c-0.4,2.2-0.2,3.7,0.5,4.6c0.8,0.9,2,1.4,3.6,1.4
		c1.4,0,2.7-0.3,3.8-0.9c1.1-0.6,2-1.7,2.8-3.3c0.2-0.5,0.5-0.8,0.7-0.9c0.2-0.2,0.6-0.2,1-0.2h6.2c0.3,0,0.5,0.1,0.6,0.3
		c0.2,0.2,0.2,0.4,0.1,0.7c-0.4,1.7-1.1,3.2-2,4.6c-0.9,1.3-2,2.5-3.4,3.5c-1.3,1-2.9,1.7-4.6,2.2C338.5,36.1,336.6,36.4,334.4,36.4
		z"/>
	<path class="st0" d="M367.3,36.4c-1.9,0-3.7-0.3-5.3-0.8c-1.6-0.5-3-1.3-4.1-2.3c-1.1-1-1.9-2.3-2.4-3.9c-0.5-1.5-0.5-3.3-0.2-5.4
		c0.2-1.3,0.5-2.6,0.8-3.9c0.3-1.3,0.6-2.6,0.9-4c1-4.1,2.8-7.2,5.4-9.3c2.6-2.1,6.1-3.2,10.5-3.2c1.9,0,3.7,0.3,5.3,0.8
		c1.6,0.5,3,1.3,4.1,2.4c1.1,1.1,1.9,2.4,2.4,3.9c0.5,1.5,0.5,3.3,0.2,5.4c-0.2,1.3-0.5,2.7-0.8,4c-0.3,1.3-0.6,2.6-0.9,3.9
		c-1,4.2-2.8,7.2-5.5,9.3C375.2,35.4,371.7,36.4,367.3,36.4z M367.9,29.8c1.6,0,3.1-0.5,4.3-1.5c1.2-1,2.1-2.5,2.6-4.6
		c0.3-1.3,0.6-2.6,0.9-3.8c0.3-1.2,0.5-2.4,0.7-3.7c0.4-2.1,0.2-3.7-0.5-4.6c-0.8-1-2-1.5-3.6-1.5s-3.1,0.5-4.3,1.5
		c-1.2,1-2.1,2.5-2.6,4.6c-0.3,1.3-0.6,2.5-0.9,3.7c-0.3,1.2-0.5,2.4-0.8,3.8c-0.4,2.1-0.2,3.7,0.5,4.6
		C365,29.4,366.2,29.8,367.9,29.8z"/>
	<path class="st0" d="M388.9,35.9c-0.3,0-0.6-0.1-0.8-0.3c-0.2-0.2-0.2-0.5-0.2-0.8l6.3-29.5c0.1-0.3,0.2-0.6,0.5-0.8
		c0.3-0.2,0.6-0.3,0.9-0.3h12.4c3.9,0,6.8,0.9,8.7,2.7c1.9,1.8,2.4,4.4,1.8,7.7c-0.5,2.2-1.4,4-2.7,5.5c-1.3,1.5-2.9,2.6-4.8,3.4
		l3.9,11.2c0,0.1,0,0.2,0,0.2c0,0.1,0,0.2,0,0.3c0,0.2-0.2,0.5-0.4,0.7c-0.2,0.2-0.5,0.3-0.8,0.3h-6c-0.6,0-1-0.1-1.2-0.4
		c-0.2-0.3-0.3-0.6-0.4-0.8l-3-10h-4.7l-2.1,10.1c-0.1,0.3-0.2,0.6-0.5,0.8c-0.3,0.2-0.6,0.3-0.9,0.3H388.9z M399.7,18.3h5.3
		c1.4,0,2.6-0.3,3.4-1c0.8-0.7,1.4-1.7,1.7-2.9c0.2-1.2,0.1-2.1-0.4-2.9c-0.5-0.7-1.5-1.1-3-1.1h-5.2L399.7,18.3z"/>
	<path class="st0" d="M420.8,35.9c-0.3,0-0.5-0.1-0.7-0.3c-0.2-0.2-0.2-0.5-0.2-0.8l6.3-29.5c0.1-0.3,0.2-0.6,0.5-0.8
		c0.3-0.2,0.6-0.3,0.9-0.3h21.2c0.3,0,0.6,0.1,0.8,0.3c0.2,0.2,0.2,0.5,0.2,0.8l-0.9,4.3c-0.1,0.3-0.2,0.6-0.5,0.8
		c-0.3,0.2-0.6,0.3-0.9,0.3h-14.5l-1.3,6.1H445c0.3,0,0.6,0.1,0.8,0.3c0.2,0.2,0.2,0.5,0.2,0.8l-0.9,4c-0.1,0.3-0.2,0.6-0.5,0.8
		c-0.3,0.2-0.6,0.3-0.9,0.3h-13.5l-1.3,6.3h14.8c0.3,0,0.6,0.1,0.8,0.3c0.2,0.2,0.2,0.5,0.2,0.8l-0.9,4.3c-0.1,0.3-0.2,0.6-0.5,0.8
		c-0.3,0.2-0.6,0.3-0.9,0.3H420.8z"/>
</g>
<g>
	<g>
		<path class="st1" d="M500.4,27.5c-0.1,0.6-0.2,1.2-0.4,1.7c-0.2,0.6-0.5,1.2-0.8,1.7c-0.3,0.5-0.8,0.9-1.2,1.3
			c-0.4,0.3-0.9,0.5-1.4,0.7c-0.5,0.2-1.1,0.3-1.7,0.3c-0.5,0-1.1-0.1-1.5-0.2c-0.5-0.1-0.9-0.3-1.4-0.6c-0.3-0.2-0.6-0.4-0.9-0.6
			c-0.3-0.2-0.5-0.5-0.7-0.8l-0.1,1.9h-1.5V12h1.6v8.2c0.2-0.3,0.5-0.6,0.8-0.9c0.3-0.3,0.6-0.5,1-0.7c0.4-0.2,0.8-0.4,1.2-0.5
			c0.4-0.1,0.9-0.2,1.4-0.2c0.7,0,1.3,0.1,1.8,0.3c0.6,0.2,1,0.5,1.5,0.8c0.4,0.3,0.8,0.7,1.1,1.2c0.3,0.4,0.6,0.9,0.8,1.5
			c0.2,0.6,0.4,1.2,0.5,1.8c0.1,0.6,0.2,1.3,0.2,2v0.3C500.6,26.3,500.5,26.9,500.4,27.5z M498.8,23.9c-0.1-0.5-0.2-0.9-0.3-1.4
			c-0.2-0.5-0.4-0.9-0.6-1.4c-0.3-0.4-0.6-0.8-1-1.1c-0.3-0.2-0.7-0.4-1.1-0.6c-0.4-0.1-0.9-0.2-1.4-0.2c-0.5,0-1,0.1-1.4,0.2
			c-0.4,0.1-0.8,0.3-1.2,0.6c-0.4,0.3-0.7,0.6-0.9,0.9c-0.3,0.4-0.5,0.7-0.6,1.2V29c0.2,0.4,0.4,0.8,0.7,1.1c0.3,0.3,0.6,0.6,1,0.8
			c0.4,0.2,0.7,0.4,1.2,0.5c0.4,0.1,0.9,0.2,1.3,0.2c0.5,0,1-0.1,1.4-0.2c0.4-0.1,0.8-0.4,1.1-0.6c0.4-0.3,0.7-0.6,0.9-1.1
			c0.3-0.4,0.5-0.9,0.6-1.4c0.1-0.4,0.2-0.9,0.3-1.4c0.1-0.5,0.1-0.9,0.1-1.4v-0.3C498.9,24.9,498.9,24.4,498.8,23.9z"/>
		<path class="st1" d="M505,38.7c-0.3,0-0.5-0.1-0.7-0.1l0.2-1.4c0.2,0,0.4,0,0.6,0.1c0.2,0,0.4,0,0.5,0c0.4,0,0.8-0.1,1.1-0.3
			c0.3-0.2,0.7-0.4,0.9-0.6c0.3-0.3,0.5-0.5,0.7-0.9s0.4-0.6,0.5-0.9l1-2.1l-6.6-14.3h1.8l5.1,11.2l0.5,1.3l0.5-1.3l4.8-11.2h1.8
			l-7.6,17.1c-0.2,0.4-0.4,0.9-0.7,1.3c-0.3,0.4-0.6,0.8-1,1.1c-0.4,0.3-0.8,0.6-1.3,0.8c-0.5,0.2-1,0.3-1.7,0.3
			C505.5,38.8,505.3,38.8,505,38.7z"/>
		<path class="st1" d="M539.5,23.6v9.2h-1.6V13.1h11.7v1.4h-10.1v7.7h8.8v1.4H539.5z"/>
		<path class="st1" d="M561.2,12v19.4h5v1.5h-11.8v-1.5h5.2v-18h-5.2V12H561.2z"/>
		<path class="st1" d="M577.5,18.2v13.2h5v1.5h-11.8v-1.5h5.2V19.6h-5.2v-1.5H577.5z M575.5,13.7c0-0.2,0.1-0.3,0.2-0.4
			c0.1-0.1,0.2-0.2,0.4-0.3c0.2-0.1,0.3-0.1,0.5-0.1c0.2,0,0.4,0,0.5,0.1c0.1,0.1,0.3,0.1,0.4,0.3c0.1,0.1,0.2,0.2,0.2,0.4
			c0.1,0.2,0.1,0.3,0.1,0.5c0,0.3-0.1,0.6-0.3,0.8s-0.5,0.4-0.9,0.4c-0.4,0-0.7-0.1-0.9-0.4c-0.2-0.2-0.3-0.5-0.3-0.8
			C575.4,14,575.5,13.8,575.5,13.7z"/>
		<path class="st1" d="M586.7,18.2h1.5l0.1,2c0.2-0.3,0.5-0.6,0.8-0.9c0.3-0.3,0.6-0.5,1-0.7c0.4-0.2,0.8-0.4,1.3-0.5
			c0.5-0.1,0.9-0.2,1.5-0.2c1,0,1.8,0.2,2.5,0.6c0.7,0.4,1.3,0.9,1.8,1.5c0.5,0.7,0.9,1.5,1.2,2.5c0.2,0.9,0.4,1.9,0.4,3v0.3
			c0,1-0.1,1.9-0.4,2.8c-0.2,0.9-0.6,1.7-1.1,2.4c-0.5,0.7-1.1,1.2-1.8,1.7c-0.7,0.4-1.6,0.6-2.6,0.6c-0.5,0-1-0.1-1.5-0.2
			c-0.5-0.1-0.9-0.3-1.3-0.5c-0.3-0.2-0.6-0.4-0.9-0.6c-0.3-0.2-0.5-0.5-0.8-0.8v7.4h-1.6V18.2z M596.6,23.1c-0.2-0.8-0.5-1.4-0.9-2
			c-0.4-0.5-0.8-0.9-1.4-1.2c-0.6-0.3-1.2-0.5-2-0.5c-0.5,0-0.9,0.1-1.3,0.2s-0.8,0.3-1.1,0.6c-0.4,0.2-0.7,0.5-0.9,0.9
			c-0.3,0.3-0.5,0.7-0.7,1.1v7.2c0.2,0.4,0.4,0.7,0.7,1c0.3,0.3,0.6,0.6,0.9,0.8c0.4,0.2,0.8,0.4,1.2,0.5c0.4,0.1,0.9,0.2,1.3,0.2
			c0.8,0,1.5-0.2,2.1-0.5s1-0.8,1.4-1.3c0.4-0.6,0.6-1.2,0.8-2c0.2-0.7,0.3-1.5,0.3-2.3v-0.3C596.9,24.6,596.8,23.8,596.6,23.1z"/>
		<path class="st1" d="M613,28c-0.2-0.3-0.5-0.6-0.8-0.8c-0.4-0.3-0.9-0.5-1.4-0.7c-0.6-0.2-1.1-0.3-1.7-0.5
			c-0.8-0.2-1.4-0.3-2.1-0.5c-0.6-0.2-1.2-0.5-1.8-0.8c-0.5-0.3-0.9-0.7-1.2-1.1c-0.3-0.5-0.5-1-0.5-1.7c0-0.6,0.2-1.2,0.5-1.7
			c0.3-0.5,0.7-0.9,1.3-1.3c0.5-0.3,1.1-0.6,1.7-0.8c0.7-0.2,1.4-0.3,2.1-0.3c0.8,0,1.5,0.1,2.2,0.3c0.7,0.2,1.3,0.5,1.8,0.8
			c0.5,0.4,0.9,0.8,1.2,1.4c0.3,0.5,0.5,1.2,0.5,1.9h-1.6c0-0.5-0.1-0.9-0.4-1.3c-0.2-0.4-0.6-0.7-0.9-0.9c-0.4-0.3-0.8-0.4-1.3-0.6
			c-0.5-0.1-1-0.2-1.5-0.2c-0.5,0-1,0.1-1.4,0.2c-0.5,0.1-0.9,0.3-1.2,0.5c-0.4,0.2-0.7,0.5-0.9,0.8c-0.2,0.3-0.3,0.7-0.3,1.1
			c0,0.4,0.1,0.8,0.3,1.1c0.2,0.3,0.5,0.6,0.9,0.8c0.4,0.2,0.8,0.4,1.4,0.6c0.5,0.1,1.1,0.3,1.7,0.4c0.7,0.2,1.5,0.3,2.1,0.6
			c0.7,0.2,1.3,0.5,1.8,0.8c0.5,0.3,0.9,0.7,1.2,1.2c0.3,0.5,0.4,1,0.4,1.7c0,0.6-0.1,1.2-0.4,1.7c-0.3,0.5-0.7,0.9-1.1,1.2
			c-0.6,0.4-1.2,0.7-2,0.9c-0.7,0.2-1.5,0.3-2.3,0.3c-0.8,0-1.6-0.1-2.4-0.3c-0.7-0.2-1.4-0.5-1.9-0.9c-0.6-0.4-1-0.8-1.3-1.4
			c-0.3-0.5-0.5-1.2-0.5-1.8h1.6c0.1,0.6,0.2,1.1,0.5,1.5c0.3,0.4,0.7,0.7,1.1,0.9c0.4,0.2,0.9,0.4,1.4,0.5c0.5,0.1,1,0.1,1.5,0.1
			c0.6,0,1.3-0.1,1.8-0.2c0.6-0.2,1.1-0.4,1.5-0.7c0.3-0.2,0.5-0.5,0.6-0.7c0.1-0.3,0.2-0.6,0.2-0.9C613.3,28.7,613.2,28.3,613,28z"
			/>
		<path class="st1" d="M626.5,18.2v13.2h5v1.5h-11.8v-1.5h5.2V19.6h-5.2v-1.5H626.5z M624.5,13.7c0-0.2,0.1-0.3,0.2-0.4
			c0.1-0.1,0.2-0.2,0.4-0.3c0.2-0.1,0.3-0.1,0.5-0.1c0.2,0,0.4,0,0.5,0.1c0.1,0.1,0.3,0.1,0.4,0.3c0.1,0.1,0.2,0.2,0.2,0.4
			c0.1,0.2,0.1,0.3,0.1,0.5c0,0.3-0.1,0.6-0.3,0.8s-0.5,0.4-0.9,0.4c-0.4,0-0.7-0.1-0.9-0.4c-0.2-0.2-0.3-0.5-0.3-0.8
			C624.4,14,624.5,13.8,624.5,13.7z"/>
		<path class="st1" d="M635.6,22.6c0.2-0.9,0.6-1.7,1.1-2.4c0.5-0.7,1.1-1.3,1.8-1.7c0.7-0.4,1.6-0.6,2.6-0.6c0.9,0,1.8,0.2,2.5,0.6
			c0.8,0.4,1.4,1,1.8,1.7V12h1.6v20.9h-1.5l-0.1-1.9c-0.5,0.7-1.2,1.2-1.9,1.6c-0.8,0.4-1.6,0.6-2.5,0.6c-1,0-1.8-0.2-2.5-0.6
			c-0.7-0.4-1.3-1-1.8-1.7c-0.5-0.7-0.8-1.5-1.1-2.4c-0.2-0.9-0.4-1.8-0.4-2.8v-0.3C635.2,24.4,635.3,23.5,635.6,22.6z M637.1,27.8
			c0.2,0.7,0.4,1.4,0.8,1.9c0.4,0.6,0.8,1,1.4,1.4c0.6,0.4,1.3,0.5,2.1,0.5c0.9,0,1.7-0.2,2.5-0.7c0.7-0.5,1.3-1.1,1.6-1.9v-7.1
			c-0.3-0.8-0.9-1.5-1.6-2c-0.7-0.5-1.5-0.8-2.5-0.8c-0.8,0-1.6,0.2-2.1,0.5c-0.6,0.4-1,0.8-1.4,1.4c-0.3,0.6-0.6,1.2-0.8,1.9
			c-0.2,0.7-0.2,1.4-0.2,2.2v0.3C636.8,26.4,636.9,27.1,637.1,27.8z"/>
		<path class="st1" d="M655.5,32.6c-0.8-0.4-1.6-0.9-2.2-1.5c-0.6-0.7-1.1-1.4-1.4-2.3c-0.3-0.9-0.5-1.8-0.5-2.8v-0.6
			c0-1,0.2-2,0.5-2.9c0.3-0.9,0.8-1.7,1.4-2.4c0.6-0.7,1.3-1.2,2.1-1.6c0.8-0.4,1.7-0.6,2.6-0.6c1,0,1.8,0.2,2.6,0.5
			c0.8,0.3,1.4,0.8,1.9,1.4c0.5,0.6,0.9,1.3,1.2,2.2c0.3,0.8,0.4,1.7,0.4,2.6v1h-11v0.4c0,0.8,0.2,1.5,0.4,2.2
			c0.3,0.7,0.6,1.3,1.1,1.8c0.5,0.5,1,0.9,1.7,1.3c0.6,0.3,1.4,0.5,2.2,0.5c0.9,0,1.7-0.2,2.5-0.5c0.7-0.3,1.4-0.8,1.9-1.5l1,0.8
			c-0.6,0.8-1.3,1.4-2.2,1.9c-0.9,0.5-2,0.7-3.2,0.7C657.3,33.1,656.3,33,655.5,32.6z M656.2,19.7c-0.6,0.2-1,0.6-1.5,1
			c-0.4,0.4-0.8,1-1,1.6c-0.3,0.6-0.5,1.3-0.6,2h9.3v-0.1c0-0.6-0.1-1.2-0.3-1.8c-0.2-0.6-0.5-1.1-0.9-1.5c-0.4-0.4-0.8-0.8-1.4-1.1
			c-0.5-0.3-1.2-0.4-1.9-0.4C657.3,19.3,656.7,19.4,656.2,19.7z"/>
	</g>
</g>
</svg>
