<?xml version="1.0" encoding="utf-8"?>
<!-- Generator: Adobe Illustrator 24.1.0, SVG Export Plug-In . SVG Version: 6.00 Build 0)  -->
<svg version="1.1" id="Layer_1" xmlns="http://www.w3.org/2000/svg" xmlns:xlink="http://www.w3.org/1999/xlink" x="0px" y="0px"
	 viewBox="0 0 300 300" style="enable-background:new 0 0 300 300;" xml:space="preserve">
<style type="text/css">
	.st0{fill:#E2D600;}
</style>
<g>
	<path class="st0" d="M234.9,281c-0.8,0-1.6-0.2-2.3-0.6L150,237l-82.6,43.4c-0.7,0.4-1.5,0.6-2.3,0.6c-1,0-2.1-0.3-2.9-1
		c-1.5-1.1-2.3-3-2-4.9l15.8-92L9.1,118c-1.4-1.3-1.9-3.3-1.3-5.1c0.6-1.8,2.2-3.1,4-3.4L104.2,96l41.3-83.7
		c0.8-1.7,2.6-2.8,4.5-2.8s3.6,1.1,4.5,2.8L195.8,96l92.4,13.4c1.9,0.3,3.4,1.6,4,3.4c0.6,1.8,0.1,3.8-1.3,5.1l-66.8,65.2l15.8,92
		c0.3,1.9-0.4,3.8-2,4.9C237,280.7,236,281,234.9,281z"/>
	<path class="st0" d="M150,14.6l42.5,86.1l95,13.8l-68.7,67l16.2,94.6L150,231.3L65.1,276l16.2-94.6l-68.7-67l95-13.8L150,14.6
		 M150,4.6c-3.8,0-7.3,2.2-9,5.6l-40.1,81.3l-89.8,13c-3.8,0.5-6.9,3.2-8.1,6.8c-1.2,3.6-0.2,7.6,2.5,10.3l65,63.3l-15.3,89.4
		c-0.6,3.8,0.9,7.5,4,9.8c1.7,1.3,3.8,1.9,5.9,1.9c1.6,0,3.2-0.4,4.7-1.1l80.3-42.2l80.3,42.2c1.5,0.8,3.1,1.1,4.7,1.1
		c2.1,0,4.1-0.6,5.9-1.9c3.1-2.2,4.6-6,4-9.8l-15.3-89.4l65-63.3c2.7-2.7,3.7-6.6,2.5-10.3c-1.2-3.6-4.3-6.3-8.1-6.8l-89.8-13
		L159,10.1C157.3,6.7,153.8,4.6,150,4.6L150,4.6z"/>
</g>
</svg>
